<?xml version="1.0" standalone="no"?>
<!DOCTYPE svg PUBLIC "-//W3C//DTD SVG 1.1//EN" "http://www.w3.org/Graphics/SVG/1.1/DTD/svg11.dtd" >
<svg xmlns="http://www.w3.org/2000/svg" xmlns:xlink="http://www.w3.org/1999/xlink" version="1.1">
<metadata></metadata>
<defs>
<font id="adventureregular" horiz-adv-x="1046" >
<font-face units-per-em="2048" ascent="1638" descent="-410" />
<missing-glyph horiz-adv-x="972" />
<glyph horiz-adv-x="0" />
<glyph horiz-adv-x="682" />
<glyph unicode=" "  horiz-adv-x="972" />
<glyph unicode="&#x09;" horiz-adv-x="972" />
<glyph unicode="&#xa0;" horiz-adv-x="972" />
<glyph unicode="!" horiz-adv-x="671" d="M100 51q10 66 40 102.5t104 36.5q45 0 55 -24.5t4 -71.5q-6 -49 -39 -89t-96 -40q-43 0 -58.5 17.5t-9.5 68.5zM248 348q0 8 20.5 67.5t51 146.5t68.5 192.5t75 205t66.5 182.5t45.5 128q29 78 48.5 115.5t38.5 54.5q12 10 23 18t42 15q12 2 27.5 2t33.5 2q9 -1 13 -19 q-20 -45 -41 -92q-16 -41 -35.5 -86t-34.5 -84q-16 -43 -27.5 -73.5t-21.5 -60.5t-22.5 -61.5t-28.5 -74.5q-78 -211 -140.5 -349.5t-97.5 -197.5q-37 -63 -71 -64q-37 0 -33 33z" />
<glyph unicode="&#x22;" horiz-adv-x="819" d="M313 1036q0 4 12.5 45t28 93.5t28.5 103.5t17 74q10 49 51.5 72.5t98.5 23.5q29 0 27.5 -7.5t-1.5 -19.5q0 -10 -9 -32.5t-21.5 -52t-26.5 -61.5t-26 -58q-31 -66 -56.5 -110t-66.5 -67q-8 -4 -20.5 -11t-22.5 -7q-14 0 -13 14zM559 1022q0 14 15.5 59t34 98.5 t34.5 101.5t23 71q14 49 53 72.5t96 23.5q29 0 28 -7.5t-1 -19.5q0 -10 -9.5 -32.5t-21.5 -51t-27.5 -59.5t-29.5 -57q-41 -78 -68 -118t-55 -69q-16 -16 -27.5 -20t-21.5 -4q-23 0 -23 12z" />
<glyph unicode="#" horiz-adv-x="1228" d="M20 446q2 45 48 66q23 10 52.5 12t57.5 4q23 2 31 1t20 -1q23 72 53.5 151t53.5 146q-41 2 -91 0t-79 -2q-35 0 -35 23q0 49 45 65q23 8 50.5 11.5t62.5 5.5h86q43 123 72.5 200.5t44.5 112.5q29 68 43 104.5t20 43.5q14 16 34.5 28.5t67.5 22.5q12 2 28.5 3t35.5 1 q10 0 11 -4t1 -15l-110 -262q-18 -43 -39 -100t-47 -131q70 0 122 1t93 2t76.5 1h72.5q37 104 59.5 164.5t38.5 99.5q14 35 23.5 58.5t15.5 40t12.5 27.5t12.5 22q16 23 37.5 34t66.5 17q12 2 24.5 3t29.5 1q16 0 19 -5.5t3 -13.5t-10 -33.5t-26.5 -62.5t-36 -80t-37.5 -86 q-23 -53 -41.5 -100t-28.5 -80l100 4q41 2 41 -16q-4 -20 -43 -45q-23 -16 -49.5 -26.5t-83.5 -12.5q-25 -76 -51.5 -152t-54.5 -153l133 6q20 2 29.5 -2t9.5 -21q0 -10 -9.5 -21t-31.5 -22q-18 -10 -43 -17t-54 -11q-25 -4 -40 -5.5t-31 -1.5q-16 -53 -36 -111.5 t-38 -121.5q-4 -18 -8 -35.5t-10 -46.5q-10 -41 -17.5 -65.5t-15.5 -42.5q-6 -16 -22.5 -36t-39 -38.5t-47 -30.5t-45.5 -12q-16 0 -29.5 4t-13.5 24q0 10 6 36t23 73q14 39 25.5 71.5t17.5 49.5q23 63 43 130.5t45 145.5q-27 -2 -55.5 -3t-61.5 -1q-51 -2 -87 -3t-62.5 -1 t-49 -1t-49.5 -1q-14 -41 -27.5 -85t-27.5 -91q-10 -41 -18 -82q-4 -23 -6.5 -36t-10.5 -32q-8 -16 -27.5 -42.5t-45 -52t-52 -44t-47.5 -18.5q-43 0 -43 28q0 12 7.5 38t23.5 71q8 27 22.5 68t30 89t30.5 96t30 89q-33 0 -75 -1t-65 -1q-37 0 -37 22zM391 530q68 0 119 1 t93 2.5t78 2.5t75 1q14 41 29.5 83t31.5 85q14 37 25.5 70.5t23.5 64.5q-94 0 -192.5 -4.5t-175.5 -6.5q-25 -72 -49.5 -143.5t-51.5 -142.5q-4 -4 -4 -6t-2 -7z" />
<glyph unicode="$" horiz-adv-x="1017" d="M-16 141q4 55 40.5 90t98.5 52q10 -72 38.5 -128.5t102.5 -84.5q72 201 127 359.5t103 287.5q-57 55 -92 98t-53.5 81t-24 71.5t-2.5 68.5q12 154 126.5 250t299.5 125q16 33 35.5 63.5t47.5 43.5q23 8 58 8q14 0 16 -8.5t2 -14.5t-5 -20.5t-11 -30.5q-8 -18 -14 -37 q43 -2 81.5 -13t68.5 -26.5t47.5 -31t17.5 -27.5q0 -47 -11.5 -70.5t-17.5 -34.5q-6 -8 -15.5 -20t-21.5 -22.5t-25.5 -18.5t-25.5 -8q4 59 -34 111.5t-99 68.5q-41 -121 -90.5 -255t-94.5 -263q80 -70 131.5 -122t81 -97t40 -87t8.5 -89q-6 -76 -46.5 -157t-113 -147.5 t-177 -109.5t-239.5 -43q-10 -20 -24.5 -44t-29 -44.5t-27.5 -34.5t-21 -14q-16 0 -30.5 6t-12.5 22q0 20 5 40l9 36q6 18 14 35q-45 4 -89 21.5t-78.5 42t-55 56t-18.5 66.5zM377 45q41 -4 103.5 -1t123 31.5t106.5 92t54 180.5q2 33 -13.5 69t-41 72.5t-57 71.5t-62.5 64 q-18 -53 -46 -129t-58.5 -157t-59.5 -160t-49 -134zM477 1066.5q2 -22.5 11.5 -45t26.5 -50t46 -64.5q39 106 65.5 176t44 116t28 75.5t20.5 58.5q-104 -10 -170 -66.5t-72 -148.5q-2 -29 0 -51.5z" />
<glyph unicode="%" horiz-adv-x="1382" d="M193 1028q6 72 50 140.5t144 146.5q59 47 109.5 63.5t62.5 20.5q27 12 57.5 16t53.5 4q59 0 93 -50t28 -138q-4 -66 -39 -133.5t-91.5 -122.5t-131 -90t-160.5 -35q-51 0 -86 15.5t-55.5 40t-29 56t-5.5 66.5zM197 8q2 16 34.5 61.5t65.5 90.5q4 6 37 53t83 121 t113.5 168t132 195.5t137 204t128 192.5t106.5 160.5t72 111.5q20 33 47 58.5t50.5 40t38.5 17.5t15 -5q-2 -37 -31.5 -76t-64.5 -98q-84 -139 -179 -284t-192.5 -288t-192.5 -281.5t-179 -265.5q-16 -27 -25.5 -40t-15.5 -22t-14.5 -18.5t-24.5 -29.5q-35 -41 -72 -59.5 t-57 -18.5q-12 0 -12 12zM338 1090q-2 -29 2 -57.5t16.5 -52.5t32 -39t47.5 -15q29 0 65 9t67.5 36.5t55 77t29.5 131.5q4 63 -14 100q-18 39 -51 39q-6 0 -19.5 1t-27.5 1q-61 0 -100.5 -30.5t-62 -69.5t-31.5 -78t-9 -53zM651 199q4 72 44 151.5t147 165.5q72 57 137 74.5 t129 17.5q59 0 95 -58.5t30 -146.5q-4 -66 -36 -134t-85 -123.5t-126 -90.5t-159 -35q-51 0 -85.5 15.5t-55 40t-29 56.5t-6.5 67zM797 260q-2 -29 2 -57.5t15 -52t30.5 -39t48.5 -15.5t62.5 15.5t63.5 48.5t51.5 79.5t25.5 112.5q6 96 -17.5 134t-64.5 38q-68 0 -109 -25.5 t-63.5 -64.5t-32.5 -85t-12 -89z" />
<glyph unicode="&#x26;" horiz-adv-x="1472" d="M63 244q0 66 30 123t74 106t98 88t103.5 70t87.5 50t52 30q-2 27 -2 53q-2 23 -2 51.5v56.5q0 96 53 200t132 189t170 139t167 54q51 0 83 -12t48.5 -32.5t21.5 -48.5t3 -58q-4 -53 -38 -110.5t-84 -115t-110.5 -112t-118 -99.5t-104.5 -77.5t-70 -49.5q10 -61 30 -131.5 t44.5 -136t50 -121t47.5 -86.5q86 84 135.5 148.5t75.5 111.5q29 53 39 97q-23 0 -35 -1.5t-21 -1.5t-18.5 -1t-21.5 -1q-27 0 -41 -1t-12 26q2 23 18.5 38t42 23.5t57 12.5t62.5 4l143 4q27 0 57.5 2t57.5 3t46.5 2t25.5 1q27 0 33 1t6 -7q-4 -37 -28 -56.5t-77 -29.5 q-31 -6 -78 -9t-75 -5q-16 -25 -49 -70t-81.5 -101.5t-106.5 -118t-126 -120.5q43 -59 106.5 -96t141.5 -37q68 0 117 13.5t83.5 31.5t59.5 37.5t43 34.5q8 6 15.5 7t15.5 1q6 0 6 -8q0 -6 -6 -18.5t-10 -16.5q-27 -23 -64 -53.5t-89 -58t-121 -46t-155 -18.5 q-59 0 -106 17.5t-82 41t-55.5 45t-24.5 29.5q-10 -6 -42 -28.5t-82 -47.5t-115.5 -45t-139.5 -20q-59 0 -111.5 14t-92 47t-63.5 82t-24 121zM211 291q0 -111 51 -171.5t148 -60.5q43 0 84 10.5t77.5 27t68 35t56.5 36.5q-41 68 -67.5 124t-46 110.5t-35 113.5t-33.5 133 q-35 -23 -86 -49.5t-99 -66t-83 -98t-35 -144.5zM641 873.5q0 -21.5 2 -37.5q2 -23 4 -41q61 43 127 91t120 104.5t90 121.5t42 141q8 115 -76 115q-72 0 -129 -39t-97 -102.5t-61.5 -145.5t-21.5 -168v-39.5z" />
<glyph unicode="'" horiz-adv-x="528" d="M152 1036q0 4 12 45t27.5 93.5t28.5 103.5t18 74q10 49 51 72.5t98 23.5q29 0 28 -7.5t-1 -19.5q0 -10 -9.5 -32.5t-21.5 -52t-26.5 -61.5t-26.5 -58q-31 -66 -56.5 -110t-66.5 -67q-8 -4 -20.5 -11t-22.5 -7q-14 0 -12 14z" />
<glyph unicode="(" horiz-adv-x="643" d="M86 215q18 256 94 471t183.5 381t233.5 279.5t245 164.5l14 -26q-86 -68 -186.5 -160t-189.5 -227t-154.5 -322.5t-83.5 -443.5q-6 -86 -3 -150.5t12 -114t24.5 -86t31.5 -67.5q-4 -16 -10 -33q-4 -14 -12.5 -28.5t-18.5 -24.5q-12 -12 -15 -20.5t-36 -8.5 q-25 0 -50.5 33t-45 89t-29.5 132t-4 162z" />
<glyph unicode=")" horiz-adv-x="694" d="M-184 -174q86 68 186 160t189.5 227t155 322.5t83.5 443.5q6 86 3 150.5t-12 113.5t-24.5 86t-31.5 68q4 16 10 33q10 33 31 53q6 6 8 11t6 9t12 6t25 2q25 0 50 -32.5t44.5 -89t30 -132t4.5 -161.5q-18 -256 -94 -471t-183.5 -381t-233.5 -280t-245 -165z" />
<glyph unicode="*" horiz-adv-x="755" d="M166 967q2 16 52 36.5t136 69.5q-33 27 -60.5 55.5t-49 55t-32.5 49t-9 41.5q0 14 9 32.5t22.5 35t31 27.5t35.5 11q20 0 29.5 -16t17.5 -33q16 -35 39 -63.5t49 -55.5q18 78 40 146.5t36 89.5q8 12 23.5 17t39.5 12q12 4 23.5 6t26.5 2q12 0 12 -9.5t-2 -17.5 q-14 -45 -29 -92q-12 -41 -28.5 -87t-30.5 -87q51 37 97 80t104 102q12 14 31.5 38t37.5 24q14 0 14 -23q0 -16 -9 -36.5t-24.5 -42t-34 -42t-34.5 -35.5q-45 -41 -88 -76.5t-92 -64.5q66 -45 120 -70.5t74 -44.5q-4 -16 -14 -33.5t-22.5 -32.5t-27.5 -25.5t-30 -10.5 q-23 0 -70 23.5t-96 54.5q-4 -23 -13 -47.5t-19 -52.5q-16 -39 -27.5 -49.5t-34.5 -10.5t-35 5t-18 12q14 61 26.5 102t24.5 88q-68 -37 -120 -59.5t-72 -22.5q-29 0 -29 25z" />
<glyph unicode="+" horiz-adv-x="921" d="M102 645q2 31 17.5 47.5t38 23.5t50.5 9t52 2h64q29 0 65.5 -1t75.5 -1q16 53 32.5 103.5t30.5 91.5q8 27 20.5 58.5t28 61t35 52t41.5 32.5q16 8 37 10.5t43 2.5q16 0 17 -31q0 -10 -5.5 -26.5t-16.5 -44t-28.5 -70.5t-40.5 -105q-14 -37 -25 -70.5t-22 -62.5h47 q27 0 67 2t79 3t67.5 2t34.5 1q27 0 34 -7t5 -15q-4 -53 -110 -74q-23 -4 -94.5 -6t-161.5 -4q-23 -55 -43.5 -125t-40.5 -129q-23 -63 -54.5 -98t-95.5 -35q-45 0 -45 28q0 12 9 38t23.5 59.5t30 71.5t31.5 79q4 8 9.5 26.5t11.5 37.5q8 23 16 45q-49 -2 -93 -2h-77h-72 q-14 0 -29.5 -2t-28.5 -1t-21.5 6t-8.5 17z" />
<glyph unicode="," horiz-adv-x="477" d="M-75.5 -452q1.5 3 1.5 14q0 8 16.5 20t39 29.5t47 40t45.5 51.5q29 41 41 88t16 92q2 31 -2 52.5t-9 41t-9.5 41t-1.5 50.5q2 27 19 45t34 32q33 27 48 35t32 8q29 0 43 -28.5t6 -122.5q-8 -106 -56.5 -196.5t-106.5 -156t-113.5 -102.5t-75.5 -37q-16 0 -14.5 3z" />
<glyph unicode="-" horiz-adv-x="663" d="M70 477l36 105h490l-33 -105h-493z" />
<glyph unicode="." horiz-adv-x="501" d="M147 25q0 66 31 115.5t115 49.5q61 0 61 -51q0 -29 -7 -59.5t-22.5 -56t-42 -42t-65.5 -16.5q-70 0 -70 60z" />
<glyph unicode="/" horiz-adv-x="727" d="M51 -190q0 12 32 91t84 200.5t119.5 274t139.5 311.5t142.5 312.5t128 276.5t97.5 204t50 95q12 6 29.5 11t29.5 5t14.5 -5t0.5 -13l-760 -1700q-14 -33 -43 -58.5t-45 -27.5q-10 0 -14.5 3t-4.5 20z" />
<glyph unicode="0" d="M47 295q0 78 36 196.5t102.5 250.5t158.5 264.5t205 234.5q98 92 171 127t111 41q74 33 152 33q47 0 78 -26.5t48 -68.5t24.5 -95.5t7.5 -106.5q0 -164 -79 -356.5t-206 -387.5q-150 -229 -300 -333.5t-288 -104.5q-72 0 -114.5 25.5t-66.5 69.5t-32 104.5t-8 132.5z M217 334q0 -127 36 -192.5t130 -65.5q33 0 78 16.5t92 49t94 80.5t88 112q45 70 87 168t75 202.5t53.5 206t20.5 179.5q0 94 -22.5 159.5t-92.5 65.5q-133 0 -244.5 -98.5t-230.5 -303.5q-33 -57 -62.5 -137t-52 -163t-36 -157.5t-13.5 -121.5z" />
<glyph unicode="1" d="M256 -25q0 18 20.5 73.5t51.5 156.5q33 104 80 243.5t104 296.5q25 68 52.5 143t54 147.5t52 139t44.5 115.5q2 8 -25.5 -4t-64.5 -28.5t-73 -32t-46 -15.5q-16 0 -19.5 6.5t-3.5 14.5q0 10 18.5 23.5t44 28.5t56.5 31.5t57 33.5q10 6 31 18t44.5 24.5t47 24.5t41.5 19 q18 6 43 9t47 3q16 0 19.5 -5.5t3.5 -15.5q0 -2 -11.5 -28.5t-28.5 -65.5t-36.5 -84t-34.5 -84q-31 -76 -62.5 -156.5t-59 -154.5t-49 -134.5t-33.5 -96.5q-10 -33 -25.5 -80t-32 -97.5t-32 -100.5t-25.5 -89q-2 -6 -6 -26.5t-10.5 -46t-12.5 -49t-10 -36.5 q-8 -27 -29.5 -58.5t-83.5 -70.5q-35 -20 -55 -20q-43 0 -43 28z" />
<glyph unicode="2" horiz-adv-x="1318" d="M98 18q0 12 35 55.5t96.5 108t146.5 145.5t187 167q51 43 126 108.5t144.5 148.5t122 184t60.5 216q4 63 -11.5 107.5t-43 71t-64.5 38.5t-76 12q-63 0 -120.5 -15t-102.5 -45t-72.5 -74t-29.5 -99q-2 -35 -21.5 -40t-36.5 -5q-25 0 -31 12t-6 45q0 51 47.5 102.5 t118 91.5t154.5 64.5t158 24.5q51 0 105 -8.5t98 -34t72 -72.5t28 -123q0 -80 -32 -155.5t-85 -147.5t-124 -140.5t-146 -133.5q-111 -94 -209.5 -183.5t-173 -161t-118.5 -119.5t-44 -57q86 16 178 34t215 28q59 4 122.5 4h115.5q18 0 42.5 -3t45 -11t35 -20.5t12.5 -33.5 q-2 -29 -28.5 -57.5t-63.5 -44.5q-37 16 -116 27.5t-169 11.5q-47 0 -112.5 -7t-125.5 -18q-70 -10 -145 -24q-25 -4 -52.5 -8t-56.5 -4q-49 0 -49 38z" />
<glyph unicode="3" d="M-35 53q0 25 11.5 43.5t27.5 30.5t32.5 18.5t29.5 6.5q6 -10 14 -24.5t25.5 -29t47 -23.5t78.5 -9q106 0 206 42t175.5 115.5t120.5 172t45 210.5q0 49 -8 82t-22.5 54.5t-32 35t-37.5 23.5q-12 6 -29.5 10t-34 7t-28 7t-11.5 11q0 12 12.5 26.5t30 28.5t36 27.5 t30.5 23.5q43 39 91 84t92 88t79 81t53 62q-16 -2 -60 -3t-105.5 -3t-138.5 -5t-158 -7q-16 0 -34 -3t-33 -3t-25.5 4t-10.5 16q2 31 26.5 53.5t60.5 39t74 24.5t69 8h206q27 0 67 1t78 3t66.5 3t34.5 1q27 0 40 -5.5t13 -32.5q0 -6 -24.5 -34t-63.5 -67t-87 -86t-95 -91 t-89 -83t-67 -61q117 -27 165 -101.5t38 -214.5q-6 -82 -47 -158.5t-98.5 -141t-120 -115t-111.5 -78.5q-78 -45 -143.5 -71t-120.5 -38t-101 -14t-83 -2q-59 0 -107.5 16.5t-48.5 44.5z" />
<glyph unicode="4" d="M74 500q2 14 27.5 43.5t41.5 48.5q66 72 142.5 160t173.5 217q45 63 87 129.5t75.5 128t56 114t31.5 86.5q14 16 41.5 31t54.5 15q10 0 24 -9q-12 -35 -38.5 -85t-58.5 -102t-65.5 -103.5t-60.5 -90.5q-49 -72 -114.5 -158.5t-124.5 -162.5q-70 -88 -144 -178q10 2 35 6 t56.5 8t67.5 9t71 9q33 4 70.5 7.5t70.5 7.5q37 4 76 8q37 94 73.5 192.5t68.5 181.5t56.5 140t34.5 70q16 18 30.5 28.5t37.5 20.5q16 6 35.5 8t40.5 2q14 0 12 -18q0 -4 -26.5 -55.5t-57.5 -129.5q-47 -117 -94 -230.5t-82 -205.5q35 0 56.5 -6t21.5 -33t-20.5 -48 t-33.5 -21h-18t-21 2q-12 0 -24 2q-16 -49 -44 -117t-50 -135q-14 -41 -27.5 -90.5t-20.5 -77.5q-2 -12 -8 -40t-16 -42t-27.5 -26.5t-36.5 -22.5q-16 -10 -32.5 -16.5t-28.5 -6.5q-23 0 -30 7.5t-7 23.5q2 23 24.5 84t51.5 141q16 45 27.5 74t22.5 58.5t26.5 70.5t40.5 111 q-41 -2 -97.5 -7.5t-121.5 -15.5q-43 -6 -88.5 -13t-85 -14.5t-70.5 -11.5t-49 -4q-16 0 -28.5 5t-10.5 26z" />
<glyph unicode="5" d="M-66 29q4 35 38 58.5t51 27.5q29 -49 78 -65.5t110 -16.5q82 0 177 40t176 110.5t134.5 166.5t53.5 207q0 233 -226 234q-27 0 -47 -4.5t-39 -8.5q-20 -10 -40.5 -21.5t-30.5 -11.5q-16 0 -26.5 2.5t-10.5 18.5t7 28.5t11 28.5q6 12 16.5 40t23.5 66t28.5 82t32.5 89 q37 102 79 227q-2 18 8.5 34.5t26.5 22.5q14 6 26.5 9.5t37.5 5.5q47 4 87 6t77.5 4t79.5 3t92 1h135h76q38 1 38 -22q-2 -12 -21 -38t-44 -48q-45 -39 -74 -39q-16 0 -25.5 10t-37.5 10q-18 0 -68.5 5t-99.5 5q-35 0 -76 -2t-78 -4q-43 -4 -88 -6l-133 -393q27 4 70 6t96 2 q27 0 76 -10t96 -43t83 -91.5t36 -152.5q0 -121 -64.5 -223.5t-162 -182t-210 -133t-208.5 -75.5q-41 -10 -89.5 -15.5t-101.5 -5.5q-78 0 -119 16.5t-37 45.5z" />
<glyph unicode="6" horiz-adv-x="1120" d="M72 313q0 152 52 289t140 256t205 218.5t247 175t264 124.5t259 70q8 2 16 0q15 -4 15 -29q-2 -12 -15 -20q-6 -4 -12 -4q-12 0 -80.5 -15.5t-163 -49.5t-197 -87t-184.5 -129q-68 -63 -135 -139t-121.5 -165t-88 -190.5t-33.5 -211.5q0 -47 8 -104.5t30.5 -108t63.5 -85 t107 -34.5q68 0 135 28.5t121.5 86t91.5 142.5t45 197q6 78 -14.5 129.5t-52.5 81t-69.5 41t-68.5 11.5q-41 0 -118 -18.5t-169 -90.5l-4 35q47 49 101.5 83t107.5 54t102.5 29.5t85.5 9.5q49 0 95.5 -13.5t83 -45t58 -84t21.5 -127.5q0 -92 -30.5 -177.5t-82.5 -159 t-121 -133t-142.5 -101.5t-147.5 -65.5t-139 -23.5q-72 0 -122 26.5t-82 74t-47 111t-15 138.5z" />
<glyph unicode="7" d="M154 41q0 41 35.5 121t101.5 178q33 51 67.5 100t74.5 101.5t87 111t107 125.5q61 72 118.5 144.5t103.5 138t77.5 118t38.5 83.5q-18 -4 -91 -6.5t-180 -6.5q-72 -2 -114.5 -5t-72.5 -5t-55.5 -3t-58.5 -1t-33 18q0 23 28 47.5t56 40.5q37 23 74 30t72 7h207l245 8 q16 0 23.5 1.5t17.5 1.5q25 -1 25 -21q0 -43 -21.5 -99.5t-62.5 -113.5q-63 -86 -161.5 -190.5t-207.5 -229.5q-121 -141 -199.5 -246.5t-117.5 -191.5q-16 -35 -26.5 -72t-10.5 -73q0 -14 2 -30t10 -24q16 -12 17 -24q0 -20 -51 -60q-18 -14 -37 -24t-35 -10q-53 0 -53 61z " />
<glyph unicode="8" horiz-adv-x="1120" d="M39 254q0 86 46 160.5t118.5 137t163 113t180.5 87.5q-18 18 -49 45.5t-59.5 65.5t-49 86t-20.5 108q0 98 47 168.5t118.5 114.5t156.5 64.5t163 20.5q143 0 232.5 -47.5t89.5 -160.5q0 -96 -55.5 -172t-128 -131.5t-140.5 -89t-92 -46.5q23 -20 57.5 -51t68.5 -71 t58.5 -88t24.5 -105q0 -131 -56.5 -228.5t-143.5 -162t-191.5 -97t-198.5 -32.5q-72 0 -133.5 18.5t-107.5 57t-72.5 97t-26.5 138.5zM205 303q0 -94 31.5 -149.5t74.5 -83t90.5 -34.5t77.5 -7q70 0 133.5 22.5t112.5 67.5t77.5 109.5t28.5 148.5q0 53 -26.5 104t-63 95.5 t-77.5 79t-68 55.5q-43 -23 -108.5 -52.5t-129 -78t-108.5 -116t-45 -161.5zM516 1135q0 -74 19.5 -124t49 -85t62.5 -60.5t62 -50.5q143 68 232 155t89 206q0 78 -47 131t-145 53q-70 0 -129.5 -16.5t-102.5 -46t-66.5 -71.5t-23.5 -91z" />
<glyph unicode="9" horiz-adv-x="1120" d="M6 6q0 8 5 12.5t9 8.5q6 4 13 4q12 0 78.5 14t161 50t201 94.5t200.5 148.5q123 121 198.5 225.5t118.5 220.5q-55 -59 -118.5 -99t-125 -65.5t-114.5 -37t-86 -11.5q-111 0 -184.5 68t-73.5 203q0 131 64.5 239.5t161.5 186.5t212 121t215 43q76 0 128 -25t83 -66 t44 -95t13 -113q0 -35 -5 -86.5t-20.5 -113t-44 -130t-73.5 -139.5q-113 -174 -241 -296t-262 -202t-269 -124t-258 -65q-8 -2 -17 0q-16 4 -14 29zM446 915q0 -78 20.5 -126t51.5 -73.5t67 -33.5t66 -8q59 0 158.5 40t208.5 156q12 53 20.5 109t8.5 115q0 125 -43 194.5 t-164 69.5q-53 0 -122 -29t-129.5 -85t-101.5 -139t-41 -190z" />
<glyph unicode=":" horiz-adv-x="477" d="M106 25q0 66 31 115.5t115 49.5q61 0 61 -51q0 -29 -7 -59.5t-22.5 -56t-42 -42t-65.5 -16.5q-70 0 -70 60zM258 725q0 66 30.5 116t114.5 50q62 0 62 -51q0 -29 -7 -59.5t-22.5 -56.5t-42 -42t-65.5 -16q-70 0 -70 59z" />
<glyph unicode=";" horiz-adv-x="477" d="M-75.5 -452q1.5 3 1.5 14q0 8 16.5 20t39 29.5t47 40t45.5 51.5q29 41 41 88t16 92q2 31 -2 52.5t-9 41t-9.5 41t-1.5 50.5q2 27 19 45t34 32q33 27 48 35t32 8q29 0 43 -28.5t6 -122.5q-8 -106 -56.5 -196.5t-106.5 -156t-113.5 -102.5t-75.5 -37q-16 0 -14.5 3z M258 725q0 66 30.5 116t114.5 50q62 0 62 -51q0 -29 -7 -59.5t-22.5 -56.5t-42 -42t-65.5 -16q-70 0 -70 59z" />
<glyph unicode="&#x3c;" horiz-adv-x="1050" d="M100 631l789 571q10 6 17 10.5t22 4.5q20 0 20 -31q0 -18 -23.5 -33.5t-45.5 -32.5l-633 -465q102 -78 200 -153q84 -66 181.5 -135.5t179.5 -116.5q-16 -29 -28.5 -59.5t-45.5 -30.5q-8 0 -38.5 20.5t-77 53t-102.5 74.5t-114 87q-135 102 -301 236z" />
<glyph unicode="=" horiz-adv-x="921" d="M145 645q4 51 45 66q41 16 113 16h318l186 8q39 3 39 -22q0 -55 -111 -74q-23 -4 -72 -6t-126 -4q-76 -2 -157 -1t-147 -3q-18 -2 -30.5 -2h-22.5q-35 0 -35 22zM170 358q0 47 47 66q41 16 111 16h247l187 9q41 4 41 -23q0 -18 -43 -39q-18 -10 -49 -18.5t-78 -18.5 q-18 -4 -56 -6t-98 -2h-52.5h-59t-58 -1t-49.5 -3q-18 -2 -29.5 -2h-23.5q-37 0 -37 22z" />
<glyph unicode="&#x3e;" horiz-adv-x="1005" d="M100 190q0 18 23.5 34t46.5 32l633 465q-102 78 -201 153q-43 33 -89 67t-93 66.5t-93 63.5t-85 55q8 14 14 31t14.5 30t18.5 21.5t26 8.5q6 0 38 -20.5t78 -53.5t102.5 -76t113.5 -86q135 -104 301 -236l-788 -571q-10 -6 -17.5 -10t-21.5 -4q-21 -1 -21 30z" />
<glyph unicode="?" horiz-adv-x="968" d="M139 23q0 66 31 115.5t115 49.5q61 0 61 -51q0 -29 -7 -59.5t-22.5 -56t-42 -42t-65.5 -16.5q-70 0 -70 60zM260 1098q2 41 38 98t99.5 110.5t149.5 91.5t190 38q43 0 90 -6.5t85 -29t60.5 -69.5t16.5 -127q-4 -68 -39 -134t-88 -133t-118.5 -131.5t-131.5 -125.5 q-55 -53 -94 -95t-62.5 -76t-33.5 -59.5t-12 -46.5q0 -12 -14.5 -26.5t-33 -26.5t-38 -20t-31.5 -8q-16 0 -12 22q2 23 12 45.5t35.5 56t70.5 84t119 129.5q45 49 95.5 100.5t93.5 108t71.5 122t34.5 145.5q10 129 -26.5 184t-106.5 55q-61 0 -119.5 -17.5t-103.5 -53 t-74 -92t-35 -134.5q-4 -35 -19.5 -36t-31.5 -1q-25 0 -32 12.5t-5 45.5z" />
<glyph unicode="@" horiz-adv-x="1818" d="M106 301q0 184 49.5 346t133.5 295t197.5 236.5t242.5 175t266.5 108.5t272.5 37q160 0 273.5 -36t186 -103.5t106.5 -164.5t34 -222q0 -143 -45 -271.5t-122 -235t-177.5 -189t-210.5 -138.5q-49 -25 -89 -37t-91 -12q-47 0 -64.5 42t-17.5 99q0 12 7 53.5t36 143.5 q-252 -326 -396 -330q-59 -2 -84.5 46.5t-21.5 113.5q12 221 225 432q190 188 375 215q16 0 63 8q25 4 41.5 5.5t24.5 3.5q47 0 47 -21q0 -18 -17.5 -32.5t-47.5 -14.5q-16 0 -51 4t-52 4q-25 0 -43 -4t-39 -14q-31 -14 -67.5 -42t-75.5 -68t-77 -89t-69 -104 q-35 -61 -52 -122t-21 -116q-6 -100 39 -100q27 0 80 43t133 141q41 51 72.5 96t56.5 92q8 18 18 46t21.5 57t22.5 53.5t24 38.5q25 29 52.5 43t74.5 18q12 0 14 -14q0 -6 -10.5 -31.5t-23.5 -61.5t-28.5 -77t-27.5 -78q-14 -47 -28.5 -97t-27 -95t-20.5 -82t-8 -55 q-2 -23 7 -43.5t38 -20.5q74 0 167 64.5t175 171t138.5 244t56.5 284.5q0 119 -31 215t-91.5 165t-151.5 105.5t-214 36.5q-127 0 -256 -36.5t-246.5 -107.5t-220 -175.5t-177.5 -239.5t-118 -301t-43 -358q0 -150 45 -265.5t125 -195.5t188.5 -121t233.5 -41 q119 0 234.5 39t217 102.5t185.5 140.5t141 154q16 23 39 27q20 0 21 -29q0 -8 -6.5 -18t-14.5 -21q-92 -104 -179 -187t-187.5 -139.5t-222 -87t-283.5 -30.5q-133 0 -252 47t-208 139t-141.5 228.5t-52.5 314.5z" />
<glyph unicode="A" horiz-adv-x="1208" d="M43 -4q0 23 29.5 79t69.5 122.5t82 133t69 111.5q-25 2 -48.5 -3t-70.5 -5q-53 0 -65.5 15.5t-12.5 46.5q0 47 43 65.5t109 20.5q32 0 68 1h24q24 0 49 -1q80 104 184.5 218.5t218 225.5t230.5 211t221 176q4 2 10 4q12 4 29 4q37 1 37 -32q0 -23 -33 -118t-84 -253 q-14 -41 -31.5 -94.5t-36 -110.5t-37 -117.5t-34.5 -115.5q25 -2 73 -2t83 -5q-18 -37 -63.5 -53t-113.5 -22q-16 -57 -30 -111q-12 -47 -26.5 -98t-24.5 -92q-23 -84 -52.5 -116t-70.5 -32q-25 0 -47.5 30t-46 72t-48 87t-51.5 73q-66 72 -124 93.5t-93 25.5 q-14 -23 -43 -67t-62.5 -97t-71.5 -108.5t-71 -100.5t-59.5 -74.5t-36.5 -31.5q-29 4 -35 9t-6 36zM438 578h15q63 74 141 163q66 76 157 177.5t199 218.5l-4 2q-121 -106 -255 -252t-253 -309zM532 571q48 2 102 2q40 0 83.5 -1t83.5 -1q54 0 102 2q29 92 71 219.5 t83 254.5q37 113 50 156t13 57q-31 -27 -89 -84.5t-135 -144.5t-170 -202.5t-194 -257.5zM653 483q37 -25 72 -51q29 -23 60.5 -52.5t52.5 -60.5q4 8 6 12.5t6 17.5t11.5 43t23.5 89q-41 0 -65.5 -1t-46 -1h-48.5t-72 4z" />
<glyph unicode="B" horiz-adv-x="1189" d="M145 4q0 12 5.5 30.5t11.5 39t13 40t11 29.5q-10 16 -18 31.5t-8 50.5q0 27 10 41.5t23.5 20.5t26.5 6h20q53 164 106 323q23 68 49.5 143t54 148.5t55 143t54.5 129.5q35 51 65.5 75.5t55.5 34.5q29 10 53 8q-16 -39 -41.5 -107.5t-56.5 -154.5t-64.5 -181t-64.5 -187 q-27 -74 -54.5 -161t-50.5 -161q-27 -88 -53 -174q16 -25 50 -49.5t75 -44t86 -32.5t86 -13q88 0 158.5 12t122 42t79 80t27.5 124q0 70 -25.5 121t-61.5 91t-76 70.5t-70 57.5q-49 43 -80 71.5t-31 67.5q0 29 15.5 50.5t37 39t44 30.5t38.5 23q98 66 164 129.5t66 149.5 q0 96 -55.5 138t-153.5 42q-129 0 -264.5 -50t-264.5 -179q-25 -25 -33 -48.5t-14 -43t-14 -31.5t-29 -12q-23 0 -40 5t-17 40q0 51 68.5 117.5t178 125t244 99.5t267.5 41q129 0 204.5 -46.5t75.5 -152.5q0 -43 -28.5 -86t-71.5 -84t-93 -78t-93 -67.5t-72 -55t-29 -39.5 q0 -25 26.5 -53.5t66.5 -62t87.5 -73.5t87 -84t66.5 -94t27 -104q0 -90 -47.5 -160.5t-126 -118.5t-180 -72.5t-212.5 -24.5q-55 0 -103 9t-88 22.5t-69.5 28.5t-46.5 26q-29 -37 -60.5 -59.5t-72.5 -22.5q-10 0 -19.5 5t-9.5 15z" />
<glyph unicode="C" horiz-adv-x="976" d="M102 279q0 104 19.5 206.5t73.5 233.5q90 221 221 378.5t289 254.5q72 43 137 64.5t119 21.5q25 0 49 -4t43.5 -16.5t33 -33t13.5 -53.5q0 -82 -74 -157q-8 -10 -25.5 -24.5t-38 -28t-43 -24t-40.5 -10.5q-12 0 -13 15q33 29 52.5 70.5t19.5 93.5q0 33 -25.5 45t-60.5 12 q-61 0 -130 -33t-135.5 -93t-127 -142t-106.5 -181.5t-72.5 -210t-26.5 -227.5q0 -172 62.5 -269t205.5 -97q98 0 184.5 34.5t153 76.5t110.5 77t58 35q16 0 10 -31q-2 -8 -34.5 -37.5t-91 -68.5t-137.5 -82t-171 -76q-53 -18 -110.5 -28.5t-108.5 -10.5q-121 0 -202 81 t-81 239z" />
<glyph unicode="D" horiz-adv-x="1622" d="M152 989q0 86 30.5 171t116.5 159q33 29 77 51.5t90 38.5t89 25.5t74 9.5q162 0 264 -26.5t182 -69.5q14 23 41 64.5t55.5 82.5t57 71.5t47.5 30.5q10 0 21.5 -1t11.5 -17q0 -20 -20.5 -52t-49.5 -75q-12 -20 -27.5 -43t-30 -42t-24.5 -34.5t-12 -21.5q94 -61 183 -139 t156.5 -174.5t108.5 -211t41 -249.5q0 -66 -30.5 -135.5t-82 -134t-115 -117t-130.5 -84.5q-84 -41 -163 -62.5t-156.5 -32t-157.5 -12.5t-166 -2h-75t-45 -1t-27.5 -1h-18.5q-23 0 -43.5 2t-20.5 18q0 10 38 69.5t83 160.5q88 199 167 368.5t142.5 303t108.5 224.5t66 128 q-33 20 -80 42.5t-103.5 41t-123 31t-140.5 12.5q-78 0 -141.5 -20.5t-100.5 -57.5q-27 -29 -41 -56.5t-21 -51t-8 -42t-1 -24.5q0 -29 15.5 -55.5t15.5 -49.5q0 -27 -25 -56.5t-47 -29.5q-25 0 -40 16.5t-15 59.5zM584 106q20 -2 49 -4q25 -2 63.5 -2h96.5q43 0 113 -2 q28 -1 58 -1q44 0 91 2q78 3 152.5 17.5t125.5 47.5q43 27 72 67.5t46 84.5t24.5 88t7.5 79q0 109 -31 210.5t-85 190.5t-130 164.5t-166 135.5q-33 -53 -77 -139.5t-92 -187.5t-97 -211.5t-92 -212t-78 -187.5t-51 -140z" />
<glyph unicode="E" horiz-adv-x="1118" d="M98 240q0 80 34 150.5t86 131t115.5 107.5t123 80.5t107.5 52t69 20.5q-23 10 -56.5 28.5t-64.5 47.5t-53.5 69t-22.5 93q0 94 55.5 178t146.5 146.5t208 98.5t239 36q31 0 62 -6.5t55.5 -18.5t39.5 -32.5t15 -49.5q0 -33 -13 -59.5t-33.5 -46t-45 -32.5t-47.5 -20l-12 7 q23 25 26 48t3 40q0 41 -44 68.5t-133 27.5q-92 0 -162.5 -28.5t-118.5 -74t-72.5 -101.5t-24.5 -111q0 -84 44 -132.5t96 -75t96 -39.5t44 -32q0 -25 -23.5 -45.5t-58.5 -26.5q-86 0 -175 -26.5t-159.5 -78.5t-115.5 -131t-45 -184q0 -61 16 -115t52 -94t92.5 -62.5 t136.5 -22.5q106 0 205.5 30.5t181.5 71.5t141 83t88 64l23 -28q-33 -29 -108 -78t-175 -98.5t-220 -85t-243 -35.5q-186 0 -280.5 77.5t-94.5 213.5z" />
<glyph unicode="F" horiz-adv-x="1060" d="M55 1106q0 14 52.5 44t138.5 66.5t197.5 74.5t230.5 69t235.5 51.5t214.5 20.5q76 0 117 -16.5t41 -57.5q0 -35 -24.5 -64.5t-58.5 -52t-73 -39t-65 -22.5l-6 14q47 27 59 49.5t12 44.5q0 53 -159 53q-29 0 -62 -3t-63.5 -8t-56 -9t-37.5 -6q-20 -76 -46 -170t-49 -178 q-27 -98 -55 -197q39 -2 78 -2h72.5t72.5 4q72 4 120 13.5t69 9.5q12 0 12 -7q0 -16 -23.5 -31.5t-62.5 -28.5t-87 -23.5t-99 -18.5q-14 -2 -36 -5t-48.5 -5t-53 -3t-51.5 -1q-55 -160 -112.5 -294t-109.5 -230.5t-99 -150.5t-82 -54q-47 0 -66.5 60t-19.5 142l14 2 q14 -16 34.5 -28.5t49.5 -12.5q16 0 41 14.5t57.5 70t71.5 166t86 305.5q-4 -2 -12 -3q-6 -2 -13.5 -2t-15.5 -2q-12 -2 -30.5 -7t-26.5 -5q-12 0 -13 12q0 23 25 50.5t43 37.5q29 18 72 21q33 117 63 219q12 43 25.5 88t25 85t20.5 73t13 53q-109 -25 -185.5 -49.5 t-128.5 -48t-85 -43t-53 -33.5q-18 -14 -28.5 -25.5t-29.5 -11.5q-16 0 -26.5 6t-10.5 29z" />
<glyph unicode="G" horiz-adv-x="1075" d="M90 315q0 117 39 246t106.5 254t158.5 237.5t192.5 198.5t209 136.5t210.5 50.5q20 0 43.5 -3t43 -15.5t32 -34t12.5 -58.5q0 -41 -17.5 -78t-41 -63.5t-48 -42t-39.5 -15.5q-12 0 -12 15q0 8 8 25.5t8 70.5q0 47 -29.5 65.5t-68.5 18.5q-78 0 -154.5 -37t-145.5 -101.5 t-128 -150.5t-105.5 -185t-75 -204.5t-34.5 -208.5q-3 -40 -3 -77q0 -43 4 -83q7 -73 30.5 -127.5t64.5 -86t101 -31.5q61 0 110 28.5t88 73.5t67.5 101.5t47 111.5t26.5 104q7 41 7 69v13q-18 0 -39 -2t-38.5 1.5t-28.5 12.5t-11 31q0 33 24.5 49.5t53.5 16.5q51 0 81.5 -4 t78.5 -6q53 -2 84.5 -3t74.5 -1q47 0 82 2t58 4q-10 -35 -53.5 -65.5t-121.5 -35.5q-29 -2 -49 -2h-35q-16 0 -28 2q0 -35 -16.5 -91t-49.5 -119.5t-80 -128t-107.5 -116.5t-134 -85t-157.5 -33q-143 0 -219 88t-76 268z" />
<glyph unicode="H" horiz-adv-x="1165" d="M-10 51q0 12 13 57.5t31.5 101.5t38 112.5t31.5 91.5l105 268q-10 12 -17.5 30.5t-7.5 53.5q0 18 8.5 35.5t21.5 33t29.5 23.5t35.5 8q37 111 69 205q14 39 27.5 79t26 73.5t23.5 57.5t17 34q25 35 44.5 52t36 23.5t27.5 6.5h21q16 0 17 -29q0 -29 -19.5 -82t-48.5 -127 l-131 -344q6 -18 23 -31q14 -12 41.5 -21t74.5 -9q57 0 114.5 18.5t105 43t79 49t37.5 36.5q16 41 28.5 94.5t29.5 100.5q25 76 46 124t39.5 76.5t34 43t27.5 22.5q23 16 47.5 26.5t36.5 10.5q16 0 17 -8.5t1 -24.5q0 -12 -12 -48t-33.5 -93.5t-50 -132t-59.5 -162.5 t-63.5 -192.5t-58.5 -210t-43 -202t-17 -167.5q0 -8 1 -23.5t7 -30t18 -24.5t37 -10q39 0 80 18t85 50t91 75t98 90l21 -33q-53 -51 -113.5 -105t-142.5 -108q-45 -29 -78 -47t-57.5 -27.5t-45 -12.5t-40.5 -3q-37 0 -59.5 15.5t-35 37t-16.5 47t-4 48.5q0 37 9 94 t23.5 124.5t33 138.5t36 134.5t32.5 115.5t26 81q-76 -51 -152 -88q-66 -35 -137.5 -61.5t-130.5 -26.5q-23 0 -40.5 1t-27.5 3q-12 2 -22 6q-8 -25 -21.5 -73t-30 -106.5t-35 -123t-34.5 -120.5t-31.5 -98t-23.5 -57q-27 -43 -57.5 -59t-49.5 -16q-39 0 -48 16t-9 51z" />
<glyph unicode="I" horiz-adv-x="671" d="M53 -25q0 12 9.5 44t21.5 67t23.5 68.5t17.5 50.5q39 113 83 247t101 293q74 205 119 327t64 169q29 68 43 103.5t20 44.5q16 18 37.5 30.5t64.5 20.5q12 4 30 4h34q8 0 10 -6.5t2 -12.5q0 -4 -6 -16t-18.5 -40t-34 -77t-51.5 -129q-29 -72 -53.5 -138.5t-51 -139 t-56.5 -155.5t-65 -187q-23 -66 -47 -137.5t-47 -151.5q-14 -53 -25.5 -104.5t-27.5 -86.5q-6 -10 -22.5 -29.5t-39 -39t-47 -33.5t-45.5 -14q-18 0 -30.5 4t-12.5 24z" />
<glyph unicode="J" horiz-adv-x="671" d="M-131 -117q0 2 11 9.5t26.5 17.5t31 21.5t25.5 21.5q27 29 46.5 53.5t33.5 49t26.5 53t28.5 69.5q29 70 80 207t131 360l174 480q14 37 22.5 60.5t12.5 33.5q14 35 26.5 55.5t24 31.5t23.5 16t31 12q10 4 46 7t60 3q12 -1 12 -19q0 -6 -10 -27.5t-33.5 -74.5 t-61.5 -144.5t-91 -236.5q-16 -41 -26.5 -70.5t-21 -60.5t-23.5 -68.5t-34 -95.5q-35 -96 -65.5 -179t-62 -154.5t-66.5 -134t-78 -118.5q-23 -29 -57.5 -62.5t-74.5 -63t-81 -50t-72 -20.5q-12 0 -12 6t-2 12z" />
<glyph unicode="K" horiz-adv-x="1253" d="M57 39q0 10 11.5 51t31 104.5t45 145.5t54.5 174q27 86 54.5 177t55 181.5t54 173t51.5 154.5q8 23 18 50.5t20.5 54t20.5 49t19 35.5q12 18 33.5 31.5t44 22.5t44 13t35.5 4q8 0 8 -26q0 -10 -7 -29t-17 -41.5t-20.5 -46t-18.5 -43.5q-20 -53 -51 -146.5t-62.5 -191.5 t-58.5 -185t-39 -130l6 -3l82 111q4 20 12.5 52t42.5 67q14 14 33 20t29 6q51 57 93 103.5t81 87.5t75.5 79t77.5 79t87.5 73.5t92.5 56t88 36t77 12.5q8 0 20 -1t24.5 -5t20.5 -13.5t8 -25.5q0 -33 -17.5 -67t-46 -64.5t-64.5 -57t-70 -43.5l-9 13q20 23 35 48t15 50 q0 37 -41 37q-37 0 -97.5 -31t-128.5 -96q-45 -43 -93 -94.5t-89 -94.5q-49 -53 -96 -102q6 -12 14 -31q6 -16 13.5 -36.5t17.5 -47.5q14 -49 32.5 -102t36 -104.5t35 -99.5t31.5 -87q51 -137 108.5 -223t124.5 -86q57 0 105.5 25.5t120.5 84.5l14 -43q-104 -104 -192 -146 t-174 -42q-31 0 -65 14.5t-69.5 49t-70.5 93t-66 146.5q-25 68 -48.5 141.5t-45 138t-37.5 116t-24 73.5q-16 -29 -62.5 -89t-91.5 -175q-16 -39 -29.5 -78t-23.5 -70q-12 -37 -21 -71q-10 -31 -16 -56.5t-15 -39.5q-10 -25 -24 -41q-16 -23 -48 -44.5t-61 -21.5 q-43 0 -43 37z" />
<glyph unicode="L" horiz-adv-x="790" d="M53 -25q0 23 16.5 72t55.5 158l356 991q20 57 40 97t44 65q33 33 76 59.5t88 26.5q12 0 12 -19q0 -6 -10 -28.5t-25.5 -57t-36 -80t-38.5 -96.5q-33 -84 -68 -179t-66.5 -183t-56 -158t-34.5 -100q-12 -37 -30 -90.5t-37.5 -117t-41 -134t-41.5 -144.5h264 q98 0 141.5 5.5t59.5 5.5q24 0 24 -25q0 -18 -40 -39q-23 -10 -53.5 -20.5t-73.5 -16.5q-18 -4 -57.5 -5t-102.5 -3q-39 -1 -78 -1h-40h-23q-47 0 -95 -3q-16 0 -31.5 1t-31.5 -3q-4 -2 -13 -4q-6 -2 -13 -2h-11q-16 0 -22.5 9t-6.5 19z" />
<glyph unicode="M" horiz-adv-x="1677" d="M-51 100q0 74 41 131.5t88 81.5l12 -2q-2 -23 -1 -47t7 -45.5t17.5 -36t33.5 -14.5q16 0 41 11t59 39t79 76t104 124q51 66 116.5 162t129 198.5t119 197.5t86.5 159q16 43 24 68.5t14.5 42t12.5 29.5t18 36q16 29 45 47t54 18q35 0 52 -2t17 -31q0 -68 -28.5 -139 t-57.5 -164q-31 -96 -63.5 -206.5t-60 -210t-47 -175t-25.5 -102.5q-2 -6 -6.5 -22.5t-7.5 -34t-3 -30.5t6 -13t44 38t93.5 102.5t124 148t138 176t134 185.5t111.5 177q18 55 33 96t27 74t25.5 59.5t33.5 53.5q31 41 61.5 52t61.5 11q23 0 27 -19.5t4 -47.5 q0 -23 -15.5 -69t-37 -98t-45 -101.5t-41.5 -79.5q-12 -33 -36 -104t-52.5 -157t-58.5 -178t-55.5 -171t-40.5 -134t-15 -65q0 -12 -3.5 -27.5t-1.5 -28t13.5 -20.5t42.5 -8t75 18t94 47t104 64.5t106 70.5l20 -32q-29 -20 -54.5 -40t-54 -40.5t-65.5 -44t-86 -52.5 q-68 -41 -117 -66.5t-85 -40.5t-58.5 -21.5t-38.5 -6.5q-49 0 -59.5 29t-10.5 53q0 18 10.5 61.5t26 101.5t36 127t42.5 136q51 160 115 350l-8 2q-80 -104 -209 -266t-340 -405q-16 -18 -41 -45t-49.5 -51.5t-48 -41t-37.5 -16.5q-27 0 -33 13.5t-6 39.5q0 25 20.5 108 t51 192.5t64.5 229.5t58 218l33 129l-10 4q-8 -14 -34 -55t-61.5 -98.5t-78.5 -123t-85 -128t-80 -117t-63 -86.5q-80 -104 -140 -171t-108.5 -106t-86 -53t-72.5 -14q-31 0 -47.5 13t-24.5 31.5t-10 39t-2 32.5z" />
<glyph unicode="N" horiz-adv-x="1169" d="M18 -2q0 10 7.5 31.5t13.5 40.5q20 61 60 187t89.5 285.5t103.5 338t103 344.5q6 25 15.5 51.5t18.5 50t16.5 39.5t11.5 20q4 6 9 12.5t13 12.5q10 8 34 20.5t52 12.5q27 0 35 -2t16.5 -12.5t10.5 -24.5q4 -33 7 -56.5t7 -56.5q4 -37 11 -100.5t16.5 -141t19.5 -165.5 t21 -174q8 -59 18 -127t21.5 -132.5t22.5 -122t20 -96.5q57 190 110 375q23 78 47.5 162t48 165t46 156.5t40.5 137.5q6 23 13.5 47t13.5 47t12 40t13 23q10 16 31.5 33t58.5 23q10 2 18 2h19q10 -1 10 -19q0 -6 -10.5 -32.5t-24.5 -65.5t-30.5 -82t-30.5 -82 q-27 -74 -50.5 -145.5t-48 -146t-49 -155.5t-51.5 -173q-23 -74 -41 -146.5t-33.5 -134t-28 -105.5t-22.5 -61q-49 -84 -96 -129q-23 -20 -47 -20q-23 0 -37.5 22.5t-26.5 69.5q-6 20 -15 71.5t-19.5 117t-21.5 140t-20 142.5q-12 98 -23 185t-20.5 168t-19.5 159t-19 162 q-6 -18 -28.5 -79t-51 -148t-62.5 -194.5t-64 -219.5q-29 -109 -51.5 -192t-36.5 -140q-18 -68 -29 -115q-10 -29 -16.5 -47t-38.5 -43q-10 -6 -33 -17.5t-43 -11.5q-14 0 -15 21z" />
<glyph unicode="O" horiz-adv-x="1357" d="M119 307q0 166 49 311.5t118.5 259t147.5 192.5t135 114q70 135 193 200.5t254 65.5q82 0 139 -32t93 -84t51.5 -116.5t15.5 -127.5q0 -61 -9.5 -139.5t-34 -166.5t-68.5 -184t-113 -197q-141 -203 -312.5 -321.5t-363.5 -118.5q-78 0 -133.5 31t-91 80t-53 110.5 t-17.5 122.5zM299 414q0 -63 12.5 -124t41 -109t76.5 -76.5t120 -28.5q111 0 208 67.5t185 190.5q51 70 90 160t66.5 186t42 191.5t14.5 177.5q0 45 -8 101t-32.5 105.5t-71 82t-121.5 32.5q-51 0 -95.5 -14.5t-78 -38t-57 -50t-36.5 -50.5q55 35 124 57t116 22 q43 0 62.5 -5t19.5 -25q0 -16 -14 -17q-16 0 -29.5 6.5t-38.5 6.5q-29 0 -64.5 -7.5t-72.5 -21.5t-70 -34.5t-57 -45.5q-4 -16 -2 -27.5t-2 -27.5q-6 -20 -25.5 -26.5t-36.5 -6.5q-14 0 -17 14.5t1 26.5q-39 -43 -83 -101.5t-81 -141.5t-61.5 -193.5t-24.5 -255.5z" />
<glyph unicode="P" horiz-adv-x="1316" d="M86 1040q0 25 38 66t106.5 87t160.5 93t200.5 86t227.5 62.5t242 23.5q109 0 183.5 -19.5t120.5 -55t65.5 -85t19.5 -106.5q0 -109 -67.5 -211t-178 -185t-251 -137.5t-285.5 -64.5q-33 -104 -58.5 -176t-36.5 -139q-8 -45 -8 -76q0 -9 1 -17q3 -34 3 -63q0 -8 -13 -38 t-24 -44q-23 -31 -49 -52.5t-65 -21.5q-12 0 -27.5 14.5t-15.5 49.5q0 72 26.5 166t61.5 192q8 25 20.5 57.5t22.5 61.5q12 35 24 72q-55 2 -86.5 14t-31.5 35q0 18 4 41.5t26 25.5q18 0 26.5 -16t31.5 -27q20 -10 37 -10q8 -2 20 0q51 137 103.5 281.5t117.5 320.5 q29 27 58.5 38t52.5 15q27 4 53 0q-10 -33 -40 -109.5t-67.5 -170.5t-76.5 -193.5t-66 -177.5q106 2 214 43t194 107.5t140 155.5t54 190q0 106 -79.5 167.5t-245.5 61.5q-111 0 -225.5 -20.5t-218 -56t-187.5 -85t-133 -104.5q-16 -18 -20.5 -37.5t-7.5 -36t-9 -27 t-25 -10.5q-23 0 -40 5.5t-17 39.5z" />
<glyph unicode="Q" horiz-adv-x="1267" d="M78 274q8 104 50 228.5t112.5 250.5t167 246.5t210.5 221.5q84 72 177.5 123t162.5 51q37 14 75 25.5t100 11.5q92 0 137 -84q37 -70 37 -179q0 -25 -2 -51q-6 -86 -25.5 -174t-54.5 -180q-41 -106 -99.5 -209.5t-130 -197t-152.5 -170t-165 -128.5q31 -43 57.5 -85 t57.5 -83q35 -47 65.5 -80.5t59.5 -56.5q-12 -18 -34 -29.5t-69 -11.5q-33 0 -70.5 24.5t-78.5 82.5q-27 37 -55.5 84t-57.5 94q-98 -35 -186 -35h-8q-282 0 -282 271q0 19 1 40zM254 334q-2 -19 -2 -37q0 -101 48 -161q53 -66 146 -66h11l47 2q-12 23 -21.5 33t-23.5 22 q14 29 106 29q16 0 37 -10.5t37 -28.5q129 55 225.5 191t171.5 333q78 207 94 397q2 32 2 60q0 99 -28 149q-35 64 -125 64q-84 0 -155.5 -34t-145.5 -93q-70 -59 -141.5 -153.5t-132 -208t-101.5 -239.5t-49 -249z" />
<glyph unicode="R" horiz-adv-x="1169" d="M20 1061q0 25 30 64.5t84 83.5t129 88t164 80t188.5 58.5t203.5 22.5q113 0 185.5 -18.5t114.5 -47t57.5 -66.5t15.5 -77q0 -80 -38 -148.5t-96.5 -127t-125 -108.5t-124.5 -94t-96 -81t-38 -67q0 -70 49 -153t104 -175q47 -76 92.5 -134.5t88.5 -105.5q31 -35 51 -54 t20 -26q0 -18 -19.5 -25t-51.5 -7q-45 0 -88 20.5t-82 55t-75 80.5t-67 98q-35 53 -66.5 108t-58 105.5t-42 91.5t-15.5 65q0 16 6 30.5t37 43.5q16 14 56 43t92.5 69t108.5 89t102.5 104t77 115.5t30.5 122.5q0 190 -293 190q-61 0 -144 -14t-167 -42t-160 -71t-121 -100 q-14 -18 -20 -40t-12.5 -41t-15.5 -32.5t-30 -13.5q-23 0 -32 3t-9 38zM55 -12q0 29 19.5 83t38.5 113q14 43 28.5 83t34 92.5t46 122t64.5 173t90 248t124 342.5q29 27 58.5 38t51.5 15q27 4 54 0q-51 -145 -106.5 -310t-106 -311.5t-87 -257t-51.5 -149.5q-2 -10 -7 -27.5 t-11 -45.5q-10 -49 -18.5 -76t-24.5 -53q-10 -16 -29.5 -36t-42 -36t-44 -26.5t-38.5 -10.5q-43 0 -43 29z" />
<glyph unicode="S" horiz-adv-x="1017" d="M-16 141q4 63 48 108.5t115 47.5q-1 -17 -1 -33q0 -35 6 -66q8 -46 35.5 -80t76.5 -53.5t127 -19.5q94 0 163 32t115 78t68.5 99t26.5 94q1 7 1 14q1 46 -23 94q-26 56 -87 107q-39 35 -77.5 71t-71.5 67.5t-58.5 58t-39.5 41.5q-87 94 -87 211q0 12 1 24q6 82 49 159 t113.5 136.5t162.5 95t195 35.5q109 0 175 -29.5t89 -68.5q6 -16 3 -48t-26 -61q-12 -16 -37.5 -37.5t-54.5 -29.5q0 31 -12 68.5t-45 66.5q-61 57 -148 57q-55 0 -108 -16t-97 -50t-73 -84t-33 -116q-1 -11 -1 -22q0 -64 30 -116q35 -60 88 -114.5t115.5 -104.5t113.5 -106 q51 -53 77 -115q23 -53 23 -100q0 -7 -1 -14q-8 -104 -63.5 -190.5t-142.5 -149t-197.5 -97t-227.5 -34.5q-45 0 -99.5 11t-100.5 34q-47 22 -77 59q-29 35 -28 80v6z" />
<glyph unicode="T" horiz-adv-x="970" d="M-2 133l14 2q14 -16 35 -28.5t49 -12.5q16 0 43 6t65 55.5t90 162t120 325.5q78 246 123 412t61 231q-160 -37 -253 -72.5t-144 -65.5t-71.5 -48.5t-37.5 -18.5q-23 0 -32 3t-9 26q0 14 52.5 44t138.5 66.5t196.5 74.5t227 69t229.5 51.5t205 20.5q86 0 132 -22t46 -73 q0 -27 -23.5 -51t-57.5 -44.5t-73 -37t-67 -24.5l-6 14q71 42 71 100q0 47 -159 48q-12 0 -38 -2.5t-56.5 -5.5t-63.5 -8t-62 -11q-35 -147 -89 -331.5t-150 -403.5q-80 -182 -142.5 -307t-112.5 -202t-90 -111t-75 -34q-47 0 -66.5 60.5t-19.5 142.5z" />
<glyph unicode="U" horiz-adv-x="1521" d="M49 868q0 49 37 108.5t89 117t109.5 105.5t100.5 75q104 66 191.5 106.5t181.5 40.5q25 0 37 -11t18 -27.5t7 -38t1 -41.5q0 -39 -46 -200t-169 -468q-29 -70 -53.5 -138.5t-45 -126t-32.5 -97.5t-12 -54q-2 -20 12 -22q25 0 91.5 56t170.5 173q20 25 70.5 83t117 138 t143.5 175.5t149 193.5q37 49 57 77.5t33.5 48t23.5 36t27 43.5q31 47 56.5 66.5t53.5 35.5q20 10 49 11t39 1q16 0 17 -18q-2 -10 -10.5 -24.5t-24.5 -51.5q-29 -59 -53.5 -116.5t-49 -119t-50 -132t-58.5 -156.5q-20 -55 -47 -140t-51.5 -174.5t-41 -170t-16.5 -130.5 q0 -8 1.5 -19t5.5 -20.5t15 -15.5t32 -6q33 0 77 18.5t91 48t93 66.5t87 72l20 -33q-190 -158 -315 -220.5t-180 -62.5q-33 0 -52.5 11.5t-28.5 28t-11 38t-2 41.5q0 51 21.5 144.5t55 213t76.5 258t88 277.5q-27 -33 -48 -59.5t-47 -56t-56.5 -66.5t-74.5 -88t-106.5 -123 t-148.5 -170q-53 -59 -97 -109.5t-86 -94.5t-84 -84t-89 -83q-16 -16 -62 -35q-37 -16 -65 -18q-29 0 -43 29q-7 24 -7 61v10q4 43 76 232q57 143 96 241.5t68 169t48.5 120.5t36.5 96.5t34.5 98.5t42.5 128q10 31 15 48t7 28.5t2 19.5v18q0 23 -8 40.5t-45 17.5 q-33 0 -71.5 -14.5t-72.5 -33t-60.5 -37t-34.5 -24.5q-39 -33 -83 -70.5t-85 -97.5q-23 -31 -30 -66.5t-13.5 -65.5t-18.5 -49t-41 -19q-18 0 -31.5 7t-13.5 25z" />
<glyph unicode="V" horiz-adv-x="1118" d="M90 868q0 47 36 106.5t87 117t107.5 106.5t99.5 76q102 66 183 106.5t175 40.5q25 0 37 -11t18.5 -27.5t7.5 -38t1 -41.5q0 -18 -6.5 -57.5t-16.5 -86.5t-22.5 -97t-24.5 -95q-29 -115 -62.5 -240t-62.5 -233.5t-47 -186.5t-18 -96q0 -16 7 -23.5t17 -7.5q20 0 87 64.5 t158 175t193.5 259t196.5 316.5q37 66 56.5 120t27.5 95t10 72t2 51q20 27 63.5 55.5t78.5 28.5q26 1 28 -22q-2 -10 -2 -16.5t-2 -10.5q-4 -27 -27.5 -94.5t-80.5 -171.5q-119 -217 -246 -400.5t-244 -324.5t-212 -236.5t-146 -136.5q-23 -18 -55.5 -37.5t-67.5 -19.5 q-29 0 -35 26.5t-6 61.5q0 29 16.5 102.5t43 175t59.5 222t67 241.5q6 23 16.5 60.5t23 84t24.5 95.5t22.5 95t16.5 84t6 60q0 23 -8 40.5t-45 17.5q-41 0 -95.5 -25.5t-108.5 -65.5t-103.5 -90.5t-79.5 -101.5q-20 -33 -28.5 -67.5t-17 -62.5t-19.5 -46t-38 -18 q-18 0 -31.5 7t-13.5 25z" />
<glyph unicode="W" horiz-adv-x="1949" d="M92 901q0 53 31 113.5t82 118t116.5 109.5t135 92t136 63.5t122.5 23.5q25 0 37 -11t18 -27.5t7 -38t1 -41.5q0 -8 -16.5 -83t-43 -183.5t-57 -234.5t-61.5 -235q-16 -55 -32.5 -122.5t-29 -125t-14.5 -96.5t15 -39q20 0 72.5 56.5t116 138.5t129 174t114.5 164 q53 80 105 159.5t99.5 153.5t87.5 136.5t70 105.5q45 35 74 46t47 15q16 0 22.5 -13t6.5 -26q0 -27 -4 -50t-9 -44q-29 -109 -55 -206t-53 -195.5t-53.5 -206t-55.5 -236.5q-6 -31 -13 -69.5t-10 -72.5t1 -56.5t20 -22.5q20 0 72.5 56.5t116 138.5t129 174t114.5 164 q70 102 120 207.5t106 234.5q8 23 16 51.5t15.5 59t15.5 62.5t18 58q20 27 63.5 55.5t78.5 28.5q26 1 28 -22q-2 -10 -2 -16.5t-2 -10.5q-2 -12 -12 -41.5t-25.5 -66.5t-34 -79t-36.5 -79q-88 -178 -199 -346t-221.5 -312.5t-208.5 -259t-162 -184.5q-39 -43 -88 -74.5 t-84 -31.5q-29 0 -32 20.5t-3 36.5q0 37 9.5 94.5t25.5 128.5q12 55 28.5 125t36 144.5t40 152.5t38.5 152q45 172 95 354l-11 4q-25 -39 -56.5 -90t-68 -108.5t-75.5 -117t-76 -114.5q-123 -182 -244 -333.5t-248 -293.5q-39 -43 -88 -74.5t-84 -31.5q-29 0 -31.5 20.5 t-2.5 36.5q0 37 9 94.5t25 128.5q14 61 39 154.5t53.5 199t58.5 214t53.5 202t38.5 162t15 92.5q0 23 -8 40.5t-45 17.5q-45 0 -93 -23.5t-92 -59.5t-80 -79t-56 -82q-18 -37 -27.5 -74t-17 -64.5t-19.5 -45t-39 -17.5q-18 0 -31.5 7.5t-13.5 25.5z" />
<glyph unicode="X" horiz-adv-x="1034" d="M12 -2q8 20 40 80.5t81 142.5t112.5 179.5t139.5 195.5q-31 213 -48.5 339t-21.5 167q-6 53 -17 75.5t-24 30.5q-14 8 -29.5 8.5t-15.5 24.5q0 12 6.5 29.5t15.5 38t22.5 42t25.5 38.5q16 23 33.5 34t27.5 11q8 0 19.5 -1t22 -10.5t19.5 -30t15 -59.5q10 -61 19.5 -138 t17.5 -155.5t15.5 -154.5t17.5 -135q51 74 107.5 148.5t110.5 143t99 126t76 94.5q47 59 91 106t67 47q14 0 28.5 -8t14.5 -37t-9.5 -46t-29 -35.5t-49 -44t-72.5 -68.5q-27 -27 -79 -84.5t-112.5 -129t-121 -149.5t-103.5 -143q23 -156 47.5 -265.5t54 -179t64.5 -102.5 t80 -33q39 0 86 17.5t93 44t88 58.5t73 62l20 -32q-35 -31 -86 -74t-111.5 -84t-127 -69.5t-133.5 -28.5q-102 0 -167 134t-99 412q-35 -45 -91.5 -118.5t-126.5 -206.5q-23 -41 -39 -89t-30.5 -88t-27.5 -67t-25 -27q-31 0 -42.5 18.5t-11.5 45.5z" />
<glyph unicode="Y" horiz-adv-x="1275" d="M51 913q0 49 37 108.5t89 117t109.5 105.5t100.5 75q104 66 191.5 106.5t181.5 40.5q25 0 37 -11t18 -27.5t7 -38t1 -41.5q0 -25 -10 -67t-25.5 -90t-33 -98.5t-33.5 -95.5q-14 -37 -32.5 -87t-35 -97t-28 -84t-11.5 -45q0 -23 27 -22q16 0 27.5 5t31.5 15 q45 18 105.5 66.5t123 107.5t117 125t87.5 119q18 57 36.5 103t36.5 85q35 72 64 96q53 45 123 48q26 0 26 -33q0 -35 -15 -73t-36.5 -78t-47.5 -77.5t-44 -68.5q-57 -166 -109.5 -317.5t-115.5 -284.5q-121 -256 -305.5 -401.5t-405.5 -145.5q-86 0 -132 17q-44 15 -44 44 q0 6 7 24q7 19 32 19q18 0 28.5 -10t21.5 -21.5t26.5 -21.5t44.5 -10q86 0 154.5 19.5t128 62.5t114.5 112.5t117 171.5q31 51 57.5 109.5t55 128.5t60 150.5t70.5 175.5l-6 2q-23 -29 -68.5 -71t-104 -90t-123 -97.5t-122.5 -89.5q-14 -10 -37.5 -22.5t-50 -23t-54.5 -17.5 t-52 -7q-27 0 -35 19.5t-8 60.5q0 18 14.5 61t34.5 97.5t44 110.5t42 101q23 51 42 103.5t32.5 98.5t21.5 82t8 58q0 23 -8 40.5t-45 17.5q-33 0 -71.5 -14.5t-72.5 -33t-60.5 -37t-34.5 -24.5q-39 -33 -83 -70.5t-85 -97.5q-23 -31 -30 -66.5t-13 -65t-18.5 -49 t-41.5 -19.5q-18 0 -31.5 7t-13.5 25z" />
<glyph unicode="Z" horiz-adv-x="1087" d="M51 -2q2 31 117 170q80 96 205 230t264 284q129 137 215 230.5t141.5 152.5t84 92t44 52.5t22.5 29.5t17 25q-30 3 -73 3h-22q-58 -1 -133 -7.5t-160 -16.5t-173 -22q-160 -25 -170 -25t-18.5 5t-8.5 20q39 43 116 93t220 75q41 8 90.5 10t108.5 2q90 0 181 -1t145 -7 q51 -7 51 -27q0 -41 -76 -123q-82 -88 -137 -147.5t-93 -102.5t-66 -74.5t-54.5 -62.5t-59 -65.5t-79.5 -83.5t-119 -126t-151 -163t-152.5 -174t-124.5 -158q43 6 101 18.5t124 24.5t132.5 21.5t123.5 9.5q80 0 144.5 -2t97.5 -13q23 -6 34 -13t11 -23q0 -27 -29 -67 t-65 -60q-33 14 -112 26t-171 12q-31 0 -82 -5t-107.5 -13t-109.5 -16.5t-86 -14.5q-31 -6 -65.5 -9t-41.5 -3q-51 0 -51 39z" />
<glyph unicode="[" horiz-adv-x="794" d="M98 -408q0 23 10.5 53.5t24.5 75.5t21.5 75l11.5 46q14 57 37.5 156.5t50.5 213.5t51.5 225.5t42.5 191.5q23 104 51.5 213.5t55.5 201.5q29 109 59 211q8 29 15.5 50.5t15.5 44.5q4 10 7 17t7 15q41 92 127 93q16 0 36.5 -1t22.5 -6h29q27 0 57.5 1t57 3.5t46 3.5 t26.5 1q27 0 33.5 -7.5t6.5 -15.5q0 -12 -16 -24.5t-40.5 -21.5t-53.5 -17.5t-53 -12.5q-27 -4 -57.5 -6t-59.5 -4q-12 -33 -27.5 -78t-36.5 -104q-8 -25 -22 -75t-29.5 -109.5t-30 -120t-24.5 -105.5q-16 -78 -44 -194.5t-58.5 -242.5t-59.5 -246t-49 -202 q-18 -80 -30.5 -135t-30.5 -82h34q27 0 57.5 1t57.5 3.5t46.5 3.5t25.5 1q27 0 34 -7.5t7 -15.5q0 -12 -16.5 -24.5t-41 -21.5t-53.5 -17.5t-53 -12.5q-27 -4 -59.5 -6t-61.5 -4q-35 -2 -68 -2q-14 0 -29.5 -2t-28.5 -1t-22.5 6t-9.5 17z" />
<glyph unicode="\" horiz-adv-x="755" d="M86 1524q14 23 32.5 37t45.5 12q10 -14 41 -92t74 -198t93 -268.5t102 -302t101.5 -302t89.5 -266t64.5 -195.5t28.5 -92q0 -37 -45 -37q-16 0 -23.5 2t-23.5 31z" />
<glyph unicode="]" horiz-adv-x="786" d="M-88 -410q0 12 16.5 24.5t41 22t53 17.5t53.5 12q27 4 57.5 6t59.5 4q12 33 27.5 78t35.5 105q8 25 22.5 75t30 109t29.5 119.5t24 105.5q16 76 44 194t59 243.5t59.5 245.5t48.5 202q18 80 30.5 135t31.5 82h-35q-27 0 -57.5 -1t-57 -3t-46 -3t-25.5 -1q-27 0 -34 7 t-7 15q0 12 16.5 24.5t41 22t53 17.5t53.5 12q27 4 59.5 6t60.5 4q35 2 68 3q14 0 29.5 2t29 1t22.5 -6.5t9 -17.5q0 -23 -10 -53.5t-25 -75.5q-14 -45 -21 -74.5t-11 -46.5q-14 -57 -38 -156.5t-50.5 -213t-51 -225t-43.5 -191.5q-23 -104 -52.5 -214t-53.5 -202 q-31 -109 -60 -211q-8 -29 -15 -50.5t-15 -43.5q-4 -10 -7.5 -17.5t-7.5 -15.5q-41 -92 -127 -92q-16 0 -36.5 1t-22.5 5h-29q-27 0 -57.5 -1t-57 -3t-46 -3t-25.5 -1q-27 0 -34 7t-7 15z" />
<glyph unicode="^" horiz-adv-x="888" d="M171 1053.5q-1 17.5 11 33.5l310 316l12 2q66 -57 125 -111q51 -47 105 -98t89 -90q2 -20 -19.5 -45t-39.5 -25q-10 0 -14.5 1t-12.5 10l-276 256l-240 -244q-2 -6 -6 -12q-6 -10 -20 -11q-23 0 -24 17.5z" />
<glyph unicode="_" horiz-adv-x="1153" d="M-14 -156h1190v-82h-1190v82z" />
<glyph unicode="`" horiz-adv-x="559" d="M270 1421q0 14 29 31.5t57 17.5q10 0 38 -44t65 -99q31 -47 65.5 -85t34.5 -50q0 -16 -21.5 -40t-50.5 -28q-16 6 -52 50.5t-91 121.5q-8 10 -20.5 28.5t-24.5 37t-20.5 35t-8.5 24.5z" />
<glyph unicode="a" horiz-adv-x="1007" d="M18 160q0 55 16.5 123.5t47.5 138.5t74 135.5t98 118.5q133 127 252 175t231 48q20 0 51 -5t61 -18.5t51.5 -36t21.5 -57.5q0 -23 -3.5 -38t-11.5 -27t-22.5 -26.5t-34.5 -33.5q-16 -45 -37.5 -82.5t-46.5 -103.5q-47 -129 -79 -221t-32 -113q0 -45 11.5 -58t27.5 -13 q37 0 81 19t91 50t96.5 69t96.5 72l18 -24q-47 -43 -117.5 -97.5t-144.5 -103.5t-139.5 -83t-104.5 -34q-31 0 -47 26t-16 65q0 20 3 48.5t7 56.5t9 53.5t10 41.5h-9q-92 -115 -195.5 -181.5t-187.5 -66.5q-78 0 -102.5 49.5t-24.5 133.5zM182 219q0 -66 25.5 -89.5 t54.5 -23.5q70 0 158 69t160 222q31 66 48 122t38 104q6 16 19 40.5t30.5 46t35 37t33.5 15.5q-4 14 -18 26.5t-32.5 21.5t-37 13t-26.5 4q-53 0 -100.5 -12t-91.5 -39.5t-87 -73t-88 -112.5q-25 -37 -46 -88t-38.5 -103.5t-27 -100.5t-9.5 -79z" />
<glyph unicode="b" horiz-adv-x="862" d="M35 188q0 33 9 81t23.5 103.5t33 115t36.5 114.5q-27 -14 -26 12q0 14 22 29q8 8 23 14q25 63 57.5 137t66 144t65.5 130t58 99q150 219 276 314.5t220 95.5q39 0 60.5 -10.5t30.5 -26.5t10 -35t1 -35q0 -31 -22.5 -82t-72.5 -120.5t-133 -156.5t-204 -189 q-61 -53 -129.5 -110.5t-128.5 -106.5q-16 -37 -28 -72q-10 -29 -22.5 -60.5t-18.5 -50.5h6q39 57 89 100.5t100 71t96.5 41t76.5 13.5q100 0 135 -53.5t35 -137.5q0 -43 -15 -100.5t-44 -119t-73 -121.5t-99 -110q37 0 88 15.5t104.5 38t101.5 49.5t79 49l2 -41 q-37 -25 -86.5 -51.5t-105.5 -49t-116.5 -38t-115.5 -19.5q-23 -20 -53.5 -42.5t-66.5 -41t-75 -30t-78 -11.5q-66 0 -104.5 25t-58 61.5t-24.5 81.5t-5 86zM197 172v-15q-1 -61 29 -98q34 -41 75 -41q18 0 35.5 5.5t32.5 13.5q16 8 28 18h-16q-72 0 -112 33q-44 37 -66 86z M266 315q0 -63 14.5 -105t39.5 -66q24 -26 59 -34q28 -7 62 -6h16q25 20 49 56q33 43 54.5 91t35.5 94t20.5 85t6.5 62q0 90 -26 123.5t-81 33.5q-35 0 -78 -19.5t-81 -60.5t-64.5 -103.5t-26.5 -150.5zM332 782q39 35 108.5 89.5t157.5 142.5q63 63 112.5 116.5t83 99.5 t51 89t17.5 86q0 41 -13 59.5t-52 18.5q-45 0 -99.5 -47t-114 -136.5t-124 -220.5t-127.5 -297z" />
<glyph unicode="c" horiz-adv-x="763" d="M16 209q0 55 17.5 119.5t50.5 132t81 135.5t107 129q53 55 112.5 97t116 72t103.5 44t78 14q35 0 63.5 -11t28.5 -67q0 -29 -14.5 -77.5t-54.5 -83.5q-35 -29 -65 -38t-44 -9q-10 0 -16 12l20 45q16 37 18.5 54.5t2.5 27.5q0 23 -9.5 33t-33.5 10q-66 0 -132.5 -50 t-121 -130t-89 -179.5t-34.5 -197.5q0 -35 4 -75t19.5 -72.5t45 -54t80.5 -21.5q59 0 120.5 16t98.5 33q57 25 104.5 51.5t81 48t52 35.5t22.5 14q8 0 17.5 -1.5t7.5 -24.5q0 -8 -58.5 -51.5t-149.5 -92.5t-200.5 -88t-212.5 -39q-100 0 -158.5 55.5t-58.5 184.5z" />
<glyph unicode="d" horiz-adv-x="1093" d="M59 135q18 268 250 510q109 113 223.5 177.5t237.5 78.5l72 8q39 106 71 197q14 39 27.5 77t26 71.5t20.5 59t12 38.5q6 23 19.5 38t38.5 31q23 16 43 23.5t37 11.5q20 4 37 6q18 0 18 -20q-16 -37 -31 -74q-12 -33 -26.5 -68.5t-26.5 -70.5q-25 -70 -41 -113 t-26.5 -72.5t-18.5 -51t-18.5 -48t-23.5 -64.5t-36 -100q-25 -70 -51.5 -144.5t-49 -140t-39 -116.5t-22.5 -74q-10 -39 -18 -75.5t-8 -67.5q0 -16 11 -43t40 -27q37 0 84 17.5t97 45t99.5 60.5t88.5 64l16 -35q-63 -55 -139 -103.5t-147.5 -84.5t-130 -56t-85.5 -20 q-47 0 -66.5 26.5t-19.5 95.5q0 14 4 42t9.5 60t12.5 64.5t13 61.5l-6 2q-47 -61 -100.5 -119.5t-124.5 -122.5q-43 -39 -76 -62.5t-59.5 -38t-48 -20.5t-42.5 -8q-68 0 -100 47q-27 40 -28 103q0 12 1 24zM248 205q-1 -16 -1 -29q0 -26 5 -42q8 -24 33 -36q18 2 35.5 6.5 t39 16.5t51 38.5t76.5 78.5q20 23 49 53.5t57 66t53.5 75.5t41.5 83l119 301h-74q-111 0 -216 -79t-183 -240q-39 -80 -59.5 -153t-26.5 -140z" />
<glyph unicode="e" horiz-adv-x="778" d="M33 225q0 86 48 211t155 252q61 74 125.5 127t124 86t111.5 48.5t89 15.5q59 0 82 -15.5t23 -54.5q0 -49 -69 -128t-177 -181q-43 -41 -99.5 -92.5t-105.5 -98.5q-59 -53 -119 -108q-1 -17 -1 -34q0 -101 44 -143q51 -48 146 -49q80 0 161.5 30t147.5 65q78 41 149 96 q8 -12 10.5 -18.5t0.5 -20.5q0 -8 -53.5 -47t-138.5 -83t-189.5 -79t-206.5 -35q-129 0 -193.5 61.5t-64.5 194.5zM215 354q41 35 84 72q37 33 80 72t82 80q68 70 111.5 125t43.5 100q0 33 -18 41t-41 8q-39 0 -97.5 -30.5t-109.5 -96.5q-23 -29 -45 -70t-41.5 -90t-33 -103 t-15.5 -108z" />
<glyph unicode="f" horiz-adv-x="679" d="M-401 -645q0 14 6 18q29 18 65.5 37t87.5 58q33 25 74 75.5t90 146t108.5 245t131.5 370.5l123 381h-39h-38t-44 -4q-8 -2 -17.5 -2h-17.5h-18q-35 0 -35 22q2 25 13 41.5t28 26.5q20 10 40.5 13t57.5 3q16 0 33.5 -1t34.5 -1h34q41 129 79 226.5t79 163.5 q63 109 152 178q59 49 137 77.5t149 28.5q117 0 117 -45q-4 -35 -24 -61q-14 -25 -52 -37q-25 27 -59.5 48t-79.5 21q-33 0 -51.5 -6t-28.5 -14q-61 -43 -126.5 -184.5t-141.5 -395.5h98l187 9q37 2 36 -15q-4 -18 -43 -39q-18 -10 -94 -31.5t-178 -21.5h-41l-57 -180 q-37 -117 -69 -210t-61.5 -172t-60 -149.5t-65.5 -140.5q-78 -158 -165 -264.5t-167 -157.5q-47 -29 -91 -49t-79 -20q-18 0 -18 12z" />
<glyph unicode="g" horiz-adv-x="960" d="M-383 -805q2 8 23 8q41 -12 64.5 -16t53.5 -4q72 0 135.5 14.5t122.5 48.5q27 14 62 39t75 66t85 100.5t94 145.5q37 63 75.5 144t75.5 167t69 169t52 148h-8q-92 -115 -195.5 -181.5t-187.5 -66.5q-78 0 -102.5 49.5t-24.5 133.5q0 57 16.5 125.5t47 138.5t73.5 134.5 t99 117.5q133 127 251.5 175t231.5 48q20 0 51 -5t60.5 -18.5t51 -36t21.5 -57.5q0 -23 -3 -38t-11 -27t-22.5 -26.5t-34.5 -33.5q-16 -45 -40 -87t-44 -99q-45 -125 -91.5 -251t-89.5 -235.5t-78.5 -195.5t-62.5 -133q-47 -86 -94 -153.5t-98.5 -122t-107.5 -96.5t-124 -77 q-137 -71 -302 -71h-5q-37 0 -65.5 3t-57.5 13q-41 16 -41 43zM250 219q0 -66 25.5 -89.5t54.5 -23.5q70 0 157.5 69t159.5 222q31 66 48.5 122t37.5 104q6 16 19.5 40.5t31 46t35 37t33.5 15.5q-4 14 -18.5 26.5t-33 21.5t-37 13t-26.5 4q-53 0 -100 -12t-91 -39.5t-87 -73 t-88 -112.5q-25 -37 -46.5 -88t-39 -103.5t-26.5 -100.5t-9 -79z" />
<glyph unicode="h" horiz-adv-x="892" d="M-25 4q0 23 8.5 55.5t30.5 79.5q16 35 30.5 80t25.5 70q39 113 80 229q35 100 75.5 219t79.5 230q47 133 92 252.5t70 193.5q8 23 20.5 38t36.5 32q23 16 43.5 23t36.5 12q20 4 37 6q18 0 18 -21q-16 -37 -30 -73q-12 -33 -26.5 -69t-27.5 -71q-76 -209 -158.5 -421 t-160.5 -423h6q113 125 206 209t161.5 135.5t115 72t68.5 20.5q16 0 21.5 -11.5t3.5 -27.5q-4 -53 -36 -156.5t-73 -238.5q-6 -25 -21.5 -73t-32 -99.5t-28.5 -93.5t-12 -52q0 -14 -1 -22.5t19 -8.5q23 0 61 16.5t82 41t94 56.5t97 62l19 -24q-16 -16 -47 -37.5t-66 -43 t-70 -43.5t-59 -38q-104 -68 -177 -102.5t-104 -34.5q-18 0 -22 13.5t-4 29.5t8 53t21.5 84t28.5 100.5t30 102.5q18 59 35.5 114.5t31 102.5t22.5 83t11 56q0 10 -1 17.5t-23 7.5q-12 0 -44 -22.5t-73 -61.5t-89 -90t-93 -107q-57 -70 -97.5 -149.5t-68.5 -139.5 q-29 -61 -50.5 -97t-39 -54.5t-33 -24.5t-31.5 -6q-20 0 -23.5 16.5t-3.5 22.5z" />
<glyph unicode="i" horiz-adv-x="620" d="M31 53q0 16 5 47t14 68t20.5 78t23.5 76q47 141 95.5 280t82.5 242q6 18 25.5 38.5t56.5 35.5q23 8 44.5 11t35.5 3q16 0 17 -23q0 -8 -9.5 -34.5t-22.5 -63.5t-28.5 -81t-30.5 -85q-25 -74 -53 -156.5t-53 -155.5t-41 -126t-16 -72q0 -33 4 -53.5t39 -20.5 q45 0 123.5 38t161.5 90.5t157 106.5t111 89l4 -49q-33 -25 -74 -54.5t-83 -60.5t-84 -59.5t-79 -50.5q-84 -51 -145.5 -82t-105.5 -47.5t-71.5 -21.5t-41.5 -5q-29 0 -45.5 10t-24.5 24.5t-10 32t-2 31.5zM354 1167q0 61 33 99.5t111 40.5q35 2 48 -19t13 -78 q0 -53 -33.5 -91t-103.5 -38q-68 0 -68 86z" />
<glyph unicode="j" horiz-adv-x="471" d="M-455 -645q0 16 26 22.5t42 16.5q63 45 113.5 102.5t95.5 134t87 173t91 219.5q31 78 73 190.5t84 230t76.5 225t53.5 175.5q4 18 26.5 40.5t55.5 33.5q23 8 43 11t37 3q16 0 16 -23q0 -10 -9.5 -38.5t-22.5 -66.5t-29.5 -80t-28.5 -79q-27 -78 -57.5 -164t-59.5 -157 q-33 -84 -63 -168q-45 -123 -108.5 -271.5t-160.5 -277.5q-72 -96 -143.5 -156.5t-142.5 -93.5q-43 -18 -72 -19q-23 0 -23 17zM354 1167q0 61 33 99.5t111 40.5q35 2 48 -19t13 -78q0 -53 -33.5 -91t-103.5 -38q-68 0 -68 86z" />
<glyph unicode="k" horiz-adv-x="1028" d="M-18 31q0 16 10 41.5t35 91.5q12 31 21 57.5t18.5 53t19.5 55t23 63.5q98 268 165.5 454.5t110.5 308.5t62.5 185.5t19.5 83.5q0 10 -1 16.5t-1 16.5q0 6 4 15.5t16.5 19.5t35 23.5t63.5 25.5q29 10 40 11t40 3q10 0 16 -4t2 -14q-70 -193 -125 -348 q-25 -68 -47.5 -132.5t-41.5 -117.5t-32.5 -89t-15.5 -44q-33 -86 -62.5 -161t-52.5 -140l10 -2q45 51 74 84t58.5 61.5t67.5 61t103 84.5q41 33 86.5 58.5t90.5 43.5t87 28.5t74 10.5q8 0 20.5 -1t25 -6t20.5 -14.5t8 -25.5q0 -53 -51 -103.5t-164 -121.5l-8 14 q39 29 53 67.5t14 59.5q0 29 -40 29q-37 0 -96.5 -24t-125.5 -77q-43 -35 -77.5 -65.5t-57.5 -55.5q-27 -29 -47 -53h12q4 0 10.5 1t10.5 1q10 0 21.5 -7t15.5 -32q10 -57 23.5 -132t29.5 -140q23 -102 68 -161.5t122 -59.5q55 0 106.5 17t97.5 44t85 55.5t68 53.5l18 -37 q-55 -47 -116.5 -90t-124 -78t-125 -55.5t-117.5 -20.5q-76 0 -143.5 53.5t-102.5 186.5q-10 35 -19.5 75.5t-17.5 79.5t-15 73t-9 54q-16 -23 -31.5 -44t-32.5 -60q-14 -31 -26.5 -62.5t-22.5 -56.5q-12 -29 -22 -55q-18 -47 -26.5 -68.5t-29.5 -40.5q-16 -14 -53 -32.5 t-59 -18.5q-25 0 -34 6t-9 23z" />
<glyph unicode="l" horiz-adv-x="763" d="M61 98q0 66 18.5 148t47.5 170t66.5 178t76.5 174q92 197 209 403q150 219 272.5 314.5t223.5 95.5q35 0 53.5 -7t27.5 -18.5t10 -27t1 -29.5q0 -55 -31.5 -136t-87 -177t-130.5 -201.5t-163 -211t-183 -205t-189 -181.5q-8 -16 -17.5 -46t-17.5 -61.5t-13.5 -59 t-5.5 -42.5q0 -12 1 -30.5t8.5 -35t21.5 -28.5t43 -12q72 0 157 34.5t170 86t163.5 106.5t138.5 98l2 -53q-139 -106 -254 -179t-208 -118t-168 -64.5t-136 -19.5q-55 0 -81 36t-26 99zM309 465q29 25 86.5 84t126 142t142 180.5t133 195.5t97.5 189t38 161q0 37 -7 54.5 t-48 17.5q-27 0 -49.5 -12.5t-51 -44t-65.5 -89t-93 -147.5q-25 -43 -55.5 -106.5t-61 -137t-61 -150.5t-56.5 -144.5t-46.5 -119t-28.5 -73.5z" />
<glyph unicode="m" horiz-adv-x="1363" d="M-41 39q0 8 4 24.5t11.5 38t15.5 45t16 43.5q20 55 36.5 100.5t29 85.5t23.5 78t24 78q6 23 15 58t20.5 70.5t21.5 67.5t19 50q12 31 35.5 54.5t50 41t51 25.5t39.5 8q14 0 14 -22q-2 -16 -15.5 -61.5t-27.5 -88.5q-18 -57 -40.5 -122.5t-45.5 -123.5q-25 -68 -51 -133 l8 -6q20 35 52 79t68 90t73.5 89t72.5 76q104 98 182 160q76 60 122 59h3q14 0 23.5 -8t9.5 -31t-17.5 -82t-40 -126.5t-45 -132t-34.5 -99.5h6q111 131 200 220t156.5 141.5t113.5 75t71 22.5q14 0 19 -11.5t5 -27.5q0 -18 -9 -56t-24.5 -91.5t-35 -117t-39.5 -130.5 q-6 -25 -22.5 -72t-32 -97.5t-27.5 -93.5t-12 -55q0 -14 2 -22.5t16 -8.5q23 0 60.5 16.5t81.5 41t94.5 56.5t97.5 62l18 -24q-51 -35 -96 -66q-39 -27 -80 -53.5t-65 -42.5q-104 -68 -177 -102.5t-104 -34.5q-25 0 -30 18.5t-5 38.5q0 10 8.5 42t22.5 77t30.5 98.5 t35.5 108.5q18 57 35.5 113.5t30.5 103.5t22.5 83t11.5 56q0 10 2 19.5t-10 9.5t-44 -22.5t-55 -45.5q-37 -37 -93 -99t-128 -161q-20 -29 -45.5 -69.5t-48.5 -79.5t-39 -69t-20 -34q-10 -10 -30 -26.5t-42.5 -32.5t-45 -28.5t-40.5 -12.5q-8 0 -8 8t2 17.5t6 26t13 43 t24 67.5l129 368q37 106 41 146q0 16 -11 18q-35 0 -167 -137q-59 -59 -110.5 -130t-94.5 -140.5t-77 -133t-54 -108.5q-8 -10 -23.5 -23.5t-34 -25.5t-38 -20.5t-37.5 -8.5q-14 0 -18.5 9.5t-4.5 21.5z" />
<glyph unicode="n" horiz-adv-x="950" d="M27 53q0 45 39 135q16 35 27 60.5t16 40.5l81 282q8 27 16.5 59t16.5 62.5t14.5 55t10.5 34.5q8 33 31.5 57.5t51 40t53.5 23.5t40 8t14 -22q-2 -16 -17 -62.5t-30 -89.5q-18 -57 -30.5 -96t-23.5 -70.5t-20.5 -60.5t-21.5 -64h6q88 96 173 176t158 138.5t130 90.5t90 32 q16 0 21.5 -11.5t3.5 -27.5q-4 -53 -36 -156.5t-73 -238.5q-6 -25 -21.5 -73t-32 -99.5t-28.5 -93.5t-12 -52q0 -14 2 -22.5t16 -8.5q27 0 74 23.5t101.5 58.5t110.5 74t101 70l19 -25q-16 -16 -55 -45t-84.5 -60.5t-88.5 -60.5t-67 -45q-213 -137 -281 -137q-16 0 -21 13.5 t-5 29.5t8 53t21.5 84t28.5 100.5t30 102.5q18 61 35.5 119.5t31 105.5t21.5 79t8 40q0 20 -2 29.5t-19 9.5q-12 0 -43.5 -23.5t-72.5 -62.5t-89 -90t-94 -107q-57 -70 -90.5 -125t-62.5 -114q-29 -61 -50.5 -97.5t-38 -54.5t-31.5 -24.5t-34 -6.5q-20 0 -23 14.5t-3 24.5z " />
<glyph unicode="o" horiz-adv-x="946" d="M29 193q0 57 10 106t29 111q14 49 33.5 97t40 90t42 76t39.5 52q14 14 37 25.5t51 11.5q20 0 29.5 -6t15.5 -13h6q33 31 68 61t75 53.5t87 38.5t108 15q78 0 130.5 -50t52.5 -171q0 -74 -29 -162t-80 -173t-118.5 -158.5t-147.5 -120.5q2 -2 20.5 -5t51.5 -3 q88 0 199.5 48t228.5 134l18 -25q-131 -94 -255 -153.5t-277 -59.5q-43 0 -68 8q-96 -51 -203 -51q-37 0 -71.5 11.5t-62.5 38t-44 69.5t-16 105zM184 256q-1 -14 -1 -28q1 -44 11 -74q14 -39 34 -60.5t41.5 -29t31.5 -7.5h21q-49 31 -73 78t-32 97q-6 37 -6 72q0 13 1 26 q3 47 7 80h-6q-6 -18 -15.5 -51t-13.5 -103zM279 362q0 -18 1 -58t15 -84t47 -82t96 -48q66 33 118 95.5t88 137t55.5 154.5t19.5 146q0 74 -31 122t-108 48q-23 0 -67 -12.5t-79 -41.5q-20 -16 -44.5 -49t-47.5 -80t-40 -109.5t-23 -138.5z" />
<glyph unicode="p" horiz-adv-x="892" d="M-311 -776q0 18 8 58t37 112q53 147 108 293q47 125 101.5 269t101.5 269q27 72 48.5 131.5t41 115.5t41 114.5t45.5 130.5q23 59 43.5 121.5t36.5 79.5q31 31 69 48t48 17q8 0 13 -1t5 -11q0 -6 -6 -27.5t-15 -53.5t-22.5 -69t-25.5 -69l10 -2q37 37 85 72.5t98 64 t97.5 46t83.5 17.5q86 0 127 -45t41 -160q0 -96 -41 -197.5t-101 -193.5t-130 -166.5t-129 -115.5q-53 -37 -117.5 -69t-128.5 -32q-41 0 -56.5 16.5t-15.5 37.5q0 43 24 92t60.5 96t82.5 93t94 83q84 66 154.5 110t127.5 74q10 33 10 57.5v53.5q0 47 -10 77t-27.5 47 t-39 23.5t-45.5 6.5q-47 0 -118 -45t-163 -144q-20 -47 -46 -115.5t-55.5 -151.5t-63.5 -179.5t-69 -196.5q-33 -92 -64.5 -183t-59 -174t-50 -153.5t-36.5 -122.5q-2 -10 -3.5 -30.5t-5.5 -40.5q-4 -18 -17 -43t-48 -54q-44 -34 -89 -34h-3q-16 0 -28.5 12t-12.5 41z M319 98q0 -37 58 -37q29 0 63.5 15.5t71.5 52.5q23 23 52.5 59.5t59 85t55.5 106.5t40 124q-16 -6 -46 -21.5t-65 -37t-72.5 -49t-68.5 -58.5q-27 -27 -53.5 -55.5t-47 -59t-34 -61.5t-13.5 -64z" />
<glyph unicode="q" horiz-adv-x="886" d="M59 135q0 47 15.5 109.5t46.5 131t75 139.5t99 134q53 57 116.5 109.5t132 91.5t137.5 61.5t132 22.5q37 0 69.5 -13.5t37.5 -41.5q4 0 9 1t9 1h8q19 -1 19 -19q0 -6 -6.5 -22.5t-15.5 -38t-19.5 -46t-18.5 -46.5q-12 -29 -31.5 -82.5t-44 -121t-53 -144t-57.5 -152.5 q-68 -178 -144 -385q-14 -39 -25 -69.5t-22.5 -58.5t-21.5 -57.5t-25 -68.5q-23 -63 -41 -125.5t-20 -91.5q-2 -14 1 -24.5t1 -24.5q-2 -20 -6 -29.5t-17 -22.5q-12 -12 -32.5 -28.5t-43 -29.5t-45 -22.5t-38.5 -9.5q-25 0 -33 6.5t-12 22.5q2 25 35.5 117t95.5 254l292 768 l-6 4q-49 -59 -105 -130t-122 -134q-70 -68 -114 -88.5t-85 -20.5q-72 0 -99.5 50t-27.5 124zM242 190v-16q0 -24 4 -50q6 -34 35 -34q27 0 74.5 39t103 99.5t110 135t95.5 148.5q16 29 25 56.5t18 49.5q20 57 33.5 93.5t25.5 61t26.5 39t34.5 28.5q-10 14 -24.5 25.5 t-24.5 11.5q-72 0 -147.5 -43t-134.5 -101q-45 -43 -88 -106.5t-79 -136t-58.5 -149.5t-28.5 -151z" />
<glyph unicode="r" horiz-adv-x="854" d="M150 717q0 10 9 20.5t23 22.5l25 20q-3 18 -3 44q0 13 1 29q2 46 16.5 92t44 80t82.5 34q23 0 44.5 -12.5t21.5 -45.5q0 -45 -20.5 -99t-45.5 -85q2 -27 13.5 -42t26.5 -23.5t31.5 -10.5t26.5 -2q29 0 65 5.5t87 27.5q29 14 55.5 25.5t48.5 11.5q25 0 25 -23 q0 -14 -6 -36.5t-14.5 -47t-17.5 -48t-15 -38.5q-20 -51 -49 -127.5t-54.5 -152.5t-44 -133.5t-18.5 -69.5q0 -35 12 -40t41 -5q25 0 65 15.5t87 39t99 54t99 61.5l19 -25q-35 -29 -102.5 -72.5t-151.5 -90.5q-127 -72 -198.5 -93.5t-102.5 -21.5q-33 0 -38 19.5t-5 35.5 q0 14 3 38t12 60.5t25.5 90t43.5 125.5q14 37 34.5 90t42 105t40 95t26.5 62l-6 8q-31 -10 -76 -25.5t-110 -15.5q-31 0 -76 17.5t-72 70.5l-16 -12q-12 -10 -20.5 -15.5t-18.5 -5.5q-14 0 -14 19z" />
<glyph unicode="s" horiz-adv-x="774" d="M-45 82q4 23 21.5 44t43.5 38q12 8 39 22.5t43 14.5q6 -31 18.5 -57.5t33 -48t52.5 -34t77 -12.5q51 0 95 13.5t76.5 38t52 58.5t19.5 72q0 41 -15 69t-46 50q-59 43 -114.5 77t-100.5 73q-29 25 -44.5 50t-15.5 73q0 25 13.5 60.5t46.5 72.5t90 72.5t147 62.5 q41 12 87.5 17t87.5 5q39 0 69.5 -7t52.5 -17q25 -11 43 -23q-18 -49 -47.5 -71.5t-79.5 -38.5q-6 23 -23.5 38t-42 24t-51 13.5t-46.5 4.5q-31 0 -67 -8.5t-66.5 -27t-50 -47t-19.5 -67.5q0 -47 37 -78q27 -23 61.5 -45t69.5 -44.5t65.5 -44t53.5 -42.5q31 -29 41 -56.5 t10 -62.5q0 -39 -23.5 -87t-66.5 -94t-101.5 -86t-126.5 -62q-41 -14 -78.5 -19.5t-105.5 -5.5q-37 0 -73 9t-66.5 25.5t-51 39t-24.5 49.5z" />
<glyph unicode="t" horiz-adv-x="696" d="M61 37q0 33 13.5 95.5t44.5 158.5q25 78 44 132t37.5 106.5t39 110.5t49.5 144q-23 -2 -45 -4q-18 -2 -37 -2h-29t-23.5 3t-13.5 20q0 35 34 54t61 19h83l76 203q18 49 48 89t77 57q27 10 62 10q18 0 18 -19q-10 -20 -17.5 -34.5t-14.5 -28.5t-14 -30.5t-15 -41.5 l-78 -205h139q29 0 60.5 1.5t60.5 3.5t49.5 3t26.5 1q27 0 26 -15q0 -18 -43 -39q-18 -10 -50 -20t-77 -16q-31 -4 -67.5 -5.5t-71.5 -3.5q-39 -2 -78 -2q-8 -23 -26.5 -75t-42 -117.5t-48 -138t-46 -137t-35 -112.5t-13.5 -67v-20.5t4 -28.5t17.5 -25.5t40.5 -11.5 q66 0 149.5 34t166.5 83t155.5 105.5t113.5 99.5l2 -58q-127 -111 -235.5 -183.5t-199.5 -114.5t-160.5 -59t-114.5 -17q-35 0 -55.5 10t-30.5 24.5t-13.5 32t-3.5 31.5z" />
<glyph unicode="u" horiz-adv-x="1044" d="M33 45q0 14 2 30.5t9 41t19.5 60.5t34.5 91l111 281q31 78 51.5 136t36.5 93t39.5 59.5t49.5 40t49.5 22.5t37.5 7t14 -22q-2 -16 -7 -47t-27 -84l-125 -322q-6 -18 -18.5 -48t-25 -60.5t-20.5 -54t-8 -29.5q0 -8 1 -16.5t15 -8.5q23 0 66 30.5t96 80.5q47 43 84 76.5 t70 67.5t64.5 72t68.5 91q12 23 23.5 52.5t23.5 61t28.5 61.5t37.5 52q37 37 70.5 49.5t56.5 12.5q10 0 21 -7.5t11 -29.5q0 -29 -21.5 -80t-80.5 -133q-18 -41 -37.5 -102.5t-38.5 -120.5q-6 -23 -22.5 -74t-32 -104.5t-27.5 -97.5t-12 -52q0 -35 22 -35q39 0 82 15.5 t90.5 40t95.5 55t95 61.5l18 -25q-35 -29 -101.5 -69.5t-152.5 -93.5q-111 -66 -182.5 -92.5t-105.5 -26.5q-27 0 -33 14.5t-6 30.5q0 20 8 58t21.5 84t28.5 97.5t30 100.5q10 37 19 66.5t16 52.5q8 25 14 45q-72 -74 -154 -152q-70 -66 -157.5 -147.5t-184.5 -157.5 q-41 -33 -69.5 -44t-40.5 -11q-41 0 -41 57z" />
<glyph unicode="v" horiz-adv-x="847" d="M98 -16q0 16 14.5 65t41.5 141q39 133 64.5 221.5t45.5 166.5q16 61 23.5 108t11.5 82q2 37 -12 37q-23 0 -36 -10.5t-24 -10.5q-18 0 -16 21q0 10 14.5 21.5t57.5 41.5q94 66 159 66q20 0 26.5 -11.5t6.5 -45.5q0 -20 -4 -42t-10 -47q-23 -102 -48.5 -196t-56.5 -199 q-10 -39 -23.5 -82t-26.5 -85t-24.5 -76.5t-17.5 -55.5q47 20 107.5 72.5t122 123t119 155.5t98.5 173q12 27 24.5 63t21.5 71.5t15 66.5t6 49q6 6 7 8.5t6.5 6.5t16.5 11t38 21t50.5 20.5t45.5 8.5q27 0 25 -45q0 -14 -15.5 -51t-44 -92.5t-72.5 -126t-106 -150.5 q-39 -51 -67.5 -89t-62.5 -78t-82 -88t-128 -118q-43 -41 -92 -76.5t-78 -47.5q-27 -12 -52.5 -17.5t-45.5 -5.5q-23 0 -23 25z" />
<glyph unicode="w" horiz-adv-x="1378" d="M119 -16q2 23 12 62.5t27 100.5q27 94 55.5 210t54.5 218q16 61 25.5 115.5t9.5 71.5q0 29 -3 36t-13 7t-29.5 -10.5t-30.5 -10.5q-18 0 -18 19q0 8 18 24q14 12 43 29.5t60.5 35t62.5 30t49 12.5q34 0 34 -43q0 -7 -1 -14q-2 -20 -5 -42t-9 -47l-168 -686 q59 49 118.5 121t115 147.5t102.5 149.5t82 129q14 25 31.5 57.5t33 62.5t27.5 53.5t18 29.5q10 12 21.5 19.5t25.5 13.5q16 6 27.5 10t32.5 4q10 0 20 -5t10 -34q0 -16 -6 -46l-10 -50q-4 -18 -14 -57t-23.5 -91.5t-30 -115t-34.5 -123.5q-12 -43 -26.5 -93.5t-25.5 -93.5 q-12 -51 -24 -100q90 59 184 158q115 121 193 257t106 263q10 39 16.5 64.5t6.5 35.5q2 6 18.5 18.5t40 26t51 22.5t54.5 9q12 0 19 -9t5 -36t-21.5 -72t-52 -102t-74.5 -120.5t-89 -125.5q-84 -111 -195 -230.5t-242 -211.5q-115 -78 -172 -78q-18 0 -21 9t-3 20 q0 18 17.5 66t45.5 136q12 39 27.5 93.5t31 113t30 115.5t26.5 104l-8 2q-33 -51 -79 -122.5t-101.5 -150.5t-117 -154.5t-124.5 -135.5q-29 -29 -54.5 -48t-48.5 -30q-25 -12 -47 -15t-45 -3t-22 25z" />
<glyph unicode="x" horiz-adv-x="917" d="M-17.5 -80q3.5 10 3.5 31q8 16 40.5 58t79 96.5t100.5 116t107 120.5q-23 82 -37 131t-22 80t-13 48l-10 34q-12 45 -21 65.5t-17.5 30.5t-12.5 18.5t-4 26.5q0 16 18.5 42t45.5 50q16 16 35.5 24.5t29.5 8.5q8 0 18.5 -1t19.5 -8t17.5 -22.5t14.5 -46.5q39 -188 74 -344 q47 55 82.5 96t64.5 74t54.5 59.5t51.5 53.5q18 18 39 39.5t40.5 39t37 29t27.5 11.5q12 0 25.5 -6.5t13.5 -28.5q0 -23 -9.5 -36t-28 -27.5t-46 -34t-62.5 -52.5q-53 -47 -122.5 -114.5t-151.5 -167.5q23 -86 43 -149.5t45 -106.5t56.5 -64.5t76.5 -21.5q25 0 61.5 17 t76.5 45t81 62.5t78 69.5l18 -24q-12 -16 -59 -64.5t-110.5 -100.5t-135 -93t-133.5 -41q-76 0 -131 85t-100 263q-35 -47 -78 -93t-92 -108q-25 -31 -48.5 -62.5t-45 -57t-38 -43t-28.5 -17.5q-23 0 -19.5 10z" />
<glyph unicode="y" horiz-adv-x="952" d="M-408 -735q8 20 19.5 52t28.5 60q10 -16 29.5 -38.5t46 -42t60.5 -33t70 -13.5h66t75 12.5t88 42t105 89.5q33 35 72 103.5t81 158.5t84 192.5t83 205t76.5 196.5t66.5 168l-6 2q-78 -88 -168 -172t-173 -148.5t-151.5 -104.5t-103.5 -40q-20 0 -26.5 15.5t-6.5 35.5 q0 14 6 41t15.5 57.5t21.5 62.5t23 58q29 74 61.5 160t61 164t52 140.5t36.5 88.5q12 31 35.5 54.5t50 41t51 25.5t39.5 8q14 0 14 -22q-2 -16 -9 -48t-26 -83q-61 -145 -110 -267q-20 -51 -40 -103t-35 -96t-24.5 -77t-9.5 -45q0 -10 3 -14.5t16 -6.5q10 0 31.5 10.5t46 27 t49 36t43.5 35.5q55 53 97 97t74.5 85t60.5 82t56 86l58 152q18 47 34.5 77.5t45.5 55.5q57 47 122 47q27 0 27 -33q0 -31 -33 -104q-23 -49 -53.5 -100.5t-54.5 -92.5q-12 -35 -29.5 -84t-43.5 -121.5t-63.5 -172t-93.5 -234.5q-72 -178 -152.5 -334t-191.5 -262 q-123 -117 -234.5 -180.5t-211.5 -63.5q-74 0 -120 13.5t-70.5 32t-33 37t-8.5 28.5z" />
<glyph unicode="z" horiz-adv-x="776" d="M-8 8q0 23 53 97.5t158 183.5q37 39 81 81t93 89q86 82 139 136t87 91t52.5 62.5t32.5 54.5h-78q-51 0 -148 -8.5t-210 -30.5q-18 -4 -29.5 -6t-18.5 -3t-13.5 -1h-16.5q-20 0 -20 18q0 12 20.5 30.5t42.5 41.5q57 49 88 59q77 31 253 31h22l204 -4q50 0 50 -27 q0 -12 -5.5 -20.5t-13.5 -24.5q-10 -23 -74.5 -104.5t-169.5 -192.5q-23 -25 -57.5 -58.5t-75.5 -73.5t-84 -83t-80.5 -84t-67.5 -76.5t-44 -62.5q23 6 59.5 11t78.5 9t84 7.5t77 3.5q86 0 138 -2t75 -7q31 -6 38 -18t7 -31q0 -10 -7 -26.5t-19.5 -35t-28 -34.5t-29.5 -27 q-12 14 -54 27.5t-135 13.5q-53 0 -134 -5t-210 -25q-18 -4 -33.5 -5.5t-33.5 -1.5q-43 0 -43 31z" />
<glyph unicode="{" horiz-adv-x="684" d="M123 571q0 37 27 41q43 4 86 16.5t81 65.5q18 25 34 87.5t28 134t21.5 141t17.5 106.5q8 43 16 82t21.5 74t36 66.5t59.5 62.5q16 14 44 28.5t54.5 27t49 20.5t28.5 8h12.5t8.5 -10t-10.5 -13.5t-18.5 -5.5q-35 -10 -68 -37.5t-49 -60.5q-8 -12 -17.5 -46t-18.5 -78 t-18 -94t-18 -95q-10 -59 -20 -116.5t-23.5 -108t-28 -90.5t-30.5 -62q-27 -47 -68 -75t-116 -42l-2 -8q80 -18 115.5 -65.5t48 -97.5t8.5 -95t-6 -62l-54 -342q-8 -51 -8 -97t10.5 -81t32 -55.5t55.5 -20.5q6 0 14.5 1t8.5 -15q0 -14 -8 -14h-17q-92 0 -157.5 54t-65.5 159 q0 35 12.5 100.5t26.5 144t26.5 158.5t12.5 146q0 27 -8 53t-26.5 47.5t-48.5 35t-73 13.5q-12 0 -15 5t-3 9z" />
<glyph unicode="|" horiz-adv-x="296" d="M0 -444l502 2086h90l-504 -2086h-88z" />
<glyph unicode="}" horiz-adv-x="684" d="M0 -346q0 10 10 13t19 5q35 10 67.5 38t48.5 61q8 12 17.5 45.5t18.5 78t18.5 94.5t17.5 95q8 57 19.5 115.5t24.5 108.5t27.5 90t30.5 63q27 47 68 74.5t117 42.5l2 8q-80 18 -116 65t-48 97.5t-8 95.5t6 61l53 342q8 51 8 97.5t-10 81t-31.5 55t-56.5 20.5q-6 0 -14 -1 t-8 16q0 14 8 14h16q92 0 157.5 -54.5t65.5 -158.5q0 -35 -12 -100.5t-26.5 -144.5t-26.5 -160t-12 -144q0 -27 8 -53.5t26.5 -48t48 -35t72.5 -13.5q12 0 15.5 -5t3.5 -9q0 -37 -27 -41q-43 -4 -86 -16t-82 -66q-18 -25 -33.5 -87t-28 -134t-21.5 -141.5t-17 -106.5 q-10 -43 -17.5 -82t-20.5 -73.5t-36 -66.5t-59 -62q-16 -14 -44 -28.5t-54.5 -27t-49 -20.5t-29.5 -8h-12t-8 10z" />
<glyph unicode="~" horiz-adv-x="1107" d="M106 471q29 33 62 71t73 68.5t90 51t113 20.5q39 0 97.5 -22.5t117 -50t108.5 -50t71 -22.5q23 0 46 4t48.5 18t55.5 40t65 67l26 -23q-156 -211 -303 -211q-47 0 -99 23.5t-105.5 52.5t-103.5 52.5t-93 23.5q-57 0 -121 -32t-127 -108z" />
<glyph unicode="&#xa9;" horiz-adv-x="1726" d="M94 510q0 182 44 328.5t118 260t171 194.5t203.5 133.5t214 77t204.5 24.5q119 0 221 -25.5t177 -87t117 -163t42 -251.5q0 -227 -77 -416.5t-208 -324.5t-307 -211t-375 -76q-160 0 -265.5 56.5t-167 138.5t-87 175t-25.5 167zM201 543q0 -127 39 -226.5t100 -167 t140 -103.5t159 -36q145 0 299 56.5t279.5 173t205.5 297t80 428.5q0 152 -48 247t-128 149t-182.5 74.5t-210.5 20.5q-10 0 -67.5 -8t-139.5 -38t-174 -88t-170 -159.5t-130 -253t-52 -366.5zM483 463q0 66 13.5 130t50.5 148q59 141 148 241.5t198 160.5q47 29 93 42 t81 13q33 0 63.5 -13.5t30.5 -54.5q0 -49 -49 -100q-12 -12 -44 -33.5t-56 -21.5q-8 0 -8 10q47 37 47 102q0 23 -17.5 30t-40.5 7q-63 0 -135 -46t-132 -123.5t-100 -179t-40 -212.5q0 -109 42 -170t140 -61q68 0 126 22.5t103 48t75 48t40 22.5q12 0 8 -20 q-2 -6 -24.5 -24.5t-61.5 -43.5t-92 -52.5t-117 -47.5q-37 -10 -75.5 -17.5t-73.5 -7.5q-84 0 -138.5 51t-54.5 152z" />
<glyph unicode="&#xab;" horiz-adv-x="696" d="M133 524.5q-4 55.5 12 102.5q37 51 100.5 108.5t127 104.5t115 77.5t61.5 30.5q12 0 12 -16q-2 -16 -48 -54t-99 -85q-49 -43 -90 -82t-64 -80q-4 -41 2 -88t13.5 -88t14.5 -73t7 -44q-4 -27 -11 -40t-24 -28q-16 -14 -24.5 -21t-11.5 -10t-6 -3h-11q-14 0 -23.5 16 t-17.5 41.5t-13 58.5t-10 68q-8 49 -12 104.5zM399.5 524.5q-4.5 55.5 12.5 102.5q37 51 90 100t105 86t94 59.5t53 22.5q16 0 15 -3t-3 -13q0 -16 -28.5 -39t-66.5 -52.5t-79 -68.5t-66 -84q0 -39 8.5 -81t17.5 -79t16 -65.5t7 -40.5q-4 -27 -16 -43.5t-29 -30.5 q-16 -14 -24 -21.5t-11 -10.5t-6.5 -3h-11.5q-29 0 -42 46t-23 114q-8 49 -12.5 104.5z" />
<glyph unicode="&#xad;" horiz-adv-x="663" d="M70 477l36 105h490l-33 -105h-493z" />
<glyph unicode="&#xae;" horiz-adv-x="1667" d="M74 530q0 184 47 331t126 257.5t181 188t213 127t221.5 72t206.5 22.5q119 0 215 -40t162.5 -114t102.5 -179t36 -234q0 -227 -76.5 -409.5t-208 -311.5t-307.5 -198t-375 -69q-160 0 -265 56.5t-166.5 140.5t-87 181.5t-25.5 178.5zM180 563q0 -131 39 -234.5 t100.5 -174t140.5 -107.5t158 -37q145 0 299 50.5t280 159t206 282.5t80 422q0 147 -42 249.5t-114 165t-168 90t-205 27.5q-10 0 -70.5 -7t-146.5 -37t-183 -86t-180 -155.5t-138.5 -248t-55.5 -359.5zM504 938q0 20 39 60t105.5 78t152.5 66.5t178 28.5q68 0 111 -10 t67.5 -27.5t33.5 -39.5t9 -45q0 -70 -48 -126.5t-105.5 -100.5t-105.5 -79.5t-48 -62.5q0 -41 28.5 -90t63.5 -103q27 -45 53.5 -78.5t53.5 -62.5q18 -23 30.5 -33t12.5 -14q0 -10 -12.5 -14t-30.5 -4q-53 0 -100.5 44t-86.5 103q-20 33 -39.5 65.5t-35 61.5t-24.5 53.5 t-9 38.5q0 10 4 18.5t22 24.5q14 12 59.5 43t94.5 74t87 95t38 108q0 113 -174 112q-37 0 -87 -8t-100.5 -24.5t-95.5 -42t-72 -60.5q-8 -10 -11 -22.5t-7 -23.5t-9 -19.5t-18 -8.5q-12 0 -18 1t-6 24zM524 305q0 18 11.5 50t23.5 67q12 37 25.5 73.5t38 100t63.5 169 t102 282.5q16 16 35 22t33 8q17 2 31 0q-31 -86 -63.5 -182t-62.5 -182t-52.5 -151.5t-30.5 -88.5q-2 -6 -4 -17.5t-6 -27.5q-6 -29 -11.5 -44t-15.5 -32q-12 -20 -42 -41.5t-48 -21.5q-27 0 -27 16z" />
<glyph unicode="&#xbb;" horiz-adv-x="696" d="M-46 271.5q1 3.5 3 13.5q0 14 28.5 37.5t66.5 53.5t79 67.5t66 84.5q0 39 -8.5 81t-17.5 79t-16.5 65.5t-7.5 41.5q4 27 16.5 43t29.5 30q16 14 24 21.5t11 10.5t6.5 3h11.5q29 0 42 -46t23 -114q8 -49 12.5 -104t-12.5 -102q-37 -53 -90 -101.5t-105.5 -85.5t-94 -59.5 t-52.5 -22.5q-16 0 -15 3.5zM162 231q2 16 48 54.5t99 85.5q49 43 90 82t64 79q4 41 -2 87.5t-13.5 88.5t-14.5 73.5t-7 43.5q4 27 11 40.5t24 27.5q16 14 24.5 21.5t11.5 10.5t6 3h11q14 0 23.5 -16.5t17.5 -42t13 -59.5t10 -67q8 -49 12 -104t-12 -102 q-37 -53 -100.5 -109.5t-127 -104t-115 -78t-61.5 -30.5q-12 0 -12 16z" />
<glyph unicode="&#x401;" horiz-adv-x="1110" d="M98 240q0 80 34 150.5t86 131t115.5 107.5t123 80.5t107.5 52t69 20.5q-23 10 -56.5 28.5t-64.5 47.5t-53.5 69t-22.5 93q0 94 55.5 178t146.5 146.5t208 98.5t239 36q31 0 62 -6.5t55.5 -18.5t39.5 -32.5t15 -49.5q0 -33 -13 -59.5t-33.5 -46t-45 -32.5t-47.5 -20l-12 7 q23 25 26 48t3 40q0 41 -44 68.5t-133 27.5q-92 0 -162.5 -28.5t-118.5 -74t-72.5 -101.5t-24.5 -111q0 -84 44 -132.5t96 -75t96 -40t44 -31.5q0 -25 -23.5 -45.5t-58.5 -26.5q-86 0 -175 -26.5t-159.5 -78.5t-115.5 -131t-45 -184q0 -61 16 -115t52 -94t92.5 -62.5 t136.5 -22.5q106 0 205.5 30.5t181.5 71.5t141 83t88 64l23 -28q-33 -29 -108 -78t-175 -98.5t-220 -85t-243 -35.5q-186 0 -280.5 77.5t-94.5 213.5zM793 1661q4 70 34 98q29 29 101 33q37 0 49 -20q12 -25 8 -70q-2 -53 -37 -88q-27 -33 -92 -35q-39 0 -55 14 q-10 27 -8 68zM1085 1661q0 37 9 59q6 20 24 39q29 29 101 33q37 0 49 -23q10 -18 10 -67q-2 -47 -37 -88q-29 -33 -92 -35q-41 0 -57 14q-10 25 -7 68z" />
<glyph unicode="&#x402;" horiz-adv-x="1226" d="M51 1110q0 14 52.5 44t138.5 66.5t196.5 74.5t227 69t229.5 51.5t205 20.5q86 0 132 -19t46 -76q0 -25 -24.5 -47t-59.5 -42.5t-73 -38t-64 -29.5l-6 14q49 27 60 51.5t11 50.5q0 45 -159 46q-47 0 -73 -2.5t-45.5 -5.5t-41 -8t-60.5 -11q-25 -104 -64.5 -228t-78.5 -268 q41 8 96.5 15.5t94.5 7.5q55 0 114.5 -9.5t108.5 -41t79.5 -91t30.5 -159.5q0 -117 -57 -254t-150.5 -257t-211 -200t-240.5 -80q-86 0 -130 21.5t-44 54.5q0 12 5 29.5t30 17.5q18 0 29.5 -14.5t23.5 -30.5t28.5 -30.5t45.5 -14.5q72 0 138 33t122.5 86t102.5 122.5 t78 145.5t49.5 150.5t17.5 138.5q0 90 -18.5 146.5t-52.5 87t-79 42t-96 11.5q-29 0 -70 -5.5t-76 -13.5q-6 -18 -15 -48t-18.5 -62.5t-17.5 -63.5t-12 -49q-41 -182 -65.5 -295t-47.5 -158t-54.5 -58t-49.5 -13q-33 0 -38 14t-5 49q0 12 8 49t21.5 87t28.5 106.5t32 109.5 q12 45 27.5 94.5t30 92.5t24.5 72.5t12 35.5q-12 -4 -26.5 -8t-24.5 -4q-18 0 -20.5 4t-2.5 16t11.5 24.5t27 25t33.5 22.5t33 17q57 186 90 313t47 182q-160 -37 -253 -72.5t-144 -65.5t-71.5 -48.5t-37.5 -18.5q-23 0 -32 3t-9 26z" />
<glyph unicode="&#x403;" horiz-adv-x="1009" d="M57 721q0 74 54.5 158t128 162.5t148.5 140t118 88.5q104 66 191 106.5t182 40.5q47 0 65.5 -34.5t18.5 -88.5q0 -16 -12.5 -61t-31 -108.5t-43 -138.5t-48 -151.5t-46 -150.5t-39.5 -131q-8 -31 -25.5 -94.5t-35.5 -130t-32.5 -120.5t-14.5 -69q0 -8 -3 -25.5t0 -35 t14 -30.5t42 -13q33 0 77 18.5t91 48t93 66.5t87 72l21 -33q-190 -158 -315.5 -220.5t-180.5 -62.5q-66 0 -88 25.5t-22 85.5q0 18 7 57t19 90t28.5 109.5t37.5 114.5q43 121 88 257t83 255.5t61.5 210t23.5 118.5q0 27 -18.5 44.5t-55.5 17.5q-33 0 -73 -14.5t-76.5 -33 t-64.5 -37t-36 -24.5q-66 -51 -139.5 -128t-130.5 -183q-18 -33 -25.5 -69t-14.5 -64.5t-20.5 -48t-42.5 -19.5q-18 0 -31.5 7t-13.5 26zM799 1524q0 6 13 30.5t33.5 57.5t41 67.5t37.5 59.5q29 47 65.5 72.5t97.5 25.5q18 0 21.5 -6.5t3.5 -22.5q0 -8 -23.5 -38.5 t-61.5 -71.5t-84 -86t-89 -84q-4 -4 -18.5 -12.5t-24.5 -8.5t-11 4.5t-1 12.5z" />
<glyph unicode="&#x404;" horiz-adv-x="976" d="M102 258q0 96 19.5 213t73.5 248q90 221 221 378.5t289 254.5q72 43 137 64.5t119 21.5q25 0 49 -4t43.5 -16.5t33 -33t13.5 -53.5q0 -80 -74 -157q-8 -10 -25.5 -24.5t-38 -28t-43 -24t-40.5 -10.5q-12 0 -13 15q33 29 52.5 70.5t19.5 93.5q0 41 -25.5 49t-60.5 8 q-76 0 -161 -49t-163.5 -135t-143.5 -203t-97 -252q41 4 93 6t101 2q43 0 74 1t58.5 1t57 1t68.5 1q18 0 39 -3t21 -15q0 -10 -34 -30.5t-120 -31.5q-51 -6 -95 -8t-104 -2q-51 0 -95 3t-81 5q-8 -43 -12 -88t-4 -90q0 -172 62.5 -269t205.5 -97q106 0 194.5 34.5t154 76.5 t106.5 77t51 35q16 0 10 -31q-2 -8 -39.5 -40t-99 -71.5t-138.5 -81.5t-157 -71q-27 -10 -47 -17.5t-44 -11.5t-53.5 -7t-74.5 -3q-131 0 -207 81t-76 218z" />
<glyph unicode="&#x405;" horiz-adv-x="1017" d="M-16 141q4 63 48 108.5t115 47.5q-4 -53 4.5 -99t36 -80t76.5 -53.5t127 -19.5q94 0 163 32t115 78t68.5 99t26.5 94q4 53 -22.5 108.5t-86.5 106.5q-39 35 -77.5 71t-71.5 67.5t-58.5 58t-39.5 41.5q-96 104 -86 235q6 82 49 159t113.5 136.5t162.5 95t195 35.5 q109 0 175 -29.5t89 -68.5q6 -16 3 -48t-26 -61q-12 -16 -37.5 -37.5t-54.5 -29.5q0 31 -12 68.5t-45 66.5q-61 57 -148 57q-55 0 -108 -16t-97 -50t-73 -84t-33 -116q-6 -78 29 -138.5t88 -114.5t115.5 -104t113.5 -106q51 -53 77 -114.5t22 -114.5q-8 -104 -63.5 -190.5 t-142.5 -149t-197.5 -97t-227.5 -34.5q-45 0 -99.5 11t-100.5 33.5t-76.5 59.5t-28.5 86z" />
<glyph unicode="&#x406;" horiz-adv-x="555" d="M53 -25q0 12 9.5 44t21.5 67t23.5 68.5t17.5 50.5q39 113 83 247t101 293q74 205 119 327t64 169q29 68 43 103.5t20 44.5q16 18 37.5 30.5t64.5 20.5q12 4 30 4h34q8 0 10 -6.5t2 -12.5q0 -4 -6 -16t-18.5 -40t-34 -77t-51.5 -129q-29 -72 -53.5 -138.5t-51 -139 t-56.5 -155.5t-65 -187q-23 -66 -47 -137.5t-47 -151.5q-14 -53 -25.5 -104.5t-27.5 -86.5q-6 -10 -22.5 -29.5t-39 -39t-47 -33.5t-45.5 -14q-18 0 -30.5 4t-12.5 24z" />
<glyph unicode="&#x407;" horiz-adv-x="657" d="M53 -25q0 12 9.5 44t21.5 67t23.5 68.5t17.5 50.5q39 113 83 247t101 293q74 205 119 327t64 169q29 68 43 103.5t20 44.5q16 18 37.5 30.5t64.5 20.5q12 4 30 4h34q8 0 10 -6.5t2 -12.5q0 -4 -6 -16t-18.5 -40t-34 -77t-51.5 -129q-29 -72 -53.5 -138.5t-51 -139 t-56.5 -155.5t-65 -187q-23 -66 -47 -137.5t-47 -151.5q-14 -53 -25.5 -104.5t-27.5 -86.5q-6 -10 -22.5 -29.5t-39 -39t-47 -33.5t-45.5 -14q-18 0 -30.5 4t-12.5 24zM504 1597q4 53 27.5 85t86.5 32q37 0 48.5 -19.5t9.5 -60.5q-4 -43 -29.5 -76.5t-79.5 -33.5 q-37 0 -51 15t-12 58zM729 1597q4 53 27.5 85t87.5 32q37 0 48 -19.5t9 -60.5q-4 -43 -29.5 -76.5t-78.5 -33.5q-37 0 -51.5 15t-12.5 58z" />
<glyph unicode="&#x408;" horiz-adv-x="741" d="M-131 -117q0 2 11 9.5t26.5 17.5t31 21.5t25.5 21.5q27 29 46.5 53.5t33.5 49t26.5 53t28.5 69.5q29 70 80 207t131 360l174 480q14 37 22.5 60.5t12.5 33.5q14 35 26.5 55.5t24 31.5t23.5 16t31 12q10 4 46 7t60 3q12 -1 12 -19q0 -6 -10 -27.5t-33.5 -74.5 t-61.5 -144.5t-91 -236.5q-16 -41 -26.5 -70.5t-21 -60.5t-23.5 -68.5t-34 -95.5q-35 -96 -65.5 -179t-62 -154.5t-66.5 -134t-78 -118.5q-23 -29 -57.5 -62.5t-74.5 -63t-81 -50t-72 -20.5q-12 0 -12 6t-2 12z" />
<glyph unicode="&#x409;" horiz-adv-x="1638" d="M20 102q0 41 15.5 75t37 58.5t47 41t44.5 22.5q0 -18 2 -39.5t10 -40t21.5 -31t35.5 -12.5q27 0 59 12.5t73 43t93 83t120 131.5q66 80 126 162t108 155t83 130t51 86q14 45 32.5 104.5t39 118t42 110.5t42.5 81q51 59 93 78.5t69 19.5q16 0 20 -8t4 -31q0 -20 -13 -62 t-33.5 -92.5t-43 -105.5t-43.5 -102q-18 -41 -43 -106.5t-51.5 -145.5t-53 -167t-47 -171t-34 -159t-13.5 -128q0 -72 34 -111t110 -39q94 0 170 46.5t129 114t81.5 145t28.5 143.5q0 84 -27.5 135t-111.5 51q-53 0 -107.5 -26.5t-101.5 -67.5l-12 29q84 86 174 130t156 44 q82 0 129 -45t47 -150q0 -61 -29 -135t-79 -146.5t-115.5 -140t-138 -120t-150.5 -84t-150 -31.5q-37 0 -70.5 8t-61 32.5t-44 69t-16.5 115.5q0 29 7 72t17.5 92t24.5 102.5t31 106.5q35 121 80 258l-11 6q-18 -27 -58 -85t-89 -126.5t-100.5 -138.5t-94.5 -119 q-90 -106 -156.5 -174t-118.5 -106.5t-93 -53t-80 -14.5q-41 0 -69 25.5t-28 76.5z" />
<glyph unicode="&#x40a;" horiz-adv-x="1566" d="M-10 51q0 12 13 57.5t31.5 101.5t38 112.5t31.5 91.5l105 268q-10 12 -17.5 30.5t-7.5 53.5q0 14 8.5 31.5t21.5 33t29.5 25.5t35.5 10q37 111 69 205q14 39 27.5 79t26 73.5t23.5 57.5t17 34q25 35 44.5 52t36 23.5t27.5 6.5h21q16 0 17 -29q-2 -20 -20.5 -78.5 t-47.5 -130.5l-131 -344q6 -18 23 -31q14 -12 41.5 -21t74.5 -9q57 0 114.5 18.5t105 43t79 49t37.5 36.5q16 41 28.5 94.5t29.5 100.5q25 76 46 124t39.5 77.5t34 44t27.5 20.5q25 14 48.5 25.5t35.5 11.5q16 0 17 -8.5t1 -24.5q0 -12 -10 -49t-30.5 -94.5t-49 -132 t-65.5 -160.5q-29 -88 -57.5 -186.5t-52 -194.5t-39 -183t-15.5 -153t34 -108t109 -42q94 0 173 46.5t136.5 114t89 145t31.5 143.5q0 84 -27.5 135t-111.5 51q-53 0 -107.5 -26.5t-101.5 -67.5l-12 29q84 86 174 130t156 44q82 0 129 -45t47 -150q0 -61 -30 -135 t-80 -146.5t-115.5 -140t-139 -120t-150.5 -84t-147 -31.5q-41 0 -78.5 8t-67.5 32.5t-48.5 69t-18.5 115.5q0 53 17.5 141.5t41 180.5t47 175t38.5 126q-78 -51 -154 -88q-66 -35 -138.5 -61.5t-127.5 -26.5q-23 0 -40.5 1t-27.5 3q-12 2 -22 6q-6 -25 -19.5 -73 t-30 -107.5t-35 -123t-35.5 -119.5t-32.5 -98t-23.5 -57q-27 -43 -57.5 -59t-49.5 -16q-39 0 -48 16t-9 51z" />
<glyph unicode="&#x40b;" horiz-adv-x="1261" d="M51 1110q0 14 52.5 44t138.5 66.5t196.5 74.5t227 69t229.5 51.5t205 20.5q86 0 132 -18.5t46 -76.5q0 -25 -22.5 -48t-55.5 -43.5t-71.5 -37t-71.5 -28.5l-6 14q49 27 60 51.5t11 50.5q0 45 -159 46q-47 0 -73 -2.5t-45.5 -5.5t-41 -8t-60.5 -11q-25 -104 -58.5 -228 t-84.5 -268q41 8 82 18.5t109 10.5q113 0 177 -42t64 -146q0 -57 -14 -135t-31.5 -152t-32 -133.5t-14.5 -77.5q0 -8 1 -23.5t7 -30t18.5 -24.5t37.5 -10q39 0 79.5 18.5t84.5 50t91.5 74.5t98.5 90l20 -32q-53 -51 -113.5 -105.5t-142.5 -107.5q-45 -29 -78.5 -47.5 t-60.5 -27.5t-46 -12.5t-36 -3.5q-37 0 -59.5 12.5t-33.5 32t-14 42t-3 44.5q0 29 14 94.5t32.5 142.5t33 149.5t14.5 115.5q0 31 -1 59.5t-15.5 51t-48.5 37t-99 14.5q-14 0 -34.5 -3t-42 -8t-41 -11.5t-32.5 -12.5q-8 -25 -20 -69.5t-23 -79.5q-20 -76 -39.5 -156 t-37 -150.5t-34 -125t-30.5 -76.5q-23 -41 -51.5 -67.5t-63.5 -26.5q-25 0 -30.5 14t-5.5 33q0 18 11 55t27.5 87t37 111.5t38.5 129.5q20 76 37 137q14 53 26.5 99t16.5 52q-12 -4 -26.5 -12t-24.5 -8q-18 0 -20.5 4t-2.5 16t11.5 24.5t27 25t33.5 22.5t33 17 q57 186 90 313t47 182q-160 -37 -253 -72.5t-144 -65.5t-71.5 -48.5t-37.5 -18.5q-23 0 -32 3t-9 26z" />
<glyph unicode="&#x40c;" horiz-adv-x="1249" d="M57 39q0 10 11.5 51t31 104.5t45 145.5t54.5 174q27 86 54.5 177t55 181.5t54 173t51.5 154.5q8 23 18 50.5t20.5 54t20.5 49t19 35.5q12 18 33.5 31.5t44 22.5t44 13t35.5 4q8 0 8 -26q0 -10 -7 -29t-17 -41.5t-20.5 -46t-18.5 -43.5q-20 -53 -51 -146.5t-62.5 -191.5 t-58.5 -185t-39 -130l6 -3l82 111q4 20 12.5 52t42.5 67q14 14 33 20t29 6q51 57 93 103.5t81 87.5t75.5 79t77.5 79t87.5 73.5t92.5 56t88 36t77 12.5q8 0 20 -1t24.5 -5t20.5 -13.5t8 -25.5q0 -33 -17.5 -67t-46 -64.5t-64.5 -57t-70 -43.5l-9 13q20 23 35 48t15 50 q0 37 -41 37q-37 0 -97.5 -31t-128.5 -96q-45 -43 -93 -94.5t-89 -94.5q-49 -53 -96 -102q6 -12 14 -31q6 -16 13.5 -36.5t17.5 -47.5q14 -49 32.5 -102t36 -104.5t35 -99.5t31.5 -87q51 -137 108.5 -223t124.5 -86q57 0 105.5 25.5t120.5 84.5l14 -43q-104 -104 -192 -146 t-174 -42q-31 0 -65 14.5t-69.5 49t-70.5 93t-66 146.5q-25 68 -48.5 141.5t-45 138t-37.5 116t-24 73.5q-16 -29 -62.5 -89t-91.5 -175q-16 -39 -29.5 -78t-23.5 -70q-12 -37 -21 -71q-10 -31 -16 -56.5t-15 -39.5q-10 -25 -24 -41q-16 -23 -48 -44.5t-61 -21.5 q-43 0 -43 37zM799 1524q0 6 13 30.5t33.5 57.5t41 67.5t37.5 59.5q29 47 65.5 72.5t97.5 25.5q18 0 21.5 -6.5t3.5 -22.5q0 -8 -23.5 -38.5t-61.5 -71.5t-84 -86t-89 -84q-4 -4 -18.5 -12.5t-24.5 -8.5t-11 4.5t-1 12.5z" />
<glyph unicode="&#x40e;" horiz-adv-x="1277" d="M51 913q0 49 37 108.5t89 117t109.5 105.5t100.5 75q104 66 191.5 106.5t181.5 40.5q25 0 37 -11t18 -27.5t7 -38t1 -41.5q0 -25 -10 -67t-25.5 -90t-33 -98.5t-33.5 -95.5q-14 -37 -32.5 -87t-35 -97t-28 -84t-11.5 -45q0 -23 27 -22q16 0 27.5 5t31.5 15 q45 18 105.5 66.5t123 107.5t117 125t87.5 119q18 57 36.5 103t36.5 85q35 72 64 96q53 45 123 48q26 0 26 -33q0 -35 -15 -73t-36.5 -78t-47.5 -77.5t-44 -68.5q-57 -166 -109.5 -317.5t-115.5 -284.5q-121 -256 -305.5 -401.5t-405.5 -145.5q-86 0 -132 16.5t-44 46.5 q0 4 7 22.5t32 18.5q18 0 28.5 -10t21.5 -21.5t26.5 -21.5t44.5 -10q86 0 154.5 19.5t128 62.5t114.5 112.5t117 171.5q31 51 57.5 109.5t55 128.5t60 150.5t70.5 175.5l-6 2q-23 -29 -68.5 -71t-104 -90t-123 -97.5t-122.5 -89.5q-14 -10 -37.5 -22.5t-50 -23t-54.5 -17.5 t-52 -7q-27 0 -35 19.5t-8 60.5q0 18 14.5 61t34.5 97.5t44 110.5t42 101q23 51 42 103.5t32.5 98.5t21.5 82t8 58q0 23 -8 40.5t-45 17.5q-33 0 -71.5 -14.5t-72.5 -33t-60.5 -37t-34.5 -24.5q-39 -33 -83 -70.5t-85 -97.5q-23 -31 -30 -66.5t-13 -65t-18.5 -49 t-41.5 -19.5q-18 0 -31.5 7t-13.5 25zM948 1542q0 8 5 21.5t10 23.5q12 29 33.5 50.5t56.5 21.5q12 0 21 -6t28.5 -13.5t53.5 -13.5t95 -6q47 0 109.5 34t109.5 89q25 27 35 67q8 37 51 37q25 0 23 -32q0 -16 -22.5 -53.5t-67.5 -78.5t-87 -71.5t-83 -50.5 q-72 -35 -138.5 -52.5t-113.5 -17.5q-49 -2 -85 13t-34 38z" />
<glyph unicode="&#x40f;" horiz-adv-x="1521" d="M49 868q0 49 37 108.5t89 117t109.5 105.5t100.5 75q104 66 191.5 106.5t181.5 40.5q25 0 37 -11t18 -27.5t7 -38t1 -41.5q0 -39 -46 -200t-169 -468q-29 -70 -53.5 -138.5t-45 -126t-32.5 -97.5t-12 -54q-2 -20 12 -22q25 0 91.5 56t170.5 173q20 25 70.5 83t117 138 t143.5 175.5t149 193.5q37 49 57 77.5t33.5 48t23.5 36t27 43.5q31 47 56.5 66.5t53.5 35.5q20 10 49 11t39 1q16 0 17 -18q-2 -10 -10.5 -24.5t-24.5 -51.5q-29 -59 -53.5 -116.5t-49 -119t-50 -132t-58.5 -156.5q-20 -55 -47 -140t-51.5 -174.5t-41 -170t-16.5 -130.5 q0 -8 1.5 -19t5.5 -20.5t15 -15.5t32 -6q33 0 77 18.5t91 48t93 66.5t87 72l20 -33q-190 -158 -315 -220.5t-180 -62.5q-33 0 -52.5 11.5t-28.5 28t-11 38t-2 41.5q0 51 21.5 144.5t55 213t76.5 258t88 277.5q-27 -33 -48 -59.5t-47 -56t-56.5 -66.5t-74.5 -88t-106.5 -123 t-148.5 -170q-53 -59 -97 -109.5t-86 -94.5t-84 -84t-89 -83q-16 -16 -62 -35q-37 -16 -65 -18q-29 0 -43 29q-8 27 -7 71q4 43 76 232q57 143 96 241.5t68 169t48.5 120.5t36.5 96.5t34.5 98.5t42.5 128q10 31 15 48t7 28.5t2 19.5v18q0 23 -8 40.5t-45 17.5 q-33 0 -71.5 -14.5t-72.5 -33t-60.5 -37t-34.5 -24.5q-39 -33 -83 -70.5t-85 -97.5q-23 -31 -30 -66.5t-13.5 -65.5t-18.5 -49t-41 -19q-18 0 -31.5 7t-13.5 25zM442 -682q39 47 59.5 98.5t33 107.5t19.5 117.5t17 129.5q10 66 52.5 151.5t134.5 179.5l16 -4 q-25 -53 -36 -105t-21 -132q-4 -35 -9.5 -80t-14.5 -92t-22.5 -92.5t-31.5 -79.5q-37 -72 -79 -119t-107 -96z" />
<glyph unicode="&#x410;" horiz-adv-x="1208" d="M43 -4q0 23 29.5 79t69.5 122.5t82 133t69 111.5q-25 2 -48.5 -3t-70.5 -5q-53 0 -65.5 15.5t-12.5 46.5q0 47 43 65.5t109 20.5q31 0 67.5 1t73.5 -1q80 104 184.5 218.5t218 225.5t230.5 211t221 176q4 2 10 4q12 4 29 4q37 1 37 -32q0 -23 -33 -118t-84 -253 q-14 -41 -31.5 -94.5t-36 -110.5t-37 -117.5t-34.5 -115.5q25 -2 73 -2t83 -5q-18 -37 -63.5 -53t-113.5 -22q-16 -57 -30 -111q-12 -47 -26.5 -98t-24.5 -92q-23 -84 -52.5 -116t-70.5 -32q-25 0 -47.5 30t-46 72t-48 87t-51.5 73q-66 72 -124 93.5t-93 25.5 q-14 -23 -43 -67t-62.5 -97t-71.5 -108.5t-71 -100.5t-59.5 -74.5t-36.5 -31.5q-29 4 -35 9t-6 36zM438 578h15q63 74 141 163q66 76 157 177.5t199 218.5l-4 2q-121 -106 -255 -252t-253 -309zM532 571q84 4 185.5 1t185.5 1q29 92 71 219.5t83 254.5q37 113 50 156t13 57 q-31 -27 -89 -84.5t-135 -144.5t-170 -202.5t-194 -257.5zM653 483q37 -25 72 -51q29 -23 60.5 -52.5t52.5 -60.5q4 8 6 12.5t6 17.5t11.5 43t23.5 89q-41 0 -65.5 -1t-46 -1h-48.5t-72 4z" />
<glyph unicode="&#x411;" horiz-adv-x="1216" d="M178 1135q0 14 58.5 41.5t153.5 60.5t216 67.5t244 62.5t237.5 45.5t198.5 17.5q86 0 132 -19t46 -76q0 -25 -24.5 -47t-59 -42.5t-72.5 -38t-65 -29.5l-6 14q49 27 60.5 51.5t11.5 50.5q0 45 -160 45q-92 0 -171 -10t-157 -22q-63 -145 -105 -270.5t-63 -188.5 q12 4 41 9t63 10t68.5 8.5t59.5 3.5q57 0 117.5 -4.5t107.5 -22.5t78 -58t31 -114t-39 -149.5t-100.5 -147.5t-139.5 -135.5t-156 -112.5q-47 -31 -101 -53.5t-105.5 -37.5t-92.5 -21.5t-63 -2.5q-10 -12 -20.5 -20t-26.5 -12l-60 -4q-18 -2 -26 9t-8 23q0 33 7 87.5 t21 105.5q18 70 41 142.5t43 131.5q23 68 47 133q4 12 10.5 32t16.5 48q-10 -4 -18 -8q-16 -6 -33 -6q-18 0 -20.5 4t-2.5 16q0 16 16.5 34t36.5 32q23 16 56 29q18 49 38.5 107.5t42 120.5t45 125.5t48.5 123.5q-160 -37 -246 -67.5t-127 -53.5t-54 -35t-30 -12 q-23 0 -32 3t-9 26zM451 104q10 -16 36.5 -13t63.5 3q43 0 97 21.5t109.5 58.5t110 86t95.5 105.5t66.5 116t25.5 116.5q0 68 -21.5 102.5t-56.5 49t-79 15.5t-89 1q-20 0 -50 -4t-58.5 -9t-52 -11.5t-32.5 -10.5q-20 -55 -41 -110q-16 -47 -34.5 -101.5t-30.5 -101.5 q-12 -45 -22.5 -90t-18.5 -87t-13 -77t-5 -60z" />
<glyph unicode="&#x412;" horiz-adv-x="1189" d="M145 4q0 12 5.5 30.5t11.5 39t13 40t11 29.5q-10 16 -18 31.5t-8 50.5q0 27 10 41.5t23.5 20.5t26.5 6h20q53 164 106 323q23 68 49.5 143t54 148.5t55 143t54.5 129.5q35 51 65.5 75.5t55.5 34.5q29 10 53 8q-16 -39 -41.5 -107.5t-56.5 -154.5t-64.5 -181t-64.5 -187 q-27 -74 -54.5 -161t-50.5 -161q-27 -88 -53 -174q16 -25 50 -49.5t75 -44t86 -32.5t86 -13q88 0 158.5 12t122 42t79 80t27.5 124q0 70 -25.5 121t-61.5 91t-76 70.5t-70 57.5q-49 43 -80 71.5t-31 67.5q0 29 15.5 50.5t37 39t44 30.5t38.5 23q98 66 164 129.5t66 149.5 q0 96 -55.5 138t-153.5 42q-129 0 -264.5 -50t-264.5 -179q-25 -25 -33 -48.5t-14 -43t-14 -31.5t-29 -12q-23 0 -40 5t-17 40q0 51 68.5 117.5t178 125t244 99.5t267.5 41q129 0 204.5 -46.5t75.5 -152.5q0 -43 -28.5 -86t-71.5 -84t-93 -78t-93 -67.5t-72 -55t-29 -39.5 q0 -25 26.5 -53.5t66.5 -62t87.5 -73.5t87 -84t66.5 -94t27 -104q0 -90 -47.5 -160.5t-126 -118.5t-180 -72.5t-212.5 -24.5q-55 0 -103 9t-88 22.5t-69.5 28.5t-46.5 26q-29 -37 -60.5 -59.5t-72.5 -22.5q-10 0 -19.5 5t-9.5 15z" />
<glyph unicode="&#x413;" horiz-adv-x="1009" d="M57 721q0 74 54.5 158t128 162.5t148.5 140t118 88.5q104 66 191 106.5t182 40.5q47 0 65.5 -34.5t18.5 -88.5q0 -16 -12.5 -61t-31 -108.5t-43 -138.5t-48 -151.5t-46 -150.5t-39.5 -131q-8 -31 -25.5 -94.5t-35.5 -130t-32.5 -120.5t-14.5 -69q0 -8 -3 -25.5t0 -35 t14 -30.5t42 -13q33 0 77 18.5t91 48t93 66.5t87 72l21 -33q-190 -158 -315.5 -220.5t-180.5 -62.5q-66 0 -88 25.5t-22 85.5q0 18 7 57t19 90t28.5 109.5t37.5 114.5q43 121 88 257t83 255.5t61.5 210t23.5 118.5q0 27 -18.5 44.5t-55.5 17.5q-33 0 -73 -14.5t-76.5 -33 t-64.5 -37t-36 -24.5q-66 -51 -139.5 -128t-130.5 -183q-18 -33 -25.5 -69t-14.5 -64.5t-20.5 -48t-42.5 -19.5q-18 0 -31.5 7t-13.5 26z" />
<glyph unicode="&#x414;" horiz-adv-x="1531" d="M152 989q0 86 30.5 171t116.5 159q33 29 77 51.5t90 38.5t89 25.5t74 9.5q162 0 264 -26.5t182 -69.5q14 23 41 64.5t55.5 82.5t57 71.5t47.5 30.5q10 0 21.5 -1t11.5 -17q0 -20 -20.5 -52t-49.5 -75q-12 -20 -27.5 -43t-30 -42t-24.5 -34.5t-12 -21.5q94 -61 183 -139 t156.5 -174.5t108.5 -211t41 -249.5q0 -66 -30.5 -135.5t-82 -134t-115 -117t-130.5 -84.5q-84 -41 -163 -62.5t-156.5 -32t-157.5 -12.5t-166 -2h-75t-45 -1t-27.5 -1h-18.5q-23 0 -43.5 2t-20.5 18q0 10 38 69.5t83 160.5q88 199 167 368.5t142.5 303t108.5 224.5t66 128 q-33 20 -80 42.5t-103.5 41t-123 31t-140.5 12.5q-78 0 -141.5 -20.5t-100.5 -57.5q-27 -29 -41 -56.5t-21 -51t-8 -42t-1 -24.5q0 -29 15.5 -55.5t15.5 -49.5q0 -27 -25 -56.5t-47 -29.5q-25 0 -40 16.5t-15 59.5zM584 106q20 -2 49 -4q25 -2 63.5 -2h96.5q43 0 113.5 -2 t148.5 1t152.5 17.5t125.5 47.5q43 27 72 67.5t46 84.5t24.5 88t7.5 79q0 109 -31 210.5t-85 190.5t-130 164.5t-166 135.5q-33 -53 -77 -139.5t-92 -187.5t-97 -211.5t-92 -212t-78 -187.5t-51 -140z" />
<glyph unicode="&#x415;" horiz-adv-x="1118" d="M98 240q0 80 34 150.5t86 131t115.5 107.5t123 80.5t107.5 52t69 20.5q-23 10 -56.5 28.5t-64.5 47.5t-53.5 69t-22.5 93q0 94 55.5 178t146.5 146.5t208 98.5t239 36q31 0 62 -6.5t55.5 -18.5t39.5 -32.5t15 -49.5q0 -33 -13 -59.5t-33.5 -46t-45 -32.5t-47.5 -20l-12 7 q23 25 26 48t3 40q0 41 -44 68.5t-133 27.5q-92 0 -162.5 -28.5t-118.5 -74t-72.5 -101.5t-24.5 -111q0 -84 44 -132.5t96 -75t96 -40t44 -31.5q0 -25 -23.5 -45.5t-58.5 -26.5q-86 0 -175 -26.5t-159.5 -78.5t-115.5 -131t-45 -184q0 -61 16 -115t52 -94t92.5 -62.5 t136.5 -22.5q106 0 205.5 30.5t181.5 71.5t141 83t88 64l23 -28q-33 -29 -108 -78t-175 -98.5t-220 -85t-243 -35.5q-186 0 -280.5 77.5t-94.5 213.5z" />
<glyph unicode="&#x416;" horiz-adv-x="1992" d="M16 567q0 10 4.5 40t12.5 50q41 113 114.5 223.5t147.5 196.5q164 186 307 270.5t242 84.5q82 0 114.5 -63.5t32.5 -156.5q0 -117 -13 -211t-28 -153q27 20 62 47q29 23 66.5 54.5t78.5 70.5q41 37 79 71.5t71.5 61.5t61.5 42t48 15q6 0 13.5 -6t3.5 -18l-322 -887l6 -4 l477 614q29 51 45.5 82t31 53.5t29.5 46t44 60.5q35 45 72.5 57.5t54.5 12.5q23 0 23.5 -14.5t0.5 -30.5q0 -10 -11 -31t-26.5 -46.5t-32 -52t-28.5 -47.5q-33 -57 -60.5 -114.5t-41.5 -89.5q-16 -41 -42 -112t-50.5 -150.5t-42 -157.5t-17.5 -129q0 -98 35 -135t92 -37 q96 0 174 30.5t133 67.5q66 43 117 98q12 8 19.5 12.5t17.5 4.5t10 -27q0 -16 -50 -60t-133 -92.5t-187.5 -85t-215.5 -36.5q-78 0 -127 48t-49 142q0 68 15.5 147.5t37 153.5t44 132.5t34.5 84.5l-4 8q-33 -35 -88 -103.5t-116.5 -147t-120 -153.5t-97.5 -124 q-51 -61 -86.5 -89t-58.5 -28q-8 0 -16.5 3t-8.5 18q0 14 20.5 77.5t55.5 155.5q31 80 66 174.5t69.5 191.5t66.5 189t56 166q-43 -31 -98 -76t-104 -88q-57 -51 -115 -104q-18 -59 -53 -139t-76 -164t-85 -164t-83 -137q-25 -35 -55.5 -74t-64.5 -70.5t-70.5 -52 t-69.5 -20.5q-35 0 -45.5 19.5t-10.5 45.5q0 37 35 113t84 160t103.5 161.5t93.5 118.5l131 139q14 29 25.5 78t20.5 104.5t14 108.5t5 90q0 102 -20 166t-90 64q-49 0 -106.5 -27t-115 -68.5t-111.5 -92t-93 -99.5q-33 -39 -70 -95.5t-68.5 -113.5t-53 -107.5t-21.5 -78.5 q0 -10 3 -26.5t2 -32t-9 -25.5t-29 -10q-33 0 -33 32zM446 88q0 -33 25 -33q16 0 41 32t52.5 83t55 113.5t53 125t44 116.5t26.5 89q-31 -29 -81 -96t-98 -145t-83 -156t-35 -129z" />
<glyph unicode="&#x417;" horiz-adv-x="1073" d="M4 152q0 43 19.5 73.5t47 52t58.5 33t55 13.5l4 -7q-23 -29 -35 -63.5t-12 -65.5q0 -68 52.5 -103.5t150.5 -35.5q102 0 186 50.5t144.5 126t93.5 165.5t33 170q0 150 -94 191q-12 6 -28.5 9t-31.5 5q-45 6 -45 20t6 19.5t17 11.5q27 12 57.5 25.5t89.5 50.5 q37 23 75 55.5t70.5 74.5t53 92t20.5 106q0 86 -40 122.5t-109 36.5q-53 0 -108.5 -16t-106.5 -45q-57 -31 -92 -65.5t-57.5 -62.5t-38 -46.5t-29.5 -18.5q-20 0 -26.5 2t-6.5 31q0 23 20.5 48.5t53 51t74.5 51t87 50.5q78 41 167 63.5t155 22.5q111 0 162 -38t51 -118 q0 -111 -96.5 -221.5t-245.5 -210.5q18 -6 47 -20.5t56.5 -42t48 -72.5t20.5 -111q0 -86 -36 -166.5t-94.5 -151.5t-133 -128t-155.5 -99t-160 -64.5t-144 -22.5q-135 0 -192.5 48t-57.5 124z" />
<glyph unicode="&#x418;" horiz-adv-x="1521" d="M49 868q0 49 37 108.5t89 117t109.5 105.5t100.5 75q104 66 191.5 106.5t181.5 40.5q25 0 37 -11t18 -27.5t7 -38t1 -41.5q0 -39 -46 -200t-169 -468q-29 -70 -53.5 -138.5t-45 -126t-32.5 -97.5t-12 -54q-2 -20 12 -22q25 0 91.5 56t170.5 173q20 25 70.5 83t117 138 t143.5 175.5t149 193.5q37 49 57 77.5t33.5 48t23.5 36t27 43.5q31 47 56.5 66.5t53.5 35.5q20 10 49 11t39 1q16 0 17 -18q-2 -10 -10.5 -24.5t-24.5 -51.5q-29 -59 -53.5 -116.5t-49 -119t-50 -132t-58.5 -156.5q-20 -55 -47 -140t-51.5 -174.5t-41 -170t-16.5 -130.5 q0 -8 1.5 -19t5.5 -20.5t15 -15.5t32 -6q33 0 77 18.5t91 48t93 66.5t87 72l20 -33q-190 -158 -315 -220.5t-180 -62.5q-33 0 -52.5 11.5t-28.5 28t-11 38t-2 41.5q0 51 21.5 144.5t55 213t76.5 258t88 277.5q-27 -33 -48 -59.5t-47 -56t-56.5 -66.5t-74.5 -88t-106.5 -123 t-148.5 -170q-53 -59 -97 -109.5t-86 -94.5t-84 -84t-89 -83q-16 -16 -62 -35q-37 -16 -65 -18q-29 0 -43 29q-8 27 -7 71q4 43 76 232q57 143 96 241.5t68 169t48.5 120.5t36.5 96.5t34.5 98.5t42.5 128q10 31 15 48t7 28.5t2 19.5v18q0 23 -8 40.5t-45 17.5 q-33 0 -71.5 -14.5t-72.5 -33t-60.5 -37t-34.5 -24.5q-39 -33 -83 -70.5t-85 -97.5q-23 -31 -30 -66.5t-13.5 -65.5t-18.5 -49t-41 -19q-18 0 -31.5 7t-13.5 25z" />
<glyph unicode="&#x419;" horiz-adv-x="1546" d="M49 868q0 49 37 108.5t89 117t109.5 105.5t100.5 75q104 66 191.5 106.5t181.5 40.5q25 0 37 -11t18 -27.5t7 -38t1 -41.5q0 -39 -46 -200t-169 -468q-29 -70 -53.5 -138.5t-45 -126t-32.5 -97.5t-12 -54q-2 -20 12 -22q25 0 91.5 56t170.5 173q20 25 70.5 83t117 138 t143.5 175.5t149 193.5q37 49 57 77.5t33.5 48t23.5 36t27 43.5q31 47 56.5 66.5t53.5 35.5q20 10 49 11t39 1q16 0 17 -18q-2 -10 -10.5 -24.5t-24.5 -51.5q-29 -59 -53.5 -116.5t-49 -119t-50 -132t-58.5 -156.5q-20 -55 -47 -140t-51.5 -174.5t-41 -170t-16.5 -130.5 q0 -8 1.5 -19t5.5 -20.5t15 -15.5t32 -6q33 0 77 18.5t91 48t93 66.5t87 72l20 -33q-190 -158 -315 -220.5t-180 -62.5q-33 0 -52.5 11.5t-28.5 28t-11 38t-2 41.5q0 51 21.5 144.5t55 213t76.5 258t88 277.5q-27 -33 -48 -59.5t-47 -56t-56.5 -66.5t-74.5 -88t-106.5 -123 t-148.5 -170q-53 -59 -97 -109.5t-86 -94.5t-84 -84t-89 -83q-16 -16 -62 -35q-37 -16 -65 -18q-29 0 -43 29q-8 27 -7 71q4 43 76 232q57 143 96 241.5t68 169t48.5 120.5t36.5 96.5t34.5 98.5t42.5 128q10 31 15 48t7 28.5t2 19.5v18q0 23 -8 40.5t-45 17.5 q-33 0 -71.5 -14.5t-72.5 -33t-60.5 -37t-34.5 -24.5q-39 -33 -83 -70.5t-85 -97.5q-23 -31 -30 -66.5t-13.5 -65.5t-18.5 -49t-41 -19q-18 0 -31.5 7t-13.5 25zM1010 1501q0 8 5 21.5t9 23.5q12 29 33.5 50.5t56.5 21.5q12 0 21.5 -6t29 -13.5t53 -13.5t95.5 -6 q47 0 109.5 34t109.5 89q25 27 35 67q8 37 51 37q24 1 22 -32q0 -16 -22.5 -53.5t-67.5 -78.5t-87 -71.5t-83 -50.5q-72 -35 -138 -52.5t-114 -17.5q-49 -2 -84.5 13.5t-33.5 37.5z" />
<glyph unicode="&#x41a;" horiz-adv-x="1253" d="M57 39q0 10 11.5 51t31 104.5t45 145.5t54.5 174q27 86 54.5 177t55 181.5t54 173t51.5 154.5q8 23 18 50.5t20.5 54t20.5 49t19 35.5q12 18 33.5 31.5t44 22.5t44 13t35.5 4q8 0 8 -26q0 -10 -7 -29t-17 -41.5t-20.5 -46t-18.5 -43.5q-20 -53 -51 -146.5t-62.5 -191.5 t-58.5 -185t-39 -130l6 -3l82 111q4 20 12.5 52t42.5 67q14 14 33 20t29 6q51 57 93 103.5t81 87.5t75.5 79t77.5 79t87.5 73.5t92.5 56t88 36t77 12.5q8 0 20 -1t24.5 -5t20.5 -13.5t8 -25.5q0 -33 -17.5 -67t-46 -64.5t-64.5 -57t-70 -43.5l-9 13q20 23 35 48t15 50 q0 37 -41 37q-37 0 -97.5 -31t-128.5 -96q-45 -43 -93 -94.5t-89 -94.5q-49 -53 -96 -102q6 -12 14 -31q6 -16 13.5 -36.5t17.5 -47.5q14 -49 32.5 -102t36 -104.5t35 -99.5t31.5 -87q51 -137 108.5 -223t124.5 -86q57 0 105.5 25.5t120.5 84.5l14 -43q-104 -104 -192 -146 t-174 -42q-31 0 -65 14.5t-69.5 49t-70.5 93t-66 146.5q-25 68 -48.5 141.5t-45 138t-37.5 116t-24 73.5q-16 -29 -62.5 -89t-91.5 -175q-16 -39 -29.5 -78t-23.5 -70q-12 -37 -21 -71q-10 -31 -16 -56.5t-15 -39.5q-10 -25 -24 -41q-16 -23 -48 -44.5t-61 -21.5 q-43 0 -43 37z" />
<glyph unicode="&#x41b;" horiz-adv-x="1236" d="M20 123q0 33 15.5 64.5t34.5 54.5q16 23 43.5 36t50.5 21q2 -16 3 -37.5t7 -40t20.5 -32t38.5 -13.5q31 0 64 12.5t73 43t90 83t118 131.5q66 80 126 162t108 155t83 130t51 86q14 45 32.5 104.5t39 118t42 110.5t42.5 81q51 59 93 78.5t69 19.5q16 0 20 -8t4 -31 q0 -20 -13 -62t-33.5 -92.5t-43 -105.5t-43.5 -102q-18 -41 -43 -118t-52.5 -170t-54 -191.5t-48 -182.5t-35 -144.5t-13.5 -74.5q0 -12 -2 -29.5t2 -35t15.5 -30t40.5 -12.5q66 0 159 55.5t203 135.5l14 -25q-39 -33 -94 -75.5t-157 -102.5q-55 -33 -95.5 -55.5t-71 -36.5 t-54 -20.5t-46.5 -6.5q-27 0 -42 10.5t-24 26t-12.5 35.5t-3.5 39q0 33 7.5 83t19.5 107.5t28.5 120t32.5 121.5q37 141 89 297l-11 6q-18 -27 -58 -85t-89 -126.5t-100.5 -138.5t-94.5 -119q-90 -106 -156.5 -174t-118.5 -106.5t-94 -53t-79 -14.5q-53 0 -75 33t-22 90z " />
<glyph unicode="&#x41c;" horiz-adv-x="1677" d="M-51 100q0 74 41 131.5t88 81.5l12 -2q-2 -23 -1 -47t7 -45.5t17.5 -36t33.5 -14.5q16 0 41 11t59 39t79 76t104 124q51 66 116.5 162t129 198.5t119 197.5t86.5 159q16 43 24 68.5t14.5 42t12.5 29.5t18 36q16 29 45 47t54 18q35 0 52 -2t17 -31q0 -68 -28.5 -139 t-57.5 -164q-31 -96 -63.5 -206.5t-60 -210t-47 -175t-25.5 -102.5q-2 -6 -6.5 -22.5t-7.5 -34t-3 -30.5t6 -13t44 38t93.5 102.5t124 148t138 176t134 185.5t111.5 177q18 55 33 96t27 74t25.5 59.5t33.5 53.5q31 41 61.5 52t61.5 11q23 0 27 -19.5t4 -47.5 q0 -23 -15.5 -69t-37 -98t-45 -101.5t-41.5 -79.5q-12 -33 -36 -104t-52.5 -157t-58.5 -178t-55.5 -171t-40.5 -134t-15 -65q0 -12 -3.5 -27.5t-1.5 -28t13.5 -20.5t42.5 -8t75 18t94 47t104 64.5t106 70.5l20 -32q-29 -20 -54.5 -40t-54 -40.5t-65.5 -44t-86 -52.5 q-68 -41 -117 -66.5t-85 -40.5t-58.5 -21.5t-38.5 -6.5q-49 0 -59.5 29t-10.5 53q0 18 10.5 61.5t26 101.5t36 127t42.5 136q51 160 115 350l-8 2q-80 -104 -209 -266t-340 -405q-16 -18 -41 -45t-49.5 -51.5t-48 -41t-37.5 -16.5q-27 0 -33 13.5t-6 39.5q0 25 20.5 108 t51 192.5t64.5 229.5t58 218l33 129l-10 4q-8 -14 -34 -55t-61.5 -98.5t-78.5 -123t-85 -128t-80 -117t-63 -86.5q-80 -104 -140 -171t-108.5 -106t-86 -53t-72.5 -14q-31 0 -47.5 13t-24.5 31.5t-10 39t-2 32.5z" />
<glyph unicode="&#x41d;" horiz-adv-x="1165" d="M-10 51q0 12 13 57.5t31.5 101.5t38 112.5t31.5 91.5l105 268q-10 12 -17.5 30.5t-7.5 53.5q0 18 8.5 35.5t21.5 33t29.5 23.5t35.5 8q37 111 69 205q14 39 27.5 79t26 73.5t23.5 57.5t17 34q25 35 44.5 52t36 23.5t27.5 6.5h21q16 0 17 -29q0 -29 -19.5 -82t-48.5 -127 l-131 -344q6 -18 23 -31q14 -12 41.5 -21t74.5 -9q57 0 114.5 18.5t105 43t79 49t37.5 36.5q16 41 28.5 94.5t29.5 100.5q25 76 46 124t39.5 76.5t34 43t27.5 22.5q23 16 47.5 26.5t36.5 10.5q16 0 17 -8.5t1 -24.5q0 -12 -12 -48t-33.5 -93.5t-50 -132t-59.5 -162.5 t-63.5 -192.5t-58.5 -210t-43 -202t-17 -167.5q0 -8 1 -23.5t7 -30t18 -24.5t37 -10q39 0 80 18t85 50t91 75t98 90l21 -33q-53 -51 -113.5 -105t-142.5 -108q-45 -29 -78 -47t-57.5 -27.5t-45 -12.5t-40.5 -3q-37 0 -59.5 15.5t-35 37t-16.5 47t-4 48.5q0 37 9 94 t23.5 124.5t33 138.5t36 134.5t32.5 115.5t26 81q-76 -51 -152 -88q-66 -35 -137.5 -61.5t-130.5 -26.5q-23 0 -40.5 1t-27.5 3q-12 2 -22 6q-8 -25 -21.5 -73t-30 -106.5t-35 -123t-34.5 -120.5t-31.5 -98t-23.5 -57q-27 -43 -57.5 -59t-49.5 -16q-39 0 -48 16t-9 51z" />
<glyph unicode="&#x41e;" horiz-adv-x="1384" d="M170 307q0 166 49 311.5t119 259t147.5 192.5t135.5 114q70 135 192.5 200.5t253.5 65.5q82 0 139.5 -32t93 -84t51 -116.5t15.5 -127.5q0 -61 -9 -139.5t-34 -166.5t-69 -184t-113 -197q-141 -203 -312.5 -321.5t-363.5 -118.5q-78 0 -133.5 31t-91 80t-53 110.5 t-17.5 122.5zM350 414q0 -63 12.5 -124t41 -109t76.5 -76.5t120 -28.5q111 0 208 67.5t185 190.5q51 70 90 160t67 186t42 191.5t14 177.5q0 45 -8 101t-32.5 105.5t-70.5 82t-122 32.5q-51 0 -95 -14.5t-78 -38t-57.5 -50t-35.5 -50.5q55 35 123.5 57t115.5 22 q43 0 62.5 -5t19.5 -25q0 -16 -14 -17q-16 0 -29.5 6.5t-38.5 6.5q-29 0 -64.5 -7.5t-72.5 -21.5t-69.5 -34.5t-57.5 -45.5q-4 -16 -2 -27.5t-2 -27.5q-6 -20 -25.5 -26.5t-36.5 -6.5q-14 0 -17 14.5t1 26.5q-39 -43 -83 -101.5t-81 -141.5t-61.5 -193.5t-24.5 -255.5z" />
<glyph unicode="&#x41f;" horiz-adv-x="1308" d="M104 51q0 10 6.5 32.5t15.5 51.5t19.5 59.5t18.5 57.5q25 74 56.5 166t64 185t62.5 176t46 136q4 14 17.5 52.5t27 80.5t23.5 77.5t10 45.5q0 43 -4 49.5t-18 6.5q-43 0 -119 -58.5t-195 -177.5l-12 41q178 174 310 262t185 88q20 0 33 -9t13 -38q0 -45 -11.5 -81.5 t-27.5 -92.5q-10 -37 -25.5 -87t-34 -106.5t-39 -115.5t-41.5 -115q-47 -131 -98 -274l10 -8q137 250 264 425t230.5 285.5t177.5 161.5t109 51q45 0 52 -35.5t7 -85.5q0 -29 -17.5 -103.5t-44 -171.5t-55 -202.5t-53.5 -195.5q-8 -31 -25.5 -94.5t-36 -130t-33 -121 t-14.5 -68.5q0 -8 -3 -25.5t0 -35t14.5 -30.5t42.5 -13q33 0 77 18t91 48t93 67t87 71l20 -32q-190 -158 -315 -220.5t-180 -62.5q-66 0 -88.5 25.5t-22.5 85.5q0 37 25.5 134t66.5 236q57 197 95 333t58.5 225t29 136.5t8.5 61.5q0 29 -21 29q-25 0 -65.5 -37t-81.5 -82 q-47 -53 -98 -119q-49 -49 -101.5 -120.5t-103.5 -155.5t-98.5 -173.5t-87.5 -169t-70.5 -146t-46.5 -105.5q-8 -12 -25.5 -29.5t-39 -34t-44 -28t-43.5 -11.5q-23 0 -24 10.5t-3 30.5z" />
<glyph unicode="&#x420;" horiz-adv-x="1316" d="M86 1040q0 25 38 66t106.5 87t160.5 93t200.5 86t227.5 62.5t242 23.5q109 0 183.5 -19.5t120.5 -55t65.5 -85t19.5 -106.5q0 -109 -67.5 -211t-178 -185t-251 -137.5t-285.5 -64.5q-33 -104 -58.5 -176t-36.5 -139q-10 -59 -7 -93t3 -63q0 -8 -13 -38t-24 -44 q-23 -31 -49 -52.5t-65 -21.5q-12 0 -27.5 14.5t-15.5 49.5q0 72 26.5 166t61.5 192q8 25 20.5 57.5t22.5 61.5q12 35 24 72q-55 2 -86.5 14t-31.5 35q0 18 4 41.5t26 25.5q18 0 26.5 -16t31.5 -27q20 -10 37 -10q8 -2 20 0q51 137 103.5 281.5t117.5 320.5q29 27 58.5 38 t52.5 15q27 4 53 0q-10 -33 -40 -109.5t-67.5 -170.5t-76.5 -193.5t-66 -177.5q106 2 214 43t194 107.5t140 155.5t54 190q0 106 -79.5 167.5t-245.5 61.5q-111 0 -225.5 -20.5t-218 -56t-187.5 -85t-133 -104.5q-16 -18 -20.5 -37.5t-7.5 -36t-9 -27t-25 -10.5 q-23 0 -40 5.5t-17 39.5z" />
<glyph unicode="&#x421;" horiz-adv-x="976" d="M102 279q0 104 19.5 206.5t73.5 233.5q90 221 221 378.5t289 254.5q72 43 137 64.5t119 21.5q25 0 49 -4t43.5 -16.5t33 -33t13.5 -53.5q0 -82 -74 -157q-8 -10 -25.5 -24.5t-38 -28t-43 -24t-40.5 -10.5q-12 0 -13 15q33 29 52.5 70.5t19.5 93.5q0 33 -25.5 45t-60.5 12 q-61 0 -130 -33t-135.5 -93t-127 -142t-106.5 -181.5t-72.5 -210t-26.5 -227.5q0 -172 62.5 -269t205.5 -97q98 0 184.5 34.5t153 76.5t110.5 77t58 35q16 0 10 -31q-2 -8 -34.5 -37.5t-91 -68.5t-137.5 -82t-171 -76q-53 -18 -110.5 -28.5t-108.5 -10.5q-121 0 -202 81 t-81 239z" />
<glyph unicode="&#x422;" horiz-adv-x="1785" d="M104 51q0 10 6.5 32.5t15.5 51.5t19.5 59.5t18.5 57.5q25 74 56.5 166t64 185t62.5 176t46 136q4 14 17.5 52.5t27 80.5t23.5 77.5t10 45.5q0 43 -4 49.5t-18 6.5q-43 0 -119 -58.5t-195 -177.5l-12 41q178 174 310 262t185 88q20 0 33 -9t13 -38q0 -45 -11.5 -81.5 t-27.5 -92.5q-10 -37 -25.5 -87t-34 -106.5t-39 -115.5t-41.5 -115q-47 -131 -98 -274l10 -8q145 272 271.5 450t226.5 283.5t172 147.5t111 42q20 0 28 -7t8 -42q0 -20 -15 -76.5t-38.5 -133.5t-51.5 -164t-54.5 -166.5t-48 -143t-29.5 -94.5h6q129 174 236.5 321.5 t196.5 255t161 167t129 59.5q27 0 32 -15.5t5 -35.5q0 -14 -11.5 -58.5t-28.5 -105t-39 -133t-44.5 -146.5t-44 -146.5t-37.5 -129.5q-8 -31 -25.5 -94.5t-36 -130t-32.5 -121t-14 -68.5q0 -8 -3.5 -21.5t-3.5 -25.5t6.5 -20.5t24.5 -8.5q33 0 77 14.5t93 39t101.5 56.5 t105.5 66l20 -32q-223 -154 -370.5 -226.5t-212.5 -72.5q-29 0 -37 24.5t-4 50.5q2 18 11 60.5t24.5 98.5t35 124t39.5 139q14 51 34 115.5t41.5 133.5t43 136.5t37.5 125t27.5 99t13.5 58.5q0 16 2 27.5t-12 11.5t-46 -38t-73 -81q-23 -23 -64 -75t-92 -121.5 t-108.5 -150.5t-108.5 -161q-33 -49 -67.5 -119.5t-64.5 -137t-51.5 -115t-23.5 -52.5q-33 -47 -70.5 -67.5t-78.5 -20.5q-10 0 -10 10q0 16 2 30.5t8 36t17.5 54.5t27.5 86l227 727q23 68 34 117t13 72q0 20 -12 24q-18 0 -68.5 -44t-123.5 -134q-43 -51 -92.5 -125 t-100.5 -158t-100 -172t-91 -166.5t-75 -144t-49 -104.5q-8 -12 -25.5 -29.5t-39 -34t-44 -28t-43.5 -11.5q-23 0 -24 10.5t-3 30.5z" />
<glyph unicode="&#x423;" horiz-adv-x="1275" d="M51 913q0 49 37 108.5t89 117t109.5 105.5t100.5 75q104 66 191.5 106.5t181.5 40.5q25 0 37 -11t18 -27.5t7 -38t1 -41.5q0 -25 -10 -67t-25.5 -90t-33 -98.5t-33.5 -95.5q-14 -37 -32.5 -87t-35 -97t-28 -84t-11.5 -45q0 -23 27 -22q16 0 27.5 5t31.5 15 q45 18 105.5 66.5t123 107.5t117 125t87.5 119q18 57 36.5 103t36.5 85q35 72 64 96q53 45 123 48q26 0 26 -33q0 -35 -15 -73t-36.5 -78t-47.5 -77.5t-44 -68.5q-57 -166 -109.5 -317.5t-115.5 -284.5q-121 -256 -305.5 -401.5t-405.5 -145.5q-86 0 -132 16.5t-44 46.5 q0 4 7 22.5t32 18.5q18 0 28.5 -10t21.5 -21.5t26.5 -21.5t44.5 -10q86 0 154.5 19.5t128 62.5t114.5 112.5t117 171.5q31 51 57.5 109.5t55 128.5t60 150.5t70.5 175.5l-6 2q-23 -29 -68.5 -71t-104 -90t-123 -97.5t-122.5 -89.5q-14 -10 -37.5 -22.5t-50 -23t-54.5 -17.5 t-52 -7q-27 0 -35 19.5t-8 60.5q0 18 14.5 61t34.5 97.5t44 110.5t42 101q23 51 42 103.5t32.5 98.5t21.5 82t8 58q0 23 -8 40.5t-45 17.5q-33 0 -71.5 -14.5t-72.5 -33t-60.5 -37t-34.5 -24.5q-39 -33 -83 -70.5t-85 -97.5q-23 -31 -30 -66.5t-13 -65t-18.5 -49 t-41.5 -19.5q-18 0 -31.5 7t-13.5 25z" />
<glyph unicode="&#x424;" horiz-adv-x="1673" d="M188 575q0 152 80 270t202 198.5t267.5 125.5t278.5 52q33 84 58.5 144t39.5 79q8 10 21.5 21.5t33.5 17.5q23 6 55.5 10t51.5 4q10 0 12 -7t2 -11t-17.5 -42t-37.5 -83q-25 -53 -55 -117h41q215 0 326.5 -78t111.5 -254q0 -68 -19.5 -134t-53.5 -126.5t-77 -113 t-92 -93.5q-117 -98 -270.5 -164.5t-325.5 -66.5q-10 -39 -18 -84t-19 -74q-4 -12 -8 -20.5t-10 -18.5q-8 -18 -31.5 -42.5t-62.5 -51.5q-14 -10 -29.5 -14t-30.5 -8q-41 0 -43 28q0 8 9.5 38t22.5 70t28.5 86t27.5 89q-231 0 -350 95t-119 275zM360 573q0 -139 74 -223 t242 -88q16 57 32.5 110.5t34.5 106.5q51 147 110.5 313t133.5 363q-109 -4 -220.5 -41t-201.5 -109.5t-147.5 -180t-57.5 -251.5zM838 266q127 0 229 32t201 120q117 102 167 229t50 242q0 152 -82 217t-215 65h-35q-66 -176 -107.5 -289.5t-68.5 -190.5t-43 -130t-35 -106 q-18 -55 -33.5 -101.5t-27.5 -87.5z" />
<glyph unicode="&#x425;" horiz-adv-x="1034" d="M12 -2q8 20 40 80.5t81 142.5t112.5 179.5t139.5 195.5q-31 213 -48.5 339t-21.5 167q-6 53 -17 75.5t-24 30.5q-14 8 -29.5 8.5t-15.5 24.5q0 12 6.5 29.5t15.5 38t22.5 42t25.5 38.5q16 23 33.5 34t27.5 11q8 0 19.5 -1t22 -10.5t19.5 -30t15 -59.5q10 -61 19.5 -138 t17.5 -155.5t15.5 -154.5t17.5 -135q51 74 107.5 148.5t110.5 143t99 126t76 94.5q47 59 91 106t67 47q14 0 28.5 -8t14.5 -37t-9.5 -46t-29 -35.5t-49 -44t-72.5 -68.5q-27 -27 -79 -84.5t-112.5 -129t-121 -149.5t-103.5 -143q23 -156 47.5 -265.5t54 -179t64.5 -102.5 t80 -33q39 0 86 17.5t93 44t88 58.5t73 62l20 -32q-35 -31 -86 -74t-111.5 -84t-127 -69.5t-133.5 -28.5q-102 0 -167 134t-99 412q-35 -45 -91.5 -118.5t-126.5 -206.5q-23 -41 -39 -89t-30.5 -88t-27.5 -67t-25 -27q-31 0 -42.5 18.5t-11.5 45.5z" />
<glyph unicode="&#x426;" horiz-adv-x="1509" d="M49 868q0 49 37 108.5t89 117t109.5 105.5t100.5 75q104 66 191.5 106.5t181.5 40.5q47 0 55 -35.5t8 -82.5t-49 -206t-166 -462q-27 -70 -52.5 -138.5t-46 -126t-32.5 -97.5t-12 -54q-2 -20 12 -22q25 0 91.5 56t170.5 173q20 25 70.5 83t117 138t143.5 175.5t149 193.5 q37 49 58 81.5t36.5 58.5t28 47.5t28.5 47.5q31 47 56.5 66.5t54.5 36.5q20 10 48.5 11t39.5 1q16 0 16 -18q-2 -10 -10 -24.5t-25 -51.5q-29 -59 -54.5 -120.5t-52 -129.5t-54 -143.5t-60.5 -161.5q-20 -55 -49 -142.5t-54.5 -179.5t-43 -176t-17.5 -133q0 -57 11.5 -110.5 t23.5 -99.5t23.5 -86t11.5 -73q0 -80 -35 -157.5t-90 -146t-126 -124t-144 -92.5l-13 21q45 29 96.5 68.5t94.5 89t70.5 107.5t27.5 126q0 49 -17.5 104.5t-38 112.5t-37.5 113.5t-17 109.5q0 51 21.5 144.5t55 213t76.5 258t88 277.5q-41 -49 -74.5 -93t-84 -105.5 t-127 -151.5t-201.5 -232q-53 -59 -96.5 -106t-84 -87t-81.5 -78t-88 -81q-10 -10 -26.5 -18t-35.5 -17q-18 -8 -32.5 -13t-32.5 -5q-25 0 -37.5 22.5t-12.5 61.5q0 23 19.5 87t56.5 161q57 143 96 241.5t68 169t48.5 120.5t36.5 96.5t34.5 98.5t42.5 128q10 31 15 48 t7 28.5t2 19.5v18q0 23 -8 40.5t-45 17.5q-33 0 -71.5 -14.5t-72.5 -33t-60.5 -37t-34.5 -24.5q-39 -33 -83 -70.5t-85 -97.5q-23 -31 -30 -66.5t-13.5 -65.5t-18.5 -49t-41 -19q-18 0 -31.5 7t-13.5 25z" />
<glyph unicode="&#x427;" horiz-adv-x="1343" d="M-37 770q0 74 54.5 158t128 162.5t148.5 140t118 88.5q104 66 191 106.5t181 40.5q25 0 37.5 -11t18.5 -27.5t7 -38t1 -41.5q0 -25 -10.5 -67t-25.5 -90t-32.5 -98.5t-34.5 -95.5q-14 -37 -32.5 -87t-34.5 -97t-27.5 -84t-11.5 -45q0 -23 27 -22q16 0 27.5 5t31.5 15 q45 18 105.5 66.5t123 107.5t116.5 125t87 119q18 57 36.5 103t37.5 85q35 72 63 96q53 45 123 48q27 0 27 -33q0 -35 -15.5 -73t-37 -78t-47 -77.5t-44.5 -68.5q-18 -55 -47.5 -130t-63.5 -161t-68 -177t-60.5 -179t-44 -168t-17.5 -142v-20t5.5 -23.5t17.5 -19.5t37 -8 q39 0 80 18.5t85 50t91 74.5t98 90l21 -33q-53 -51 -113.5 -105t-142.5 -108q-90 -59 -139.5 -78.5t-90.5 -19.5q-31 0 -51 13.5t-31.5 35t-15.5 45t-4 45.5q0 74 26.5 176.5t65.5 214t84 224t84 207.5l-6 2q-23 -29 -69 -71t-104.5 -90t-123 -97.5t-121.5 -89.5 q-14 -10 -37.5 -22.5t-50.5 -23t-54.5 -17.5t-52.5 -7q-27 0 -35 19.5t-8 60.5q0 18 14.5 61t35 97.5t44 110.5t42.5 101q23 51 42 103.5t32.5 98.5t21.5 82t8 58q0 23 -8 40.5t-45 17.5q-33 0 -73 -14.5t-77 -33t-64.5 -37t-35.5 -24.5q-66 -51 -139.5 -128t-130.5 -183 q-18 -33 -25.5 -68.5t-15 -64.5t-20.5 -48.5t-42 -19.5q-18 0 -31.5 7.5t-13.5 25.5z" />
<glyph unicode="&#x428;" horiz-adv-x="2129" d="M-33 770q0 49 45 123t107.5 147.5t128 136t108.5 89.5q104 66 193.5 110.5t183.5 44.5q25 0 37 -11t18.5 -27.5t7.5 -38t1 -41.5q0 -39 -46 -200t-169 -468q-29 -70 -53.5 -138.5t-45 -126t-33 -97.5t-12.5 -54q-4 -23 13 -22q25 0 86 55t148 153.5t195.5 234.5 t229.5 300q37 49 60.5 89t41 74t30.5 62.5t30 55.5q31 47 56.5 66.5t53.5 35.5q20 10 49 11t39 1q16 0 17 -18q-2 -10 -10.5 -24.5t-24.5 -51.5q-29 -59 -53.5 -116.5t-49 -119t-50 -132t-58.5 -156.5q-14 -37 -29.5 -89.5t-32 -110.5t-30.5 -115.5t-25.5 -104.5t-18.5 -80 t-7 -39q0 -23 12 -22q25 0 85 60t146 166.5t195 248t229 305.5q37 49 60.5 89t41 74t31 62.5t29.5 55.5q31 47 56.5 66.5t54.5 35.5q20 10 49 11t39 1q16 0 16 -18q-2 -10 -10 -24.5t-25 -51.5q-29 -59 -53 -116.5t-49 -119t-50.5 -132t-58.5 -156.5q-20 -55 -46.5 -140.5 t-51 -174.5t-41 -170t-16.5 -130q0 -8 1 -19t5 -20.5t15.5 -15.5t31.5 -6q33 0 77 18.5t91 48t93 66.5t87 72l21 -33q-190 -158 -315.5 -220.5t-180.5 -62.5q-33 0 -52.5 11.5t-28.5 28t-11 38t-2 41.5q0 51 18.5 139t49 199t70.5 238t85 253q-33 -43 -82 -109.5 t-108.5 -145t-126 -164.5t-134 -167t-133 -151.5t-120.5 -120.5q-16 -14 -54.5 -31.5t-72.5 -21.5q-29 0 -39.5 34t-10.5 66q0 35 18.5 119t49.5 197t72 243t86 257q-33 -43 -86.5 -111t-119 -147.5t-139 -166.5t-146 -170t-142.5 -155t-125 -121q-10 -8 -24.5 -16 t-36.5 -19q-37 -16 -66 -18q-29 0 -43 29q-8 27 -6 71q4 43 76 232q57 143 96 241.5t67.5 169t48 120.5t37 96.5t35 98.5t41.5 128q10 31 15.5 48t7.5 28.5t2 19.5v18q0 23 -8.5 40.5t-44.5 17.5q-53 0 -120 -36t-132.5 -90t-123 -121t-89.5 -128q-18 -33 -25.5 -68.5 t-14.5 -64.5t-20.5 -48.5t-42.5 -19.5q-18 0 -31.5 7.5t-13.5 25.5z" />
<glyph unicode="&#x429;" horiz-adv-x="2078" d="M-8 770q0 49 45 123t107.5 147.5t128 136t108.5 89.5q104 66 193.5 110.5t183.5 44.5q25 0 37 -11t18 -27.5t7 -38t1 -41.5q0 -39 -46 -200t-169 -468q-29 -70 -53.5 -138.5t-45 -126t-32.5 -97.5t-12 -54q-4 -23 12 -22q25 0 86.5 55t148.5 153.5t195.5 234.5t229.5 300 q37 49 60.5 89t40.5 74t30.5 62.5t29.5 55.5q31 47 56.5 66.5t54.5 35.5q20 10 49 11t39 1q16 0 16 -18q-2 -10 -10 -24.5t-24 -51.5q-29 -59 -53.5 -116.5t-49 -119t-50.5 -132t-58 -156.5q-14 -37 -29.5 -89.5t-32 -110.5t-31 -115.5t-25.5 -104.5t-18.5 -80t-7.5 -39 q0 -23 13 -22q25 0 85 60t146 166.5t194.5 248t229.5 305.5q37 49 60.5 89t41 74t30.5 62.5t30 55.5q31 47 56.5 66.5t53.5 35.5q20 10 49 11t39 1q17 0 17 -18q-2 -10 -10.5 -24.5t-24.5 -51.5q-29 -59 -53.5 -116.5t-49 -119t-50 -132t-58.5 -156.5q-20 -55 -47 -122 t-51.5 -138.5t-41 -149.5t-16.5 -156q0 -68 11.5 -121t23.5 -98t23.5 -80.5t11.5 -68.5q0 -80 -42 -163t-102.5 -153.5t-126 -121t-112.5 -64.5l-25 2q45 31 96.5 71t94.5 89t70.5 106.5t27.5 124.5q0 49 -17.5 104.5t-37 112t-36.5 111.5t-17 106q0 94 16 178.5t45 173.5 t68 190.5t84 227.5q-33 -43 -82 -109.5t-108.5 -145t-126 -164.5t-134 -167t-133.5 -151.5t-121 -120.5q-16 -14 -54 -31.5t-73 -21.5q-29 0 -39 34t-10 66q0 35 18.5 119t49 197t71.5 243t86 257q-33 -43 -86 -111t-118.5 -147.5t-139 -166.5t-146.5 -170t-142.5 -155 t-124.5 -121q-10 -8 -24.5 -16t-37.5 -19q-37 -16 -65 -18q-29 0 -43 29q-8 27 -7 71q4 43 76 232q57 143 96 241.5t68 169t48.5 120.5t36.5 96.5t34.5 98.5t42.5 128q10 31 15 48t7 28.5t2 19.5v18q0 23 -8 40.5t-45 17.5q-53 0 -119.5 -36t-132 -90t-123 -121t-90.5 -128 q-18 -33 -25.5 -68.5t-14.5 -64.5t-20 -48.5t-42 -19.5q-18 0 -31.5 7.5t-13.5 25.5z" />
<glyph unicode="&#x42a;" horiz-adv-x="1189" d="M98 1085q0 35 40 75t103.5 81t145.5 79t165 67.5t161 47t135 17.5q20 0 33.5 -9t13.5 -32q0 -12 -15.5 -49t-31.5 -78q-23 -47 -47 -104q-20 -51 -52 -125t-67 -160t-68.5 -177t-61.5 -179t-45.5 -166t-17.5 -135q0 -66 36 -108t104 -42q88 0 163.5 45t131 113.5 t86 151.5t30.5 159q0 35 -6 67.5t-21.5 59.5t-42 42t-69.5 15q-53 0 -107.5 -26.5t-101.5 -67.5l-12 29q84 86 174 130t156 44q82 0 129 -45t47 -150q0 -80 -32 -161.5t-86 -156.5t-122.5 -140.5t-141.5 -113.5t-145.5 -75.5t-132.5 -27.5q-31 0 -64.5 8t-62 32.5t-47 68.5 t-18.5 116q0 63 15.5 141t40 159t53 162t57 149.5t51 119.5t33.5 76q59 135 101 230t52 130q-72 0 -136 -10t-123.5 -33.5t-117 -61.5t-114.5 -91q-25 -23 -34 -47.5t-14 -44t-13.5 -32t-28.5 -12.5q-23 0 -40.5 5.5t-17.5 39.5z" />
<glyph unicode="&#x42b;" horiz-adv-x="1425" d="M4 102q0 66 18.5 147t47 173t63.5 191.5t68 201.5q14 45 40.5 117t55.5 148.5t58.5 149.5t50.5 122q41 53 87 69.5t68 16.5q10 0 11 -6.5t1 -14.5q0 -10 -21.5 -60t-43.5 -112q-12 -33 -31.5 -85t-48.5 -130t-67.5 -188.5t-90.5 -259.5q-12 -37 -29.5 -94.5t-32.5 -117 t-25.5 -114.5t-10.5 -88q0 -25 2 -45.5t11.5 -35.5t27.5 -23.5t51 -8.5q92 0 170 41t133.5 100.5t86 127t30.5 122.5q0 72 -33 121t-72.5 89t-72.5 79t-33 90t51 107.5t133 112t182.5 104.5t198 86t180 59.5t130.5 22.5q18 0 36.5 -4t32 -17.5t21.5 -41t8 -74.5 q0 -43 -15.5 -105.5t-37 -135.5t-47 -149.5t-46.5 -148.5q-37 -133 -57 -250t-30.5 -215t-12.5 -175t-4 -128q-33 2 -58.5 19.5t-44 45t-27.5 61.5t-9 67q0 53 9 127.5t23.5 155.5t32 160t33.5 142q6 29 27.5 98.5t44 148.5t40 149.5t17.5 101.5q0 41 -10 62.5t-45 21.5 q-39 0 -100.5 -16.5t-129 -43t-136 -60.5t-124 -70.5t-90.5 -71.5t-35 -62q0 -63 37 -107t82 -85t82 -90t37 -123q0 -43 -5 -72t-18.5 -54.5t-36 -53t-55.5 -68.5q-45 -55 -121.5 -110.5t-161.5 -99.5t-169 -71.5t-146 -27.5q-135 0 -135 155z" />
<glyph unicode="&#x42c;" horiz-adv-x="983" d="M115 205q0 94 33.5 218t76.5 242.5t84 214t56 132.5q45 119 70.5 182t41 95t26.5 46.5t29 32.5q31 35 80.5 60.5t83.5 25.5q12 0 13 -18l-127 -256q-25 -51 -57.5 -124t-67.5 -158t-69 -177t-59.5 -180t-42 -167t-16.5 -136q0 -66 34 -105t97 -39q92 0 170 44 t134.5 111.5t87 149.5t30.5 158q0 35 -6 67.5t-21.5 59.5t-42 42t-69.5 15q-53 0 -107.5 -26.5t-101.5 -67.5l-12 29q84 86 174 130t156 44q82 0 129 -45.5t47 -149.5q0 -80 -33 -161.5t-86 -156.5t-123 -140.5t-143.5 -113.5t-145 -75.5t-131.5 -27.5q-37 0 -70.5 8 t-61.5 32.5t-44 68.5t-16 116z" />
<glyph unicode="&#x42d;" horiz-adv-x="1177" d="M51 102q0 35 26.5 67t74.5 40q4 -31 14 -61.5t30.5 -56t52.5 -42t79 -16.5q61 0 137 31.5t155.5 104.5t157.5 188.5t142 283.5q-31 0 -123 -9t-211 -34q-47 -10 -90 -25.5t-80 -31t-64.5 -26.5t-44.5 -11q-16 0 -16 26q0 16 6 33t22 35q33 35 91.5 54.5t142.5 31.5 q59 8 130 14.5t130 10.5q70 4 141 6q23 66 37.5 147.5t14.5 157.5q0 41 -7.5 94t-33 101.5t-74.5 81t-133 32.5q-96 0 -206 -32.5t-214 -122.5q-53 -47 -80 -86t-42 -68t-26.5 -45.5t-31.5 -16.5q-23 0 -40.5 5.5t-17.5 40.5q0 27 35 68.5t95.5 89.5t140.5 96.5t169 87 t183 63.5t182 25q94 0 149.5 -31t85 -78t39 -105.5t9.5 -115.5q0 -25 -6 -71t-17.5 -100t-28 -111.5t-36.5 -102.5l51 -2q20 -2 24.5 -5t6.5 -16q-2 -10 -8.5 -23.5t-28.5 -19.5q-23 -6 -38 -7t-44 -3q-18 -47 -61.5 -119.5t-101.5 -152.5t-131 -156t-148 -127 q-82 -55 -174.5 -90t-200.5 -35q-84 0 -139.5 32t-55.5 107z" />
<glyph unicode="&#x42e;" horiz-adv-x="1710" d="M-10 51q0 12 12 56.5t29.5 100.5t36 112.5t30.5 93.5l54 172q-6 16 -8.5 26.5t-1.5 19.5t3 20.5t2 27.5q0 14 8.5 31.5t21.5 33t29.5 25.5t35.5 10q49 135 88 248q16 47 33.5 94t33 87t27.5 68t18 38q25 35 44.5 52t36 23.5t27.5 6.5h21q16 0 17 -29q-2 -20 -20.5 -78.5 t-47.5 -130.5l-168 -430q6 -23 23 -41q14 -16 41.5 -28.5t75.5 -12.5q57 0 97 8.5t65.5 21.5t42 29.5t28.5 30.5q57 115 114.5 213.5t116 172t119 119.5t125.5 56q188 102 373 103q233 0 233 -283q0 -102 -45 -229t-120.5 -259t-176 -258t-211 -224.5t-226.5 -158 t-220 -59.5q-59 0 -106.5 14.5t-80 47.5t-47 86t-10.5 131q8 111 36 210t60 191q-47 -27 -118.5 -48t-157.5 -21q-45 0 -66 6q-12 2 -22 6q-35 -102 -55.5 -181t-35 -139.5t-26.5 -102.5t-31 -69q-29 -41 -55 -59t-45 -18q-39 0 -48 16t-9 51zM739 268q0 -119 42 -173 t145 -54q74 0 154.5 47t158.5 125t148.5 178.5t125 209t86 216t31.5 199.5q0 43 -7 92t-28.5 89t-58.5 66.5t-98 26.5q-39 0 -81 -3t-91 -21q-6 -20 -26.5 -53t-47.5 -71t-56.5 -78t-54.5 -73q-55 -76 -114.5 -149.5t-122.5 -132.5q-4 -14 -21.5 -63.5t-36 -114t-33 -135 t-14.5 -128.5z" />
<glyph unicode="&#x42f;" horiz-adv-x="1316" d="M35 123q0 29 5 48t13 38q23 33 52.5 49t54.5 21q0 -33 3 -64t14 -55.5t32.5 -39t56.5 -14.5q63 0 132 49.5t130.5 116t109.5 135t73 107.5q-35 2 -83 16.5t-92 50t-75 98t-31 161.5q0 141 62.5 249.5t147.5 182.5t170 112.5t132 38.5q45 0 77 -19.5t51.5 -48t27.5 -63.5 t8 -65q0 -102 -42 -210t-93 -198q-59 -104 -135 -205l24 -8t23.5 -15t18.5 -32.5t7 -58.5q0 -33 -5 -74t-11 -83t-11 -83t-5 -72q0 -14 -3.5 -36.5t2 -43t21.5 -36t53 -15.5q45 0 95.5 18.5t100.5 46.5t100 61.5t97 62.5l13 -27q-59 -47 -129 -92t-141.5 -82t-139 -59.5 t-119.5 -22.5q-47 0 -70.5 31t-23.5 80q0 45 7.5 93t16.5 93t17 84t8 66v60.5t-28 27.5q-92 -143 -179.5 -242.5t-163 -162t-138 -90.5t-107.5 -28q-74 0 -102.5 43t-28.5 105zM569 905q0 -78 21.5 -129t55.5 -84t74 -47t75 -16q39 53 74.5 118.5t62 133t43 129t16.5 106.5 q0 74 -12 116t-30.5 63.5t-39 27.5t-37.5 6q-49 0 -102 -24.5t-98 -75.5t-74 -132t-29 -192z" />
<glyph unicode="&#x430;" horiz-adv-x="991" d="M18 160q0 55 16.5 123.5t47.5 138.5t74 135.5t98 118.5q133 127 252 175t231 48q20 0 51 -5t61 -18.5t51.5 -36t21.5 -57.5q0 -23 -3.5 -38t-11.5 -27t-22.5 -26.5t-34.5 -33.5q-16 -45 -37.5 -82.5t-46.5 -103.5q-47 -129 -79 -221t-32 -113q0 -45 11.5 -58t27.5 -13 q37 0 81 19t91 50t96.5 69t96.5 72l18 -24q-47 -43 -117.5 -97.5t-144.5 -103.5t-139.5 -83t-104.5 -34q-31 0 -47 26t-16 65q0 20 3 48.5t7 56.5t9 53.5t10 41.5h-9q-92 -115 -195.5 -181.5t-187.5 -66.5q-78 0 -102.5 49.5t-24.5 133.5zM182 219q0 -66 25.5 -89.5 t54.5 -23.5q70 0 158 69t160 222q31 66 48 122t38 104q6 16 19 40.5t30.5 46t35 37t33.5 15.5q-4 14 -18 26.5t-32.5 21.5t-37 13t-26.5 4q-53 0 -100.5 -12t-91.5 -39.5t-87 -73t-88 -112.5q-25 -37 -46 -88t-38.5 -103.5t-27 -100.5t-9.5 -79z" />
<glyph unicode="&#x431;" horiz-adv-x="796" d="M70 180q0 61 20.5 135t48 143.5t55 126t44.5 81.5q72 117 133 186.5t96 69.5q23 0 29 -13.5t6 -50.5q0 -41 -23.5 -98.5t-58.5 -118.5t-75 -120.5t-73 -102.5q-10 -31 -21 -82t-11 -123q0 -55 17 -93t58 -38q55 0 105.5 40t103.5 132q51 92 79 213t28 231q0 70 -25.5 146 t-63.5 146.5t-80 132t-75 104.5q-23 31 -31 55.5t-4 56.5q4 41 39 94.5t111 120.5q49 45 90 80t87 66t104.5 60.5t144.5 66.5q76 35 152.5 47t121.5 12q41 0 61.5 -4t16.5 -37q0 -8 -5 -22.5t-12.5 -27.5t-16.5 -22.5t-19 -9.5q-23 0 -68 6.5t-92 6.5q-20 0 -49 1t-68 -6.5 t-90 -27t-117 -60.5q-137 -86 -190 -149.5t-53 -122.5q0 -27 6 -45t18 -41q31 -55 73 -118.5t80 -140.5t64.5 -168t26.5 -200q0 -92 -42 -215t-128 -245q-94 -135 -181 -202t-177 -67q-74 0 -122 46t-48 165zM285 502q16 16 34.5 46t37 62.5t32.5 66.5t23 60q8 29 16 50.5 t-12 21.5q-16 0 -38 -42t-42.5 -95.5t-34.5 -103.5t-16 -66z" />
<glyph unicode="&#x432;" horiz-adv-x="862" d="M35 188q0 33 9 81t23.5 103.5t33 115t36.5 114.5q-27 -14 -26 12q0 14 22 29q8 8 23 14q25 63 57.5 137t66 144t65.5 130t58 99q150 219 276 314.5t220 95.5q39 0 60.5 -10.5t30.5 -26.5t10 -35t1 -35q0 -31 -22.5 -82t-72.5 -120.5t-133 -156.5t-204 -189 q-61 -53 -129.5 -110.5t-128.5 -106.5q-16 -37 -28 -72q-10 -29 -22.5 -60.5t-18.5 -50.5h6q39 57 89 100.5t100 71t96.5 41t76.5 13.5q100 0 135 -53.5t35 -137.5q0 -43 -15 -100.5t-44 -119t-73 -121.5t-99 -110q37 0 88 15.5t104.5 38t101.5 49.5t79 49l2 -41 q-37 -25 -86.5 -51.5t-105.5 -49t-116.5 -38t-115.5 -19.5q-23 -20 -53.5 -42.5t-66.5 -41t-75 -30t-78 -11.5q-66 0 -104.5 25t-58 61.5t-24.5 81.5t-5 86zM197 172q-4 -72 29.5 -113t74.5 -41q18 0 35.5 5.5t32.5 13.5q16 8 28 18q-84 -4 -128 33t-66 86zM266 315 q0 -63 14.5 -105t39 -66.5t59.5 -33t78 -6.5q25 20 49 56q33 43 54.5 91t35.5 94t20.5 85t6.5 62q0 90 -26 123.5t-81 33.5q-35 0 -78 -19.5t-81 -60.5t-64.5 -103.5t-26.5 -150.5zM332 782q39 35 108.5 89.5t157.5 142.5q63 63 112.5 116.5t83 99.5t51 89t17.5 86 q0 41 -13 59.5t-52 18.5q-45 0 -99.5 -47t-114 -136.5t-124 -220.5t-127.5 -297z" />
<glyph unicode="&#x433;" horiz-adv-x="673" d="M133 635q86 80 145.5 126t99.5 70.5t64.5 31.5t40.5 7q8 0 18.5 -1t18.5 -8t13.5 -22.5t5.5 -43.5q0 -45 -30 -135.5t-73 -215.5q-8 -23 -24.5 -67.5t-31.5 -91.5t-26.5 -89t-11.5 -59q0 -27 10 -38t27 -11q33 0 74 20.5t84 50t82.5 62.5t70.5 55l19 -24q-16 -16 -45 -40 t-62 -48.5t-66.5 -48t-58.5 -39.5q-111 -72 -169 -95.5t-89 -23.5q-23 0 -35 7t-17 17.5t-5 24.5v31q0 10 8 41t21.5 73t31 91t33.5 96q41 119 70.5 206t29.5 130q0 10 -4 25.5t-26 15.5q-12 0 -25.5 -3t-32 -13.5t-45 -31t-65.5 -53.5q-12 -2 -21 11q-4 6 -4 10z" />
<glyph unicode="&#x434;" horiz-adv-x="745" d="M49 143q0 55 15.5 123t38 130.5t45 114.5t38.5 77q72 117 133.5 186.5t96.5 69.5q23 0 29 -13.5t6 -50.5q0 -41 -24 -98t-58.5 -118.5t-74.5 -121t-73 -102.5q-2 -20 -4 -39q-2 -16 -3 -31.5t-1 -23.5q0 -37 1 -65.5t7 -49t20.5 -31t41.5 -10.5q23 0 50 10.5t59 43t71 93 t82 160.5q27 61 44 130t27.5 133.5t14.5 117.5t4 82q0 145 -21.5 243.5t-57.5 159t-81 87t-94 26.5q-27 0 -51.5 -2t-46.5 -16q-33 -20 -42.5 -35.5t-9.5 -32.5q0 -16 6.5 -18t6.5 -12q0 -12 -11 -13q-8 0 -20 15.5t-12 44.5q0 41 19.5 73.5t52 56t76.5 37t93 13.5 q70 0 130.5 -26.5t104.5 -88t69.5 -159t25.5 -238.5q0 -59 -13.5 -134t-36 -155t-54 -161t-70.5 -152q-63 -119 -124.5 -198t-118 -125t-107.5 -65.5t-96 -19.5q-59 0 -81 50.5t-22 127.5zM233 424q16 16 35 46t37.5 62.5t32.5 66.5t22 60q8 29 16.5 50.5t-11.5 21.5 q-16 0 -38 -42t-42.5 -95t-34.5 -103.5t-17 -66.5z" />
<glyph unicode="&#x435;" horiz-adv-x="817" d="M33 225q0 86 48 211t155 252q61 74 125.5 127t124 86t111.5 48.5t89 15.5q59 0 82 -15.5t23 -54.5q0 -49 -69 -128t-177 -181q-43 -41 -99.5 -92.5t-105.5 -98.5q-59 -53 -119 -108q-8 -129 43 -177.5t146 -48.5q80 0 161.5 30t147.5 65q78 41 149 96q8 -12 10.5 -18.5 t0.5 -20.5q0 -8 -53.5 -47t-138.5 -83t-189.5 -79t-206.5 -35q-129 0 -193.5 61.5t-64.5 194.5zM215 354q41 35 84 72q37 33 80 72t82 80q68 70 111.5 125t43.5 100q0 33 -18 41t-41 8q-39 0 -97.5 -30.5t-109.5 -96.5q-23 -29 -45 -70t-41.5 -90t-33 -103t-15.5 -108z" />
<glyph unicode="&#x436;" horiz-adv-x="1484" d="M20 614q0 8 13.5 28t25.5 36q31 43 79 95t104.5 98.5t118 78t116.5 31.5q76 0 104.5 -52t28.5 -143q0 -27 -3 -58.5t-9 -64t-12 -62.5t-13 -52q27 29 58 57q27 25 59.5 55.5t67.5 61.5q31 27 63.5 52.5t64.5 47t61.5 34.5t53.5 13q14 0 15 -18q0 -10 -12.5 -43 t-39 -102.5t-69.5 -185t-102 -290.5l6 -2l327 410q27 39 46.5 70.5t38 59.5t39 53.5t44.5 54.5q31 35 55.5 39t39.5 4q45 0 45 -39q0 -23 -6.5 -44.5t-24 -48t-47 -58.5t-76.5 -73q-47 -80 -87 -189.5t-40 -246.5q0 -20 1 -44.5t7 -46t19.5 -36t38.5 -14.5q53 0 109 27.5 t104 62.5q53 39 104 92q10 4 17.5 8t15.5 4q12 0 10 -20q0 -20 -49 -64.5t-122 -88.5t-152.5 -77.5t-141.5 -33.5q-66 0 -99.5 41t-33.5 135q0 16 5 49t12.5 72t17.5 80t22 77l-8 9q-37 -47 -78 -99.5t-78.5 -101.5t-70.5 -91t-55 -67q-43 -49 -71 -75.5t-50 -26.5 q-23 0 -23 20q0 25 15.5 79t39.5 130q12 39 33 101.5t45.5 133t50 142.5t48.5 129q-37 -25 -85.5 -65.5t-91.5 -81.5q-51 -47 -102 -97q-35 -92 -76 -185t-100 -179q-39 -57 -86 -100.5t-109 -43.5q-49 0 -49 52q0 27 18.5 66.5t46 84.5t61.5 87t67 73l59 55q6 8 13.5 39 t15.5 70t13 81t5 74q0 41 -2 79t-10 68t-25.5 48t-48.5 18q-39 0 -86 -32.5t-88 -73.5q-51 -51 -85 -99.5t-50 -68.5q-20 0 -21 18z" />
<glyph unicode="&#x437;" horiz-adv-x="694" d="M-440 -596q0 53 28.5 103.5t71.5 95.5t95 83t100.5 64.5t86.5 41.5t52 15t14 -16q-2 -12 -15 -20.5t-48 -24.5q-43 -18 -84 -48t-73 -67t-51.5 -78.5t-19.5 -87.5q0 -23 6.5 -46t21.5 -43.5t40 -33t63 -12.5q41 0 95.5 16.5t113 49.5t115.5 80t101 107.5t72 134t28 159.5 q0 98 -27 161.5t-57.5 105.5t-57 72t-26.5 60q0 25 12 44.5t35.5 39t56.5 42t74 53.5q74 53 124 125.5t56 164.5q4 61 -21.5 89t-95.5 28q-59 0 -101 -29.5t-64 -60.5q-23 -31 -52.5 -61.5t-58.5 -30.5q-20 0 -30.5 6t-14.5 15.5t-4 19.5v16q0 25 32.5 53.5t61.5 47.5 q25 14 64.5 34.5t89 41t104.5 35t111 14.5q78 0 112.5 -37t34.5 -105q0 -53 -26.5 -105t-67.5 -101.5t-88 -92.5t-88 -77.5t-67.5 -58.5t-26.5 -32q0 -12 27.5 -45t59 -82t59.5 -112.5t28 -139.5q0 -96 -39 -188t-103.5 -174t-147.5 -150.5t-171 -119t-173 -79t-155 -28.5 q-104 0 -148 45t-44 123z" />
<glyph unicode="&#x438;" horiz-adv-x="999" d="M0 45q0 14 2 30.5t9 41t19.5 60.5t35.5 91l110 281q31 78 51.5 136t36.5 93t40 59.5t49.5 40t49 22.5t37.5 7t15 -22q-2 -16 -7.5 -47t-27.5 -84l-125 -322q-6 -18 -18.5 -48t-24.5 -60.5t-20.5 -54t-8.5 -29.5q0 -8 1 -16.5t16 -8.5q23 0 65.5 30.5t95.5 80.5 q47 43 84 76.5t70 67.5t64.5 72t68.5 91q12 23 23.5 52.5t24 61t28.5 61.5t37 52q37 37 70.5 49.5t56.5 12.5q10 0 21.5 -7.5t11.5 -29.5q0 -29 -21.5 -80t-81.5 -133q-18 -41 -37.5 -102.5t-38.5 -120.5q-6 -23 -22.5 -74t-31.5 -104.5t-27.5 -97.5t-12.5 -52q0 -35 23 -35 q39 0 82 15.5t90 40t95 55t95 61.5l19 -25q-35 -29 -101.5 -69.5t-152.5 -93.5q-111 -66 -182.5 -92.5t-106.5 -26.5q-27 0 -33 14.5t-6 30.5q0 20 8 58t21.5 84t29 97.5t29.5 100.5q10 37 19.5 66.5t15.5 52.5q8 25 14 45q-72 -74 -153 -152q-70 -66 -158 -147.5 t-184 -157.5q-41 -33 -70 -44t-41 -11q-41 0 -41 57z" />
<glyph unicode="&#x439;" horiz-adv-x="1030" d="M8 45q0 14 2 30.5t9.5 41t19.5 60.5t35 91l110 281q31 78 51.5 136t36.5 93t40 59.5t49.5 40t49 22.5t38.5 7q14 0 14 -22q-2 -16 -7 -47t-28 -84l-125 -322q-6 -18 -18.5 -48t-24.5 -60.5t-20.5 -54t-8.5 -29.5q0 -8 1 -16.5t16 -8.5q23 0 65.5 30.5t96.5 80.5 q47 43 83.5 76.5t69.5 67.5t64.5 72t68.5 91q12 23 23.5 52.5t24 61t28.5 61.5t37 52q37 37 70.5 49.5t56.5 12.5q10 0 21.5 -7.5t11.5 -29.5q0 -29 -21.5 -80t-81.5 -133q-18 -41 -37.5 -102.5t-37.5 -120.5q-6 -23 -22.5 -74t-32 -104.5t-28 -97.5t-12.5 -52q0 -35 23 -35 q39 0 82 15.5t90 40t95 55t95 61.5l19 -25q-35 -29 -101.5 -69.5t-152.5 -93.5q-111 -66 -182.5 -92.5t-106.5 -26.5q-27 0 -33 14.5t-6 30.5q0 20 8.5 58t21.5 84t28.5 97.5t29.5 100.5q10 37 19.5 66.5t15.5 52.5q8 25 14 45q-72 -74 -153 -152q-70 -66 -158 -147.5 t-184 -157.5q-41 -33 -70 -44t-41 -11q-41 0 -41 57zM543 1092q0 8 4 21t8 24q12 29 34.5 62.5t57.5 33.5q12 0 18.5 -13.5t23 -28.5t47 -28.5t91.5 -13.5q37 0 77 16.5t76 42t62.5 60.5t38.5 71q12 37 52 37q25 0 22 -33q0 -16 -22.5 -56t-65.5 -81q-59 -53 -114.5 -86 t-106.5 -50t-98.5 -23.5t-85.5 -6.5q-49 0 -85 14.5t-34 37.5z" />
<glyph unicode="&#x43a;" horiz-adv-x="1054" d="M-29 31q0 10 10.5 38.5t34.5 94.5q12 31 21.5 57.5l19 53t19.5 55t22 63.5q49 135 86 239.5t54 147.5q14 39 24 66.5t27 44.5q12 14 31.5 25.5t41 18.5t42 11t34.5 4t15 -22q0 -14 -14.5 -51t-28.5 -70q-35 -86 -64 -161t-51 -140l10 -2q37 39 67.5 72.5t64.5 67.5t75 70 t96 81q41 33 86 59.5t90 45t87 27.5t75 9q8 0 20.5 -1t23.5 -6t19.5 -15.5t8.5 -28.5q0 -35 -46 -94.5t-163 -131.5l-12 19q39 29 53 67.5t14 59.5q0 29 -41 29q-35 0 -94 -24t-127 -77q-45 -35 -79 -65.5t-56 -55.5q-27 -29 -47 -53h12q4 0 10.5 1t10.5 1q10 0 21 -7 t15 -32q10 -57 23.5 -132t30.5 -140q23 -102 67.5 -161.5t122.5 -59.5q55 0 106.5 17t97.5 44t85 55.5t68 53.5l18 -37q-55 -47 -116.5 -90t-124 -78t-125 -55.5t-117.5 -20.5q-39 0 -75 9.5t-67.5 35t-58.5 72.5t-45 123q-29 121 -40 183t-22 99q-16 -23 -31.5 -44 t-31.5 -60q-14 -31 -26.5 -62.5t-22.5 -56.5q-12 -29 -23 -55q-18 -47 -29.5 -70.5t-25.5 -38.5q-16 -16 -52 -33.5t-61 -17.5t-34 6t-9 23z" />
<glyph unicode="&#x43b;" horiz-adv-x="985" d="M0 121q0 12 3 32.5t8 43t14.5 43t21.5 34.5q16 16 39 27.5t43 17.5q0 -14 -1 -39.5t4 -50t17.5 -43t36.5 -18.5q14 0 30.5 2t41.5 16.5t59.5 45t85.5 87.5q49 55 86 98.5t65 78t49.5 63.5t39.5 57q20 68 45 130.5t53 115.5q14 18 38 29.5t47.5 20t44 11.5t30.5 3 q23 0 23 -29q0 -16 -10.5 -49t-27 -73t-36 -82t-37.5 -79q-23 -55 -45.5 -127.5t-40.5 -141.5t-30.5 -123t-12.5 -70q0 -14 1 -32t28 -18q29 0 66.5 15.5t82.5 40t93.5 55.5t95.5 61l18 -24q-16 -12 -46 -32.5t-63.5 -43t-68.5 -45.5t-64 -39q-61 -37 -104 -58.5 t-72.5 -33.5t-50 -16.5t-37.5 -4.5q-27 0 -35 19.5t-8 38.5q0 41 19.5 125t58.5 237l20 82l-8 4q-35 -37 -83 -100.5t-107 -132.5q-66 -78 -117 -125t-92 -73.5t-73 -36t-58 -9.5q-47 0 -63.5 36t-16.5 79z" />
<glyph unicode="&#x43c;" horiz-adv-x="1464" d="M-14 121q0 12 4 32.5t10 43t15.5 42t21.5 31.5q16 16 35.5 30.5t42.5 18.5v-37.5t4 -51t14 -44t31 -18.5q14 0 32.5 2t44 15.5t61.5 44t87 89.5q43 49 82 97.5t73 93.5t59.5 83t39.5 66q14 33 21.5 56.5t13.5 44t13 40t22 46.5q29 33 58.5 44t51.5 11q31 0 45.5 -1 t14.5 -23q0 -53 -23.5 -122t-60.5 -141q-25 -74 -48.5 -143.5t-40 -123.5t-26.5 -89t-10 -41q0 -10 -1 -19.5t15 -9.5q8 0 48 21.5t96.5 63.5t121 103.5t125.5 141.5q16 43 35 97.5t38 108.5t40.5 100t46.5 71t54.5 32t70.5 7q23 0 25 -15.5t2 -35.5q0 -31 -14.5 -72 t-35 -83t-43 -80t-38.5 -62q-16 -39 -37 -107.5t-41.5 -137.5t-33.5 -124t-13 -67q0 -20 1 -37t35 -17q23 0 62 16.5t86 43t98 58.5t99 62l18 -24q-20 -14 -50 -34.5t-65 -42t-69.5 -42t-63.5 -39.5q-115 -70 -190.5 -95.5t-106.5 -25.5q-25 0 -30 19.5t-5 38.5 q0 20 14.5 79.5t32.5 125.5q23 76 50 165l-7 2q-35 -41 -64.5 -69.5t-66 -60t-87 -73.5t-126.5 -106q-16 -14 -40.5 -30.5t-50 -30t-49 -22.5t-36.5 -9q-23 0 -29 10.5t-6 30.5q0 37 25 119t70 235l28 99l-8 4q-8 -10 -28.5 -38t-49 -64t-60.5 -74.5t-60 -73.5 q-66 -78 -117 -124t-92 -70.5t-73 -33t-58 -8.5q-47 0 -63.5 32t-16.5 75z" />
<glyph unicode="&#x43d;" horiz-adv-x="1013" d="M-8 39q0 10 7 33.5t16.5 51.5t19.5 57.5t16 51.5l35 109q-14 16 -16 21.5t-2 31.5q0 23 21.5 39.5t55.5 20.5l19 45q18 43 34.5 89t32 88t28.5 75.5t26 54.5q35 59 81 79.5t74 20.5q14 0 15 -22q0 -6 -6.5 -23.5t-16.5 -41t-21.5 -51.5t-19.5 -52q-16 -45 -33.5 -94.5 t-31.5 -92.5q-16 -51 -33 -100h31q31 0 73 6q123 16 187.5 50t77.5 53q12 31 17 45t17 51q23 70 43.5 126t61.5 99q23 23 35 30t36 19q16 8 31 10.5t25 2.5q14 0 23.5 -7.5t9.5 -29.5q0 -55 -41 -140.5t-111 -183.5q-25 -68 -46.5 -135.5t-38.5 -124.5t-26.5 -102t-9.5 -68 q0 -14 2 -29.5t21 -15.5q37 0 80 15.5t90 40t96 55t96 61.5l19 -25q-35 -29 -101.5 -73.5t-152.5 -89.5q-111 -57 -184.5 -88t-104.5 -31q-27 0 -33 14.5t-6 30.5t8 53t21.5 84t29 100.5t29.5 102.5q4 14 11 37.5t16 46.5l18 55q-27 -20 -63 -41q-33 -16 -81 -37.5 t-116 -40.5q-25 -8 -47.5 -11t-38.5 -7q-20 -4 -37 -4q-4 -25 -14 -66t-24.5 -84t-32 -82t-37.5 -59q-35 -35 -60.5 -45t-50.5 -10q-35 0 -42 12t-7 39z" />
<glyph unicode="&#x43e;" horiz-adv-x="946" d="M29 193q0 57 10 106t29 111q14 49 33.5 97t40 90t42 76t39.5 52q14 14 37 25.5t51 11.5q20 0 29.5 -6t15.5 -13h6q33 31 68 61t75 53.5t87 38.5t108 15q78 0 130.5 -50t52.5 -171q0 -74 -29 -162t-80 -173t-118.5 -158.5t-147.5 -120.5q2 -2 20.5 -5t51.5 -3 q88 0 199.5 48t228.5 134l18 -25q-131 -94 -255 -153.5t-277 -59.5q-43 0 -68 8q-96 -51 -203 -51q-37 0 -71.5 11.5t-62.5 38t-44 69.5t-16 105zM184 256q-4 -63 9.5 -102t34 -60.5t42 -29t31.5 -7.5h21q-49 31 -73 78t-32 97.5t-5 97.5t7 80h-6q-6 -18 -15.5 -51 t-13.5 -103zM279 362q0 -18 1 -58t15 -84t47 -82t96 -48q66 33 118 95.5t88 137t55.5 154.5t19.5 146q0 74 -31 122t-108 48q-23 0 -67 -12.5t-79 -41.5q-20 -16 -44.5 -49t-47.5 -80t-40 -109.5t-23 -138.5z" />
<glyph unicode="&#x43f;" horiz-adv-x="950" d="M27 53q0 23 8 55.5t31 79.5q16 35 24 55.5t19 45.5l81 282q8 27 16.5 59t16.5 62.5t14.5 55t10.5 34.5q8 33 31.5 57.5t51 40t53.5 23.5t40 8t14 -22q-2 -16 -17 -62.5t-30 -89.5q-18 -57 -30.5 -96t-23.5 -70.5t-20.5 -60.5t-21.5 -64h6q113 125 206 209t161.5 135.5 t114.5 72t69 20.5q16 0 21.5 -11.5t3.5 -27.5q-4 -53 -36 -156.5t-73 -238.5q-6 -25 -21.5 -73t-32 -99.5t-28.5 -93.5t-12 -52q0 -14 -1 -22.5t19 -8.5q23 0 61 16.5t82 41t94 56.5t97 62l18 -24q-16 -16 -46.5 -37.5t-65.5 -43t-70 -43.5t-59 -38q-104 -68 -177 -102.5 t-104 -34.5q-18 0 -22 13.5t-4 29.5t8 53t21.5 84t28.5 100.5t30 102.5q18 59 35.5 114.5t31 102.5t22.5 83t11 56q0 10 -1 17.5t-24 7.5q-12 0 -43.5 -22.5t-72.5 -61.5t-89 -90t-94 -107q-57 -70 -90.5 -125t-62.5 -114q-29 -61 -50.5 -97.5t-39 -54.5t-32.5 -24.5 t-32 -6.5q-20 0 -23 16.5t-3 22.5z" />
<glyph unicode="&#x440;" horiz-adv-x="913" d="M-311 -776q0 18 8 58t37 112q53 147 108 293q47 125 101.5 269t101.5 269q27 72 48.5 131.5t41 115.5t41 114.5t45.5 130.5q23 59 43.5 121.5t36.5 79.5q31 31 69 48t48 17q8 0 13 -1t5 -11q0 -6 -6 -27.5t-15 -53.5t-22.5 -69t-25.5 -69l10 -2q37 37 85 72.5t98 64 t97.5 46t83.5 17.5q86 0 127 -45t41 -160q0 -96 -41 -197.5t-101 -193.5t-130 -166.5t-129 -115.5q-53 -37 -117.5 -69t-128.5 -32q-41 0 -56.5 16.5t-15.5 37.5q0 43 24 92t60.5 96t82.5 93t94 83q84 66 154.5 110t127.5 74q10 33 10 57.5v53.5q0 47 -10 77t-27.5 47 t-39 23.5t-45.5 6.5q-47 0 -118 -45t-163 -144q-20 -47 -46 -115.5t-55.5 -151.5t-63.5 -179.5t-69 -196.5q-33 -92 -64.5 -183t-59 -174t-50 -153.5t-36.5 -122.5q-2 -10 -3.5 -30.5t-5.5 -40.5q-4 -18 -17 -43t-48 -54q-45 -35 -92 -34q-16 0 -28.5 12t-12.5 41zM319 98 q0 -37 58 -37q29 0 63.5 15.5t71.5 52.5q23 23 52.5 59.5t59 85t55.5 106.5t40 124q-16 -6 -46 -21.5t-65 -37t-72.5 -49t-68.5 -58.5q-27 -27 -53.5 -55.5t-47 -59t-34 -61.5t-13.5 -64z" />
<glyph unicode="&#x441;" horiz-adv-x="788" d="M16 209q0 55 17.5 119.5t50.5 132t81 135.5t107 129q53 55 112.5 97t116 72t103.5 44t78 14q35 0 63.5 -11t28.5 -67q0 -29 -14.5 -77.5t-54.5 -83.5q-35 -29 -65 -38t-44 -9q-10 0 -16 12l20 45q16 37 18.5 54.5t2.5 27.5q0 23 -9.5 33t-33.5 10q-66 0 -132.5 -50 t-121 -130t-89 -179.5t-34.5 -197.5q0 -35 4 -75t19.5 -72.5t45 -54t80.5 -21.5q59 0 120.5 16t98.5 33q57 25 104.5 51.5t81 48t52 35.5t22.5 14q8 0 17.5 -1.5t7.5 -24.5q0 -8 -58.5 -51.5t-149.5 -92.5t-200.5 -88t-212.5 -39q-100 0 -158.5 55.5t-58.5 184.5z" />
<glyph unicode="&#x442;" horiz-adv-x="1370" d="M-16 39q0 8 4 24.5t11 38t15.5 45t16.5 43.5q20 55 36.5 100.5t29 85.5t23.5 78t23 78q6 23 15.5 58t20.5 70.5t21.5 67.5t18.5 50q12 31 36 54.5t50.5 41t51 25.5t38.5 8t15 -22q-2 -16 -15.5 -61.5t-27.5 -88.5q-18 -57 -41 -122.5t-45 -123.5q-25 -68 -52 -133l9 -6 q20 35 52 79t67.5 90t73.5 89t73 76q104 98 182 159.5t125 59.5q14 0 23.5 -8t9.5 -31t-17.5 -82t-40 -126.5t-45 -132t-34.5 -99.5h6q111 131 199.5 220t156.5 141.5t114 75t70 22.5q14 0 19.5 -11.5t5.5 -27.5q0 -18 -9 -56t-24.5 -91.5t-35 -117t-40.5 -130.5 q-6 -25 -22.5 -72t-31.5 -97.5t-27.5 -93.5t-12.5 -55q0 -14 2 -22.5t17 -8.5q23 0 60.5 16.5t81.5 41t94 56.5t97 62l19 -24q-51 -35 -96 -66q-39 -27 -80 -53.5t-66 -42.5q-104 -68 -177 -102.5t-103 -34.5q-25 0 -30 18.5t-5 38.5q0 10 8 42t22.5 77t31 98.5t34.5 108.5 q18 57 35.5 113.5t31 103.5t22.5 83t11 56q0 10 2.5 19.5t-10.5 9.5q-12 0 -44 -22.5t-54 -45.5q-37 -37 -93.5 -99t-127.5 -161q-20 -29 -46 -69.5t-48.5 -79.5t-39 -69t-20.5 -34q-10 -10 -29.5 -26.5t-42 -32.5t-45 -28.5t-41.5 -12.5q-8 0 -8 8t2 17.5t6.5 26t13.5 43 t23 67.5l129 368q37 106 41 146q0 16 -10 18q-35 0 -168 -137q-59 -59 -110.5 -130t-94.5 -140.5t-76.5 -133t-54.5 -108.5q-8 -10 -23.5 -23.5t-34 -25.5t-37.5 -20.5t-38 -8.5q-14 0 -18 9.5t-4 21.5zM516 1067q37 55 78 88q35 -16 120 -28.5t208 -12.5q131 0 227 13.5 t165.5 32t114 35.5t68.5 26l12 -9q-45 -29 -120.5 -61.5t-179 -61t-228.5 -47t-268 -18.5q-66 0 -121 16.5t-76 26.5z" />
<glyph unicode="&#x443;" horiz-adv-x="925" d="M-408 -735q8 20 19.5 52t28.5 60q10 -16 29.5 -38.5t46 -42t60.5 -33t70 -13.5h66t75 12.5t88 42t105 89.5q33 35 72 103.5t81 158.5t84 192.5t83 205t76.5 196.5t66.5 168l-6 2q-78 -88 -168 -172t-173 -148.5t-151.5 -104.5t-103.5 -40q-20 0 -26.5 15.5t-6.5 35.5 q0 14 6 41t15.5 57.5t21.5 62.5t23 58q29 74 61.5 160t61 164t52 140.5t36.5 88.5q12 31 35.5 54.5t50 41t51 25.5t39.5 8q14 0 14 -22q-2 -16 -9 -48t-26 -83q-61 -145 -110 -267q-20 -51 -40 -103t-35 -96t-24.5 -77t-9.5 -45q0 -10 3 -14.5t16 -6.5q10 0 31.5 10.5t46 27 t49 36t43.5 35.5q55 53 97 97t74.5 85t60.5 82t56 86l58 152q18 47 34.5 77.5t45.5 55.5q57 47 122 47q27 0 27 -33q0 -31 -33 -104q-23 -49 -53.5 -100.5t-54.5 -92.5q-12 -35 -29.5 -84t-43.5 -121.5t-63.5 -172t-93.5 -234.5q-72 -178 -152.5 -334t-191.5 -262 q-123 -117 -234.5 -180.5t-211.5 -63.5q-74 0 -120 13.5t-70.5 32t-33 37t-8.5 28.5z" />
<glyph unicode="&#x444;" horiz-adv-x="1259" d="M49 289q0 68 25.5 125t62.5 104t78 82t72 57q29 57 82 108.5t118.5 91.5t137 64.5t139.5 28.5l82 213q51 133 101 218t90 134.5t69 68t37 18.5q12 0 15 -3.5t1 -11.5q0 -8 -7 -18t-11 -19q-16 -35 -42 -83t-48 -99q-23 -49 -44.5 -105.5t-43 -112.5t-41 -108.5 t-35.5 -91.5q63 0 127.5 -13t117 -48t85 -93.5t32.5 -146.5q0 -96 -53 -209.5t-146.5 -213t-223.5 -171t-283 -84.5q-27 -66 -49 -135q-23 -59 -45.5 -135t-45.5 -152q-23 -78 -34 -155.5t-19 -122.5q-6 -16 -18.5 -36.5t-27.5 -39t-34.5 -31t-42.5 -12.5t-28.5 11.5 t-5.5 27.5q0 18 6 51t16 75t22.5 89t26.5 94q47 158 88 282t62 187q-180 14 -272.5 93t-92.5 227zM217 330q0 -55 20.5 -100.5t54.5 -78t77 -51t88 -22.5q45 125 88 248q37 104 78.5 224t76.5 216q-27 2 -64.5 -1t-82.5 -17.5t-92 -39t-90 -61.5q-8 -16 -16.5 -35.5 t-14.5 -39t-10 -36t-4 -24.5q0 -53 32 -78q-12 -14 -21 -18t-36 -4q-29 0 -43 17t-22 34q-6 -16 -12.5 -48t-6.5 -85zM383 723l4 -4q68 41 128 64.5t108 33.5q53 12 100 14l8 17q-29 -2 -65.5 -4t-81.5 -13.5t-95.5 -36t-105.5 -71.5zM580 66q78 -12 166 16.5t163.5 95 t124.5 168t49 234.5q0 88 -26.5 140t-65.5 79.5t-80 37t-71 9.5l-6 -25q27 2 27.5 1t12.5 -3q29 -6 48.5 -16t19.5 -33q0 -29 -11 -31t-22 -2q-23 0 -46 9.5t-52 11.5q-14 -45 -43 -131t-63.5 -185.5t-68.5 -201t-56 -174.5z" />
<glyph unicode="&#x445;" horiz-adv-x="917" d="M-17.5 -80q3.5 10 3.5 31q8 16 40.5 58t79 96.5t100.5 116t107 120.5q-23 82 -37 131t-22 80t-13 48l-10 34q-12 45 -21 65.5t-17.5 30.5t-12.5 18.5t-4 26.5q0 16 18.5 42t45.5 50q16 16 35.5 24.5t29.5 8.5q8 0 18.5 -1t19.5 -8t17.5 -22.5t14.5 -46.5q39 -188 74 -344 q47 55 82.5 96t64.5 74t54.5 59.5t51.5 53.5q18 18 39 39.5t40.5 39t37 29t27.5 11.5q12 0 25.5 -6.5t13.5 -28.5q0 -23 -9.5 -36t-28 -27.5t-46 -34t-62.5 -52.5q-53 -47 -122.5 -114.5t-151.5 -167.5q23 -86 43 -149.5t45 -106.5t56.5 -64.5t76.5 -21.5q25 0 61.5 17 t76.5 45t81 62.5t78 69.5l18 -24q-12 -16 -59 -64.5t-110.5 -100.5t-135 -93t-133.5 -41q-76 0 -131 85t-100 263q-35 -47 -78 -93t-92 -108q-25 -31 -48.5 -62.5t-45 -57t-38 -43t-28.5 -17.5q-23 0 -19.5 10z" />
<glyph unicode="&#x446;" horiz-adv-x="987" d="M8 68q0 14 17.5 67t48.5 133l110 281q23 57 37.5 94t22.5 60.5t14 40t14 34.5q12 31 36 54.5t50.5 41t51 25.5t39.5 8q14 0 14 -22q0 -20 -7 -50t-28 -81l-125 -322q-10 -29 -23.5 -58.5t-23.5 -57t-17.5 -48t-7.5 -28.5t1 -16.5t16 -8.5q23 0 65.5 30.5t96.5 80.5 q96 88 175 168.5t111 138.5q12 20 23.5 51t25 62.5t28.5 61.5t36 52q23 23 35 30t37 19q16 8 30.5 10.5t24.5 2.5q14 0 23.5 -7t9.5 -30q0 -14 -2 -29.5t-11.5 -39t-30 -58.5t-59.5 -86q-18 -41 -37.5 -105.5t-37.5 -117.5q-16 -47 -37 -120t-21 -177q0 -37 6 -65 t14.5 -58.5t14.5 -67.5t6 -88q0 -80 -42 -182.5t-100.5 -198.5t-123 -172t-109.5 -104l-24 2q45 47 92 112.5t85 139t62.5 149.5t24.5 143q0 63 -10.5 112.5t-22.5 90.5t-22.5 77t-10.5 73q0 51 12.5 117.5t28.5 125.5q18 70 41 142q-74 -74 -155 -152q-72 -66 -160 -147.5 t-180 -157.5q-41 -35 -71 -45t-40 -10q-29 0 -35 19.5t-6 60.5z" />
<glyph unicode="&#x447;" horiz-adv-x="854" d="M150 717q0 10 9 20.5t23 22.5l25 20q-4 27 -2 73t16.5 92t44 80t82.5 34q23 0 44.5 -12.5t21.5 -45.5q0 -45 -20.5 -99t-45.5 -85q2 -27 13.5 -42t26.5 -23.5t31.5 -10.5t26.5 -2q29 0 65 5.5t87 27.5q29 14 55.5 25.5t48.5 11.5q25 0 25 -23q0 -14 -6 -36.5t-14.5 -47 t-17.5 -48t-15 -38.5q-20 -51 -49 -127.5t-54.5 -152.5t-44 -133.5t-18.5 -69.5q0 -35 12 -40t41 -5q25 0 65 15.5t87 39t99 54t99 61.5l19 -25q-35 -29 -102.5 -72.5t-151.5 -90.5q-127 -72 -198.5 -93.5t-102.5 -21.5q-33 0 -38 19.5t-5 35.5q0 14 3 38t12 60.5t25.5 90 t43.5 125.5q14 37 34.5 90t42 105t40 95t26.5 62l-6 8q-31 -10 -76 -25.5t-110 -15.5q-31 0 -76 17.5t-72 70.5l-16 -12q-12 -10 -20.5 -15.5t-18.5 -5.5q-14 0 -14 19z" />
<glyph unicode="&#x448;" horiz-adv-x="1538" d="M29 53q0 35 20.5 96.5t42.5 118.5q29 76 61.5 158t61.5 153.5t51.5 125t30.5 73.5q12 31 35.5 54.5t50.5 41t51.5 25.5t38.5 8t14 -22q-2 -16 -7 -46t-27 -85l-209 -527q-2 -4 -4 -12t-2 -16.5t3 -13.5t11 -5q18 0 68.5 36t113 92.5t131 125t123.5 133.5q12 25 26.5 62 t31 76.5t36 76.5t37.5 60q41 47 76 60t59 13q23 0 33 -12t10 -31q0 -14 -10 -41.5t-27.5 -61.5t-40 -72t-47.5 -72q-10 -29 -28.5 -77t-38 -102.5t-37.5 -106.5t-29 -89q-4 -18 -10 -41t16 -23q23 0 82.5 45t128 107.5t133 128t99.5 106.5q27 63 52.5 134t70.5 124 q35 41 66.5 53.5t56.5 12.5q14 0 28.5 -8t14.5 -31q0 -29 -26 -95.5t-103 -170.5q-29 -74 -52.5 -143.5t-40 -128t-25.5 -102.5t-9 -68q0 -14 5 -30t31 -16q37 0 80 15.5t90.5 40t96.5 55.5t96 61l18 -24q-35 -29 -101.5 -74t-152.5 -90q-225 -119 -288 -119q-27 0 -36 20.5 t-9 37.5q0 51 11 108.5t28.5 115.5t37 114.5t35.5 105.5l-6 2q-80 -82 -166 -164t-167 -147.5t-149.5 -106.5t-113.5 -41q-25 0 -31 14.5t-6 26.5q0 16 12.5 62.5t28.5 93.5l92 250l-4 2q-27 -29 -72.5 -76t-101 -100.5t-115 -106.5t-114.5 -96t-101.5 -69.5t-72.5 -26.5 q-27 0 -37 18.5t-10 46.5z" />
<glyph unicode="&#x449;" horiz-adv-x="1515" d="M27 51q0 14 6 40t15 55.5t21.5 61.5t22.5 60q29 76 61.5 158t61.5 153.5t51.5 125t30.5 73.5q12 31 35.5 54.5t50.5 41t51.5 25.5t38.5 8t14 -22q0 -33 -38 -129q-25 -63 -53.5 -135t-65.5 -166q-18 -47 -34.5 -91.5t-30 -79t-20.5 -57t-7 -26.5q0 -20 14 -21 q16 0 65.5 36t113 92.5t133 125t124.5 133.5q12 29 27.5 68t34 77t38 72.5t37.5 57.5q47 55 79 64t65 9q29 0 28 -43q0 -14 -10 -41.5t-27.5 -61.5t-40 -72t-47.5 -72q-10 -29 -32.5 -90.5t-44.5 -124.5q-27 -74 -56 -160q0 -6 -3 -16.5t-5 -21.5t1 -18.5t13 -7.5 q16 0 48 19.5t72 51.5t84 73t87 84t81 86t65 78q12 25 28.5 60.5t35 72.5t36.5 70.5t35 52.5q35 41 63.5 52t53.5 11q14 0 28.5 -8t14.5 -31q0 -29 -26 -95.5t-103 -170.5q-53 -135 -92 -262t-39 -232q0 -57 12 -110.5t12 -130.5q0 -86 -39 -186.5t-95 -197t-117.5 -178 t-106.5 -133.5l-31 2q45 63 91 137t82 151t58.5 151.5t22.5 142.5q0 53 -7 94t-16.5 80t-16.5 79t-7 91q0 47 14 112.5t33 125.5q23 68 49 141l-8 4q-23 -29 -66 -74t-98 -95t-115.5 -102t-118 -93t-107.5 -68t-81 -27q-27 0 -32 15.5t-5 33.5q0 10 5.5 30t11.5 39.5 t12 37.5t8 25l96 266l-4 2q-80 -84 -170 -169t-172 -152.5t-145.5 -110.5t-89.5 -43q-18 0 -33.5 11t-15.5 52z" />
<glyph unicode="&#x44a;" horiz-adv-x="794" d="M94 768q6 10 11.5 20.5t9.5 16.5q4 8 8 12q18 14 55 31.5t83 33t97.5 24.5t98.5 9t63.5 -19t16.5 -42q0 -16 -1 -39.5t-24 -73.5q-16 -37 -26.5 -62.5t-21.5 -50t-23.5 -54t-32.5 -78.5q35 35 90 60.5t120 25.5q63 0 99.5 -28.5t36.5 -98.5q0 -45 -28 -119t-85 -139 q-39 -47 -84 -90.5t-96 -78t-109.5 -55t-126.5 -20.5q-53 0 -77.5 38t-24.5 83t20.5 112.5t53 149.5t73.5 173t84 183q10 23 20.5 53.5t10.5 51.5q0 12 -11.5 25.5t-64.5 13.5q-47 0 -103 -18.5t-112 -49.5zM295 129q0 -70 90 -70q33 0 70 27t67.5 69t50 92t19.5 97 q0 51 -19.5 79t-49 39t-65.5 6t-71 -22q-33 -84 -62.5 -161.5t-29.5 -155.5z" />
<glyph unicode="&#x44b;" horiz-adv-x="1200" d="M-6 41q0 51 24.5 135t90.5 236q8 18 29.5 73.5t49 121l55 131t46.5 102.5q14 18 35.5 31.5t43 23.5t39 15t23.5 5q14 0 22.5 -4t8.5 -22q0 -20 -39 -113q-20 -47 -70.5 -164.5t-113.5 -275.5q-12 -29 -24.5 -61.5t-23 -61.5t-16.5 -51.5t-6 -30.5q0 -39 17.5 -55.5 t64.5 -16.5q57 0 104 31t81 76t52.5 93t18.5 85q0 45 -16.5 80t-35 62.5t-35 49t-16.5 37.5q0 14 23 36t59.5 46.5t82.5 49t91 45.5q72 31 119 48t78 26.5t48.5 12.5t29.5 3q18 0 39.5 -1t41 -8.5t33 -26t13.5 -54.5q0 -23 -3 -45.5t-9.5 -50t-18.5 -65.5t-31 -93 q-53 -156 -78.5 -240t-25.5 -125q0 -14 1 -29.5t22 -15.5q37 0 79.5 15.5t90 40t96.5 55t96 61.5l18 -25q-35 -29 -101.5 -73.5t-152.5 -89.5q-109 -57 -167 -76t-89 -19q-27 0 -39 20.5t-12 53.5q0 55 19.5 122t48.5 165q6 20 22.5 70.5t34 105.5t30.5 105.5t13 74.5 q0 61 -49 62q-35 0 -87 -15.5t-102.5 -37t-87 -44t-40.5 -34.5q49 -53 84.5 -97.5t35.5 -103.5q0 -47 -19 -102.5t-85 -122.5q-41 -43 -93 -86t-111.5 -79t-125 -57.5t-135.5 -21.5q-43 0 -69.5 21.5t-26.5 66.5z" />
<glyph unicode="&#x44c;" horiz-adv-x="692" d="M18 74q0 33 5.5 66.5t15.5 73.5t27.5 89t42.5 111q14 35 34.5 79t45 89t49 88t47.5 75q20 31 45.5 62t51.5 53.5t50.5 36.5t44.5 14q10 0 18.5 -5t8.5 -15q0 -16 -25.5 -53t-54.5 -84q-18 -31 -31.5 -57.5t-26 -55.5t-27.5 -62.5t-36 -82.5q35 35 90.5 60.5t120.5 25.5 q63 0 99 -28.5t36 -98.5q0 -45 -27.5 -119t-84.5 -139q-39 -47 -84 -90.5t-96.5 -78t-110 -55t-125.5 -20.5q-53 0 -78 38t-25 83zM199 131q0 -35 18.5 -53.5t63.5 -18.5q33 0 69.5 27t67.5 69t50 92t19 97q0 51 -19 79t-49 39t-66 6t-70 -22q-33 -84 -58.5 -155.5 t-25.5 -159.5z" />
<glyph unicode="&#x44d;" horiz-adv-x="905" d="M94 102q0 29 12.5 51.5t30 38t38 23.5t38.5 10q10 -72 43 -122t109 -50q66 0 113.5 25.5t99.5 77.5q31 33 57.5 74.5t46.5 84.5t33.5 80t17.5 58l-176 -9l-188 -10q-35 -4 -35 17q0 16 20.5 26t38.5 15q29 8 58.5 12t68.5 8q35 4 76 8t76 8q39 4 80 7q6 31 10 65.5 t4 67.5q0 53 -15.5 83.5t-38 47t-47 20.5t-42.5 4q-41 0 -97.5 -15t-119 -46t-124 -74t-110.5 -98q-10 -12 -27 -12q-18 0 -18 16q0 8 2 15t4 12q2 6 6 10q70 68 149 123t158.5 94t153.5 60.5t133 21.5q82 0 139.5 -42t57.5 -151q0 -43 -7.5 -99t-17.5 -89q10 -2 23 -2h43 q-8 -29 -23.5 -45.5t-25.5 -22.5q-12 -10 -23.5 -12t-28.5 -4q-39 -78 -94 -162t-129 -158q-90 -88 -180 -136t-180 -48q-20 0 -53 3t-64 17.5t-53.5 43t-22.5 79.5z" />
<glyph unicode="&#x44e;" horiz-adv-x="1337" d="M-8 39q0 8 6 30.5t15.5 50t19.5 57.5t18 56l35 109q-14 16 -16 21.5t-2 31.5q0 23 21.5 39.5t55.5 20.5l19 45q33 82 51 132t29.5 83t19.5 52t21 40q35 57 81 78.5t74 21.5q14 0 15 -22q-2 -16 -23.5 -65.5t-40.5 -102.5l-98 -287h31q31 0 73 6q41 6 82 17.5t82 46.5 q23 61 51.5 126.5t61.5 98.5q14 14 36.5 25.5t51.5 11.5q18 0 28.5 -6t16.5 -13h6q33 31 66.5 61t71.5 53.5t82 38.5t97 15q39 0 73 -10t58.5 -35.5t38 -68.5t13.5 -107q0 -74 -29 -162t-80 -173t-118.5 -158.5t-147.5 -120.5q2 -2 20.5 -5t51.5 -3q88 0 199.5 48t228.5 134 l18 -25q-131 -94 -255 -153.5t-277 -59.5q-14 0 -25.5 1t-21.5 3t-21 4q-49 -27 -89 -39t-93 -12q-72 0 -125 51.5t-53 172.5q0 29 4 61.5t10 64t12 58t10 41.5q-29 -16 -68.5 -33.5t-80.5 -28.5q-25 -8 -47.5 -11t-38.5 -7q-20 -4 -37 -4q-6 -25 -16.5 -66t-24.5 -84 t-30.5 -82t-36.5 -59q-33 -35 -59.5 -45t-51.5 -10q-35 0 -42 12t-7 39zM696 365q0 -240 162 -271q70 14 124 72.5t91 135.5t56.5 163t19.5 158q0 78 -31 124t-108 46q-27 0 -79 -26t-104.5 -78t-91.5 -133t-39 -191z" />
<glyph unicode="&#x44f;" horiz-adv-x="935" d="M-55 92q0 33 12 61.5t30.5 50t38 36t35.5 18.5q-2 -14 -1 -37.5t9.5 -47t27 -41t53.5 -17.5q47 0 93 20.5t93 57.5q45 35 87 76.5t62 64.5q-25 18 -57.5 38.5t-61 49.5t-48 69.5t-19.5 100.5q0 80 45 144.5t106.5 108.5t126 67.5t103.5 23.5q80 0 108.5 -33t28.5 -96 q0 -70 -31.5 -137.5t-68.5 -122.5q-43 -66 -99 -125q27 -14 54.5 -28.5t27.5 -59.5q0 -23 -8 -47.5t-18 -50t-18.5 -48t-8.5 -41.5q0 -14 4 -29.5t31 -15.5q45 0 129 45.5t180 106.5l19 -25q-35 -25 -99.5 -66.5t-138.5 -84.5q-53 -31 -93 -51.5t-69.5 -30.5t-51 -14.5 t-40.5 -4.5q-35 0 -46 19.5t-11 38.5q0 27 12 65.5t27.5 77.5t28 71t12.5 44q0 6 -3 9t-8 7q-6 2 -10 4q-25 -29 -66.5 -76t-121.5 -116q-53 -47 -96 -74t-78 -41t-61.5 -18t-49.5 -4q-35 0 -55.5 13t-30.5 30.5t-13 36t-3 28.5zM442 653q0 -43 7.5 -72.5t22.5 -53t41 -44 t62 -45.5q31 33 54.5 72t41 79t26 77.5t8.5 66.5q0 41 -9.5 66.5t-23 39t-27.5 17.5t-24 4q-74 0 -126.5 -56t-52.5 -151z" />
<glyph unicode="&#x451;" horiz-adv-x="774" d="M33 225q0 86 48 211t155 252q61 74 125.5 127t124 86t111.5 48.5t89 15.5q59 0 82 -15.5t23 -54.5q0 -49 -69 -128t-177 -181q-43 -41 -99.5 -92.5t-105.5 -98.5q-59 -53 -119 -108q-8 -129 43 -177.5t146 -48.5q80 0 161.5 30t147.5 65q78 41 149 96q8 -12 10.5 -18.5 t0.5 -20.5q0 -8 -53.5 -47t-138.5 -83t-189.5 -79t-206.5 -35q-129 0 -193.5 61.5t-64.5 194.5zM215 354q41 35 84 72q37 33 80 72t82 80q68 70 111.5 125t43.5 100q0 33 -18 41t-41 8q-39 0 -97.5 -30.5t-109.5 -96.5q-23 -29 -45 -70t-41.5 -90t-33 -103t-15.5 -108z M512 1110.5q2 15.5 2 38.5q6 70 37 98q29 29 100 33q37 0 49 -20q13 -25 9 -70q-2 -29 -8.5 -47.5t-28.5 -40.5q-20 -20 -39 -26.5t-53 -8.5q-18 0 -30.5 2t-25.5 12q-14 14 -12 29.5zM807 1149q4 25 8 49.5t27 48.5q29 29 100 33q37 0 49 -23q12 -22 10 -67 q-4 -33 -12 -50.5t-24 -37.5q-29 -33 -93 -35q-20 0 -33.5 -1t-23.5 15q-12 20 -8 68z" />
<glyph unicode="&#x452;" horiz-adv-x="876" d="M-25 4q0 23 8.5 55.5t30.5 79.5q16 35 30.5 80t25.5 70q39 113 80 229q35 100 75.5 219t79.5 230q12 39 27 71q-37 -2 -70 -2t-53 -2q-16 -2 -29.5 -2h-23.5q-23 0 -29 5t-6 18q2 25 13 41t28 26q20 10 40.5 13.5t57.5 3.5h107q31 84 57.5 154.5t42.5 119.5q8 23 20.5 38 t36.5 32q23 16 43.5 23t36.5 12q20 4 37 6q18 0 18 -21q-16 -37 -30 -73q-12 -33 -26.5 -69t-27.5 -71q-14 -39 -27 -76.5t-30 -76.5h72l186 8q37 2 37 -15q-4 -18 -43 -38q-18 -10 -94 -32t-178 -22h-17q-55 -147 -112.5 -295.5t-112.5 -296.5h6q113 125 206 209 t161.5 135.5t115 72t68.5 20.5q16 0 21.5 -11.5t3.5 -27.5q-2 -27 -12.5 -70t-27 -96t-35 -112.5t-34.5 -116.5q-68 -233 -144.5 -448.5t-174.5 -381.5q-55 -92 -128 -153.5t-143 -94.5q-47 -20 -69 -20q-18 0 -19 12q0 16 22.5 21.5t39.5 15.5q31 18 56.5 39.5t51 52.5 t51 75t54.5 109q35 74 65.5 163t63.5 196q53 174 89 290.5t58.5 191.5t32.5 115t10 60q0 10 -1 17.5t-23 7.5q-12 0 -44 -22.5t-73 -61.5t-89 -90t-93 -107q-57 -70 -97.5 -149.5t-68.5 -139.5q-29 -61 -50.5 -97t-39 -54.5t-33 -24.5t-31.5 -6q-20 0 -23.5 16.5t-3.5 22.5z " />
<glyph unicode="&#x453;" horiz-adv-x="673" d="M133 635q86 80 145.5 126t99.5 70.5t64.5 31.5t40.5 7q8 0 18.5 -1t18.5 -8t13.5 -22.5t5.5 -43.5q0 -45 -30 -135.5t-73 -215.5q-8 -23 -24.5 -67.5t-31.5 -91.5t-26.5 -89t-11.5 -59q0 -27 10 -38t27 -11q33 0 74 20.5t84 50t82.5 62.5t70.5 55l19 -24q-16 -16 -45 -40 t-62 -48.5t-66.5 -48t-58.5 -39.5q-111 -72 -169 -95.5t-89 -23.5q-23 0 -35 7t-17 17.5t-5 24.5v31q0 10 8 41t21.5 73t31 91t33.5 96q41 119 70.5 206t29.5 130q0 10 -4 25.5t-26 15.5q-12 0 -25.5 -3t-32 -13.5t-45 -31t-65.5 -53.5q-12 -2 -21 11q-4 6 -4 10zM453 1077 q0 6 13 31t33.5 57.5t41 67.5t37.5 59q29 47 65.5 73t97.5 26q18 0 21.5 -6.5t3.5 -22.5q0 -8 -23.5 -39t-61.5 -72t-84 -86t-89 -84q-4 -4 -18.5 -12t-24.5 -8t-11 4t-1 12z" />
<glyph unicode="&#x454;" horiz-adv-x="501" d="M170 641q4 66 31.5 102.5t101.5 36.5q45 0 58.5 -24.5t9.5 -71.5q-4 -49 -34 -89t-93 -40q-43 0 -60.5 17.5t-13.5 68.5z" />
<glyph unicode="&#x455;" horiz-adv-x="774" d="M-45 82q4 23 21.5 44t43.5 38q12 8 39 22.5t43 14.5q6 -31 18.5 -57.5t33 -48t52.5 -34t77 -12.5q51 0 95 13.5t76.5 38t52 58.5t19.5 72q0 41 -15 69t-46 50q-59 43 -114.5 77t-100.5 73q-29 25 -44.5 50t-15.5 73q0 25 13.5 60.5t46.5 72.5t90 72.5t147 62.5 q41 12 87.5 17t87.5 5q39 0 69.5 -7t52.5 -17q25 -11 43 -23q-18 -49 -47.5 -71.5t-79.5 -38.5q-6 23 -23.5 38t-42 24t-51 13.5t-46.5 4.5q-31 0 -67 -8.5t-66.5 -27t-50 -47t-19.5 -67.5q0 -47 37 -78q27 -23 61.5 -45t69.5 -44.5t65.5 -44t53.5 -42.5q31 -29 41 -56.5 t10 -62.5q0 -39 -23.5 -87t-66.5 -94t-101.5 -86t-126.5 -62q-41 -14 -78.5 -19.5t-105.5 -5.5q-37 0 -73 9t-66.5 25.5t-51 39t-24.5 49.5z" />
<glyph unicode="&#x456;" horiz-adv-x="620" d="M31 53q0 16 5 47t14 68t20.5 78t23.5 76q47 141 95.5 280t82.5 242q6 18 25.5 38.5t56.5 35.5q23 8 44.5 11t35.5 3q16 0 17 -23q0 -8 -9.5 -34.5t-22.5 -63.5t-28.5 -81t-30.5 -85q-25 -74 -53 -156.5t-53 -155.5t-41 -126t-16 -72q0 -33 4 -53.5t39 -20.5 q45 0 123.5 38t161.5 90.5t157 106.5t111 89l4 -49q-33 -25 -74 -54.5t-83 -60.5t-84 -59.5t-79 -50.5q-84 -51 -145.5 -82t-105.5 -47.5t-71.5 -21.5t-41.5 -5q-29 0 -45.5 10t-24.5 24.5t-10 32t-2 31.5zM354 1167q0 61 33 99.5t111 40.5q35 2 48 -19t13 -78 q0 -53 -33.5 -91t-103.5 -38q-68 0 -68 86z" />
<glyph unicode="&#x457;" horiz-adv-x="649" d="M29 53q0 41 13 99.5t46 154.5q53 162 101.5 298t82.5 239q6 18 26.5 37.5t55.5 36.5q23 10 43.5 12t36.5 2t17 -23q0 -6 -8.5 -30.5t-20.5 -61.5t-28.5 -82t-33.5 -90q-29 -80 -58.5 -161t-53 -151.5t-38.5 -125.5t-15 -84q0 -27 5 -44.5t40 -17.5q43 0 105.5 20.5 t134 55.5t146 79t142.5 91l12 -28q-125 -96 -235.5 -159t-198.5 -99.5t-148.5 -51t-84.5 -14.5q-29 0 -45.5 9t-25.5 23.5t-11 32t-2 33.5zM231 1167q0 35 10.5 61.5t26.5 43.5q31 35 107 35q35 0 48 -20t13 -77q0 -53 -32.5 -91t-104.5 -38q-43 0 -55.5 22.5t-12.5 63.5z M477 1167q0 35 10.5 61.5t26.5 43.5q31 35 107 35q35 0 48 -20t13 -77q0 -53 -33 -91t-104 -38q-43 0 -55.5 22.5t-12.5 63.5z" />
<glyph unicode="&#x458;" horiz-adv-x="471" d="M-455 -645q0 16 26 22.5t42 16.5q63 45 113.5 102.5t95.5 134t87 173t91 219.5q31 78 73 190.5t84 230t76.5 225t53.5 175.5q4 18 26.5 40.5t55.5 33.5q23 8 43 11t37 3q16 0 16 -23q0 -10 -9.5 -38.5t-22.5 -66.5t-29.5 -80t-28.5 -79q-27 -78 -57.5 -164t-59.5 -157 q-33 -84 -63 -168q-45 -123 -108.5 -271.5t-160.5 -277.5q-72 -96 -143.5 -156.5t-142.5 -93.5q-43 -18 -72 -19q-23 0 -23 17zM354 1167q0 61 33 99.5t111 40.5q35 2 48 -19t13 -78q0 -53 -33.5 -91t-103.5 -38q-68 0 -68 86z" />
<glyph unicode="&#x459;" horiz-adv-x="1224" d="M0 121q0 12 3 32.5t8 43t14.5 43t21.5 34.5q16 16 39 27.5t43 17.5q2 -12 2 -37.5t4 -51t15.5 -44t35.5 -18.5q14 0 30.5 2t41.5 16.5t59.5 45t85.5 87.5q49 55 86 98.5t65 78t49.5 63.5t39.5 57q20 68 45 130.5t53 115.5q14 18 38 29.5t47.5 20t44 11.5t30.5 3 q23 0 23 -29q0 -12 -16.5 -60.5t-37 -107.5t-42 -122.5t-29.5 -106.5q47 35 111.5 58.5t117.5 23.5q63 0 99 -27.5t36 -99.5q0 -45 -28.5 -119t-83.5 -139q-41 -47 -85 -91.5t-94.5 -78t-104.5 -54t-112 -20.5q-61 0 -86.5 39t-25.5 80q0 29 2 57.5t8 64t16.5 85t28.5 118.5 l20 82l-8 4q-35 -37 -83 -100.5t-107 -132.5q-66 -78 -117 -125t-92 -73.5t-73 -36t-58 -9.5q-47 0 -63.5 36t-16.5 79zM713 131q0 -72 61 -72q45 0 86 27t73 69t50 92t18 97q0 51 -20 79t-53 37t-71 3t-73 -23q-4 -6 -15 -47t-23.5 -92t-22.5 -100t-10 -70z" />
<glyph unicode="&#x45a;" horiz-adv-x="1185" d="M-6 39q0 8 6 30.5t15.5 50t19.5 57.5t18 56l35 109q-14 16 -16 21.5t-2 31.5q0 23 21.5 39.5t55.5 20.5l19 45q33 82 52.5 132t31.5 83t19 52t18 40q14 31 34.5 50.5t42 30.5t43 15t35.5 4t15 -22q-2 -16 -23.5 -65.5t-40.5 -102.5l-98 -287q45 -4 98 0q45 4 100.5 11.5 t112.5 29.5q41 96 77 156.5t75 117.5q20 31 45.5 62t51.5 53.5t50.5 36.5t44.5 14q10 0 18.5 -5t8.5 -15q0 -16 -25.5 -53t-54.5 -84q-18 -31 -31.5 -57.5t-26 -55.5t-27.5 -62.5t-36 -82.5q16 16 43 31.5t55.5 27.5t58.5 19.5t54 7.5q63 0 99 -28.5t36 -98.5 q0 -45 -26.5 -119t-85.5 -139q-37 -43 -82 -86t-97.5 -78t-112 -57.5t-124.5 -22.5q-59 0 -80.5 38t-21.5 83q0 59 18 133t65 188q-41 -16 -96 -27.5t-102 -19.5q-57 -8 -115 -14q-2 -25 -11 -66t-24.5 -84t-34 -82t-38.5 -59q-35 -35 -60.5 -45t-50.5 -10q-35 0 -42 12 t-7 39zM672 131q0 -29 13 -50.5t48 -21.5q47 0 88 27t72 69t49.5 92t18.5 97q0 51 -19.5 79t-49.5 39t-65.5 6t-70.5 -22q-33 -84 -58.5 -155.5t-25.5 -159.5z" />
<glyph unicode="&#x45b;" horiz-adv-x="1005" d="M-25 4q0 23 8.5 55.5t30.5 79.5q16 35 30.5 80t25.5 70q39 113 80 229q35 100 75.5 219t79.5 230q12 39 27 71q-37 -2 -70 -2t-53 -2q-16 -2 -29.5 -2h-23.5q-23 0 -29 5t-6 18q2 25 13 41t28 26q20 10 40.5 13.5t57.5 3.5h107q31 84 57.5 154.5t42.5 119.5q8 23 20.5 38 t36.5 32q23 16 43.5 23t36.5 12q20 4 37 6q18 0 18 -21q-16 -37 -30 -73q-12 -33 -26.5 -69t-27.5 -71q-14 -39 -27 -76.5t-30 -76.5h72l186 8q37 2 37 -15q-4 -18 -43 -38q-18 -10 -94 -32t-178 -22h-17q-55 -147 -112.5 -295.5t-112.5 -296.5h6q113 125 206 209 t161.5 135.5t115 72t68.5 20.5q16 0 21.5 -11.5t3.5 -27.5q-2 -27 -12.5 -71t-26 -97t-33.5 -112.5t-37 -114.5q-14 -43 -28.5 -89.5t-26.5 -86.5t-20.5 -73.5t-10.5 -52.5q0 -8 -1 -22t3 -28.5t14.5 -25t30.5 -10.5q74 0 182.5 55.5t243.5 149.5l12 -28 q-109 -84 -203 -139.5t-167.5 -87t-123.5 -44t-71 -12.5q-29 0 -45 10t-24.5 24.5t-10.5 32t-2 31.5q0 33 13.5 94.5t44.5 159.5q47 147 76.5 245.5t29.5 139.5q0 10 -1 17.5t-23 7.5q-12 0 -44 -22.5t-73 -61.5t-89 -90t-93 -107q-57 -70 -97.5 -149.5t-68.5 -139.5 q-29 -61 -50.5 -97t-39 -54.5t-33 -24.5t-31.5 -6q-20 0 -23.5 16.5t-3.5 22.5z" />
<glyph unicode="&#x45c;" horiz-adv-x="837" d="M-29 31q0 10 10.5 38.5t34.5 94.5q12 31 21.5 57.5l19 53t19.5 55t22 63.5q49 135 86 239.5t54 147.5q14 39 24 66.5t27 44.5q12 14 31.5 25.5t41 18.5t42 11t34.5 4t15 -22q0 -14 -14.5 -51t-28.5 -70q-35 -86 -64 -161t-51 -140l10 -2q37 39 67.5 72.5t64.5 67.5t75 70 t96 81q41 33 86 59.5t90 45t87 27.5t75 9q8 0 20.5 -1t23.5 -6t19.5 -15.5t8.5 -28.5q0 -35 -46 -94.5t-163 -131.5l-12 19q39 29 53 67.5t14 59.5q0 29 -41 29q-35 0 -94 -24t-127 -77q-45 -35 -79 -65.5t-56 -55.5q-27 -29 -47 -53h12q4 0 10.5 1t10.5 1q10 0 21 -7 t15 -32q10 -57 23.5 -132t30.5 -140q23 -102 67.5 -161.5t122.5 -59.5q55 0 106.5 17t97.5 44t85 55.5t68 53.5l18 -37q-55 -47 -116.5 -90t-124 -78t-125 -55.5t-117.5 -20.5q-39 0 -75 9.5t-67.5 35t-58.5 72.5t-45 123q-29 121 -40 183t-22 99q-16 -23 -31.5 -44 t-31.5 -60q-14 -31 -26.5 -62.5t-22.5 -56.5q-12 -29 -23 -55q-18 -47 -29.5 -70.5t-25.5 -38.5q-16 -16 -52 -33.5t-61 -17.5t-34 6t-9 23zM596 1077q0 6 13.5 31t34 57.5t41 67.5t36.5 59q29 47 65.5 73t98.5 26q18 0 21 -6.5t3 -22.5q0 -8 -23.5 -39t-61.5 -72t-84 -86 t-89 -84q-4 -4 -18.5 -12t-24.5 -8t-11 4t-1 12z" />
<glyph unicode="&#x45e;" horiz-adv-x="1021" d="M-408 -735q8 20 19.5 52t28.5 60q10 -16 29.5 -38.5t46 -42t60.5 -33t70 -13.5h66t75 12.5t88 42t105 89.5q33 35 72 103.5t81 158.5t84 192.5t83 205t76.5 196.5t66.5 168l-6 2q-78 -88 -168 -172t-173 -148.5t-151.5 -104.5t-103.5 -40q-20 0 -26.5 15.5t-6.5 35.5 q0 14 6 41t15.5 57.5t21.5 62.5t23 58q29 74 61.5 160t61 164t52 140.5t36.5 88.5q12 31 35.5 54.5t50 41t51 25.5t39.5 8q14 0 14 -22q-2 -16 -9 -48t-26 -83q-61 -145 -110 -267q-20 -51 -40 -103t-35 -96t-24.5 -77t-9.5 -45q0 -10 3 -14.5t16 -6.5q10 0 31.5 10.5t46 27 t49 36t43.5 35.5q55 53 97 97t74.5 85t60.5 82t56 86l58 152q18 47 34.5 77.5t45.5 55.5q57 47 122 47q27 0 27 -33q0 -31 -33 -104q-23 -49 -53.5 -100.5t-54.5 -92.5q-12 -35 -29.5 -84t-43.5 -121.5t-63.5 -172t-93.5 -234.5q-72 -178 -152.5 -334t-191.5 -262 q-123 -117 -234.5 -180.5t-211.5 -63.5q-74 0 -120 13.5t-70.5 32t-33 37t-8.5 28.5zM543 1092q0 8 4 21t8 24q12 29 34.5 62.5t57.5 33.5q12 0 18.5 -13.5t23 -28.5t47 -28.5t91.5 -13.5q37 0 77 16.5t76 42t62.5 60.5t38.5 71q12 37 52 37q25 0 22 -33q0 -16 -22.5 -56 t-65.5 -81q-59 -53 -114.5 -86t-106.5 -50t-98.5 -23.5t-85.5 -6.5q-49 0 -85 14.5t-34 37.5z" />
<glyph unicode="&#x45f;" horiz-adv-x="1075" d="M33 45q0 14 2 30.5t9 41t19.5 60.5t34.5 91l111 281q31 78 51.5 136t36.5 93t39.5 59.5t49.5 40t49.5 22.5t37.5 7t14 -22q-2 -16 -7 -47t-27 -84l-125 -322q-6 -18 -18.5 -48t-25 -60.5t-20.5 -54t-8 -29.5q0 -8 1 -16.5t15 -8.5q23 0 66 30.5t96 80.5q47 43 84 76.5 t70 67.5t64.5 72t68.5 91q12 23 23.5 52.5t23.5 61t28.5 61.5t37.5 52q37 37 70.5 49.5t56.5 12.5q10 0 21 -7.5t11 -29.5q0 -29 -21.5 -80t-80.5 -133q-18 -41 -37.5 -102.5t-38.5 -120.5q-6 -23 -22.5 -74t-32 -104.5t-27.5 -97.5t-12 -52q0 -35 22 -35q39 0 82 15.5 t90.5 40t95.5 55t95 61.5l18 -25q-35 -29 -101.5 -69.5t-152.5 -93.5q-111 -66 -182.5 -92.5t-105.5 -26.5q-27 0 -33 14.5t-6 30.5q0 20 8 58t21.5 84t28.5 97.5t30 100.5q10 37 19 66.5t16 52.5q8 25 14 45q-72 -74 -154 -152q-70 -66 -157.5 -147.5t-184.5 -157.5 q-41 -33 -69.5 -44t-40.5 -11q-41 0 -41 57zM113 -641q39 47 59.5 92t32.5 93t19 103.5t18 123.5q10 66 52 151.5t134 179.5l16 -4q-25 -53 -36 -105t-21 -132q-8 -72 -24.5 -152t-53.5 -151q-37 -72 -79 -119t-107 -96z" />
<glyph unicode="&#x490;" horiz-adv-x="743" d="M51 -25q0 18 5 40t18 65q33 121 53 199.5t36.5 142t34 126t42.5 152.5q18 66 41.5 145t44.5 148q23 80 47 160l12 48t12 50h-24.5t-24.5 2q-27 0 -29 21q0 16 39 35q18 8 41 14t50 12q27 4 54 6t50 2h81t87 3l98 4q4 14 8 31.5t9 33.5q6 18 12 35q12 27 44 54.5t73 27.5 q6 0 4 -14.5t-7.5 -38t-12.5 -52t-15 -57.5q-12 -47 -32.5 -65.5t-37.5 -18.5q-23 -6 -37 -2q-14 -4 -28.5 -7t-32.5 -7q-33 -6 -67.5 -9.5t-65.5 -5.5q-37 -2 -72 -2l-47 -159l-168 -584q-16 -59 -34.5 -127t-35.5 -145q-6 -33 -12 -74t-12 -66q-4 -16 -11.5 -34.5 t-15.5 -30.5q-10 -10 -26.5 -24.5t-35 -27t-36.5 -21.5t-31 -9q-16 0 -30.5 6t-14.5 18z" />
<glyph unicode="&#x491;" horiz-adv-x="684" d="M63 -16q0 23 15 67q23 70 41 124t41 128q16 57 26.5 97t24.5 98q12 47 24.5 95t23.5 92t18.5 80t7.5 56q-12 0 -44 -1t-48 1q-27 2 -29 23q0 18 41 37q20 10 43.5 16t52.5 12q29 4 57.5 6.5t53.5 2.5h78.5t78.5 2q41 2 84 4q4 16 9.5 34.5t9.5 34.5q6 20 12 39 q12 27 47 56.5t78 29.5q6 0 4 -15.5t-7 -40t-13.5 -55t-16.5 -61.5q-14 -51 -36.5 -70.5t-39.5 -19.5q-23 -6 -38 -2q-14 -4 -30 -7t-34 -7q-35 -6 -55.5 -8.5t-35.5 -4.5t-29.5 -3t-33.5 -3q-25 -78 -53.5 -192.5t-60.5 -241.5q-10 -35 -20.5 -74t-18.5 -72.5t-14.5 -59 t-6.5 -34.5q0 -16 3 -28.5t3 -22.5q0 -18 -9 -37.5t-54 -58.5q-8 -6 -34.5 -21.5t-67.5 -23.5q-45 0 -48 29z" />
<glyph unicode="&#x2000;" horiz-adv-x="943" />
<glyph unicode="&#x2001;" horiz-adv-x="1886" />
<glyph unicode="&#x2002;" horiz-adv-x="943" />
<glyph unicode="&#x2003;" horiz-adv-x="1886" />
<glyph unicode="&#x2004;" horiz-adv-x="628" />
<glyph unicode="&#x2005;" horiz-adv-x="471" />
<glyph unicode="&#x2006;" horiz-adv-x="314" />
<glyph unicode="&#x2007;" horiz-adv-x="314" />
<glyph unicode="&#x2008;" horiz-adv-x="235" />
<glyph unicode="&#x2009;" horiz-adv-x="377" />
<glyph unicode="&#x200a;" horiz-adv-x="104" />
<glyph unicode="&#x2010;" horiz-adv-x="663" d="M70 477l36 105h490l-33 -105h-493z" />
<glyph unicode="&#x2011;" horiz-adv-x="663" d="M70 477l36 105h490l-33 -105h-493z" />
<glyph unicode="&#x2012;" horiz-adv-x="663" d="M70 477l36 105h490l-33 -105h-493z" />
<glyph unicode="&#x2013;" horiz-adv-x="1173" d="M176 621q0 18 11.5 36.5t33.5 28.5q45 16 111 16q35 2 64.5 1t56.5 2q27 0 84 1t125.5 2l137 2t120.5 3q27 0 55.5 2t55 3t46 2t29.5 1t25.5 -2t15.5 -14q0 -25 -43 -46q-18 -10 -48 -19t-79 -17q-12 -2 -48 -4.5t-88.5 -4.5t-115.5 -4t-131 -4q-41 -2 -101.5 -3t-119 -2 t-104.5 -2t-58 -1q-35 0 -35 23z" />
<glyph unicode="&#x2014;" horiz-adv-x="1382" d="M156 457q0 18 11 36.5t34 28.5q39 16 110 17q53 0 90 1t72 1q109 2 184.5 3t139 1t125 1t141.5 3q29 0 61.5 1t61.5 3q33 2 63 4q20 2 29.5 -2t9.5 -20q0 -18 -41 -39q-18 -10 -45.5 -21.5t-81.5 -15.5q-33 -4 -103.5 -6t-215.5 -7q-147 -4 -239.5 -6t-141.5 -4h-47.5 h-40h-41h-47.5q-18 0 -30.5 -1t-23.5 -1q-35 0 -34 23z" />
<glyph unicode="&#x2018;" horiz-adv-x="477" d="M57.5 839q1.5 3 1.5 13q0 8 16.5 20.5t39 30t47 40t45.5 50.5q29 41 41 88t16 93q2 31 -2 52t-9 40.5t-9 41t-2 50.5q2 27 19.5 45t33.5 33q33 27 48 35t32 8q29 0 43 -29t6 -123q-8 -106 -56.5 -196.5t-106.5 -156t-113.5 -102t-75.5 -36.5q-16 0 -14.5 3z" />
<glyph unicode="&#x2019;" horiz-adv-x="477" d="M84 987q8 106 56 196.5t106.5 156t114 102.5t75.5 37q16 0 14.5 -3t-1.5 -14q0 -10 -16.5 -22.5t-39 -28.5t-47 -38.5t-45.5 -51.5q-29 -41 -41 -88t-16 -92q-2 -31 2 -52.5t9 -41t9 -41t2 -50.5q-2 -27 -19.5 -45t-33.5 -32q-33 -27 -48 -35t-32 -8q-29 0 -43 28.5 t-6 122.5z" />
<glyph unicode="&#x201c;" horiz-adv-x="696" d="M45 785q2 3 2 14q0 8 16.5 20t39 29.5t47 40t45.5 51.5q29 41 41 88t16 92q2 31 -2 52.5t-9 41t-9.5 41t-2.5 50.5q2 27 19.5 45t34.5 32q33 27 48 35t31 8q29 0 43.5 -28.5t6.5 -122.5q-8 -106 -56.5 -196.5t-107 -156t-113.5 -102.5t-76 -37q-16 0 -14 3zM311.5 785 q1.5 3 1.5 14q0 8 16.5 20t39 29.5t47 40t45.5 51.5q29 41 41 88t16 92q2 31 -2 52.5t-9 41t-9 41t-2 50.5q2 27 19 45t34 32q33 27 48 35t32 8q29 0 43 -28.5t6 -122.5q-8 -106 -56.5 -196.5t-106.5 -156t-113.5 -102.5t-75.5 -37q-16 0 -14.5 3z" />
<glyph unicode="&#x201d;" horiz-adv-x="696" d="M18 936q8 106 56.5 196.5t107 156t113.5 102t76 36.5q16 0 14 -3t-2 -13t-16.5 -22.5t-39 -29t-47 -39t-44.5 -50.5q-29 -41 -41.5 -88t-16.5 -92q-2 -31 2 -52.5t9.5 -41t9.5 -41t2 -50.5q-2 -27 -19.5 -45t-34.5 -33q-33 -27 -48 -35t-31 -8q-29 0 -43.5 29t-6.5 123z M285 936q8 106 56 196.5t106.5 156t113.5 102t76 36.5q16 0 14 -3t-2 -13t-16.5 -22.5t-39 -29t-47 -39t-44.5 -50.5q-29 -41 -41 -88t-17 -92q-2 -31 2.5 -52.5t9.5 -41t9 -41t2 -50.5q-2 -27 -19.5 -45t-33.5 -33q-33 -27 -48.5 -35t-31.5 -8q-29 0 -43 29t-6 123z" />
<glyph unicode="&#x201e;" horiz-adv-x="477" d="M-75.5 -452q1.5 3 1.5 14q0 8 16.5 20t39 29.5t47 40t45.5 51.5q29 41 41 88t16 92q2 31 -2 52.5t-9 41t-9.5 41t-1.5 50.5q2 27 19 45t34 32q33 27 48 35t32 8q29 0 43 -28.5t6 -122.5q-8 -106 -56.5 -196.5t-106.5 -156t-113.5 -102.5t-75.5 -37q-16 0 -14.5 3z M191 -452q2 3 2 14q0 8 16 20t38.5 29.5t47 40t45.5 51.5q29 41 41 88t16 92q2 31 -2 52.5t-9 41t-9 41t-2 50.5q2 27 19.5 45t33.5 32q33 27 48.5 35t31.5 8q29 0 43 -28.5t6 -122.5q-8 -106 -56 -196.5t-106.5 -156t-114 -102.5t-75.5 -37q-16 0 -14 3z" />
<glyph unicode="&#x2022;" horiz-adv-x="714" d="M125 481q0 51 19.5 96.5t53 79t80 53t97.5 19.5t95 -19.5t78 -53t53.5 -79t19.5 -96.5t-19.5 -96t-53.5 -79t-79 -54.5t-96 -20.5q-53 0 -98.5 19.5t-78 53.5t-52 80t-19.5 97z" />
<glyph unicode="&#x2026;" horiz-adv-x="1740" d="M150 51q4 70 34 105q31 31 109 34q37 0 51 -22q8 -19 8 -74q-4 -53 -39 -92q-35 -37 -96 -37q-41 0 -59 19q-8 14 -8 67zM784 51q4 70 35 105q31 31 109 34q37 0 51 -22q8 -19 8 -74q-4 -53 -39 -92q-35 -37 -96 -37q-41 0 -59 19q-8 14 -9 67zM1380 51q4 70 35 105 q31 31 109 34q37 0 51 -22q8 -19 8 -74q-4 -53 -39 -92q-35 -37 -96 -37q-41 0 -59 19q-8 14 -9 67z" />
<glyph unicode="&#x202f;" horiz-adv-x="377" />
<glyph unicode="&#x205f;" horiz-adv-x="471" />
<glyph unicode="&#x2122;" horiz-adv-x="2283" d="M119 846q2 12 14 49t23 68q14 43 33.5 97t39 108.5t37 103.5t27.5 80q2 8 10 30.5t16.5 47t14.5 45t6 26.5q0 25 -2 29t-12 4q-45 0 -189 -137l-6 22q106 102 186 153.5t111 51.5q29 0 29 -27t-7.5 -48t-17.5 -54q-12 -43 -36.5 -112.5t-47.5 -135.5q-29 -78 -59 -162 l6 -4q88 160 164 264.5t136 166t104 86t67 24.5q12 0 17 -3t5 -26q0 -12 -9 -44.5t-23.5 -78t-31.5 -96.5t-32.5 -97t-29 -84t-17.5 -54h4q78 102 142.5 188t118 148.5t96.5 97.5t77 35q16 0 19.5 -9.5t3.5 -19.5q0 -14 -14.5 -62.5t-34 -111t-40 -130t-34.5 -118.5 q-6 -18 -16.5 -55t-21.5 -76t-19 -70.5t-8 -40.5q0 -10 -4.5 -27.5t18.5 -17.5q41 0 102.5 31t124.5 72l12 -19q-135 -92 -223 -133t-129 -41q-16 0 -21 13.5t-3 29.5q4 23 23.5 93.5t43.5 154.5q12 45 31.5 105.5t38 119t33 104.5t14.5 62q0 10 2 16.5t-8 6.5 q-8 0 -27.5 -22.5t-42.5 -47.5q-12 -14 -37.5 -45t-56.5 -70.5t-65.5 -87t-65.5 -94.5q-18 -29 -40 -70.5t-40 -80.5t-30.5 -68t-14.5 -31q-35 -51 -90 -51q-6 0 -6 6q0 8 1 17.5t5 21.5t11 31.5t18 50.5l135 426q29 82 28 111q0 12 -6 14q-29 0 -117 -104q-39 -45 -85 -118 t-90 -148.5t-79.5 -142.5t-50.5 -101q-10 -14 -38.5 -37t-53.5 -23q-14 0 -14 6.5t-2 18.5zM1174 877q0 41 22.5 73.5t48.5 46.5l8 -2q-2 -25 3.5 -52.5t29.5 -27.5q18 0 56 28t106 114q29 37 65.5 92t73.5 113.5t68 113t49 90.5q8 25 13 39.5t8.5 23.5t7.5 17t10 21 q10 16 26.5 26.5t30.5 10.5q20 0 29.5 -1t9.5 -18q0 -39 -16.5 -80t-32.5 -94q-18 -53 -36.5 -116.5t-34 -120t-27 -100.5t-15.5 -58q0 -4 -3 -13.5t-4 -18.5t-1 -17.5t4 -8.5q6 0 48 47.5t99.5 118t118 152.5t101.5 154q20 63 32.5 98t34.5 63q16 23 35 30t35 7 q12 0 15 -11t3 -28q0 -12 -8 -38.5t-20.5 -56.5t-26.5 -57.5t-24 -45.5q-6 -18 -19.5 -59.5t-30 -90.5t-34 -101.5t-31.5 -97.5t-23.5 -75.5t-9.5 -36.5q0 -16 -2 -31.5t33 -15.5t95 35.5t120 76.5l12 -18q-33 -23 -62.5 -44.5t-86.5 -55.5q-78 -47 -115 -61.5t-55 -14.5 q-29 0 -34 15t-5 30q0 10 5 34.5t14 57.5t21.5 72t24.5 77q29 90 66 201l-6 2q-45 -59 -118 -151t-196 -232q-10 -10 -23.5 -25.5t-26.5 -29.5t-27.5 -23.5t-22.5 -9.5q-14 0 -17 8.5t-3 22.5t12 61t28.5 109.5t36 131.5t33.5 124l19 74l-7 2q-6 -12 -34.5 -57.5 t-64.5 -99.5t-71.5 -107.5t-58.5 -81.5q-45 -59 -80 -97.5t-61.5 -61t-48 -30.5t-41.5 -8q-16 0 -26.5 7t-14.5 18.5t-5 22.5t-1 20z" />
<glyph unicode="&#x25fc;" horiz-adv-x="901" d="M0 0v901h901v-901h-901z" />
</font>
</defs>
</svg>
