<?xml version="1.0" standalone="no"?>
<!DOCTYPE svg PUBLIC "-//W3C//DTD SVG 1.1//EN" "http://www.w3.org/Graphics/SVG/1.1/DTD/svg11.dtd" >
<svg xmlns="http://www.w3.org/2000/svg" xmlns:xlink="http://www.w3.org/1999/xlink" version="1.1">
<metadata></metadata>
<defs>
<font id="bookmancregular" horiz-adv-x="1269" >
<font-face units-per-em="2048" ascent="1536" descent="-512" />
<missing-glyph horiz-adv-x="477" />
<glyph horiz-adv-x="0" />
<glyph horiz-adv-x="682" />
<glyph unicode=" "  horiz-adv-x="477" />
<glyph unicode="&#x09;" horiz-adv-x="477" />
<glyph unicode="&#xa0;" horiz-adv-x="477" />
<glyph unicode="!" horiz-adv-x="614" d="M154 1229q0 61 14.5 104t39 62.5t46.5 27t47 7.5t47 -7.5t47 -27t39.5 -62.5t14.5 -104q0 -83 -27 -221q-4 -17 -14.5 -69t-14 -67t-12 -59t-11 -61.5t-9 -57.5t-8.5 -63.5t-5.5 -62.5t-4.5 -72t-2 -74.5t-1 -85.5h-78v51q-3 211 -35 389q-7 41 -29 139t-33 171t-11 143z M170 115q0 55 38 96t93 41q54 0 92.5 -39t38.5 -94q0 -56 -37.5 -95.5t-93.5 -39.5q-54 0 -92.5 38t-38.5 93z" />
<glyph unicode="&#x22;" horiz-adv-x="778" d="M115 1339q-6 35 22.5 63t65.5 28t65.5 -28t22.5 -63l-68 -401h-41zM487 1339q-6 35 22.5 63t65.5 28q38 0 66.5 -28t22.5 -63l-68 -401h-41z" />
<glyph unicode="#" d="M133 453v120h240l41 277h-226v121h242l64 424h118l-63 -424h272l64 424h119l-64 -424h199v-121h-215l-41 -277h204v-120h-223l-67 -453h-119l67 453h-272l-70 -453h-118l69 453h-221zM492 573h272l41 277h-273z" />
<glyph unicode="$" d="M70 352q0 79 44.5 121.5t104.5 42.5q54 0 88.5 -36.5t34.5 -96.5q0 -22 -10 -90q-4 -32 -4 -47q0 -17 6 -35t24 -40t46.5 -39t79 -29t116.5 -13v543q-114 11 -202 37.5t-144 62.5t-91.5 83t-50 95t-14.5 103q0 114 66 208t181 148.5t255 56.5v267h84v-267 q198 -13 326.5 -111t128.5 -218q0 -63 -38 -99t-87 -36q-45 0 -78.5 34t-36.5 95v67q-9 166 -215 182v-501q70 -10 122.5 -19.5t110.5 -26t99.5 -36t81 -49t63.5 -66t38.5 -86.5t14.5 -111q0 -116 -71 -216.5t-193 -161.5t-266 -66v-274h-82v274q-237 3 -384.5 104.5 t-147.5 245.5zM301 1104q0 -50 18.5 -91t48.5 -68.5t70 -47.5t80 -30t82 -13v487q-52 0 -102.5 -13.5t-95.5 -40t-73 -74.5t-28 -109zM684 88q142 0 238 79t96 193q0 44 -14.5 81t-37.5 62t-55 45t-62.5 32t-64.5 20t-56.5 11t-43.5 5v-528z" />
<glyph unicode="%" horiz-adv-x="1843" d="M45 991q0 89 21.5 163.5t57 124t81.5 84.5t94 51t96 16q63 0 123.5 -26.5t112 -78t83 -138.5t31.5 -196q0 -111 -32.5 -198.5t-85 -138t-111 -76t-117.5 -25.5q-60 0 -120 25.5t-113.5 76t-87 138t-33.5 198.5zM201 983q0 -36 0.5 -58.5t4.5 -64.5t10.5 -69.5t21 -62 t34.5 -54.5t51.5 -34.5t71.5 -14.5t71.5 14t51.5 35t34.5 55t21.5 62t11 69t4.5 64t0.5 59v9q0 36 -0.5 57.5t-4 64.5t-10.5 71t-21.5 64t-34.5 57.5t-52 36.5t-72 15q-32 0 -58 -9.5t-45 -23t-34 -37t-24.5 -44t-16 -52t-9.5 -52.5t-5 -54.5t-2 -48.5v-43v-11zM383 0 l950 1395h119l-950 -1395h-119zM1098 422q0 110 32.5 197t85 138t112.5 77t120 26q63 0 123.5 -26.5t112 -77.5t83 -138t31.5 -196q0 -111 -32.5 -198.5t-85 -138t-111 -76t-117.5 -25.5q-60 0 -120 25.5t-113.5 76t-87 138t-33.5 198.5zM1253 414q0 -36 0.5 -59t4.5 -64.5 t11 -69.5t21.5 -62t34.5 -54.5t51.5 -35t71.5 -14.5t71.5 14.5t51.5 35t34.5 54.5t21 62t10.5 70t4.5 64.5t0.5 58.5q0 151 -21 224q-42 150 -173 150q-40 0 -72 -15t-52 -36.5t-34.5 -57t-21.5 -64t-10.5 -71t-4 -64t-0.5 -57.5v-9z" />
<glyph unicode="&#x26;" horiz-adv-x="1638" d="M92 408q0 142 107 264.5t286 165.5q-71 57 -106 133t-35 149q0 129 102 219.5t269 90.5q137 0 221 -79t84 -190q0 -101 -78.5 -191.5t-206.5 -131.5q227 -176 410 -432q39 71 68.5 167.5t29.5 171.5q0 48 -20 79.5t-47 40t-54.5 13t-42.5 -0.5v61h492v-61 q-76 5 -124.5 -28t-75.5 -97t-45.5 -134t-50 -160t-73.5 -155q131 -227 346 -227h64v-76h-172h-13q-51 0 -78 1t-72.5 9t-75 23.5t-63.5 47t-59 77.5q-190 -193 -448 -193q-120 0 -216.5 31t-155 78t-98 108.5t-54.5 117t-15 108.5zM309 442q0 -164 95 -273.5t266 -109.5 q110 0 204.5 50t161.5 133q-228 337 -489 528q-20 -4 -40.5 -11t-59 -30.5t-66.5 -56.5t-50 -93.5t-22 -136.5zM526 1161q0 -128 138 -262q88 29 146 101.5t58 170.5q0 90 -49.5 135.5t-124.5 45.5t-121.5 -56.5t-46.5 -134.5z" />
<glyph unicode="'" horiz-adv-x="450" d="M137 1339q-6 34 19 62.5t69 28.5t69 -28.5t19 -62.5l-67 -401h-41z" />
<glyph unicode="(" horiz-adv-x="614" d="M113 504q0 98 1.5 169.5t7 157.5t15 149t26.5 132t40.5 118t58 97t78 79t101.5 53t128 30v-86q-70 -19 -113.5 -62.5t-77 -142t-47.5 -266.5t-14 -428q0 -261 14 -429.5t47.5 -266.5t77 -141t113.5 -62v-86q-70 7 -128 28.5t-101.5 52.5t-78 79t-58 97t-40.5 119 t-26.5 133t-15 149t-7 158t-1.5 169z" />
<glyph unicode=")" horiz-adv-x="614" d="M45 -395q70 19 113.5 62t77 141t47.5 266.5t14 429.5q0 260 -14 428t-47.5 266.5t-77 142t-113.5 62.5v86q70 -8 128 -30t101.5 -53t78 -79t58.5 -97t41 -118t26.5 -132t15 -149t7 -158t1.5 -169q0 -87 -1.5 -152.5t-5 -143.5t-11.5 -137t-20 -124.5t-30.5 -114 t-43.5 -97.5t-58.5 -83.5t-75 -63.5t-95 -46t-116.5 -23v86z" />
<glyph unicode="*" horiz-adv-x="901" d="M111 877q0 91 133 118l139 27v47l-143 18q-25 3 -43.5 7.5t-39.5 15t-32.5 30.5t-11.5 48q0 38 25 63t63 25q37 0 62.5 -19t51.5 -53l80 -100l39 24l-45 129q-1 3 -5.5 14.5t-7 19.5t-5 21t-2.5 25q0 41 25 68t65 27q33 0 60.5 -22.5t27.5 -72.5q0 -27 -19 -80l-47 -129 l41 -24l80 100q56 72 113 72q38 0 63 -25t25 -63q0 -36 -27.5 -65.5t-97.5 -37.5l-141 -16v-47l137 -29q25 -5 34 -7t32 -10.5t33.5 -18t20 -28t9.5 -42.5q0 -37 -24.5 -64.5t-61.5 -27.5q-62 0 -123 92l-72 106l-41 -24l39 -121q21 -65 21 -96q0 -38 -23 -62t-65 -24 q-40 0 -58 26t-18 60q0 48 18 96l39 121l-39 24l-73 -106q-24 -34 -37.5 -50t-35.5 -29t-48 -13q-39 0 -64.5 25.5t-25.5 56.5z" />
<glyph unicode="+" horiz-adv-x="1228" d="M104 459v155h439v437h155v-437h439v-155h-439v-443h-155v443h-439z" />
<glyph unicode="," horiz-adv-x="655" d="M184 98q0 53 36 90t89 37q60 0 103 -48t43 -124q0 -80 -53.5 -158t-147.5 -116l-23 43q120 73 127 188q-33 -26 -69 -26q-43 0 -74 31t-31 83z" />
<glyph unicode="-" horiz-adv-x="819" d="M102 475l62 123h553l-62 -123h-553z" />
<glyph unicode="." horiz-adv-x="655" d="M188 123q0 53 39 92t92 39t92.5 -39.5t39.5 -91.5t-39.5 -91.5t-92.5 -39.5t-92 39t-39 92z" />
<glyph unicode="/" horiz-adv-x="1228" d="M152 -305l761 1773h177l-762 -1773h-176z" />
<glyph unicode="0" d="M82 694q0 147 32.5 271t86.5 208.5t125.5 143.5t148.5 86t156 27t156 -27t148.5 -86t125.5 -143.5t86.5 -208.5t32.5 -271q0 -135 -27 -249t-72.5 -191t-101.5 -135t-119.5 -90.5t-120 -48t-108.5 -15.5t-108.5 15.5t-120 48t-119.5 90.5t-101.5 135t-72.5 191t-27 249z M307 692q0 -155 22.5 -272t55 -182t79 -105.5t85.5 -52.5t82 -12t82 12t85 52.5t79 105.5t55 182t22 272q0 73 -5.5 141.5t-18.5 142.5t-38 135t-59 111t-86 77.5t-116 27.5t-116 -28t-86.5 -77.5t-59 -110.5t-37.5 -135t-19 -142.5t-6 -141.5z" />
<glyph unicode="1" d="M328 1270v61q196 13 374 64h76v-1131q0 -118 38 -160.5t124 -42.5h84v-61h-692v61h80q86 0 123.5 42.5t37.5 160.5v785v26v37.5t-1 33t-4 29t-7.5 25t-12.5 21.5t-19 18t-26.5 13.5t-35.5 9.5t-45.5 6t-56.5 2h-37z" />
<glyph unicode="2" d="M86 0v143q96 55 194.5 123.5t205 162t187.5 190t134 209t53 216.5q0 130 -77.5 206.5t-207.5 76.5q-122 0 -207 -58.5t-85 -135.5q0 -37 30 -80q2 -3 7 -9.5t7 -9.5l6 -9t6 -9.5t4.5 -9.5t3.5 -10.5t2 -11t1 -13.5q0 -50 -35.5 -78.5t-81.5 -28.5q-59 0 -98 46.5 t-39 121.5q0 71 35.5 141.5t98.5 128t160 93t210 35.5t203 -27.5t145 -69.5t91.5 -97t50.5 -106t14 -100q0 -66 -23.5 -137t-81.5 -158.5t-147 -176t-230.5 -190t-322.5 -200.5h451q114 0 130 2q81 9 133 72q44 53 87 161l80 -20l-101 -383h-993z" />
<glyph unicode="3" d="M82 291q0 58 35 98.5t92 40.5q53 0 83 -34.5t30 -84.5q0 -11 -3 -20q-2 -10 -9 -32.5t-7 -35.5q0 -60 81 -112t220 -52q18 0 37.5 1.5t55 9t66.5 20t66 38t59.5 59.5t41 88t16.5 120q0 149 -81.5 238.5t-241.5 89.5q-39 0 -168 -6v94h135q54 0 103.5 14t94 43.5t71 82 t26.5 122.5q0 123 -75 194.5t-198 71.5q-125 0 -191.5 -50t-66.5 -111q0 -11 2 -17q2 -13 15 -39q18 -36 18 -59q0 -44 -33 -73t-80 -29q-50 0 -84 35.5t-34 99.5q0 59 32 118t90 107.5t148.5 78.5t196.5 30q100 0 183.5 -22t138 -57.5t92.5 -80t54.5 -88t16.5 -84.5 q0 -20 -3 -39.5t-12 -54.5t-31.5 -65.5t-57 -63t-94 -59t-136.5 -42.5q183 -18 293.5 -121.5t110.5 -244.5q0 -83 -37.5 -161t-108 -141.5t-185.5 -102t-257 -38.5q-218 0 -364 97.5t-146 228.5z" />
<glyph unicode="4" horiz-adv-x="1271" d="M51 467q449 559 680 928h197v-895h303l-45 -119h-258v-117q0 -50 2 -77t11 -55.5t27 -41t49 -21t79 -8.5h37v-61h-603v61h27q104 0 139 46t35 157v117h-647zM197 500h534v721q-259 -379 -534 -721z" />
<glyph unicode="5" d="M123 272q0 54 32.5 94t90.5 40q52 0 85.5 -33t33.5 -86q0 -14 -11 -47q-10 -30 -10 -47q0 -50 61 -93t181 -43q57 0 111.5 15t102.5 47t84.5 77.5t57.5 110.5t21 142q0 173 -96 276.5t-253 103.5q-22 0 -43 -2t-62 -12.5t-75.5 -29t-75 -56.5t-69.5 -90l-86 20v736h676 q42 0 69 14t35 59h80l-37 -241h-698v-410q153 129 348 129q235 0 377.5 -132.5t142.5 -328.5q0 -107 -41 -202t-114 -165.5t-183 -111.5t-240 -41q-215 0 -355 92.5t-140 214.5z" />
<glyph unicode="6" d="M92 645q0 230 72.5 406.5t213 277.5t331.5 101q117 0 221.5 -37.5t167.5 -100.5t63 -133q0 -50 -31.5 -76t-74.5 -26q-28 0 -50 9t-34.5 19.5t-22 31.5t-13 33t-8 35.5t-5.5 28.5q-11 52 -57.5 84.5t-155.5 32.5q-57 0 -107.5 -15t-100.5 -53.5t-87 -98.5t-62 -156.5 t-30 -221.5q-3 -44 0 -88q51 74 125 119t136.5 58.5t129.5 13.5q137 0 250 -56t179 -159.5t66 -233.5q0 -108 -47.5 -199t-125.5 -150.5t-176 -92.5t-200 -33q-41 0 -83.5 5.5t-100.5 23t-108.5 46.5t-102.5 81.5t-89 121.5t-60 172.5t-23 229.5zM336 408q0 -165 91 -253.5 t224 -88.5q146 0 239 96t93 268q0 163 -85.5 257.5t-221.5 94.5q-152 0 -246 -98.5t-94 -275.5z" />
<glyph unicode="7" d="M123 1030l65 365h996l16 -129q-79 -88 -149 -181t-145.5 -219t-131.5 -255.5t-97.5 -289t-53.5 -321.5h-269q41 221 149.5 453.5t246.5 425.5t297 348h-504h-58t-52 -2t-50.5 -5.5t-44.5 -10t-42 -16.5t-34.5 -24.5t-31.5 -34t-23.5 -46t-18.5 -58.5h-65z" />
<glyph unicode="8" d="M90 352q0 84 37.5 157.5t115.5 130.5t187 81q-27 8 -54 19.5t-67.5 37.5t-70 59t-51 87t-21.5 118q0 167 133.5 277.5t347.5 110.5q100 0 183.5 -20t139 -53t94 -77t56 -91t17.5 -95q0 -115 -87.5 -196t-218.5 -107q103 -27 177 -71t113 -96t56 -103t17 -105 q0 -88 -39.5 -169t-110.5 -144t-181 -100.5t-242 -37.5q-146 0 -268 51t-192.5 140t-70.5 196zM270 356q0 -59 21.5 -111.5t64 -97t116.5 -70.5t171 -26q171 0 271 85.5t100 207.5q0 44 -13 82.5t-38 66t-49.5 48t-60 36.5t-56 24t-49.5 17l-216 66q-118 -38 -190 -124 t-72 -204zM348 1090q0 -46 22 -83.5t47 -60.5t86 -48.5t94.5 -35.5t117.5 -34q7 -2 10 -3q103 22 174.5 92t71.5 177q0 120 -86.5 186t-208.5 66q-157 0 -242.5 -77.5t-85.5 -178.5z" />
<glyph unicode="9" d="M92 954q0 86 31 163t84.5 133.5t123.5 97.5t149.5 61.5t160.5 20.5q41 0 83.5 -5.5t100.5 -23t108.5 -46.5t102.5 -81.5t89 -121.5t60 -172.5t23 -229.5q0 -230 -72 -406.5t-212.5 -277.5t-331.5 -101q-117 0 -222 37.5t-168 100.5t-63 133q0 50 32 76t75 26q28 0 50 -9 t34.5 -20t22 -31.5t13 -33t8 -36t5.5 -28.5q11 -52 57.5 -84.5t155.5 -32.5q57 0 107.5 15t100.5 53.5t87 98.5t62 156.5t30 221.5q3 44 0 88q-131 -190 -391 -190q-137 0 -250 56t-179.5 159t-66.5 233zM317 965q0 -163 86 -258t222 -95q152 0 246 99t94 276 q0 165 -91.5 253.5t-224.5 88.5q-146 0 -239 -96t-93 -268z" />
<glyph unicode=":" horiz-adv-x="655" d="M188 123q0 53 39 92t92 39t92.5 -39.5t39.5 -91.5t-39.5 -91.5t-92.5 -39.5t-92 39t-39 92zM188 883q0 53 39 92t92 39t92.5 -39.5t39.5 -91.5t-39.5 -91.5t-92.5 -39.5t-92 39t-39 92z" />
<glyph unicode=";" horiz-adv-x="655" d="M188 98q0 53 36 90t89 37q60 0 103 -48t43 -124q0 -80 -53.5 -158t-147.5 -116l-22 43q119 72 126 188q-33 -26 -69 -26q-43 0 -74 31t-31 83zM197 883q0 53 39.5 92t91.5 39t91.5 -39t39.5 -92t-39.5 -92t-91.5 -39t-91.5 39t-39.5 92z" />
<glyph unicode="&#x3c;" horiz-adv-x="1228" d="M100 594v131l1043 475v-149l-848 -392l848 -391v-149z" />
<glyph unicode="=" horiz-adv-x="1228" d="M104 330v155h1033v-155h-1033zM104 731v156h1033v-156h-1033z" />
<glyph unicode="&#x3e;" horiz-adv-x="1228" d="M98 119v149l848 391l-848 392v149l1043 -475v-131z" />
<glyph unicode="?" horiz-adv-x="1105" d="M55 1079q0 47 19 95t60 94t98.5 82t141.5 58t183 22q125 0 223.5 -33.5t156 -89.5t87 -122t29.5 -138q0 -69 -21.5 -125.5t-50 -91t-75 -65t-78 -44t-76.5 -29.5q-30 -11 -46 -17.5t-40.5 -17.5t-37 -19.5t-30 -23t-26.5 -30t-19.5 -37t-15 -47t-8 -58t-3.5 -71.5v-35 h-96v115q0 62 10.5 107t35.5 77.5t49.5 52.5t68.5 47q53 34 84.5 58t73 66.5t62 95t20.5 114.5q0 120 -72.5 199.5t-214.5 79.5q-118 0 -207.5 -48.5t-89.5 -123.5q0 -31 12 -58q4 -9 13 -25.5t13.5 -30t4.5 -28.5q0 -39 -32 -69.5t-81 -30.5q-51 0 -88 40.5t-37 104.5z M350 115q0 54 37.5 95.5t91.5 41.5q55 0 94 -39.5t39 -93.5q0 -56 -38 -95.5t-93 -39.5q-54 0 -92.5 37.5t-38.5 93.5z" />
<glyph unicode="@" horiz-adv-x="1679" d="M113 698q0 146 58.5 280.5t158 234t240 158.5t296.5 59q131 0 253.5 -44t217.5 -121.5t152 -195t57 -254.5q0 -92 -28 -181.5t-79 -165t-134.5 -122.5t-184.5 -47q-161 0 -166 184v21q-48 -84 -129 -140.5t-174 -56.5q-110 0 -184 80t-74 227q0 113 38.5 211.5t100.5 163 t136.5 101t148.5 36.5q135 0 221 -98l15 80h137l-74 -475q-16 -98 -16 -135q0 -111 96 -111q106 0 181 127.5t75 300.5q0 116 -49 215t-131 165t-187.5 103t-218.5 37q-179 0 -330 -82.5t-240 -229t-89 -325.5q0 -181 89 -328.5t238 -229t326 -81.5q149 0 291.5 63 t247.5 187h96q-102 -158 -269.5 -251t-365.5 -93q-153 0 -291.5 58.5t-238.5 156.5t-158.5 233.5t-58.5 284.5zM543 575q0 -105 41.5 -147.5t101.5 -42.5q47 0 88 19.5t71 49.5t56.5 78.5t44 94t34.5 109.5t26.5 111t21.5 111q-62 91 -174 91q-84 0 -156.5 -68.5 t-113.5 -177.5t-41 -228z" />
<glyph unicode="A" horiz-adv-x="1392" d="M-76 0v61q39 3 73 17t59.5 33t49 50t39.5 59t34 70t29 73t28 77.5t28 75.5l348 879h185l413 -1076q4 -10 11 -29q15 -40 23.5 -60t24.5 -52t32 -48.5t39 -34.5t53.5 -26t68.5 -8v-61h-575v61q83 3 121.5 34t38.5 69q0 33 -31 112l-92 242h-527l-57 -153 q-47 -126 -47 -170q0 -23 8.5 -44.5t27.5 -42t56 -33.5t88 -14v-61h-549zM428 604h461l-236 615z" />
<glyph unicode="B" horiz-adv-x="1515" d="M63 0v61h21q45 0 77 13t48.5 31t25 49t10 52.5t1.5 57.5v866q0 36 -1.5 57.5t-10 52.5t-25 49t-48.5 31t-77 13h-21v62h703q67 0 123.5 -3t119.5 -12t112.5 -24t96.5 -40.5t78 -59.5t49.5 -83t18.5 -110q0 -66 -26.5 -119.5t-71 -88t-94 -55.5t-103.5 -30 q156 -20 262.5 -113.5t106.5 -238.5q0 -418 -652 -418h-723zM451 289q0 -24 0.5 -35.5t2 -31.5t5 -30t10 -26t17 -24t25 -19t34.5 -16t46 -11t59.5 -8t74.5 -2q42 0 78.5 2t86 10t89.5 21.5t81 38.5t69 59t45.5 85.5t17.5 115.5q0 62 -15 109t-36.5 78t-64.5 52.5t-78.5 33 t-100.5 17t-109 6.5t-124 1h-213v-420v-6zM451 801h219h19h63t64.5 2.5t68.5 6.5t63 12.5t60.5 20.5t50 31t41.5 43t25 58t10 74q0 260 -408 260h-55q-57 0 -98.5 -8t-65 -21t-36.5 -34t-17 -41.5t-4 -49.5v-354z" />
<glyph unicode="C" horiz-adv-x="1515" d="M90 694q0 147 51 281.5t140 235t218.5 160t278.5 59.5q239 0 408 -148l45 94h65l99 -493h-66q-42 87 -78 149t-83.5 121t-98.5 95t-118.5 57.5t-147.5 21.5q-102 0 -183.5 -37.5t-133.5 -99.5t-86.5 -146.5t-49 -173.5t-14.5 -186q0 -144 34.5 -256.5t87.5 -178.5 t123.5 -108.5t134 -57.5t128.5 -15q144 0 283 79t223 228l88 -49q-30 -51 -67.5 -97t-95 -96t-122.5 -86t-154.5 -59t-187.5 -23q-208 0 -373 93t-256.5 259.5t-91.5 376.5z" />
<glyph unicode="D" horiz-adv-x="1638" d="M63 0v61h21q92 0 127 47t35 156v866q0 109 -35 156t-127 47h-21v62h607q55 0 105 -2.5t119 -11t128.5 -23.5t127 -42t122 -63t106 -90t86 -120.5t55.5 -157.5t21 -197q0 -688 -870 -688h-607zM451 289q0 -47 4 -79t16.5 -55.5t29 -36t48 -20.5t66 -10t90.5 -2 q94 0 174 18.5t136.5 47t102.5 72t74 85t49 95t30.5 92.5t15.5 87t6.5 69.5t0.5 47.5q0 120 -25 216.5t-62.5 159t-93.5 108.5t-106.5 69t-113.5 36.5t-103 16.5t-85 3q-52 0 -85 -2.5t-64.5 -10t-49 -22t-31.5 -39t-19 -59t-5 -84.5v-803z" />
<glyph unicode="E" horiz-adv-x="1474" d="M63 0v61h21q92 0 127 47t35 156v866q0 109 -35 156t-127 47h-21v62h1172l141 -367l-65 -27q-221 308 -606 308q-46 0 -82 -3.5t-62 -12t-45 -17.5t-31 -24.5t-19 -28t-10 -34t-4 -37t-1 -40.5v-326h133q65 0 111.5 11.5t84 40t57.5 81.5t21 132h70v-615h-70 q-2 79 -21 131.5t-56.5 81t-84 40t-112.5 11.5h-133v-407q0 -68 13 -109t45 -62.5t72.5 -28.5t108.5 -7q440 0 686 379l66 -29l-187 -436h-1192z" />
<glyph unicode="F" horiz-adv-x="1310" d="M63 0v61h21q45 0 77 13t48.5 31t25 49t10 52.5t1.5 57.5v866q0 36 -1.5 57.5t-10 52.5t-25 49t-48.5 31t-77 13h-21v62h1129l147 -348l-65 -33q-213 295 -582 295q-82 0 -130.5 -8.5t-73 -32t-31 -51.5t-6.5 -80v-351h133q138 0 204.5 59t69.5 206h70v-615h-70 q-4 147 -69.5 205.5t-204.5 58.5h-133v-436q0 -25 0.5 -40.5t4 -39.5t9.5 -39t17.5 -32.5t28.5 -27.5t42.5 -17t58.5 -7h21v-61h-570z" />
<glyph unicode="G" horiz-adv-x="1638" d="M90 700q0 150 43.5 275t113 207.5t160 139.5t182 82.5t181.5 25.5q96 0 201.5 -32.5t202.5 -101.5l38 99h64l125 -437l-60 -18q-25 43 -57 87.5t-85.5 101.5t-111.5 100t-136 72.5t-158 29.5q-16 0 -37 -2t-68.5 -15.5t-90 -36t-92 -70t-85.5 -111.5t-60 -167t-24 -229 q0 -159 42 -284t112 -199t153.5 -111.5t175.5 -37.5q105 0 197 36.5t153.5 115.5t61.5 186q0 52 -15.5 90.5t-37.5 58t-51.5 31.5t-51.5 14.5t-43 1.5v62h561v-62q-58 -4 -92.5 -17t-51.5 -41t-22 -59t-6 -86v-57v-342h-98l-63 141q-197 -176 -459 -176q-211 0 -374.5 99 t-250 265.5t-86.5 370.5z" />
<glyph unicode="H" horiz-adv-x="1638" d="M63 0v61h21q92 0 127 47t35 156v866q0 109 -35 156t-127 47h-21v62h570v-62h-21q-92 0 -126.5 -46.5t-34.5 -156.5v-337h737v337q0 109 -35 156t-127 47h-20v62h569v-62h-21q-92 0 -126.5 -46.5t-34.5 -156.5v-866q0 -110 34.5 -156.5t126.5 -46.5h21v-61h-569v61h20 q92 0 127 47t35 156v443h-737v-443q0 -110 34.5 -156.5t126.5 -46.5h21v-61h-570z" />
<glyph unicode="I" horiz-adv-x="696" d="M63 0v61h21q45 0 77 13t48.5 31t25 49t10 52.5t1.5 57.5v866q0 36 -1.5 57.5t-10 52.5t-25 49t-48.5 31t-77 13h-21v62h570v-62h-21q-33 0 -58.5 -7t-42.5 -17t-28.5 -27.5t-17.5 -32.5t-9.5 -39t-4 -39.5t-0.5 -40.5v-866q0 -25 0.5 -40.5t4 -39.5t9.5 -39t17.5 -32.5 t28.5 -27.5t42.5 -17t58.5 -7h21v-61h-570z" />
<glyph unicode="J" horiz-adv-x="1228" d="M-47 383q0 75 41.5 127.5t118.5 52.5q54 0 82 -30.5t28 -75.5q0 -44 -24 -74q-5 -6 -25 -25.5t-28.5 -36t-8.5 -42.5q0 -78 93.5 -144.5t215.5 -66.5q66 0 129 23t105 65q35 35 56 82.5t29 110.5t9.5 99t1.5 105v577q0 36 -1.5 57.5t-10 52.5t-25 49t-48.5 31t-77 13h-20 v62h569v-62h-20q-45 0 -77 -13t-48.5 -31t-25 -49t-10 -52.5t-1.5 -57.5v-655q0 -142 -14 -199q-14 -60 -50.5 -114t-96 -99t-150.5 -71.5t-201 -26.5q-121 0 -221 36.5t-163 96.5t-97.5 134t-34.5 151z" />
<glyph unicode="K" horiz-adv-x="1474" d="M63 0v61h21q45 0 77 13t48.5 31t25 49t10 52.5t1.5 57.5v866q0 36 -1.5 57.5t-10 52.5t-25 49t-48.5 31t-77 13h-21v62h570v-62h-21q-33 0 -58.5 -7t-42.5 -17t-28.5 -27.5t-17.5 -32.5t-9.5 -39t-4 -39.5t-0.5 -40.5v-434l469 428q54 48 70 72q14 24 14 45 q0 33 -25 59.5t-84 30.5l-33 2v62h576v-62l-33 -10q-64 -20 -129.5 -58t-103 -68t-87.5 -75l-223 -198l377 -613q25 -40 35 -55.5t34.5 -49.5t43.5 -50.5t47.5 -39t62 -35t72.5 -20.5v-61h-623v61q33 0 57 3t49.5 11.5t39.5 27t14 47.5q0 20 -11 46.5t-18 39t-30 49.5 l-312 506l-249 -226v-301q0 -25 0.5 -40.5t4 -39.5t9.5 -39t17.5 -32.5t28.5 -27.5t42.5 -17t58.5 -7h21v-61h-570z" />
<glyph unicode="L" horiz-adv-x="1228" d="M63 0v61h21q45 0 77 13t48.5 31t25 49t10 52.5t1.5 57.5v866q0 36 -1.5 57.5t-10 52.5t-25 49t-48.5 31t-77 13h-21v62h586v-62q-42 -3 -69.5 -7t-51 -13t-37 -22.5t-23.5 -36t-13.5 -52.5t-3.5 -72v-845q0 -120 36.5 -159.5t137.5 -39.5q94 0 181 27.5t149.5 66.5 t120.5 94.5t91.5 98.5t63.5 90l57 -27l-164 -436h-1061z" />
<glyph unicode="M" horiz-adv-x="1884" d="M53 0v61h23q35 0 62.5 7t45.5 16.5t30.5 27.5t18.5 32t9 39t3.5 39.5t0.5 41.5v811q0 114 -5 143q-14 77 -82 101q-41 14 -106 14v62h469l439 -1076l425 1076h445v-62h-21q-92 0 -126.5 -46.5t-34.5 -156.5v-866q0 -110 34.5 -156.5t126.5 -46.5h21v-61h-569v61h20 q92 0 127 47t35 156v987l-496 -1251h-88l-500 1251v-987q0 -65 9 -104t32.5 -59.5t52.5 -28t81 -9.5l36 -2v-61h-518z" />
<glyph unicode="N" horiz-adv-x="1515" d="M53 0v61h21q92 0 127 47t35 156v811v19v50t-3 46.5t-8.5 46t-16.5 37.5t-27 32t-40.5 19t-56.5 8h-31v62h453l676 -1116v851q0 36 -1.5 57.5t-10 52.5t-25 49t-48.5 31t-77 13h-21v62h480v-62h-21q-45 0 -77 -13t-48.5 -31t-25 -49t-10 -52.5t-1.5 -57.5v-1130h-180 l-766 1241v-977q0 -36 1.5 -57.5t10 -52.5t25 -49t48.5 -31t77 -13h20v-61h-479z" />
<glyph unicode="O" horiz-adv-x="1638" d="M90 694q0 205 98 374.5t267 265.5t372 96q207 0 373.5 -97.5t259 -267.5t92.5 -379q0 -151 -57 -285t-154.5 -229.5t-233.5 -151t-288 -55.5q-151 0 -286.5 56.5t-232.5 153.5t-153.5 232.5t-56.5 286.5zM336 686q0 -134 28 -243t74.5 -181t110 -120.5t132 -69.5 t142.5 -21q73 0 141 20.5t131 68.5t109.5 118.5t74.5 178.5t28 241q0 308 -132.5 486.5t-355.5 178.5q-103 0 -190.5 -42t-153 -122.5t-102.5 -206.5t-37 -286z" />
<glyph unicode="P" d="M63 0v61h21q92 0 127 47t35 156v866q0 109 -35 156t-127 47h-21v62h672q115 0 206.5 -22t150 -58.5t97.5 -87t55 -104.5t16 -115q0 -60 -14 -114t-51 -107t-94.5 -91.5t-152 -62t-215.5 -23.5h-282v-346q0 -110 34.5 -156.5t126.5 -46.5h21v-61h-570zM451 696h251 q349 0 349 314q0 44 -8.5 83.5t-32.5 80t-61 69.5t-98.5 47.5t-141.5 18.5q-110 0 -165.5 -13t-74 -38t-18.5 -74v-488z" />
<glyph unicode="Q" horiz-adv-x="1679" d="M90 682q0 155 59 294t159.5 238.5t239 157.5t292.5 58q159 0 296.5 -56t233.5 -154t150.5 -235t54.5 -295q0 -305 -199 -504q92 -88 92 -192q0 -57 -24.5 -111.5t-77 -103.5t-128 -86t-184 -58.5t-237.5 -21.5q-130 0 -245.5 24t-192.5 62t-121.5 86.5t-44.5 97.5 q0 38 29 66t86 28q49 0 74.5 -18t30.5 -40.5t10 -57.5t14 -54q20 -46 120.5 -75t235.5 -29q211 0 341 80.5t130 196.5q0 59 -35 106q-187 -121 -424 -121q-148 0 -283.5 55t-234.5 149.5t-158 228t-59 284.5zM336 682q0 -44 3.5 -87t14 -100t28.5 -107.5t50.5 -104t75 -95 t106.5 -75t142 -50.5q-76 53 -76 113q0 16 4.5 33.5t22 43t46.5 44.5t86 33t132 14q25 0 46.5 -1t43.5 -4.5t35 -5.5t36.5 -9t31 -9.5t36.5 -12t35 -11.5l12 -4q82 161 82 415q0 164 -40 291t-109 201.5t-153 111.5t-179 37q-227 0 -369.5 -183t-142.5 -478zM780 137 q0 -26 27.5 -46.5t99.5 -20.5q55 0 126 22.5t130 81.5q-87 51 -211 51q-46 0 -80.5 -7.5t-51.5 -18t-26.5 -24t-11.5 -22t-2 -16.5z" />
<glyph unicode="R" horiz-adv-x="1474" d="M63 0v61h21q45 0 77 13t48.5 31t25 49t10 52.5t1.5 57.5v866q0 36 -1.5 57.5t-10 52.5t-25 49t-48.5 31t-77 13h-21v62h801q100 0 180 -15.5t132 -44t88.5 -62.5t55 -76.5t26.5 -80.5t8 -80q0 -150 -110 -247.5t-267 -110.5l321 -463q94 -138 238 -154v-61h-342l-457 659 h-286v-395q0 -25 0.5 -40.5t4 -39.5t9.5 -39t17.5 -32.5t28.5 -27.5t42.5 -17t58.5 -7h21v-61h-570zM451 745h307q106 0 182.5 24.5t116 67.5t56.5 90t17 103q0 279 -395 279q-69 0 -119.5 -4.5t-80.5 -16.5t-48 -23t-25.5 -32.5t-9 -35t-1.5 -42.5v-4v-406z" />
<glyph unicode="S" horiz-adv-x="1351" d="M57 469l62 16q41 -86 100.5 -160t135 -132.5t169 -92.5t193.5 -34q93 0 169 29.5t121 76t69 98t24 101.5q0 28 -6.5 53t-16 44t-28 37t-32.5 29.5t-41 24t-42 19t-47.5 16t-45.5 13t-46 11.5l-228 56q-102 25 -177 54.5t-139 74t-97 108.5t-33 146q0 37 9.5 76t30.5 82 t58.5 80.5t88.5 68.5t126 48.5t166 17.5q212 0 377 -109l24 74h74l125 -371l-59 -23q-38 63 -87 118t-113 103.5t-146 76.5t-170 28q-141 0 -221 -65.5t-80 -151.5q0 -46 20 -83t49 -60t71 -41.5t77.5 -28.5t77.5 -20q9 -2 14 -3l209 -49q46 -11 77 -19t73 -21t71 -25.5 t63.5 -31.5t57.5 -39t46.5 -47.5t37 -59t22 -71t8.5 -85.5q0 -92 -41 -176t-112.5 -147t-176 -100.5t-225.5 -37.5q-104 0 -219 34t-219 105l-39 -104h-76z" />
<glyph unicode="T" d="M-78 1028l117 367h1192l117 -367l-70 -24q-30 62 -69.5 111.5t-77.5 80.5t-82 54t-77 34t-68.5 17t-51 7t-29.5 1q-52 0 -69 -19t-17 -86v-940q0 -109 35 -156t127 -47h53v-61h-635v61h54q92 0 126.5 46.5t34.5 156.5v940q0 67 -17 86t-69 19q-14 0 -29.5 -1t-51 -7 t-68.5 -17t-77 -34t-81.5 -54t-77 -80.5t-69.5 -111.5z" />
<glyph unicode="U" horiz-adv-x="1597" d="M55 1333v62h570v-62h-21q-45 0 -77 -13t-48.5 -31t-25 -49t-10 -52.5t-1.5 -57.5v-663q0 -219 93 -309t309 -90q78 0 140.5 14t104 36t71.5 56t46 67t25 76.5t11.5 76.5t2.5 75v661q0 36 -1.5 57.5t-10 52.5t-25 49t-48.5 31t-77 13h-20v62h479v-62h-20q-34 0 -60.5 -7 t-43 -16.5t-28.5 -27.5t-17.5 -31t-8.5 -37t-3.5 -36.5t-0.5 -36.5v-11v-688q0 -47 -3 -84t-15 -89.5t-33.5 -91.5t-62.5 -81t-97 -69t-141.5 -44.5t-192.5 -17.5q-111 0 -200 16.5t-148.5 42.5t-103 66t-67 79t-37.5 90.5t-17.5 90.5t-3.5 88v692q0 36 -1.5 57.5t-10 52.5 t-25 49t-48.5 31t-77 13h-21z" />
<glyph unicode="V" horiz-adv-x="1433" d="M-61 1333v62h606v-62q-18 1 -35 1q-69 0 -100 -24q-39 -30 -39 -69q0 -31 28 -108l353 -916l344 879q30 86 30 108q0 58 -47 96q-42 34 -122 33h-17v62h545v-62q-33 -2 -59.5 -6.5t-49 -16.5t-38.5 -21t-33.5 -31.5t-27 -35.5t-25 -46.5t-23 -50.5t-25.5 -60l-436 -1065 h-133l-449 1096q-3 8 -10 24q-40 102 -71 140q-58 69 -166 73z" />
<glyph unicode="W" horiz-adv-x="1966" d="M-61 1333v62h563v-62q-13 1 -25 1q-51 0 -82 -24q-39 -30 -39 -73q0 -35 19 -86l291 -870l237 774q-48 246 -237 278v62h565v-62h-25q-36 0 -61.5 -8.5t-37.5 -19t-18.5 -26.5t-7 -22.5t-0.5 -15.5q0 -27 17 -76l291 -884l264 827q20 61 20 96q0 49 -42.5 88.5 t-127.5 40.5v62h512v-62q-32 0 -58.5 -7t-46 -17t-37 -29t-28.5 -34.5t-24 -44t-19.5 -46.5t-18.5 -52q-1 -4 -2 -5.5t-1.5 -4.5t-1.5 -5.5t-2 -4.5l-387 -1083h-129l-299 895l-297 -895h-125l-375 1081q-43 122 -62 156q-38 64 -115 86q-21 6 -48 10z" />
<glyph unicode="X" horiz-adv-x="1474" d="M-61 0v61q74 22 136 53.5t111 73t79.5 74t68.5 80.5l307 383l-336 428q-31 39 -50 60t-55.5 54t-78.5 49t-90 17v62h635v-62q-37 -1 -60.5 -4t-47 -10.5t-35 -24t-11.5 -41.5q0 -35 49 -100l238 -311l227 286q57 74 57 121q0 14 -5.5 27.5t-19.5 28t-45 22.5q-25 6 -58 6 h-17v62h555v-62q-51 -5 -94.5 -20t-76 -33.5t-71 -55t-65.5 -67.5t-74 -88l-254 -311l381 -488q72 -91 104 -121q87 -79 203 -88v-61h-672v61q168 8 168 89q0 45 -65 129l-275 364l-296 -371q-48 -60 -48 -100q0 -42 39.5 -75t118.5 -36v-61h-577z" />
<glyph unicode="Y" horiz-adv-x="1310" d="M-61 1333v62h581v-62q-82 0 -120 -26t-38 -60q0 -32 41 -96l281 -444l272 426q43 72 43 108q0 37 -41 65q-40 27 -100 27h-4v62h510v-62q-70 -7 -122.5 -36t-94.5 -77.5t-98 -136.5l-324 -508v-311q0 -36 1.5 -57.5t10 -52.5t25 -49t48.5 -31t77 -13h53v-61h-635v61h53 q92 0 127 47t35 156v318l-325 524q-22 36 -27.5 44t-24.5 37.5t-27 37.5t-26.5 29.5t-31.5 29t-32.5 20t-40.5 19t-46 10.5z" />
<glyph unicode="Z" horiz-adv-x="1310" d="M20 63l973 1221q-113 25 -233 25q-53 0 -98 -3.5t-103.5 -13.5t-110 -32t-105 -54.5t-102 -85.5t-87.5 -121l-70 25l149 371h1027l20 -76l-967 -1215q132 -18 265 -18q288 0 452.5 86.5t249.5 271.5l63 -24l-149 -420h-1135z" />
<glyph unicode="[" horiz-adv-x="614" d="M188 -481v1949h340v-86h-28q-27 0 -47 -3.5t-33.5 -8.5t-22.5 -16.5t-14 -20t-7 -28.5t-2.5 -32.5t-0.5 -39.5v-1479q0 -27 0.5 -39.5t2.5 -32.5t7 -28.5t14 -20t22.5 -16.5t33.5 -8.5t47 -3.5h28v-86h-340z" />
<glyph unicode="\" horiz-adv-x="1228" d="M152 1468h176l762 -1468h-177z" />
<glyph unicode="]" horiz-adv-x="614" d="M86 -395h29q27 0 47 3.5t33.5 8.5t22.5 16.5t14 20t7 28.5t2.5 32.5t0.5 39.5v1479q0 27 -0.5 39.5t-2.5 32.5t-7 28.5t-14 20t-22.5 16.5t-33.5 8.5t-47 3.5h-29v86h340v-1949h-340v86z" />
<glyph unicode="^" horiz-adv-x="1228" d="M106 565l435 830h159l435 -830h-168l-346 635l-347 -635h-168z" />
<glyph unicode="_" horiz-adv-x="1024" d="M0 -195h1024v-122h-1024v122z" />
<glyph unicode="`" horiz-adv-x="696" d="M139 1337q0 28 19 51t53 23q30 0 67.5 -16.5t57.5 -30t55 -39.5l170 -121l-12 -35l-256 56q-31 6 -47.5 10t-40.5 13t-36 19.5t-21 28.5t-9 41z" />
<glyph unicode="a" horiz-adv-x="1187" d="M72 225q0 60 27.5 111.5t88.5 98t170 80.5t260 50l152 17v147q0 203 -233 203q-100 0 -162 -33.5t-60 -77.5l2 -41v-6q0 -42 -26 -72q-28 -32 -78 -32q-43 0 -69.5 25.5t-26.5 66.5t29 84t81.5 80.5t138.5 61.5t189 24q117 0 200 -24.5t123 -56t61.5 -83t24.5 -81 t3 -75.5v-401q0 -27 1 -45t4 -46.5t10.5 -47.5t19 -38t31.5 -28.5t46 -9.5q41 0 84 30l39 -53q-82 -69 -209 -69q-79 0 -138.5 36t-84.5 111q-168 -147 -385 -147q-138 0 -225.5 67t-87.5 174zM279 250q0 -73 53.5 -119.5t132.5 -46.5q75 0 158 40t147 97v289 q-77 -6 -140 -15t-131 -28.5t-114 -46.5t-76 -70.5t-30 -99.5z" />
<glyph unicode="b" d="M-4 1362v61q158 2 305 45h68v-606q150 150 362 150q96 0 179.5 -35t146 -98.5t98 -160t35.5 -212.5q0 -121 -38 -221t-104 -165t-153 -100.5t-186 -35.5q-223 0 -375 135l-51 -119h-111v1163q0 55 -7.5 92.5t-19 58.5t-33 32t-41 13.5t-51.5 2.5h-24zM369 195 q113 -117 272 -117q68 0 127 23.5t106.5 71.5t75 130.5t27.5 190.5q0 98 -19 174.5t-49 122.5t-71 75.5t-80.5 40.5t-81.5 11q-56 0 -108.5 -17t-91 -45t-63.5 -52.5t-44 -49.5v-559z" />
<glyph unicode="c" horiz-adv-x="1064" d="M76 489q0 232 136.5 377.5t367.5 145.5q176 0 294.5 -85t118.5 -188q0 -53 -30 -82.5t-74 -29.5q-42 0 -73.5 28t-31.5 70q0 11 4 39q5 30 5 39q0 51 -57.5 89t-145.5 38q-22 0 -45.5 -4t-54 -16t-57.5 -31.5t-54 -53.5t-46.5 -78t-31.5 -109t-12 -144q0 -102 24.5 -181 t61.5 -124t86.5 -74t93 -39t86.5 -10q59 0 113 19t94.5 50.5t66 58.5t46.5 56l59 -39q-149 -227 -438 -227q-230 0 -368 137.5t-138 367.5z" />
<glyph unicode="d" d="M68 489q0 121 37.5 221t102.5 165.5t151.5 101t185.5 35.5q154 0 301 -90v241q0 55 -7.5 93t-19 58.5t-32.5 31.5t-40 13.5t-51 2.5h-24v61q152 2 305 45h65v-1259q0 -40 13 -69.5t30 -44t41 -23t39.5 -10t32.5 -1.5h19v-61h-371v119q-45 -44 -97 -74t-98.5 -41.5 t-75 -15.5t-53.5 -4q-194 0 -324 138t-130 367zM281 498q0 -80 12.5 -145.5t32.5 -108t48.5 -74.5t55 -49t58.5 -27.5t53.5 -13t44.5 -2.5q138 0 260 133v612q-123 95 -250 95q-37 0 -73 -7.5t-82 -33.5t-79.5 -69.5t-57 -123.5t-23.5 -186z" />
<glyph unicode="e" horiz-adv-x="1064" d="M76 506q0 144 58.5 258.5t170.5 181t258 66.5q189 0 312 -114.5t124 -303.5h-708q-2 -29 -2 -84q0 -98 21.5 -175.5t55.5 -125t81 -78.5t93 -43t95 -12q100 0 179 49.5t122 138.5l68 -35q-61 -121 -172.5 -183t-253.5 -62q-115 0 -211 41.5t-159 112.5t-97.5 166 t-34.5 202zM295 676h491q0 102 -62 178t-173 76q-103 0 -173 -74.5t-83 -179.5z" />
<glyph unicode="f" horiz-adv-x="655" d="M41 0v61h18q17 0 32.5 1.5t39.5 10t41 23t30 44t13 69.5v700h-174v82h174v41v4q0 25 0.5 42.5t4.5 55.5t11.5 67t23.5 69.5t38 70.5t57.5 62t80 52.5t107 34t136.5 13.5q51 0 87.5 -13t54 -33.5t25 -40.5t7.5 -40q0 -29 -24.5 -54.5t-71.5 -25.5q-38 0 -68 27 q-7 6 -28.5 33.5t-44.5 43t-54 15.5q-33 0 -58 -11t-40.5 -31t-25.5 -41.5t-14 -51t-5.5 -50.5t-1.5 -48v-191h202v-82h-202v-700q0 -40 12.5 -69.5t29.5 -44t41 -23t39.5 -10t32.5 -1.5h19v-61h-545z" />
<glyph unicode="g" horiz-adv-x="1105" d="M35 -236q0 42 20 79.5t53 64t68.5 45t71.5 29.5q-70 17 -110 63t-40 105q0 72 55 131t146 77q-76 47 -118 122.5t-42 166.5q0 68 27.5 133t78 117t130 83.5t174.5 31.5q85 0 186 -33q41 85 111.5 133.5t142.5 48.5q58 0 89.5 -26.5t31.5 -61.5q0 -28 -20 -53t-56 -25 q-14 0 -41 9q-11 4 -30 12t-32 12t-26 4q-50 0 -108 -78q76 -53 123 -132.5t47 -174.5q0 -148 -110.5 -246t-313.5 -98q-90 0 -185 33q-39 -19 -68.5 -49.5t-29.5 -59.5q0 -31 25.5 -49.5t47.5 -23t76 -11.5q9 -1 13 -2l350 -47q43 -6 70.5 -11t66 -14.5t63 -20.5t51.5 -30 t42.5 -42.5t26 -57t10.5 -74.5q0 -40 -11.5 -81t-48 -89.5t-94 -85t-160.5 -61.5t-237 -25q-126 0 -221.5 17.5t-150 44t-88.5 63t-45 69t-11 68.5zM158 -221q0 -25 7.5 -49.5t33.5 -55t68 -53t118.5 -38t177.5 -15.5q98 0 172.5 15t115.5 37t66.5 52t33 54t7.5 49 q0 32 -14 55t-32 36t-54.5 23t-60.5 13.5t-70 9.5l-403 49q-72 -23 -119 -74t-47 -108zM332 655q0 -284 221 -284t221 284q0 80 -18 137t-50.5 88t-70 44.5t-82.5 13.5t-82.5 -13.5t-70 -44.5t-50.5 -88t-18 -137z" />
<glyph unicode="h" horiz-adv-x="1351" d="M41 0v61h18q48 0 81.5 14.5t48.5 39.5t20.5 47t5.5 47v954q0 68 -9.5 110t-32 60.5t-45 23.5t-62.5 5h-25v61q170 5 305 45h66v-637q101 86 227 133.5t250 47.5q67 0 116 -18.5t77 -46.5t44.5 -69.5t21.5 -78.5t5 -82v-508q0 -25 5.5 -47t20.5 -47t48.5 -39.5t81.5 -14.5 h18v-61h-545v61h19q39 0 68.5 10.5t45.5 25.5t25.5 36.5t12.5 39t3 36.5v473q0 116 -40 170.5t-132 54.5q-94 0 -193.5 -50t-178.5 -116v-532q0 -19 3 -36.5t12.5 -39t25.5 -36.5t45.5 -25.5t68.5 -10.5h19v-61h-545z" />
<glyph unicode="i" horiz-adv-x="614" d="M41 0v61h18q17 0 32.5 1.5t39.5 10t41 23t30 44t13 69.5v534q0 20 -1 32t-8.5 35.5t-22 37.5t-44.5 25.5t-73 11.5h-25v61q152 2 305 45h66v-782q0 -40 12.5 -69.5t29.5 -44t41 -23t39.5 -10t32.5 -1.5h19v-61h-545zM190 1217q0 51 36 86.5t87 35.5t87 -35.5t36 -86.5 t-36 -87t-87 -36t-87 36t-36 87z" />
<glyph unicode="j" horiz-adv-x="612" d="M-223 -391q0 33 24 57.5t60 24.5q41 0 69 -25q9 -8 25 -26.5t28 -30t36 -21.5t55 -10q25 0 47.5 9t45.5 30t36.5 63.5t13.5 102.5v903q0 68 -9.5 110t-32 60.5t-45 23.5t-62.5 5h-25v61q152 2 305 45h66v-1085q0 -31 -2 -57t-11 -71.5t-25.5 -81.5t-49 -76.5t-76.5 -68 t-114 -45.5t-156 -18q-58 0 -100.5 12.5t-63 32.5t-30 39t-9.5 37zM193 1217q0 51 35.5 86.5t86.5 35.5t87 -35.5t36 -86.5t-36 -87t-87 -36t-86.5 36t-35.5 87z" />
<glyph unicode="k" d="M41 0v61h18q17 0 32.5 1.5t39.5 10t41 23t30 44t13 69.5v954q0 68 -9.5 110t-32 60.5t-45 23.5t-62.5 5h-25v61q152 2 305 45h66v-962l299 264q24 21 34.5 31t23.5 29t13 34q0 32 -28 52q-22 15 -60 15q-11 0 -24 -1v61h549v-61q-130 -11 -233 -65.5t-206 -149.5l-49 -45 l285 -414q57 -83 118.5 -132t151.5 -63v-61h-555v61h21q94 0 94 56q0 39 -68 139l-192 281l-174 -154v-174q0 -40 12.5 -69.5t29.5 -44t41 -23t39.5 -10t32.5 -1.5h19v-61h-545z" />
<glyph unicode="l" horiz-adv-x="614" d="M41 0v61h18q17 0 32.5 1.5t39.5 10t41 23t30 44t13 69.5v954q0 68 -9.5 110t-32 60.5t-45 23.5t-62.5 5h-25v61q152 2 305 45h66v-1259q0 -40 12.5 -69.5t29.5 -44t41 -23t39.5 -10t32.5 -1.5h19v-61h-545z" />
<glyph unicode="m" horiz-adv-x="1925" d="M39 0v61h18q17 0 32.5 1.5t39.5 10t41 23t30 44t13 69.5v477q0 55 -7.5 93t-19 58.5t-32.5 31.5t-40 13.5t-51 2.5h-24v61q152 2 305 45h66v-160q164 181 364 181q108 0 184.5 -44t98.5 -137q181 181 399 181q273 0 273 -295v-508q0 -40 12.5 -69.5t29.5 -44t41 -23 t39.5 -10t32.5 -1.5h19v-61h-545v61h18q17 0 32.5 1.5t39.5 10t41 23t30 44t13 69.5v473q0 112 -37.5 169.5t-132.5 57.5q-84 0 -160 -50.5t-133 -117.5v-532q0 -40 13 -69.5t30 -44t41 -23t39.5 -10t32.5 -1.5h18v-61h-545v61h19q17 0 32.5 1.5t39.5 10t41 23t29.5 44 t12.5 69.5v473q0 112 -37.5 169.5t-132.5 57.5q-84 0 -159.5 -50.5t-132.5 -117.5v-532q0 -40 12.5 -69.5t29.5 -44t41 -23t39.5 -10t32.5 -1.5h19v-61h-545z" />
<glyph unicode="n" horiz-adv-x="1351" d="M41 0v61h18q17 0 32.5 1.5t39.5 10t41 23t30 44t13 69.5v477q0 68 -9.5 110t-32 60.5t-45 23.5t-62.5 5h-25v61q152 2 305 45h66v-160q92 82 207.5 131.5t238.5 49.5q88 0 148.5 -22.5t91 -65t43 -92t12.5 -115.5v-508q0 -40 13 -69.5t30 -44t41 -23t39.5 -10t32.5 -1.5 h18v-61h-545v61h19q17 0 32.5 1.5t39.5 10t41 23t29.5 44t12.5 69.5v473q0 117 -40.5 172t-141.5 55q-93 0 -188.5 -49.5t-173.5 -118.5v-532q0 -40 12.5 -69.5t29.5 -44t41 -23t39.5 -10t32.5 -1.5h19v-61h-545z" />
<glyph unicode="o" horiz-adv-x="1146" d="M74 487q0 151 59 269.5t173.5 187t266.5 68.5q228 0 365 -147.5t137 -377.5q0 -102 -30 -187.5t-80 -143t-115.5 -97t-135.5 -57.5t-141 -18q-72 0 -141.5 17.5t-134.5 57.5t-114.5 97t-79 142.5t-29.5 188.5zM287 492q0 -81 12.5 -147.5t32 -110t47 -76t53 -49.5 t55 -27.5t49 -13t37.5 -2.5q38 0 74 10t76 39.5t70 75t49.5 123.5t19.5 178q0 111 -23 195t-55 128.5t-74.5 72t-74 35t-62.5 7.5q-25 0 -51.5 -6t-60.5 -21t-63.5 -47t-55 -78t-40.5 -119.5t-15 -166.5z" />
<glyph unicode="p" d="M41 885v61q193 8 313 45h66v-131q132 152 323 152q198 0 324.5 -138.5t126.5 -371.5q0 -121 -36 -219.5t-99 -163.5t-148 -100t-184 -35q-176 0 -307 100v-342q0 -40 12.5 -69.5t29.5 -44t41 -23t39.5 -10t32.5 -1.5h19v-61h-545v61h19q17 0 32.5 1.5t39.5 10t41 23 t29.5 44t12.5 69.5v944q0 68 -9.5 110t-32 60.5t-45 23.5t-62.5 5h-33zM420 186q109 -104 248 -104q38 0 74 7t81.5 32.5t78.5 67.5t56 119.5t23 180.5q0 99 -17 174.5t-44 122t-66.5 76t-79.5 40.5t-86 11q-80 0 -151.5 -42.5t-116.5 -114.5v-570z" />
<glyph unicode="q" horiz-adv-x="1187" d="M84 494q0 109 28 198t73.5 147.5t106 98.5t123 57t126.5 17q189 0 327 -135l62 114h102v-1249q0 -40 13 -69.5t30 -44t41 -23t39.5 -10t32.5 -1.5h18v-61h-544v61h18q17 0 32.5 1.5t39.5 10t41 23t30 44t13 69.5v385q-130 -143 -318 -143q-196 0 -315 137.5t-119 372.5z M297 492q0 -208 69 -310t197 -102q87 0 158.5 44t114.5 112v565q-45 52 -111.5 80t-136.5 28q-45 0 -84.5 -11t-78.5 -39.5t-66.5 -74t-44.5 -120.5t-17 -172z" />
<glyph unicode="r" horiz-adv-x="901" d="M41 0v61h18q17 0 32.5 1.5t39.5 10t41 23t30 44t13 69.5v477q0 68 -9.5 110t-32 60.5t-45 23.5t-62.5 5h-25v61q152 2 305 45h66v-151q170 172 346 172q73 0 113 -31.5t40 -77.5t-31.5 -79t-86.5 -33q-51 0 -91 24q-6 4 -19 13t-21.5 14t-23 9.5t-30.5 4.5 q-50 0 -104 -34t-92 -72v-541q0 -40 12.5 -69.5t29.5 -44t41 -23t39.5 -10t32.5 -1.5h19v-61h-545z" />
<glyph unicode="s" horiz-adv-x="1064" d="M82 365h65q26 -79 73 -138.5t104.5 -93.5t117 -50.5t119.5 -16.5q124 0 194 54.5t70 121.5q0 31 -12.5 56t-27 39t-43 26.5t-43.5 17t-46 12.5l-209 56q-8 2 -26 7q-40 11 -61 17t-59 19.5t-59 26t-48.5 33t-42 44t-25 56t-10.5 71.5q0 120 109.5 204.5t266.5 84.5 q167 0 289 -92l19 71h61l66 -313h-66q-47 111 -143.5 181.5t-214.5 70.5q-99 0 -155 -43.5t-56 -106.5q0 -26 10 -46.5t26 -34t41 -24t49.5 -17.5t56.5 -15q6 -1 9 -2l232 -55q47 -11 80 -21.5t75 -32.5t67.5 -48.5t43.5 -70.5t18 -100q0 -143 -121 -236t-313 -93 q-172 0 -321 102l-27 -86h-61z" />
<glyph unicode="t" horiz-adv-x="778" d="M41 909v82q12 -1 24 -1q50 0 91 18q51 22 81 56.5t50.5 79.5t27.5 83t7 71v68h88v-375h290v-82h-290v-559q0 -37 0.5 -59t3.5 -55.5t9 -54.5t17.5 -45t27.5 -37.5t40.5 -23t56.5 -9.5q94 0 178 96l52 -45q-100 -133 -289 -133q-130 0 -203 49q-54 35 -72 87.5t-18 135.5 v653h-172z" />
<glyph unicode="u" horiz-adv-x="1392" d="M41 885v61q152 2 305 45h66v-712q0 -193 170 -193q202 0 383 172v428q0 55 -7.5 93t-19 58.5t-32.5 31.5t-40 13.5t-51 2.5h-24v61q152 2 305 45h65v-782q0 -40 13 -69.5t30 -44t41 -23t39.5 -10t32.5 -1.5h18v-61h-370v170q-98 -97 -218 -141.5t-243 -44.5 q-57 0 -102.5 12t-75 30.5t-51 47t-33 54.5t-18 61t-8 59t-1.5 55v383q0 68 -9.5 110t-32 60.5t-45 23.5t-62.5 5h-25z" />
<glyph unicode="v" horiz-adv-x="1064" d="M-47 930v61h498v-61h-50q-40 0 -61 -20t-21 -50q0 -26 25 -94l223 -590l203 543q27 78 27 106q0 32 -13.5 55t-34.5 33t-41 14t-40 3v61h426v-61q-50 -9 -88.5 -31t-65.5 -58.5t-41.5 -65t-34.5 -75.5l-297 -700h-118l-312 766q-1 3 -8.5 20.5l-10.5 24.5t-11.5 24 t-15 25t-17.5 21.5t-22.5 20.5t-26.5 14.5t-33 10.5t-39 3z" />
<glyph unicode="w" horiz-adv-x="1597" d="M-39 930v61h490v-61h-13q-57 0 -84.5 -14.5t-27.5 -53.5q0 -37 20 -92l205 -584l217 521l-27 65q-31 71 -50 96q-48 59 -132 62v61h463v-61h-16q-103 0 -103 -68q0 -29 19 -84l200 -581l193 489q28 72 28 125q0 43 -27 78t-93 39l-29 2v61h453v-61q-49 -10 -85.5 -31 t-62.5 -56.5t-40.5 -64t-33.5 -76.5l-276 -702h-133l-205 590l-252 -590h-137l-270 770q-17 50 -41 83.5t-51.5 49t-49.5 21t-49 6.5z" />
<glyph unicode="x" horiz-adv-x="1146" d="M-33 0v61q46 6 82.5 21t71.5 45t50.5 46t53.5 60l242 277l-223 274q-4 5 -11 14q-26 34 -41.5 50.5t-42 38.5t-58 32t-71.5 11v61h512v-61h-22q-104 0 -104 -49q0 -17 40 -70l144 -178l158 178q40 46 40 68q0 21 -23 37q-19 14 -58 14h-15v61h434v-61q-185 -8 -331 -178 l-156 -181l270 -335q65 -80 90 -103q77 -69 181 -72v-61h-566v61h17q61 0 85.5 21.5t24.5 48.5q0 33 -47 96l-172 213l-180 -207q-53 -61 -53 -94q0 -10 4.5 -20.5t16.5 -24.5t41.5 -23t72.5 -10v-61h-457z" />
<glyph unicode="y" horiz-adv-x="1105" d="M-47 930v61h487v-61h-12q-43 0 -70 -19q-30 -22 -30 -53q0 -22 18 -65l240 -600l176 458q47 122 47 180q0 92 -139 99v61h454v-61q-41 -4 -74.5 -19.5t-54.5 -33t-41 -48.5t-30 -51.5t-25 -56.5l-328 -789q-66 -161 -112 -231q-119 -182 -312 -182q-97 0 -140.5 38.5 t-43.5 90.5q0 41 29 70.5t69 29.5q38 0 80 -33q7 -6 23.5 -23t27 -26t29 -17.5t37.5 -8.5q21 0 44 12t52.5 42t63.5 94.5t67 156.5l-348 833q-31 71 -52 96q-45 56 -120 56h-12z" />
<glyph unicode="z" horiz-adv-x="983" d="M14 59l660 852q-65 19 -131 19q-336 0 -432 -260l-64 22l115 299h758l24 -49l-678 -852q84 -29 189 -29q64 0 119 10.5t119.5 38t122.5 87t102 147.5l57 -20l-111 -324h-817z" />
<glyph unicode="{" horiz-adv-x="573" d="M43 557v61q37 0 65 8.5t44.5 25.5t27 34.5t15 44t5.5 44t1 42.5v379q0 57 8.5 99t37 92.5t98 72t175.5 8.5v-32h-33q-114 0 -114 -199v-389q0 -34 -2 -59.5t-11.5 -62t-26.5 -62t-50.5 -47t-79.5 -29.5q46 -8 79.5 -29.5t50.5 -47t26.5 -62t11.5 -62t2 -59.5v-389 q0 -199 114 -199h33v-33q-45 -3 -82 -4.5t-67 7.5t-53 17.5t-40.5 26t-30 32t-21 37t-13.5 40t-7.5 40.5t-3.5 40t-1 37v378q0 25 -1 42.5t-5.5 44t-15 44t-27 34.5t-44.5 25.5t-65 8.5z" />
<glyph unicode="|" horiz-adv-x="1228" d="M541 -358v1740h159v-1740h-159z" />
<glyph unicode="}" horiz-adv-x="573" d="M53 -260h33q115 0 115 199v389q0 34 2 59.5t11.5 62t26.5 62t50.5 47t79.5 29.5q-46 8 -79.5 29.5t-50.5 47t-26.5 62t-11.5 62t-2 59.5v389q0 199 -115 199h-33v32q45 3 82 4.5t67 -7.5t53 -17.5t40.5 -25.5t30 -32t21.5 -37t14 -39.5t7.5 -40.5t3.5 -40t1 -37v-379 q0 -31 1.5 -51.5t10 -52t23.5 -50t46.5 -32.5t75.5 -13v-61q-44 1 -75.5 -13t-46.5 -32.5t-23.5 -50t-10 -52t-1.5 -51.5v-378q0 -44 -4 -78t-22.5 -78.5t-50.5 -71t-94.5 -41.5t-148.5 -4v33z" />
<glyph unicode="~" horiz-adv-x="1228" d="M106 453q18 38 40 71.5t58.5 76t87 68t107.5 25.5q58 0 142 -30q57 -21 128.5 -53t110.5 -46t70 -14q38 0 73.5 19t61.5 49.5t41 54t27 47.5l86 -96q-43 -90 -120.5 -159t-170.5 -69q-72 0 -277 90q-114 52 -172 52q-122 0 -209 -185z" />
<glyph unicode="&#xa9;" horiz-adv-x="1515" d="M23 690q0 149 59 285.5t158 235t234.5 156.5t283.5 58q150 0 285.5 -57.5t233.5 -155.5t156 -234.5t58 -287.5q0 -150 -57.5 -286t-155.5 -234t-234 -155.5t-286 -57.5q-198 0 -367 97.5t-268.5 266.5t-99.5 369zM117 690q0 -130 51 -248t137 -204t204.5 -136.5 t248.5 -50.5q175 0 322 86t232 233t85 320q0 174 -85.5 321.5t-232.5 233.5t-321 86q-130 0 -248.5 -51t-204.5 -136.5t-137 -204.5t-51 -249zM319 692q0 121 53 223.5t150.5 165t218.5 62.5q152 0 248 -90l29 57h41l59 -303h-39q-60 121 -134 186.5t-189 65.5 q-66 0 -116 -27.5t-77 -67.5t-44 -94t-22 -97t-5 -87q0 -84 20 -149.5t50.5 -103.5t70.5 -63t76 -33.5t71 -8.5q182 0 312 168l53 -31q-60 -98 -157.5 -158.5t-225.5 -60.5q-194 0 -318.5 126t-124.5 320z" />
<glyph unicode="&#xab;" horiz-adv-x="737" d="M104 543l224 352l59 -35l-127 -317l107 -324l-62 -37zM356 543l222 352l61 -35l-127 -317l104 -324l-61 -37z" />
<glyph unicode="&#xad;" horiz-adv-x="819" d="M102 475l62 123h553l-62 -123h-553z" />
<glyph unicode="&#xae;" horiz-adv-x="1515" d="M23 690q0 201 98.5 370t267.5 267t369 98q201 0 370 -98.5t267 -267.5t98 -369t-98 -369t-267 -267.5t-370 -98.5q-200 0 -369 98t-267.5 267t-98.5 370zM117 690q0 -130 51 -248.5t137 -204.5t204.5 -137t248.5 -51q176 0 323.5 86.5t232.5 233.5t85 321t-85 321.5 t-232.5 233.5t-323.5 86q-173 0 -320.5 -85.5t-234 -233t-86.5 -322.5zM395 348v33h13q50 0 67 25.5t17 78.5v445q0 34 -6.5 55.5t-20 31t-26 12.5t-31.5 3h-13v33h432q252 0 252 -184q0 -74 -56 -128t-138 -55l168 -241q44 -69 121 -76v-33h-195l-236 338h-129v-201 q0 -51 19 -77.5t67 -26.5h11v-33h-316zM614 731h117q29 0 50.5 1.5t54.5 9.5t54.5 22.5t37.5 43.5t16 69q0 60 -45.5 101.5t-159.5 41.5q-80 0 -102.5 -16t-22.5 -64v-209z" />
<glyph unicode="&#xbb;" horiz-adv-x="737" d="M104 217l127 318l-106 323l63 37l199 -360l-221 -353zM356 217l127 318l-106 323l61 37l201 -360l-223 -353z" />
<glyph unicode="&#x2c6;" horiz-adv-x="860" d="M139 1212l291 191l291 -191l-27 -51l-264 94l-264 -94z" />
<glyph unicode="&#x2dc;" horiz-adv-x="901" d="M139 1212q21 68 72.5 105t116.5 37q50 0 151 -33q85 -29 131 -29q63 0 99 51l59 -18q-22 -76 -81 -115t-124 -39q-42 0 -141 31q-95 31 -141 31q-50 0 -82 -39z" />
<glyph unicode="&#x401;" horiz-adv-x="1474" d="M63 0v61h21q92 0 127 47t35 156v866q0 109 -35 156t-127 47h-21v62h1172l141 -367l-65 -27q-219 308 -606 308q-42 0 -76 -3.5t-59 -8.5t-44 -15t-31.5 -18.5t-21 -24t-13 -26t-6.5 -31t-2.5 -31.5t-0.5 -34v-5v-326h133q65 0 111.5 11.5t84 40t57.5 81.5t21 132h70v-615 h-70q-2 79 -21 131.5t-56.5 81t-84 40t-112.5 11.5h-133v-407q0 -68 13 -109t45 -62.5t72.5 -28.5t108.5 -7q440 0 686 379l66 -29l-187 -436h-1192zM406 1618q0 51 35.5 87t86.5 36t87 -36t36 -87t-36 -87t-87 -36t-86.5 36t-35.5 87zM815 1618q0 51 36 87t87 36t87 -36 t36 -87t-36 -87t-87 -36t-87 36t-36 87z" />
<glyph unicode="&#x402;" horiz-adv-x="1699" d="M-72 1028l117 367h1188l106 -346l-69 -25q-67 117 -178.5 201t-235.5 84h-65q-42 0 -55 -24t-13 -81v-459q212 89 424 89q76 0 143 -11.5t130 -40.5t107.5 -73.5t71.5 -115.5t27 -161v-32t-4 -50t-11 -66t-23 -70.5t-38 -74t-58 -66t-81.5 -57t-110 -36.5t-141.5 -15 q-178 0 -275.5 67.5t-97.5 157.5q0 53 33 93.5t90 40.5q49 0 79 -31t30 -78q0 -9 -4 -29q-2 -10 -9.5 -32t-7.5 -33q0 -25 32 -47.5t97 -22.5q52 0 93 14.5t67 36t45 56t28 64t14 71.5t6 66.5t1 60.5q0 313 -297 313q-83 0 -182 -21.5t-178 -52.5v-659h-387v61h20 q45 0 77 13t48.5 31t25 49t10 52.5t1.5 57.5v940q0 58 -12.5 81.5t-54.5 23.5h-60q-129 0 -235 -86.5t-158 -218.5z" />
<glyph unicode="&#x403;" horiz-adv-x="1239" d="M63 0v61h21q92 0 127 47t35 156v866q0 109 -35 156t-127 47h-21v62h1041l147 -361l-77 -22q-240 297 -551 297q-59 0 -94 -10.5t-52 -38t-21.5 -59.5t-4.5 -91v-846q0 -40 5.5 -71.5t12 -52t22 -35t25.5 -22t33.5 -12t34.5 -5.5t39 -3l26 -2v-61h-586zM549 1530l180 127 q3 2 23.5 16.5t26.5 18.5l24 16t28 16.5t26 11t30 9t28 2.5q37 0 56.5 -23.5t19.5 -52.5q0 -17 -5 -31.5t-11 -24.5t-19.5 -19t-21.5 -14t-26.5 -11t-26 -7.5t-28.5 -6t-24 -5.5l-268 -57z" />
<glyph unicode="&#x404;" horiz-adv-x="1501" d="M92 741q0 138 37.5 253.5t100 194.5t144.5 134.5t171 81t180 25.5q106 0 216.5 -37t207.5 -103l57 111h82l84 -469h-92q-29 79 -77 149t-112.5 127t-150 90t-180.5 33q-79 0 -144 -23.5t-108 -61t-75.5 -89.5t-50.5 -102t-29 -106t-14 -95.5t-3 -75.5h758v-86h-756 q-1 -67 5.5 -131t22.5 -138.5t48 -136.5t77.5 -114t116.5 -81.5t160 -29.5q85 0 163 21t135.5 52.5t109 75.5t84.5 83t61 82l86 -49q-57 -89 -124 -156t-128 -105t-130 -61.5t-124.5 -31t-116.5 -7.5q-149 0 -268.5 43t-197.5 116t-130 173.5t-74 210.5t-22 233z" />
<glyph unicode="&#x405;" horiz-adv-x="1351" d="M57 469l62 16q41 -86 100.5 -160t135 -132.5t169 -92.5t193.5 -34q93 0 169 29.5t121 76t69 98t24 101.5q0 28 -6.5 53t-16 44t-28 37t-32.5 29.5t-41 24t-42 19t-47.5 16t-45.5 13t-46 11.5l-228 56q-102 25 -177 54.5t-139 74t-97 108.5t-33 146q0 37 9.5 76t30.5 82 t58.5 80.5t88.5 68.5t126 48.5t166 17.5q212 0 377 -109l24 74h74l125 -371l-59 -23q-38 63 -87 118t-113 103.5t-146 76.5t-170 28q-141 0 -221 -65.5t-80 -151.5q0 -46 20 -83t49 -60t71 -41.5t77.5 -28.5t77.5 -20q9 -2 14 -3l209 -49q46 -11 77 -19t73 -21t71 -25.5 t63.5 -31.5t57.5 -39t46.5 -47.5t37 -59t22 -71t8.5 -85.5q0 -92 -41 -176t-112.5 -147t-176 -100.5t-225.5 -37.5q-104 0 -219 34t-219 105l-39 -104h-76z" />
<glyph unicode="&#x406;" horiz-adv-x="696" d="M63 0v61h21q45 0 77 13t48.5 31t25 49t10 52.5t1.5 57.5v866q0 36 -1.5 57.5t-10 52.5t-25 49t-48.5 31t-77 13h-21v62h570v-62h-21q-33 0 -58.5 -7t-42.5 -17t-28.5 -27.5t-17.5 -32.5t-9.5 -39t-4 -39.5t-0.5 -40.5v-866q0 -25 0.5 -40.5t4 -39.5t9.5 -39t17.5 -32.5 t28.5 -27.5t42.5 -17t58.5 -7h21v-61h-570z" />
<glyph unicode="&#x407;" horiz-adv-x="696" d="M57 1618q0 51 36 87t87 36t87 -36t36 -87t-36 -87t-87 -36t-87 36t-36 87zM63 0v61h21q45 0 77 13t48.5 31t25 49t10 52.5t1.5 57.5v866q0 36 -1.5 57.5t-10 52.5t-25 49t-48.5 31t-77 13h-21v62h570v-62h-21q-33 0 -58.5 -7t-42.5 -17t-28.5 -27.5t-17.5 -32.5t-9.5 -39 t-4 -39.5t-0.5 -40.5v-866q0 -25 0.5 -40.5t4 -39.5t9.5 -39t17.5 -32.5t28.5 -27.5t42.5 -17t58.5 -7h21v-61h-570zM385 1618q0 51 36 87t87 36t87 -36t36 -87t-36 -87t-87 -36t-87 36t-36 87z" />
<glyph unicode="&#x408;" horiz-adv-x="1228" d="M-47 383q0 75 41.5 127.5t118.5 52.5q54 0 82 -30.5t28 -75.5q0 -44 -24 -74q-5 -6 -25 -25.5t-28.5 -36t-8.5 -42.5q0 -78 93.5 -144.5t215.5 -66.5q66 0 129 23t105 65q35 35 56 82.5t29 110.5t9.5 99t1.5 105v577q0 36 -1.5 57.5t-10 52.5t-25 49t-48.5 31t-77 13h-20 v62h569v-62h-20q-45 0 -77 -13t-48.5 -31t-25 -49t-10 -52.5t-1.5 -57.5v-655q0 -142 -14 -199q-14 -60 -50.5 -114t-96 -99t-150.5 -71.5t-201 -26.5q-121 0 -221 36.5t-163 96.5t-97.5 134t-34.5 151z" />
<glyph unicode="&#x409;" horiz-adv-x="2334" d="M2 139q0 65 40.5 103.5t96.5 38.5q42 0 68 -21.5t35 -48.5q1 -2 4.5 -12t6.5 -15t8.5 -12t14 -10.5t19.5 -3.5q19 0 36 8t31 25.5t26 36t22 48t17.5 53t15 60t12 60t9.5 61t7 55.5t6 51q33 277 33 461q0 38 -2 65.5t-11.5 66t-27 63.5t-51 43t-80.5 18h-33v62h1165v-62 h-20q-92 0 -127 -47t-35 -156v-325h219h28q86 0 134 -1t136.5 -8t142.5 -20.5t122.5 -41.5t107 -68t66 -102t27.5 -142q0 -83 -25.5 -149.5t-65 -109.5t-98.5 -75t-113.5 -48.5t-124.5 -26t-117 -11.5t-103 -2h-723v61h21q33 0 58.5 7t42.5 17t28.5 27.5t17.5 32.5t9.5 39 t4 39.5t0.5 40.5v926q0 1 0.5 19t0 24t-2 19.5t-5 21.5t-9.5 14q-21 21 -94 21h-240q-28 0 -47 -11.5t-28 -34.5t-12 -41.5t-5 -47.5l-39 -472q-3 -44 -10.5 -112.5t-26 -178t-39.5 -178.5q-25 -79 -64 -134.5t-84.5 -83t-86.5 -39t-84 -11.5q-92 0 -148.5 49.5t-56.5 124.5 zM1288 287q0 -28 0.5 -41t2.5 -35.5t7 -33t14 -26.5t23 -23.5t34.5 -17.5t48 -14t63.5 -7t82 -3q240 0 351 88.5t111 257.5q0 57 -13.5 100.5t-34.5 73.5t-59.5 51t-77 33t-98.5 18.5t-112 8.5t-129 2h-213v-424v-8z" />
<glyph unicode="&#x40a;" horiz-adv-x="2447" d="M63 0v61h21q92 0 127 47t35 156v866q0 109 -35 156t-127 47h-21v62h570v-62h-21q-92 0 -126.5 -46.5t-34.5 -156.5v-337h737v342q0 39 -2.5 65.5t-12 53.5t-26.5 43t-47 26t-72 10h-18v62h565v-62h-21q-92 0 -126.5 -46.5t-34.5 -156.5v-325h219h28q86 0 134 -1t136.5 -8 t142.5 -20.5t122.5 -41.5t107 -68t66 -102t27.5 -142q0 -83 -25.5 -149.5t-65 -109.5t-98.5 -75t-113.5 -48.5t-124.5 -26t-117 -11.5t-103 -2h-723v61h20q45 0 77 13t48.5 31t25 49t10 52.5t1.5 57.5v443h-737v-443q0 -110 34.5 -156.5t126.5 -46.5h21v-61h-570zM1393 286 q0 -25 0.5 -37t2 -32.5t5 -30.5t10 -25.5t16.5 -23t25 -18t35 -15t46 -9.5t59.5 -7t74.5 -2q463 0 463 346q0 57 -13.5 100.5t-34.5 73.5t-59.5 51t-77 33t-98.5 18.5t-112 8.5t-129 2h-213v-424v-9z" />
<glyph unicode="&#x40b;" horiz-adv-x="1798" d="M-72 1028l117 367h1188l106 -346l-69 -25q-67 117 -178.5 201t-235.5 84h-65q-42 0 -55 -24t-13 -81v-459q236 89 465 89q103 0 178.5 -22.5t116.5 -55.5t65 -82.5t30.5 -92t6.5 -96.5v-221q0 -35 1.5 -56t10 -52.5t24.5 -49.5t48 -31.5t78 -13.5h20v-61h-569v61h21 q47 0 79.5 14.5t48 32.5t24 49.5t9 48t0.5 46.5v12v176q0 91 -18.5 151t-55.5 90t-79 41t-103 11q-187 0 -401 -74v-395q0 -109 35 -156t127 -47h20v-61h-569v61h20q45 0 77 13t48.5 31t25 49t10 52.5t1.5 57.5v940q0 58 -12.5 81.5t-54.5 23.5h-60q-129 0 -235 -86.5 t-158 -218.5z" />
<glyph unicode="&#x40c;" horiz-adv-x="1511" d="M63 0v61h21q92 0 127 47t35 156v866q0 109 -35 156t-127 47h-21v62h570v-62h-21q-92 0 -126.5 -46.5t-34.5 -156.5v-344h221q78 0 119.5 30.5t68.5 103.5q19 59 25 90q3 14 10 53.5t11 59.5t11.5 51.5t16.5 56.5q68 199 258 199q100 0 152.5 -58t52.5 -135 q0 -66 -38.5 -103.5t-98.5 -37.5q-42 0 -72 22t-35 51q-1 4 -1.5 23t-2.5 28.5t-13 19t-30 9.5q-46 0 -72 -80q-12 -38 -23.5 -96t-20.5 -100.5t-26 -88t-48.5 -79.5t-79.5 -53q57 -8 104 -28t79 -46t57.5 -62.5t41 -71t28.5 -78.5t20.5 -78.5t17.5 -77.5t18 -70 q13 -46 37.5 -73.5t75.5 -27.5q95 0 121 156l75 -12q-22 -154 -86 -236t-196 -82q-68 0 -121 22.5t-84 59.5q-34 41 -50.5 109.5t-27.5 193.5q-6 65 -8.5 87.5t-12 71t-26.5 78.5t-43 54q-31 27 -75 41t-73.5 16t-80.5 2h-176v-436q0 -110 34.5 -156.5t126.5 -46.5h21v-61 h-570zM647 1530l180 127q3 2 20.5 14.5t23 16.5t21.5 14.5t24 14.5l23 11.5t25.5 10.5t24 5.5t25.5 2.5q37 0 56.5 -23.5t19.5 -52.5q0 -17 -5 -31.5t-11 -24.5t-19.5 -19t-21.5 -14t-26.5 -11t-26 -7.5t-28.5 -6t-24 -5.5l-269 -57z" />
<glyph unicode="&#x40e;" horiz-adv-x="1454" d="M-41 1333v62h633v-62h-17q-137 0 -137 -71q0 -21 35 -80l363 -635l206 518q45 115 45 174q0 40 -41 68.5t-128 25.5v62h573v-62q-219 2 -297 -200l-291 -725q-74 -182 -107 -243q-75 -134 -183 -176q-61 -24 -140 -24q-135 0 -223 66t-88 149q0 60 34.5 102t96.5 42 q64 0 94.5 -31t36.5 -70q1 -6 1.5 -31.5t4.5 -41.5t14 -36.5t33.5 -31t59.5 -10.5q55 0 110 60t90 177l-528 879q-13 22 -29.5 42.5t-43.5 46t-63 41t-75 15.5h-39zM324 1792q0 43 29 81t87 38q60 0 89.5 -28.5t29.5 -72.5q0 -14 -5 -39.5t-5 -37.5q0 -19 10 -39.5t32.5 -44 t71 -39t115.5 -15.5t115.5 15.5t71.5 39t33 44.5t10 39q0 12 -5.5 37.5t-5.5 39.5q0 44 29.5 72.5t89.5 28.5q58 0 87.5 -38t29.5 -81q0 -111 -130 -197t-325 -86t-324.5 86t-129.5 197z" />
<glyph unicode="&#x40f;" horiz-adv-x="1617" d="M63 0v61h21q94 0 128 46.5t34 156.5v866q0 110 -32 156.5t-130 46.5h-21v62h570v-62h-21q-93 0 -127 -46.5t-34 -156.5v-872q0 -72 8 -94q20 -56 119 -71q46 -7 114 -7h234q40 0 72 3t56 6t42 11.5t30 14.5t20.5 19.5t12.5 21t6 26t2 26.5v30v14v872q0 110 -34 156.5 t-127 46.5h-21v62h569v-62h-20q-94 0 -128 -46.5t-34 -156.5v-866q0 -112 34.5 -157.5t127.5 -45.5h20v-61h-438q-72 0 -127 -39.5t-84 -102.5t-43 -131.5t-12 -136.5h-82q2 68 -12 136.5t-43 131.5t-84 102.5t-127 39.5h-439z" />
<glyph unicode="&#x410;" horiz-adv-x="1392" d="M-76 0v61q45 6 82 21.5t66 44t50 56.5t41.5 74t33.5 79t33.5 90t33.5 90l348 879h185l413 -1076q4 -10 11 -29q15 -40 23.5 -60t24.5 -52t32 -48.5t39 -34.5t53.5 -26t68.5 -8v-61h-575v61q83 3 121.5 34t38.5 69q0 33 -31 112l-92 242h-527l-57 -153q-2 -6 -15 -41 t-17 -48.5t-9.5 -38t-5.5 -42.5q0 -33 13.5 -58.5t33 -39.5t46 -22.5t47 -11t40.5 -2.5v-61h-549zM428 604h461l-236 615z" />
<glyph unicode="&#x411;" horiz-adv-x="1454" d="M63 0v61h21q45 0 77 13t48.5 31t25 49t10 52.5t1.5 57.5v866q0 36 -1.5 57.5t-10 52.5t-25 49t-48.5 31t-77 13h-21v62h1131l115 -361l-74 -24q-20 39 -45 76.5t-65.5 79t-86.5 72t-109 51t-132 20.5h-131q-43 0 -77.5 -5.5t-56.5 -13.5t-38 -21.5t-24 -25t-12.5 -29.5 t-5.5 -29.5t-1 -29.5v-354h219q240 0 350 -14q352 -46 407 -271q11 -44 11 -94q0 -83 -26 -149.5t-65.5 -109.5t-99.5 -75t-115 -48.5t-125.5 -26t-117 -11.5t-103.5 -2h-723zM451 295q0 -27 0.5 -43t3.5 -37.5t8 -34t14.5 -28t23.5 -24t34.5 -18t47.5 -14t62.5 -7.5 t79.5 -3q46 0 86 2.5t89.5 11t88.5 23t78.5 40t65.5 60t42.5 85.5t16.5 114q0 45 -7.5 82t-19.5 65.5t-34.5 50.5t-46 37t-60.5 26t-71.5 17t-85 9.5t-95 4.5t-108.5 1h-213v-420z" />
<glyph unicode="&#x412;" horiz-adv-x="1515" d="M63 0v61h21q45 0 77 13t48.5 31t25 49t10 52.5t1.5 57.5v866q0 36 -1.5 57.5t-10 52.5t-25 49t-48.5 31t-77 13h-21v62h703q67 0 123.5 -3t119.5 -12t112.5 -24t96.5 -40.5t78 -59.5t49.5 -83t18.5 -110q0 -66 -26.5 -119.5t-71 -88t-94 -55.5t-103.5 -30 q156 -20 262.5 -113.5t106.5 -238.5q0 -418 -652 -418h-723zM451 289q0 -24 0.5 -35.5t2 -31.5t5 -30t10 -26t17 -24t25 -19t34.5 -16t46 -11t59.5 -8t74.5 -2q42 0 78.5 2t86 10t89.5 21.5t81 38.5t69 59t45.5 85.5t17.5 115.5q0 62 -15 109t-36.5 78t-64.5 52.5t-78.5 33 t-100.5 17t-109 6.5t-124 1h-213v-420v-6zM451 801h219h19h63t64.5 2.5t68.5 6.5t63 12.5t60.5 20.5t50 31t41.5 43t25 58t10 74q0 260 -408 260h-55q-57 0 -98.5 -8t-65 -21t-36.5 -34t-17 -41.5t-4 -49.5v-354z" />
<glyph unicode="&#x413;" horiz-adv-x="1239" d="M63 0v61h21q92 0 127 47t35 156v866q0 109 -35 156t-127 47h-21v62h1041l147 -361l-77 -22q-240 297 -551 297q-59 0 -94 -10.5t-52 -38t-21.5 -59.5t-4.5 -91v-846q0 -40 5.5 -71.5t12 -52t22 -35t25.5 -22t33.5 -12t34.5 -5.5t39 -3l26 -2v-61h-586z" />
<glyph unicode="&#x414;" horiz-adv-x="1488" d="M-20 -432l53 518h69q51 0 100.5 61.5t88 158t61 168t39.5 138.5q28 115 43.5 232t18.5 170q3 32 4 56t-0.5 59.5t-7 61.5t-17.5 54t-30.5 46t-48 30t-68.5 12h-37v62h1188v-62h-31q-97 0 -129.5 -45.5t-32.5 -157.5v-907q0 -81 35 -109t106 -28h68l51 -518h-82 q-12 63 -35.5 121t-64.5 116t-94 100t-130 68.5t-167 26.5h-375q-199 0 -327 -120.5t-167 -311.5h-81zM352 135q0 -21 17 -35t47 -14h532q57 0 73.5 20t16.5 60v1024q0 6 0.5 24.5t0 23t-1.5 18.5t-4 17t-8.5 12t-13.5 11.5t-19.5 6.5t-27.5 5t-36 1h-254q-23 0 -39.5 -9 t-25.5 -20t-15 -33t-7.5 -34.5t-4.5 -38.5l-17 -187q-26 -304 -123 -604q-24 -76 -47.5 -134t-33 -79.5t-9.5 -34.5z" />
<glyph unicode="&#x415;" horiz-adv-x="1474" d="M63 0v61h21q92 0 127 47t35 156v866q0 109 -35 156t-127 47h-21v62h1172l141 -367l-65 -27q-221 308 -606 308q-46 0 -82 -3.5t-62 -12t-45 -17.5t-31 -24.5t-19 -28t-10 -34t-4 -37t-1 -40.5v-326h133q65 0 111.5 11.5t84 40t57.5 81.5t21 132h70v-615h-70 q-2 79 -21 131.5t-56.5 81t-84 40t-112.5 11.5h-133v-407q0 -68 13 -109t45 -62.5t72.5 -28.5t108.5 -7q440 0 686 379l66 -29l-187 -436h-1192z" />
<glyph unicode="&#x416;" horiz-adv-x="2277" d="M0 283l76 12q26 -156 121 -156q51 0 75 27t37 74q9 29 20 80t21 90.5t26 89t40 87.5t58 73.5t85.5 59t116.5 32.5q-48 19 -80 52.5t-48.5 79.5t-26 88.5t-21 100.5t-23.5 96q-26 80 -71 80q-16 0 -26 -5.5t-14 -15.5t-5.5 -19t-1.5 -22t-1 -18q-5 -29 -34.5 -51 t-71.5 -22q-60 0 -98.5 37.5t-38.5 103.5q0 77 52 135t152 58q191 0 259 -199q9 -25 16.5 -56.5t11.5 -51.5t11 -59.5t10 -53.5q8 -39 24 -90q27 -73 69 -103.5t120 -30.5h196v344q0 109 -35 156t-127 47h-20v62h569v-62h-20q-92 0 -127 -47t-35 -156v-344h197 q78 0 119.5 30.5t68.5 103.5q19 59 25 90q3 14 10 53.5t11 59.5t11.5 51.5t16.5 56.5q68 199 258 199q100 0 152.5 -58t52.5 -135q0 -66 -39 -103.5t-99 -37.5q-42 0 -71.5 22t-34.5 51q-1 4 -1.5 23t-2.5 28.5t-13 19t-30 9.5q-46 0 -72 -80q-12 -38 -23.5 -96 t-20.5 -100.5t-26 -88t-48.5 -79.5t-79.5 -53q57 -8 104 -28t79 -46t57.5 -62.5t41 -71t28.5 -78.5t20.5 -78.5t17.5 -77.5t18 -70q13 -46 37.5 -73.5t75.5 -27.5q95 0 121 156l75 -12q-22 -154 -86 -236t-196 -82q-68 0 -121 22.5t-84 59.5q-36 43 -51.5 113.5t-26.5 189.5 q-11 135 -25 181q-20 69 -65 110q-31 27 -74.5 41t-73 16t-81.5 2h-152v-436q0 -109 35 -156t127 -47h20v-61h-569v61h20q92 0 127 47t35 156v436h-151q-39 0 -61 -1t-56 -6t-62 -18t-51 -34q-34 -30 -53 -78.5t-24 -82t-11 -109.5q-1 -14 -2 -21q-11 -119 -26.5 -189.5 t-51.5 -113.5q-68 -82 -204 -82q-69 0 -119.5 22.5t-83 66.5t-51 99t-29.5 130z" />
<glyph unicode="&#x417;" horiz-adv-x="1392" d="M84 342q0 67 39.5 109.5t99.5 42.5q54 0 92.5 -30.5t38.5 -88.5q0 -11 -4 -35q-2 -6 -6 -19.5t-6 -19.5q-8 -28 -8 -47q0 -71 63 -127q42 -37 117 -56.5t154 -19.5q182 0 291.5 94.5t109.5 270.5q0 46 -10.5 84t-26 65.5t-43.5 49t-51 35t-61.5 23t-62.5 14t-66.5 7 t-61 2.5h-57.5h-230v86h226h7q51 0 78.5 0.5t77 6t77.5 15.5t64.5 30t56.5 49t34 73.5t14 102.5q0 132 -83 208t-228 76q-91 0 -172.5 -32t-143 -87.5t-106.5 -123.5t-72 -146h-82l90 447h82l52 -88q150 117 372 117q224 0 367 -103.5t143 -271.5q0 -130 -84 -215t-209 -103 q65 -5 126.5 -28.5t113.5 -65t83.5 -107.5t31.5 -147q0 -94 -39 -169t-102 -121.5t-149 -77.5t-174 -43.5t-183 -12.5q-249 0 -414.5 114.5t-165.5 262.5z" />
<glyph unicode="&#x418;" horiz-adv-x="1638" d="M63 0v61h21q92 0 127 47t35 156v866q0 109 -35 156t-127 47h-21v62h570v-62h-21q-92 0 -126.5 -46.5t-34.5 -156.5v-790l737 858q-10 79 -51.5 107t-110.5 28h-20v62h569v-62h-21q-92 0 -126.5 -46.5t-34.5 -156.5v-866q0 -110 34.5 -156.5t126.5 -46.5h21v-61h-569v61 h20q92 0 127 47t35 156v793l-737 -852q6 -144 157 -144h25v-61h-570z" />
<glyph unicode="&#x419;" horiz-adv-x="1638" d="M63 0v61h21q92 0 127 47t35 156v866q0 109 -35 156t-127 47h-21v62h570v-62h-21q-92 0 -126.5 -46.5t-34.5 -156.5v-790l737 858q-10 79 -51.5 107t-110.5 28h-20v62h569v-62h-21q-92 0 -126.5 -46.5t-34.5 -156.5v-866q0 -110 34.5 -156.5t126.5 -46.5h21v-61h-569v61 h20q92 0 127 47t35 156v793l-737 -852q6 -144 157 -144h25v-61h-570zM365 1792q0 43 29 81t87 38q60 0 89.5 -28.5t29.5 -72.5q0 -14 -5 -39.5t-5 -37.5q0 -19 10 -39.5t32.5 -44t71 -39t115.5 -15.5t115.5 15.5t71.5 39t33 44.5t10 39q0 12 -5.5 37.5t-5.5 39.5 q0 44 29.5 72.5t89.5 28.5q58 0 87.5 -38t29.5 -81q0 -111 -130 -197t-325 -86t-324.5 86t-129.5 197z" />
<glyph unicode="&#x41a;" horiz-adv-x="1511" d="M63 0v61h21q92 0 127 47t35 156v866q0 109 -35 156t-127 47h-21v62h570v-62h-21q-92 0 -126.5 -46.5t-34.5 -156.5v-344h221q78 0 119.5 30.5t68.5 103.5q19 59 25 90q3 14 10 53.5t11 59.5t11.5 51.5t16.5 56.5q68 199 258 199q100 0 152.5 -58t52.5 -135 q0 -66 -38.5 -103.5t-98.5 -37.5q-42 0 -72 22t-35 51q-1 4 -1.5 23t-2.5 28.5t-13 19t-30 9.5q-46 0 -72 -80q-12 -38 -23.5 -96t-20.5 -100.5t-26 -88t-48.5 -79.5t-79.5 -53q57 -8 104 -28t79 -46t57.5 -62.5t41 -71t28.5 -78.5t20.5 -78.5t17.5 -77.5t18 -70 q13 -46 37.5 -73.5t75.5 -27.5q95 0 121 156l75 -12q-22 -154 -86 -236t-196 -82q-68 0 -121 22.5t-84 59.5q-34 41 -50.5 109.5t-27.5 193.5q-6 65 -8.5 87.5t-12 71t-26.5 78.5t-43 54q-31 27 -75 41t-73.5 16t-80.5 2h-176v-436q0 -110 34.5 -156.5t126.5 -46.5h21v-61 h-570z" />
<glyph unicode="&#x41b;" horiz-adv-x="1521" d="M-10 139q0 65 40.5 103.5t96.5 38.5q42 0 67 -21t35 -49q1 -1 5 -11.5t6.5 -15t8.5 -12.5t14.5 -11t19.5 -3q19 0 36 8t31 25.5t26 36t22 48t17.5 53t15 60t12 60t9.5 61t7 55.5t6 51q33 277 33 461q0 38 -2 65.5t-11.5 66t-27 63.5t-51 43t-80.5 18h-33v62h1165v-62h-20 q-92 0 -127 -47t-35 -156v-866q0 -109 35 -156t127 -47h20v-61h-569v61h20q92 0 127 47t35 156v926q0 1 0.5 19t0 24t-2 19.5t-5 21.5t-9.5 14q-21 21 -94 21h-240q-28 0 -47 -11.5t-28 -34.5t-12 -41.5t-5 -47.5l-39 -472q-3 -44 -10.5 -112.5t-26 -178t-39.5 -178.5 q-25 -79 -64 -134.5t-84.5 -83t-86.5 -39t-84 -11.5q-92 0 -148.5 49.5t-56.5 124.5z" />
<glyph unicode="&#x41c;" horiz-adv-x="1884" d="M53 0v61h23q35 0 62.5 7t45.5 16.5t30.5 27.5t18.5 32t9 39t3.5 39.5t0.5 41.5v811q0 12 0.5 42t0.5 44t-2.5 40.5t-8.5 40t-17.5 32.5t-28 29t-42.5 18t-60 10l-35 2v62h469l439 -1076l425 1076h445v-62h-21q-92 0 -126.5 -46.5t-34.5 -156.5v-866q0 -110 34.5 -156.5 t126.5 -46.5h21v-61h-569v61h20q92 0 127 47t35 156v987l-496 -1251h-88l-500 1251v-987q0 -65 9 -104t32.5 -59.5t52.5 -28t81 -9.5l36 -2v-61h-518z" />
<glyph unicode="&#x41d;" horiz-adv-x="1638" d="M63 0v61h21q92 0 127 47t35 156v866q0 109 -35 156t-127 47h-21v62h570v-62h-21q-92 0 -126.5 -46.5t-34.5 -156.5v-337h737v337q0 109 -35 156t-127 47h-20v62h569v-62h-21q-92 0 -126.5 -46.5t-34.5 -156.5v-866q0 -110 34.5 -156.5t126.5 -46.5h21v-61h-569v61h20 q92 0 127 47t35 156v443h-737v-443q0 -110 34.5 -156.5t126.5 -46.5h21v-61h-570z" />
<glyph unicode="&#x41e;" horiz-adv-x="1638" d="M90 694q0 205 98 374.5t267 265.5t372 96q207 0 373.5 -97.5t259 -267.5t92.5 -379q0 -151 -57 -285t-154.5 -229.5t-233.5 -151t-288 -55.5q-151 0 -286.5 56.5t-232.5 153.5t-153.5 232.5t-56.5 286.5zM336 686q0 -134 28 -243t74.5 -181t110 -120.5t132 -69.5 t142.5 -21q73 0 141 20.5t131 68.5t109.5 118.5t74.5 178.5t28 241q0 308 -132.5 486.5t-355.5 178.5q-103 0 -190.5 -42t-153 -122.5t-102.5 -206.5t-37 -286z" />
<glyph unicode="&#x41f;" horiz-adv-x="1617" d="M63 0v61h21q98 0 130 46.5t32 156.5v866q0 110 -34 156.5t-128 46.5h-21v62h1491v-62h-20q-93 0 -127.5 -45.5t-34.5 -157.5v-866q0 -110 34 -156.5t128 -46.5h20v-61h-569v61h21q93 0 127 46.5t34 156.5v926q0 1 0.5 19t0 24t-2 19.5t-5 21.5t-9.5 14q-21 21 -94 21 h-496q-73 0 -94 -21q-6 -6 -9.5 -14t-5 -21.5t-2 -19.5t0 -24t0.5 -19v-926q0 -110 34 -156.5t127 -46.5h21v-61h-570z" />
<glyph unicode="&#x420;" d="M63 0v61h21q92 0 127 47t35 156v866q0 109 -35 156t-127 47h-21v62h672q115 0 206.5 -22t150 -58.5t97.5 -87t55 -104.5t16 -115q0 -60 -14 -114t-51 -107t-94.5 -91.5t-152 -62t-215.5 -23.5h-282v-346q0 -110 34.5 -156.5t126.5 -46.5h21v-61h-570zM451 696h251 q349 0 349 314q0 44 -8.5 83.5t-32.5 80t-61 69.5t-98.5 47.5t-141.5 18.5q-110 0 -165.5 -13t-74 -38t-18.5 -74v-488z" />
<glyph unicode="&#x421;" horiz-adv-x="1515" d="M90 694q0 147 51 281.5t140 235t218.5 160t278.5 59.5q239 0 408 -148l45 94h65l99 -493h-66q-42 87 -78 149t-83.5 121t-98.5 95t-118.5 57.5t-147.5 21.5q-102 0 -183.5 -37.5t-133.5 -99.5t-86.5 -146.5t-49 -173.5t-14.5 -186q0 -144 34.5 -256.5t87.5 -178.5 t123.5 -108.5t134 -57.5t128.5 -15q144 0 283 79t223 228l88 -49q-30 -51 -67.5 -97t-95 -96t-122.5 -86t-154.5 -59t-187.5 -23q-208 0 -373 93t-256.5 259.5t-91.5 376.5z" />
<glyph unicode="&#x422;" d="M-78 1028l117 367h1192l117 -367l-70 -24q-30 62 -69.5 111.5t-77.5 80.5t-82 54t-77 34t-68.5 17t-51 7t-29.5 1q-52 0 -69 -19t-17 -86v-940q0 -109 35 -156t127 -47h53v-61h-635v61h54q92 0 126.5 46.5t34.5 156.5v940q0 67 -17 86t-69 19q-14 0 -29.5 -1t-51 -7 t-68.5 -17t-77 -34t-81.5 -54t-77 -80.5t-69.5 -111.5z" />
<glyph unicode="&#x423;" horiz-adv-x="1454" d="M-41 1333v62h633v-62h-17q-137 0 -137 -71q0 -21 35 -80l363 -635l206 518q45 115 45 174q0 40 -41 68.5t-128 25.5v62h573v-62q-219 2 -297 -200l-291 -725q-74 -182 -107 -243q-75 -134 -183 -176q-61 -24 -140 -24q-135 0 -223 66t-88 149q0 60 34.5 102t96.5 42 q64 0 94.5 -31t36.5 -70q1 -6 1.5 -31.5t4.5 -41.5t14 -36.5t33.5 -31t59.5 -10.5q55 0 110 60t90 177l-528 879q-13 22 -29.5 42.5t-43.5 46t-63 41t-75 15.5h-39z" />
<glyph unicode="&#x424;" horiz-adv-x="1830" d="M86 723q0 227 161 360.5t488 133.5h78v10q0 37 -12 64t-27 40t-40 20t-40 8t-37 1h-20v61h557v-61h-20q-22 0 -37 -1t-40 -8t-40 -20t-27 -40t-12 -64v-10h78q327 0 488 -133.5t161 -360.5q0 -230 -160.5 -364t-486.5 -134h-80v-18q0 -45 13.5 -76.5t29 -46t42.5 -22.5 t38.5 -8.5t32.5 -0.5h20v-61h-557v61h20q21 0 32.5 0.5t38.5 8.5t42.5 22.5t29 46t13.5 76.5v18h-80q-326 0 -486.5 134t-160.5 364zM332 721q0 -194 113.5 -304t316.5 -110h51v828h-49q-86 0 -155.5 -19.5t-113.5 -48.5t-76.5 -71t-48.5 -79t-25.5 -80.5t-11 -67.5 t-1.5 -48zM1018 307h51q203 0 316.5 110t113.5 304q0 24 -1.5 48t-11 67.5t-25.5 80.5t-48.5 79t-76.5 71t-113.5 48.5t-155.5 19.5h-49v-828z" />
<glyph unicode="&#x425;" horiz-adv-x="1474" d="M-61 0v61q74 22 136 53.5t111 73t79.5 74t68.5 80.5l307 383l-336 428q-31 39 -50 60t-55.5 54t-78.5 49t-90 17v62h635v-62q-37 -1 -60.5 -4t-47 -10.5t-35 -24t-11.5 -41.5q0 -35 49 -100l238 -311l227 286q57 74 57 121q0 14 -5.5 27.5t-19.5 28t-45 22.5t-75 6v62 h555v-62q-51 -5 -94.5 -20t-76 -33.5t-71 -55t-65.5 -67.5t-74 -88l-254 -311l381 -488q72 -91 104 -121q87 -79 203 -88v-61h-672v61q168 8 168 89q0 45 -65 129l-275 364l-296 -371q-48 -60 -48 -100q0 -42 39.5 -75t118.5 -36v-61h-577z" />
<glyph unicode="&#x426;" horiz-adv-x="1576" d="M63 0v61h21q92 0 127 46.5t35 154.5v868q0 109 -35 156t-127 47h-21v62h570v-62h-21q-92 0 -126.5 -46.5t-34.5 -156.5v-925q0 -1 -0.5 -19t0 -24.5t2 -20t5 -21.5t9.5 -14q20 -20 94 -20h455q74 0 94 20q6 6 9.5 14t5 21.5t2 20t0 24.5t-0.5 19v925q0 110 -34.5 156.5 t-126.5 46.5h-21v62h569v-62h-20q-92 0 -127 -47t-35 -156v-925v-14v-16t0.5 -15.5t1.5 -16.5t3 -14t5 -13.5t7 -9.5q20 -20 94 -20h92l51 -518h-82q-12 63 -35.5 121t-64.5 116t-94 100t-130 68.5t-167 26.5h-949z" />
<glyph unicode="&#x427;" horiz-adv-x="1546" d="M41 1333v62h569v-62h-20q-92 0 -127 -47t-35 -156v-141q0 -36 1 -59t4.5 -54t11 -50.5t20.5 -42.5t33.5 -37t48.5 -26.5t67 -18t88 -5.5q57 0 164.5 16.5t229.5 57.5v360q0 109 -35 156t-127 47h-21v62h570v-62h-21q-92 0 -127 -47t-35 -156v-866q0 -112 34.5 -157.5 t127.5 -45.5h21v-61h-570v61h21q97 0 129.5 47t32.5 156v420q-231 -88 -473 -88q-77 0 -138.5 10.5t-102.5 27t-71 42t-46.5 50.5t-26.5 57.5t-12.5 58t-2.5 57.5v231q0 109 -35 156t-127 47h-20z" />
<glyph unicode="&#x428;" horiz-adv-x="2396" d="M63 0v61h21q92 0 127 47t35 156v866q0 109 -35 156t-127 47h-21v62h570v-62h-21q-92 0 -126.5 -46.5t-34.5 -156.5v-925q0 -71 18 -94q20 -25 92 -25h424q72 0 92 25q19 24 19 94v925q0 109 -35 156t-127 47h-21v62h570v-62h-21q-92 0 -127 -47t-35 -156v-925 q0 -70 19 -94q20 -25 92 -25h424q72 0 92 25q19 24 19 94v925q0 109 -35 156t-127 47h-21v62h570v-62h-21q-92 0 -127 -47t-35 -156v-866q0 -55 5.5 -89t22.5 -62t49.5 -40t84.5 -12h21v-61h-2270z" />
<glyph unicode="&#x429;" horiz-adv-x="2396" d="M63 0v61h21q92 0 127 47t35 156v866q0 109 -35 156t-127 47h-21v62h570v-62h-21q-92 0 -126.5 -46.5t-34.5 -156.5v-925q0 -71 18 -94q20 -25 92 -25h424q72 0 92 25q19 24 19 94v925q0 109 -35 156t-127 47h-21v62h570v-62h-21q-92 0 -127 -47t-35 -156v-925 q0 -70 19 -94q20 -25 92 -25h424q72 0 92 25q19 24 19 94v925q0 109 -35 156t-127 47h-21v62h570v-62h-21q-92 0 -127 -47t-35 -156v-925v-14v-16t0.5 -15.5t1.5 -16.5t3 -14t5 -13.5t7 -9.5q20 -20 94 -20h92l51 -518h-82q-12 63 -35.5 121t-64.5 116t-94 100t-130 68.5 t-167 26.5h-1768z" />
<glyph unicode="&#x42a;" horiz-adv-x="1832" d="M-41 1034l133 361h893v-62h-18q-50 0 -82 -14t-47 -44t-20 -62t-5 -83v-325h219q224 0 324 -13q330 -43 391 -259q14 -50 14 -111q0 -82 -24 -148.5t-61.5 -110t-93 -75t-107.5 -48t-117.5 -26.5t-110.5 -12t-98 -2h-723v61h20q45 0 77 13t48.5 31t25 49t10 52.5 t1.5 57.5v938q0 24 -0.5 35t-6.5 30t-18 28t-36.5 16.5t-59.5 7.5q-129 0 -254 -79.5t-196 -229.5zM813 295q0 -34 4 -61.5t10 -48t18 -36.5t22.5 -26.5t29 -17.5t32 -11t38 -5.5t40 -2t44.5 -0.5h16q63 0 103 2t113 20t117.5 52t80 105t35.5 171q0 47 -9.5 84.5t-22 65.5 t-41.5 49.5t-49.5 35.5t-65.5 23.5t-70.5 14.5t-84 7.5t-86.5 2.5h-95h-40h-139v-424z" />
<glyph unicode="&#x42b;" horiz-adv-x="2088" d="M63 0v61h21q45 0 77 13t48.5 31t25 49t10 52.5t1.5 57.5v866q0 109 -35 156t-127 47h-21v62h560v-62h-19q-50 0 -82 -14t-47 -44t-19.5 -62t-4.5 -83v-325h219q224 0 324 -13q330 -43 391 -259q14 -50 14 -111q0 -82 -24 -148.5t-61.5 -110t-93.5 -75t-107.5 -48 t-117.5 -26.5t-111 -12t-98 -2h-723zM451 295q0 -43 6.5 -76t16.5 -55t28.5 -37t34.5 -23t43 -12t45.5 -5t50.5 -1q139 0 204 12q273 52 273 340q0 46 -9.5 83.5t-22 65.5t-41.5 49t-50 35t-65.5 23.5t-71 14.5t-84.5 7.5t-87.5 2.5h-96.5h-12h-11h-12h-139v-424zM1456 0v61 h21q92 0 126.5 46.5t34.5 156.5v866q0 110 -34.5 156.5t-126.5 46.5h-21v62h569v-62h-20q-92 0 -127 -47t-35 -156v-866q0 -109 35 -156t127 -47h20v-61h-569z" />
<glyph unicode="&#x42c;" horiz-adv-x="1505" d="M63 0v61h21q45 0 77 13t48.5 31t25 49t10 52.5t1.5 57.5v871q0 39 -2.5 65.5t-12 53.5t-26.5 43t-47 26t-72 10h-18v62h565v-62h-21q-92 0 -126.5 -46.5t-34.5 -156.5v-325h219h28q86 0 134 -1t136.5 -8t142.5 -20.5t122.5 -41.5t107 -68t66 -102t27.5 -142 q0 -83 -25.5 -149.5t-65 -109.5t-99 -75t-114 -48.5t-124.5 -26t-117 -11.5t-103 -2h-723zM451 286q0 -25 0.5 -37t2 -32.5t5 -30.5t10 -25.5t16.5 -23t25 -18t35 -15t46 -9.5t59.5 -7t74.5 -2q463 0 463 346q0 57 -13.5 100.5t-34.5 73.5t-59.5 51t-77 33t-98.5 18.5 t-112 8.5t-129 2h-213v-424v-9z" />
<glyph unicode="&#x42d;" horiz-adv-x="1474" d="M98 338q0 65 36.5 109.5t107.5 44.5q60 0 92.5 -36t32.5 -83q0 -18 -13 -68q-10 -45 -10 -55q0 -23 9 -47.5t33.5 -52.5t61 -49.5t97 -35.5t135.5 -14q85 0 155 25t117.5 65t83 97t55.5 114.5t32 123.5t15.5 118.5t2.5 105.5h-756v86h756q0 29 -2 61t-11.5 88 t-25.5 105.5t-48 104.5t-75 94t-110 64.5t-150 25.5q-94 0 -179 -33t-149.5 -90t-112.5 -126t-79 -148h-93l80 444h95l49 -86q97 66 207.5 103t216.5 37q94 0 184 -27t171.5 -84t143 -138.5t97.5 -199.5t36 -258q0 -352 -191 -555t-519 -203q-150 0 -283.5 51t-214 137.5 t-80.5 184.5z" />
<glyph unicode="&#x42e;" horiz-adv-x="2252" d="M63 0v61h21q92 0 127 47t35 156v866q0 109 -35 156t-127 47h-21v62h570v-62h-21q-33 0 -58.5 -7t-42.5 -17t-28.5 -27.5t-17.5 -32.5t-9.5 -39t-4 -39.5t-0.5 -40.5v-337h278q22 179 123.5 324.5t262 229t347.5 83.5q152 0 283.5 -57t224 -155.5t145 -236.5t52.5 -295 q0 -151 -55.5 -285t-151 -229.5t-227.5 -151t-279 -55.5q-151 0 -285 57.5t-230 156t-152.5 236t-57.5 292.5h-278v-443q0 -25 0.5 -40.5t4 -39.5t9.5 -39t17.5 -32.5t28.5 -27.5t42.5 -17t58.5 -7h21v-61h-570zM975 686q0 -152 33.5 -269t83 -184t116 -110t124.5 -57.5 t116 -14.5q72 0 138 21t128 69t107.5 118.5t72.5 178t27 240.5q0 309 -129.5 487t-347.5 178q-76 0 -144 -24t-128 -76t-103.5 -128t-68.5 -186t-25 -243z" />
<glyph unicode="&#x42f;" horiz-adv-x="1556" d="M18 283l76 12q13 -73 36.5 -114.5t74.5 -41.5q49 0 73 24.5t39 67.5q13 36 28 89.5t24.5 88.5t29 79.5t43.5 75.5t65 63t97 55q-22 3 -44.5 8t-58 17t-65.5 28t-62.5 42.5t-55 59.5t-37.5 80t-15 103q0 29 3 56.5t15 66.5t31.5 72t56 67.5t84.5 58.5t121.5 39t163.5 15 h813v-62h-24q-41 0 -66.5 -6t-49.5 -26t-35 -62t-11 -109v-866q0 -39 2 -63.5t11 -54t26 -46t48.5 -28t76.5 -11.5h24v-61h-569v61h21q26 0 47.5 4t37 9t27.5 16.5t20 20t13.5 25t8 26t4 30t1.5 29v30.5v3v3v3.5v3.5v391h-274q-34 0 -53 -1t-52.5 -4.5t-56 -12.5 t-48.5 -23.5t-45.5 -40t-33.5 -59.5q-21 -51 -31 -170.5t-18 -159.5q-9 -44 -23 -78t-42.5 -68.5t-78.5 -53.5t-120 -19q-124 0 -189.5 79.5t-83.5 238.5zM502 1024q0 -58 16 -104t39 -75t58 -50t63.5 -31t66.5 -15.5t56.5 -6.5t42.5 -1h323v410q0 37 -4 59t-19.5 43.5 t-46 32t-82.5 17t-130 6.5q-383 0 -383 -285z" />
<glyph unicode="&#x430;" horiz-adv-x="1187" d="M72 225q0 60 27.5 111.5t88.5 98t170 80.5t260 50l152 17v147q0 203 -233 203q-100 0 -162 -33.5t-60 -77.5l2 -41q2 -45 -26 -77.5t-78 -32.5q-43 0 -69.5 25.5t-26.5 66.5t29 84t81.5 80.5t138.5 61.5t189 24q117 0 200 -24.5t123 -56t61.5 -83t24.5 -81t3 -75.5v-401 q0 -27 1 -45t4 -46.5t10.5 -47.5t19 -38t31.5 -28.5t46 -9.5q41 0 84 30l39 -53q-82 -69 -209 -69q-79 0 -138.5 36t-84.5 111q-168 -147 -385 -147q-138 0 -225.5 67t-87.5 174zM279 250q0 -73 53.5 -119.5t132.5 -46.5q75 0 158 40t147 97v289q-77 -6 -140 -15t-131 -28.5 t-114 -46.5t-76 -70.5t-30 -99.5z" />
<glyph unicode="&#x431;" horiz-adv-x="1171" d="M78 557q0 82 9 168.5t34.5 190t64.5 189t106.5 157t153.5 102.5q62 23 134.5 29t138 2.5t160.5 5.5q37 4 63.5 10.5t54 26.5t39.5 53h62q-8 -59 -25.5 -106t-39.5 -78t-52 -53.5t-57 -34.5t-61 -18.5t-58.5 -8t-54.5 -0.5q-125 2 -172 -4q-325 -36 -375 -375l20 -2 q117 201 389 201q118 0 211.5 -44.5t149.5 -119t85 -164.5t29 -188q0 -229 -141.5 -370.5t-365.5 -141.5q-107 0 -196.5 33t-159 100.5t-108 179.5t-38.5 260zM299 485q0 -110 23.5 -191.5t56 -123.5t76 -67t73 -31t58.5 -6q38 0 74 10t76 39.5t69.5 75t49 123.5t19.5 178 q0 111 -22.5 195t-54.5 128.5t-74.5 72t-74 35t-62.5 7.5q-40 0 -78 -12t-77 -44t-67.5 -80.5t-46.5 -128t-18 -180.5z" />
<glyph unicode="&#x432;" horiz-adv-x="1161" d="M41 0v61h18q17 0 32.5 1.5t39.5 10t41 23t30 44t13 69.5v573q0 40 -13 69.5t-30 44t-41 23t-39.5 10t-32.5 1.5h-18v61h633q127 0 215 -37t127 -102q28 -51 28 -109q0 -50 -30 -98q-27 -41 -80 -72.5t-123 -37.5q116 -8 197.5 -76.5t81.5 -177.5q0 -54 -24 -103 t-71 -89.5t-125 -64.5t-178 -24h-651zM412 186q0 -17 0.5 -25.5t6.5 -26.5t17 -27t35.5 -17t58.5 -8h103q123 0 183.5 61t60.5 152q0 73 -36 115.5t-83 60.5q-58 21 -189 21h-157v-306zM412 573h151q57 0 83 1t68.5 11t67.5 31q27 23 42.5 59.5t15.5 72.5q0 56 -39 98 q-21 23 -49.5 37.5t-67 19t-55 5.5t-51.5 1h-78q-88 0 -88 -84v-252z" />
<glyph unicode="&#x433;" horiz-adv-x="956" d="M41 0v61h18q17 0 32.5 1.5t39.5 10t41 23t30 44t13 69.5v573q0 40 -13 69.5t-30 44t-41 23t-39.5 10t-32.5 1.5h-18v61h799l102 -299l-70 -20q-39 121 -133.5 179t-212.5 58h-59q-11 0 -22 -4t-22 -20t-11 -43v-633q0 -40 12.5 -69.5t29.5 -44t41 -23t39.5 -10t32.5 -1.5 h19v-61h-545z" />
<glyph unicode="&#x434;" horiz-adv-x="1187" d="M-4 -319l39 401h41q24 0 36 2.5t31 19t41 50.5q98 146 142.5 313t44.5 297q0 34 -5.5 58.5t-21.5 50.5t-52 41t-91 16v61h946v-61h-43q-66 0 -98.5 -41t-32.5 -107v-632q0 -39 18 -53.5t37 -14.5h111l41 -401h-72q-9 67 -37.5 129.5t-66.5 101.5q-86 88 -261 88h-311 q-157 0 -250 -88t-114 -231h-72zM295 94q12 -12 67 -12h359q19 0 37 14.5t18 53.5v692q0 27 -11 43t-22 20t-22 4h-199q-24 0 -37.5 -15.5t-15.5 -27.5t-2 -24q-4 -134 -21 -246t-48.5 -201.5t-49 -129t-51.5 -105.5q-23 -47 -2 -66z" />
<glyph unicode="&#x435;" horiz-adv-x="1064" d="M76 506q0 144 58.5 258.5t170.5 181t258 66.5q189 0 312 -114.5t124 -303.5h-708q-2 -29 -2 -84q0 -98 21.5 -175.5t55.5 -125t81 -78.5t93 -43t95 -12q100 0 179 49.5t122 138.5l68 -35q-61 -121 -172.5 -183t-253.5 -62q-115 0 -211 41.5t-159 112.5t-97.5 166 t-34.5 202zM295 676h491q0 102 -62 178t-173 76q-103 0 -173 -74.5t-83 -179.5z" />
<glyph unicode="&#x436;" horiz-adv-x="1724" d="M23 221l63 10q14 -129 74 -129q19 0 32 10.5t20 31t11 40t8.5 50t8.5 47.5q52 231 254 251q-35 8 -59.5 27t-37.5 48t-19 54t-11 60q-13 100 -22 126q-17 42 -50 42t-33 -37q0 -6 1 -18.5t1 -18.5q0 -24 -25 -44.5t-63 -20.5q-47 0 -75.5 31t-28.5 85q0 70 50.5 108 t121.5 38q66 0 115.5 -39t68.5 -129q6 -28 12 -71.5t10 -67t14.5 -53t26.5 -45t45.5 -26t71.5 -10.5h156v211q0 40 -13 69.5t-30 44t-41 23t-39.5 10t-32.5 1.5h-18v61h545v-61h-19q-17 0 -32.5 -1.5t-39.5 -10t-41 -23t-29.5 -44t-12.5 -69.5v-211h157q41 0 70 11 t44.5 26.5t26.5 45t15 53.5t10 66.5t12 70.5q19 90 69 129t116 39q71 0 121.5 -38t50.5 -108q0 -54 -29 -85t-76 -31q-38 0 -63 20.5t-25 44.5q0 6 1 18.5t1 18.5q0 37 -32 37q-52 0 -69 -147l-3 -21q-5 -35 -11 -60t-19 -54t-37.5 -48t-59.5 -27q202 -20 254 -251 q4 -17 8.5 -47.5t8.5 -50t11 -40t20 -31t32 -10.5q20 0 33.5 11.5t21.5 33t11.5 40t6.5 44.5l64 -10q-11 -132 -61 -184.5t-136 -52.5q-178 0 -207 153q-7 36 -10 100.5t-11 112t-30 76.5q-17 23 -39 37.5t-52.5 19t-45 5.5t-49.5 1h-100v-280q0 -40 12.5 -69.5t29.5 -44 t41 -23t39.5 -10t32.5 -1.5h19v-61h-545v61h18q17 0 32.5 1.5t39.5 10t41 23t30 44t13 69.5v280h-100h-38.5t-37 -3t-42.5 -9t-35 -19t-34 -32q-22 -29 -30 -76.5t-11 -112t-10 -100.5q-29 -153 -207 -153q-85 0 -135 52t-61 185z" />
<glyph unicode="&#x437;" horiz-adv-x="1044" d="M72 244q0 45 30.5 73.5t75.5 28.5t76 -26.5t31 -71.5q0 -7 -2 -29.5t-2 -34.5q0 -61 59.5 -89.5t153.5 -28.5q115 0 189.5 57.5t74.5 161.5q0 50 -20 87t-49.5 57.5t-70 32.5t-72.5 15.5t-67 3.5h-151v82h123q63 0 107.5 7t85.5 25.5t62 57.5t21 97q0 84 -55.5 132 t-149.5 48q-105 0 -196.5 -63.5t-141.5 -176.5h-59l63 301h82l17 -57q130 78 311 78q81 0 146.5 -22t105.5 -59t61 -82t21 -93q0 -87 -66 -154t-174 -80q47 -3 93.5 -17.5t89.5 -41t69.5 -71.5t26.5 -103q0 -38 -10.5 -75.5t-41 -80.5t-78 -75t-129.5 -53t-188 -21 q-99 0 -179 17t-130 44t-83 62t-46.5 69t-13.5 68z" />
<glyph unicode="&#x438;" horiz-adv-x="1351" d="M41 0v61h18q17 0 32.5 1.5t39.5 10t41 23t30 44t13 69.5v573q0 40 -13 69.5t-30 44t-41 23t-39.5 10t-32.5 1.5h-18v61h545v-61h-19q-17 0 -32.5 -1.5t-39.5 -10t-41 -23t-29.5 -44t-12.5 -69.5v-497l524 540q-23 105 -152 105h-18v61h545v-61h-19q-17 0 -32.5 -1.5 t-39.5 -10t-41 -23t-29.5 -44t-12.5 -69.5v-573q0 -40 12.5 -69.5t29.5 -44t41 -23t39.5 -10t32.5 -1.5h19v-61h-545v61h18q17 0 32.5 1.5t39.5 10t41 23t30 44t13 69.5v496l-526 -533q5 -31 21 -53.5t33 -33t40 -16.5t34.5 -7t24.5 -1h19v-61h-545z" />
<glyph unicode="&#x439;" horiz-adv-x="1351" d="M41 0v61h18q17 0 32.5 1.5t39.5 10t41 23t30 44t13 69.5v573q0 40 -13 69.5t-30 44t-41 23t-39.5 10t-32.5 1.5h-18v61h545v-61h-19q-17 0 -32.5 -1.5t-39.5 -10t-41 -23t-29.5 -44t-12.5 -69.5v-497l524 540q-23 105 -152 105h-18v61h545v-61h-19q-17 0 -32.5 -1.5 t-39.5 -10t-41 -23t-29.5 -44t-12.5 -69.5v-573q0 -40 12.5 -69.5t29.5 -44t41 -23t39.5 -10t32.5 -1.5h19v-61h-545v61h18q17 0 32.5 1.5t39.5 10t41 23t30 44t13 69.5v496l-526 -533q5 -31 21 -53.5t33 -33t40 -16.5t34.5 -7t24.5 -1h19v-61h-545zM303 1376q0 40 22 71.5 t74 31.5q46 0 73.5 -28.5t27.5 -68.5q0 -10 -2 -29t-2 -28q0 -40 54.5 -70t125.5 -30q73 0 126.5 30t53.5 70q0 9 -2 28t-2 29q0 41 26.5 69t73.5 28q50 0 73.5 -32t23.5 -71q0 -85 -108 -159t-265 -74q-158 0 -265.5 74.5t-107.5 158.5z" />
<glyph unicode="&#x43a;" horiz-adv-x="1196" d="M41 0v61h18q17 0 32.5 1.5t39.5 10t41 23t30 44t13 69.5v573q0 40 -13 69.5t-30 44t-41 23t-39.5 10t-32.5 1.5h-18v61h545v-61h-19q-17 0 -32.5 -1.5t-39.5 -10t-41 -23t-29.5 -44t-12.5 -69.5v-211h174q44 0 75 10.5t47.5 26t27.5 45t14.5 53t9.5 67t12 71.5 q19 90 68.5 129t115.5 39q71 0 121.5 -38t50.5 -108q0 -54 -28.5 -85t-75.5 -31q-38 0 -63 20.5t-25 44.5q0 6 1 18.5t1 18.5q0 37 -33 37q-9 0 -17 -3t-14 -9.5t-10.5 -13t-8.5 -18.5t-6 -20.5t-4.5 -25t-4 -25t-3.5 -27t-3 -26.5q-5 -35 -11 -60t-19 -54t-37.5 -48 t-59.5 -27q198 -29 249 -251q4 -17 8.5 -47.5t8.5 -50t11 -40t20 -31t32 -10.5q60 0 74 129l64 -10q-11 -132 -61 -184.5t-136 -52.5q-178 0 -207 153q-7 36 -10 100.5t-11 112t-30 76.5q-14 19 -34 32t-35 19t-42.5 9t-37 3h-38.5h-120v-280q0 -40 12.5 -69.5t29.5 -44 t41 -23t39.5 -10t32.5 -1.5h19v-61h-545z" />
<glyph unicode="&#x43b;" horiz-adv-x="1198" d="M-4 113q0 50 30 81t74 31q61 0 84 -51q2 -4 5.5 -13t5 -12.5t5.5 -8.5t9.5 -7t13.5 -2q19 0 36 12.5t27 29.5t20 44.5t14 45t10 44.5q16 76 35 225t20 228q1 50 -11 85.5t-34.5 53t-45.5 24.5t-50 7h-23v61h936v-61h-18q-17 0 -32.5 -1.5t-39.5 -10t-41 -23t-30 -44 t-13 -69.5v-573q0 -40 13 -69.5t30 -44t41 -23t39.5 -10t32.5 -1.5h18v-61h-545v61h19q17 0 32.5 1.5t39.5 10t41 23t29.5 44t12.5 69.5v633q0 27 -11 43t-22 20t-22 4h-199q-24 0 -37.5 -15.5t-15.5 -27.5t-2 -24l-6 -111q-12 -263 -61 -473q-10 -44 -21 -78t-31 -72.5 t-45 -64t-64 -42.5t-87 -17q-78 0 -122 38t-44 91z" />
<glyph unicode="&#x43c;" horiz-adv-x="1536" d="M41 0v61h18q81 0 118.5 38.5t37.5 129.5v516q0 54 -5 89t-12 54.5t-25 28.5t-33 11t-46 2h-53v61h399l326 -739l315 739h414v-61h-37q-9 0 -20 -1t-33.5 -9.5t-39.5 -22.5t-30.5 -44t-13.5 -71v-573q0 -45 15 -76.5t38.5 -45.5t45 -20t42.5 -6h33v-61h-545v61h19 q17 0 32.5 1.5t39.5 10t41 23t29.5 44t12.5 69.5v682l-376 -891h-60l-391 889v-660q0 -91 37.5 -129.5t118.5 -38.5h18v-61h-430z" />
<glyph unicode="&#x43d;" horiz-adv-x="1351" d="M41 0v61h18q17 0 32.5 1.5t39.5 10t41 23t30 44t13 69.5v573q0 40 -13 69.5t-30 44t-41 23t-39.5 10t-32.5 1.5h-18v61h545v-61h-19q-17 0 -32.5 -1.5t-39.5 -10t-41 -23t-29.5 -44t-12.5 -69.5v-213h528v213q0 40 -13 69.5t-30 44t-41 23t-39.5 10t-32.5 1.5h-18v61h545 v-61h-19q-17 0 -32.5 -1.5t-39.5 -10t-41 -23t-29.5 -44t-12.5 -69.5v-573q0 -40 12.5 -69.5t29.5 -44t41 -23t39.5 -10t32.5 -1.5h19v-61h-545v61h18q17 0 32.5 1.5t39.5 10t41 23t30 44t13 69.5v278h-528v-278q0 -40 12.5 -69.5t29.5 -44t41 -23t39.5 -10t32.5 -1.5h19 v-61h-545z" />
<glyph unicode="&#x43e;" horiz-adv-x="1146" d="M74 487q0 151 59 269.5t173.5 187t266.5 68.5q228 0 365 -147.5t137 -377.5q0 -102 -30 -187.5t-80 -143t-115.5 -97t-135.5 -57.5t-141 -18q-72 0 -141.5 17.5t-134.5 57.5t-114.5 97t-79 142.5t-29.5 188.5zM287 492q0 -81 12.5 -147.5t32 -110t47 -76t53 -49.5 t55 -27.5t49 -13t37.5 -2.5q38 0 74 10t76 39.5t70 75t49.5 123.5t19.5 178q0 111 -23 195t-55 128.5t-74.5 72t-74 35t-62.5 7.5q-25 0 -51.5 -6t-60.5 -21t-63.5 -47t-55 -78t-40.5 -119.5t-15 -166.5z" />
<glyph unicode="&#x43f;" horiz-adv-x="1310" d="M41 0v61h18q17 0 32.5 1.5t39.5 10t41 23t30 44t13 69.5v573q0 40 -13 69.5t-30 44t-41 23t-39.5 10t-32.5 1.5h-18v61h1229v-61h-19q-17 0 -32.5 -1.5t-39.5 -10t-41 -23t-29.5 -44t-12.5 -69.5v-573q0 -40 12.5 -69.5t29.5 -44t41 -23t39.5 -10t32.5 -1.5h19v-61h-545 v61h18q17 0 32.5 1.5t39.5 10t41 23t30 44t13 69.5v633q0 27 -11 43t-22 20t-22 4h-377q-11 0 -22 -4t-22 -20t-11 -43v-633q0 -40 12.5 -69.5t29.5 -44t41 -23t39.5 -10t32.5 -1.5h19v-61h-545z" />
<glyph unicode="&#x440;" d="M41 885v61q193 8 313 45h66v-131q132 152 323 152q198 0 324.5 -138.5t126.5 -371.5q0 -121 -36 -219.5t-99 -163.5t-148 -100t-184 -35q-176 0 -307 100v-342q0 -40 12.5 -69.5t29.5 -44t41 -23t39.5 -10t32.5 -1.5h19v-61h-545v61h19q17 0 32.5 1.5t39.5 10t41 23 t29.5 44t12.5 69.5v944q0 68 -9.5 110t-32 60.5t-45 23.5t-62.5 5h-33zM420 186q109 -104 248 -104q38 0 74 7t81.5 32.5t78.5 67.5t56 119.5t23 180.5q0 99 -17 174.5t-44 122t-66.5 76t-79.5 40.5t-86 11q-80 0 -151.5 -42.5t-116.5 -114.5v-570z" />
<glyph unicode="&#x441;" horiz-adv-x="1064" d="M76 489q0 232 136.5 377.5t367.5 145.5q176 0 294.5 -85t118.5 -188q0 -53 -30 -82.5t-74 -29.5q-42 0 -73.5 28t-31.5 70q0 11 4 39q5 30 5 39q0 51 -57.5 89t-145.5 38q-22 0 -45.5 -4t-54 -16t-57.5 -31.5t-54 -53.5t-46.5 -78t-31.5 -109t-12 -144q0 -102 24.5 -181 t61.5 -124t86.5 -74t93 -39t86.5 -10q59 0 113 19t94.5 50.5t66 58.5t46.5 56l59 -39q-149 -227 -438 -227q-230 0 -368 137.5t-138 367.5z" />
<glyph unicode="&#x442;" horiz-adv-x="1134" d="M4 692l102 299h922l102 -299l-69 -20q-15 44 -39 82.5t-62 75t-96 58t-129 21.5h-14q-55 0 -55 -67v-633q0 -40 12.5 -69.5t29.5 -44t41 -23t39.5 -10t32.5 -1.5h19v-61h-545v61h18q17 0 32.5 1.5t39.5 10t41 23t30 44t13 69.5v633q0 67 -55 67h-15q-71 0 -128.5 -21.5 t-95.5 -58t-62 -75t-39 -82.5z" />
<glyph unicode="&#x443;" horiz-adv-x="1105" d="M-47 930v61h487v-61q-51 3 -81.5 -19t-30.5 -53q0 -22 18 -65l240 -600l176 458q47 122 47 180q0 92 -139 99v61h454v-61q-41 -4 -74.5 -19.5t-54.5 -33t-41 -48.5t-30 -51.5t-25 -56.5l-328 -789q-66 -161 -112 -231q-119 -182 -312 -182q-97 0 -140.5 38.5t-43.5 90.5 q0 41 29 70.5t69 29.5q38 0 80 -33q7 -6 23.5 -23t27 -26t29 -17.5t37.5 -8.5q21 0 44 12t52.5 42t63.5 94.5t67 156.5l-348 833q-31 71 -52 96q-49 61 -132 56z" />
<glyph unicode="&#x444;" horiz-adv-x="1634" d="M72 498q0 136 40 239t106.5 161t143 86t160.5 28q113 0 197 -41v192q0 55 -7 93t-17.5 58.5t-30 31.5t-37 13.5t-45.5 2.5h-25v61q149 2 291 45h67v-497q84 41 197 41q66 0 128 -16.5t121.5 -55.5t103.5 -97t71 -146.5t27 -198.5t-27 -198.5t-71 -146.5t-103.5 -97 t-121.5 -55.5t-128 -16.5q-113 0 -197 41v-283q0 -40 13 -69.5t30 -44t41 -23t39.5 -10t32.5 -1.5h19v-61h-545v61h18q17 0 32.5 1.5t39.5 10t41 23t30 44t13 69.5v283q-84 -41 -197 -41q-84 0 -160.5 28t-143 86t-106.5 161t-40 239zM285 498q0 -194 71.5 -313t206.5 -119 q83 0 156 40v783q-74 41 -156 41q-135 0 -206.5 -119t-71.5 -313zM915 106q73 -40 156 -40q135 0 207 119t72 313t-72 313t-207 119q-82 0 -156 -41v-783z" />
<glyph unicode="&#x445;" horiz-adv-x="1146" d="M-33 0v61q46 6 82.5 21t71.5 45t50.5 46t53.5 60l242 277l-223 274q-4 5 -11 14q-26 34 -41.5 50.5t-42 38.5t-58 32t-71.5 11v61h512v-61h-22q-104 0 -104 -49q0 -17 40 -70l144 -178l158 178q40 46 40 68q0 21 -23 37.5t-73 13.5v61h434v-61q-185 -8 -331 -178 l-156 -181l270 -335q65 -80 90 -103q77 -69 181 -72v-61h-566v61h17q61 0 85.5 21.5t24.5 48.5q0 33 -47 96l-172 213l-180 -207q-53 -61 -53 -94q0 -10 4.5 -20.5t16.5 -24.5t41.5 -23t72.5 -10v-61h-457z" />
<glyph unicode="&#x446;" horiz-adv-x="1310" d="M41 0v61h18q43 0 75 13.5t47 30.5t23.5 41t9.5 36.5t1 26.5v573q0 40 -13 69.5t-30 44t-41 23t-39.5 10t-32.5 1.5h-18v61h545v-61h-19q-17 0 -32.5 -1.5t-39.5 -10t-41 -23t-29.5 -44t-12.5 -69.5v-632q0 -39 18 -53.5t37 -14.5h377q19 0 37 14.5t18 53.5v632 q0 40 -13 69.5t-30 44t-41 23t-39.5 10t-32.5 1.5h-18v61h545v-61h-19q-17 0 -32.5 -1.5t-39.5 -10t-41 -23t-29.5 -44t-12.5 -69.5v-632q0 -39 18 -53.5t37 -14.5h111l41 -401h-72q-9 67 -38 129t-67 102q-86 88 -260 88h-825z" />
<glyph unicode="&#x447;" horiz-adv-x="1286" d="M41 930v61h545v-61h-19q-42 0 -72.5 -10.5t-46 -24.5t-24 -36.5t-10.5 -38.5t-2 -38v-108q0 -31 2.5 -53.5t14.5 -52t33.5 -48t62.5 -32t98 -13.5q135 0 251 55v252q0 40 -12.5 69.5t-29.5 44t-41 23t-39.5 10t-32.5 1.5h-19v61h545v-61h-18q-17 0 -32.5 -1.5t-39.5 -10 t-41 -23t-30 -44t-13 -69.5v-573q0 -40 13 -69.5t30 -44t41 -23t39.5 -10t32.5 -1.5h18v-61h-540v61h18q50 0 83 14.5t46.5 40.5t17.5 46.5t4 46.5v240q-149 -66 -309 -66q-172 0 -261 69.5t-89 233.5v96q0 40 -13 69.5t-30 44t-41 23t-39.5 10t-32.5 1.5h-18z" />
<glyph unicode="&#x448;" horiz-adv-x="1925" d="M41 0v61h18q154 0 154 148v573q0 148 -154 148h-18v61h543v-61h-19q-17 0 -32.5 -1.5t-39.5 -10t-41 -23t-29.5 -44t-12.5 -69.5v-632q0 -39 18 -53.5t37 -14.5h342q19 0 37 14.5t18 53.5v632q0 40 -12.5 69.5t-29.5 44t-41 23t-39.5 10t-32.5 1.5h-19v61h545v-61h-19 q-17 0 -32.5 -1.5t-39.5 -10t-41 -23t-29.5 -44t-12.5 -69.5v-632q0 -39 18 -53.5t37 -14.5h342q19 0 37 14.5t18 53.5v632q0 40 -12.5 69.5t-29.5 44t-41 23t-39.5 10t-32.5 1.5h-19v61h547v-61h-18q-18 0 -33.5 -1.5t-40 -10t-41.5 -23t-30 -44t-13 -69.5v-573 q0 -40 13 -69.5t30 -44t41.5 -23t40 -10t33.5 -1.5h18v-61h-1843z" />
<glyph unicode="&#x449;" horiz-adv-x="1923" d="M41 0v61h18q154 0 154 148v573q0 148 -154 148h-18v61h543v-61h-19q-17 0 -32.5 -1.5t-39.5 -10t-41 -23t-29.5 -44t-12.5 -69.5v-632q0 -39 18 -53.5t37 -14.5h342q19 0 37 14.5t18 53.5v632q0 40 -12.5 69.5t-29.5 44t-41 23t-39.5 10t-32.5 1.5h-19v61h545v-61h-19 q-17 0 -32.5 -1.5t-39.5 -10t-41 -23t-29.5 -44t-12.5 -69.5v-632q0 -39 18 -53.5t37 -14.5h342q19 0 37 14.5t18 53.5v632q0 40 -12.5 69.5t-29.5 44t-41 23t-39.5 10t-32.5 1.5h-19v61h547v-61h-18q-18 0 -33.5 -1.5t-40 -10t-41.5 -23t-30 -44t-13 -69.5v-632 q0 -39 18 -53.5t37 -14.5h111l41 -401h-72q-9 67 -37.5 129.5t-66.5 101.5q-86 88 -260 88h-1438z" />
<glyph unicode="&#x44a;" horiz-adv-x="1392" d="M0 692l115 299h737v-61h-18q-48 0 -81.5 -14.5t-48.5 -39.5t-20.5 -47t-5.5 -47v-204h264q114 0 196.5 -23t127.5 -64.5t65.5 -91.5t20.5 -112q0 -41 -8.5 -77.5t-34 -76t-65.5 -68t-109 -47t-160 -18.5h-668v61h19q39 0 68.5 10.5t45.5 25.5t25.5 36.5t12.5 39t3 36.5 v573v70q0 31 -13.5 44t-31.5 13h-45q-73 0 -132.5 -23.5t-97 -62.5t-59.5 -75t-36 -76zM678 186q0 -17 0.5 -26t6.5 -26t17.5 -26.5t36 -17.5t58.5 -8h102q43 0 91.5 14.5t78.5 38.5q70 53 70 154q0 40 -11 73t-29.5 53.5t-34 32t-32.5 19.5q-58 29 -172 29h-182v-310z" />
<glyph unicode="&#x44b;" horiz-adv-x="1671" d="M41 0v61h18q48 0 81.5 14.5t48.5 39.5t20.5 47t5.5 47v573q0 25 -5.5 47t-20.5 47t-48.5 39.5t-81.5 14.5h-18v61h545v-61h-19q-39 0 -68.5 -10.5t-45.5 -25.5t-25.5 -36.5t-12.5 -39t-3 -36.5v-204h254q114 0 196 -23t127 -64.5t65.5 -91.5t20.5 -112q0 -41 -8.5 -77.5 t-34 -76t-65.5 -68t-109 -47t-160 -18.5h-657zM412 186q0 -17 0.5 -25.5t6.5 -26.5t17 -27t35.5 -17t58.5 -8h93q43 0 91.5 14.5t78.5 38.5q69 52 69 154q0 53 -20.5 93.5t-41.5 57t-44 27.5q-58 29 -172 29h-172v-310zM1085 0v61h19q17 0 32.5 1.5t39.5 10t41 23t30 44 t13 69.5v573q0 40 -13 69.5t-30 44t-41 23t-39.5 10t-32.5 1.5h-19v61h545v-61h-18q-17 0 -32.5 -1.5t-39.5 -10t-41 -23t-30 -44t-13 -69.5v-573q0 -40 13 -69.5t30 -44t41 -23t39.5 -10t32.5 -1.5h18v-61h-545z" />
<glyph unicode="&#x44c;" horiz-adv-x="1126" d="M41 0v61h18q48 0 81.5 14.5t48.5 39.5t20.5 47t5.5 47v573q0 25 -5.5 47t-20.5 47t-48.5 39.5t-81.5 14.5h-18v61h545v-61h-19q-39 0 -68.5 -10.5t-45.5 -25.5t-25.5 -36.5t-12.5 -39t-3 -36.5v-204h264q114 0 196 -23t127 -64.5t65.5 -91.5t20.5 -112q0 -41 -8.5 -77.5 t-33.5 -76t-65 -68t-109 -47t-160 -18.5h-668zM412 186q0 -17 0.5 -25.5t6.5 -26.5t17 -27t35.5 -17t58.5 -8h103q43 0 91.5 14.5t78.5 38.5q69 52 69 154q0 53 -20.5 93.5t-41.5 57t-44 27.5q-58 29 -172 29h-182v-310z" />
<glyph unicode="&#x44d;" horiz-adv-x="1054" d="M72 244q0 48 26.5 77t75.5 29q47 0 77 -26.5t30 -69.5q0 -4 -1 -11.5t-1 -11.5t-1.5 -12t-1.5 -12v-27q5 -45 51.5 -78.5t139.5 -33.5q70 0 125.5 26.5t88.5 69t53.5 98.5t27 112t2.5 113h-490v82h490q2 43 -4 87.5t-25 94t-49 87.5t-82.5 63t-120.5 25t-127.5 -26 t-101 -69t-68.5 -82.5t-47 -82.5h-57l68 325h81l21 -53q130 74 270 74q87 0 162 -29.5t128.5 -79.5t91.5 -116t56.5 -140.5t18.5 -152.5q0 -103 -34 -194.5t-97 -162t-161 -112t-218 -41.5q-158 0 -277.5 78t-119.5 182z" />
<glyph unicode="&#x44e;" horiz-adv-x="1720" d="M41 0v61h18q17 0 32.5 1.5t39.5 10t41 23t30 44t13 69.5v573q0 40 -13 69.5t-30 44t-41 23t-39.5 10t-32.5 1.5h-18v61h545v-61h-19q-17 0 -32.5 -1.5t-39.5 -10t-41 -23t-29.5 -44t-12.5 -69.5v-221h243q17 209 157 330t339 121q226 0 362 -147.5t136 -379.5 q0 -102 -30 -187t-79.5 -142t-114.5 -96.5t-134 -57.5t-140 -18t-140.5 18t-135 58t-115.5 96.5t-80 140t-29 182.5h-239v-270q0 -40 12.5 -69.5t29.5 -44t41 -23t39.5 -10t32.5 -1.5h19v-61h-545zM864 492q0 -81 12.5 -147.5t32 -110t47 -76t53.5 -49.5t55.5 -27.5t49 -13 t37.5 -2.5q17 0 36 2.5t48 13t55 27.5t53.5 49.5t47.5 76t32.5 110t12.5 147.5t-12 147.5t-30.5 110.5t-44.5 78t-52 53t-55 30.5t-50 15t-41 3.5q-21 0 -43 -3.5t-51 -15.5t-55 -31t-52 -53t-44.5 -78.5t-30 -110.5t-11.5 -146z" />
<glyph unicode="&#x44f;" horiz-adv-x="1228" d="M16 221l64 10q14 -129 74 -129q21 0 35 10t21 30.5t11 40t8 49.5t9 49q47 170 200 204q-81 12 -139 39.5t-87.5 63t-42.5 70.5t-13 71q0 24 4.5 47.5t17 55.5t38.5 58.5t63.5 50t98.5 37t138 13.5h672v-61h-19q-17 0 -32.5 -1.5t-39.5 -10t-41 -23t-29.5 -44t-12.5 -69.5 v-573q0 -40 12.5 -69.5t29.5 -44t41 -23t39.5 -10t32.5 -1.5h19v-61h-545v61h19q17 0 32.5 1.5t39.5 10t41 23t29.5 44t12.5 69.5v252h-160h-11q-23 0 -35.5 -0.5t-36.5 -3.5t-38.5 -9t-34 -19t-31 -31.5t-21.5 -47t-13 -65.5q-1 -9 -5 -60.5t-6.5 -71t-12.5 -52t-25 -52.5 q-50 -65 -174 -65q-28 0 -50.5 4t-48.5 18.5t-44.5 39t-33.5 69.5t-20 106zM369 727q0 -184 233 -184h215v299q0 27 -11 43t-22 20t-22 4h-154q-239 0 -239 -182z" />
<glyph unicode="&#x451;" horiz-adv-x="1064" d="M76 500q0 225 133.5 368.5t353.5 143.5q189 0 312 -114.5t124 -303.5h-708q-2 -29 -2 -84q0 -98 21.5 -175.5t55.5 -125t81 -78.5t93 -43t95 -12q100 0 179 49.5t122 138.5l68 -35q-61 -122 -171.5 -183.5t-246.5 -61.5q-120 0 -219 43t-161.5 115.5t-96 164.5t-33.5 193 zM266 1217q0 51 34.5 86.5t84.5 35.5t84.5 -35.5t34.5 -86.5t-35 -87t-84 -36t-84 36t-35 87zM295 676h491q0 102 -62 178t-173 76q-103 0 -173 -74.5t-83 -179.5zM623 1217q0 51 34.5 86.5t83.5 35.5q50 0 84.5 -35.5t34.5 -86.5t-35 -87t-84 -36t-83.5 36t-34.5 87z" />
<glyph unicode="&#x452;" horiz-adv-x="1249" d="M41 0v61h18q17 0 32.5 1.5t39.5 10t41 23t30 44t13 69.5v905h-174v82h174q-4 57 -14 91t-31 50t-43 20.5t-61 4.5h-25v61q152 2 305 45h66v-272h391v-82h-391v-283q196 179 419 179q57 0 103.5 -10t81 -23t60.5 -43.5t43 -53t29 -72t18 -79.5t8.5 -96.5t3 -102 t0.5 -115.5v-38q0 -322 -15 -447q-28 -237 -135 -339q-110 -103 -328 -103q-58 0 -100 12.5t-63 32.5t-30 38.5t-9 37.5q0 33 24 57.5t60 24.5q56 0 96 -53q14 -17 24.5 -27.5t36 -21.5t56.5 -11q34 0 60.5 14t44 43.5t30 64t18.5 85t9.5 97.5t3.5 111.5t-1 115.5t-2.5 121 t-1.5 118q0 31 1 90q2 207 -14 286q-26 136 -126 170q-39 13 -90 13q-141 0 -315 -166v-532q0 -40 12.5 -69.5t29.5 -44t41 -23t39.5 -10t32.5 -1.5h19v-61h-545z" />
<glyph unicode="&#x453;" horiz-adv-x="956" d="M41 0v61h18q17 0 32.5 1.5t39.5 10t41 23t30 44t13 69.5v573q0 40 -13 69.5t-30 44t-41 23t-39.5 10t-32.5 1.5h-18v61h799l102 -299l-70 -20q-39 121 -133.5 179t-212.5 58h-59q-11 0 -22 -4t-22 -20t-11 -43v-633q0 -40 12.5 -69.5t29.5 -44t41 -23t39.5 -10t32.5 -1.5 h19v-61h-545zM385 1204l172 121q43 30 65 44.5t54 28t59 13.5q34 0 53 -23t19 -51q0 -23 -9 -41t-21 -28.5t-36 -19.5t-40.5 -13t-47.5 -10l-256 -56z" />
<glyph unicode="&#x454;" horiz-adv-x="1052" d="M72 494q0 99 30 191t85.5 165.5t144 117.5t196.5 44q148 0 271 -74l20 53h82l68 -325h-58q-13 32 -31.5 63t-49.5 68t-67 64.5t-87.5 46t-108.5 18.5q-17 0 -33.5 -1.5t-45.5 -9t-53.5 -21t-52.5 -40t-48 -63t-34.5 -94t-16.5 -128.5h493v-82h-493q-1 -28 0.5 -57 t8.5 -72.5t19.5 -81.5t36 -78.5t55.5 -69t81 -47t110 -18.5q110 0 194 55t138 132l59 -39q-66 -98 -170 -162.5t-248 -64.5q-151 0 -265 70.5t-172 185.5t-58 254z" />
<glyph unicode="&#x455;" horiz-adv-x="1064" d="M82 365h65q26 -79 73 -138.5t104.5 -93.5t117 -50.5t119.5 -16.5q124 0 194 54.5t70 121.5q0 31 -12.5 56t-27 39t-43 26.5t-43.5 17t-46 12.5l-209 56q-8 2 -26 7q-40 11 -61 17t-59 19.5t-59 26t-48.5 33t-42 44t-25 56t-10.5 71.5q0 120 109.5 204.5t266.5 84.5 q167 0 289 -92l19 71h61l66 -313h-66q-47 111 -143.5 181.5t-214.5 70.5q-99 0 -155 -43.5t-56 -106.5q0 -26 10 -46.5t26 -34t41 -24t49.5 -17.5t56.5 -15q6 -1 9 -2l232 -55q47 -11 80 -21.5t75 -32.5t67.5 -48.5t43.5 -70.5t18 -100q0 -143 -121 -236t-313 -93 q-172 0 -321 102l-27 -86h-61z" />
<glyph unicode="&#x456;" horiz-adv-x="614" d="M41 0v61h18q17 0 32.5 1.5t39.5 10t41 23t30 44t13 69.5v534q0 20 -1 32t-8.5 35.5t-22 37.5t-44.5 25.5t-73 11.5h-25v61q152 2 305 45h66v-782q0 -40 12.5 -69.5t29.5 -44t41 -23t39.5 -10t32.5 -1.5h19v-61h-545zM193 1217q0 51 35.5 86.5t86.5 35.5t87 -35.5 t36 -86.5t-36 -87t-87 -36t-86.5 36t-35.5 87z" />
<glyph unicode="&#x457;" horiz-adv-x="614" d="M6 1217q0 51 34.5 86.5t84.5 35.5t84.5 -35.5t34.5 -86.5t-35 -87t-84 -36t-84 36t-35 87zM41 0v61h18q17 0 32.5 1.5t39.5 10t41 23t30 44t13 69.5v534q0 20 -1 32t-8.5 35.5t-22 37.5t-44.5 25.5t-73 11.5h-25v61q152 2 305 45h66v-782q0 -40 12.5 -69.5t29.5 -44 t41 -23t39.5 -10t32.5 -1.5h19v-61h-545zM317 1217q0 51 34.5 86.5t84.5 35.5t84.5 -35.5t34.5 -86.5t-35 -87t-84 -36t-84 36t-35 87z" />
<glyph unicode="&#x458;" horiz-adv-x="614" d="M-223 -391q0 33 24 57.5t60 24.5q56 0 96 -53q16 -18 25 -27t35 -21t57 -12q25 0 47.5 9t45.5 30t36.5 63.5t13.5 102.5v903q0 68 -9.5 110t-32 60.5t-45 23.5t-62.5 5h-25v61q152 2 305 45h66v-1085q0 -31 -2 -57t-11 -71.5t-25.5 -81.5t-49 -76.5t-76.5 -68t-114 -45.5 t-156 -18q-58 0 -100.5 12.5t-63 32.5t-30 39t-9.5 37zM195 1217q0 51 35.5 86.5t86.5 35.5t87 -35.5t36 -86.5t-36 -87t-87 -36t-86.5 36t-35.5 87z" />
<glyph unicode="&#x459;" horiz-adv-x="1697" d="M-4 113q0 50 29.5 81t74.5 31q61 0 84 -51q2 -4 5.5 -13t5 -12.5t5.5 -8.5t9.5 -7t13.5 -2q19 0 36 12.5t27 29.5t20 44.5t14 45t10 44.5q16 76 35 225t20 228q1 50 -11 85.5t-34.5 53t-45.5 24.5t-50 7h-23v61h936v-61h-18q-17 0 -32.5 -1.5t-39.5 -10t-41 -23t-30 -44 t-13 -69.5v-204h264q114 0 196.5 -23t127.5 -64.5t65.5 -91.5t20.5 -112q0 -41 -8.5 -77.5t-34 -76t-65.5 -68t-109 -47t-160 -18.5h-668v61h19q17 0 32.5 1.5t39.5 10t41 23t29.5 44t12.5 69.5v633q0 27 -11 43t-22 20t-22 4h-199q-24 0 -37.5 -15.5t-15.5 -27.5t-2 -24 l-6 -111q-2 -37 -7 -100t-20 -174.5t-34 -198.5q-13 -57 -28.5 -99t-43 -86t-72 -67.5t-104.5 -23.5q-76 0 -121 38.5t-45 92.5zM983 186q0 -17 0.5 -26t6.5 -26t17.5 -26.5t36 -17.5t58.5 -8h102q43 0 91.5 14.5t78.5 38.5q70 53 70 154q0 40 -11 73t-29.5 53.5t-34 32 t-32.5 19.5q-58 29 -172 29h-182v-310z" />
<glyph unicode="&#x45a;" horiz-adv-x="1851" d="M41 0v61h18q17 0 32.5 1.5t39.5 10t41 23t30 44t13 69.5v573q0 40 -13 69.5t-30 44t-41 23t-39.5 10t-32.5 1.5h-18v61h545v-61h-19q-17 0 -32.5 -1.5t-39.5 -10t-41 -23t-29.5 -44t-12.5 -69.5v-213h528v213q0 40 -13 69.5t-30 44t-41 23t-39.5 10t-32.5 1.5h-18v61h545 v-61h-19q-17 0 -32.5 -1.5t-39.5 -10t-41 -23t-29.5 -44t-12.5 -69.5v-204h264q114 0 196 -23t127 -64.5t65.5 -91.5t20.5 -112q0 -41 -8.5 -77.5t-33.5 -76t-65 -68t-109 -47t-160 -18.5h-668v61h18q17 0 32.5 1.5t39.5 10t41 23t30 44t13 69.5v278h-528v-278 q0 -40 12.5 -69.5t29.5 -44t41 -23t39.5 -10t32.5 -1.5h19v-61h-545zM1137 186q0 -17 0.5 -25.5t6.5 -26.5t17 -27t35.5 -17t58.5 -8h103q43 0 91.5 14.5t78.5 38.5q69 52 69 154q0 53 -20.5 93.5t-41.5 57t-44 27.5q-58 29 -172 29h-182v-310z" />
<glyph unicode="&#x45b;" horiz-adv-x="1351" d="M41 0v61h18q17 0 32.5 1.5t39.5 10t41 23t30 44t13 69.5v905h-174v82h174q-4 57 -14 91t-31 50t-43 20.5t-61 4.5h-25v61q152 2 305 45h66v-272h391v-82h-391v-283q206 179 454 179q84 0 142 -22t88.5 -64t43.5 -91.5t13 -115.5v-508q0 -40 13 -69.5t30 -44t41 -23 t39.5 -10t32.5 -1.5h18v-61h-545v61h19q17 0 32.5 1.5t39.5 10t41 23t29.5 44t12.5 69.5v473q0 114 -41 169.5t-141 55.5q-92 0 -189 -50.5t-173 -115.5v-532q0 -40 12.5 -69.5t29.5 -44t41 -23t39.5 -10t32.5 -1.5h19v-61h-545z" />
<glyph unicode="&#x45c;" horiz-adv-x="1196" d="M41 0v61h18q17 0 32.5 1.5t39.5 10t41 23t30 44t13 69.5v573q0 40 -13 69.5t-30 44t-41 23t-39.5 10t-32.5 1.5h-18v61h545v-61h-19q-17 0 -32.5 -1.5t-39.5 -10t-41 -23t-29.5 -44t-12.5 -69.5v-211h174q44 0 75 10.5t47.5 26t27.5 45t14.5 53t9.5 67t12 71.5 q19 90 68.5 129t115.5 39q71 0 121.5 -38t50.5 -108q0 -54 -28.5 -85t-75.5 -31q-38 0 -63 20.5t-25 44.5q0 6 1 18.5t1 18.5q0 37 -33 37q-9 0 -17 -3t-14 -9.5t-10.5 -13t-8.5 -18.5t-6 -20.5t-4.5 -25t-4 -25t-3.5 -27t-3 -26.5q-5 -35 -11 -60t-19 -54t-37.5 -48 t-59.5 -27q198 -29 249 -251q4 -17 8.5 -47.5t8.5 -50t11 -40t20 -31t32 -10.5q60 0 74 129l64 -10q-11 -132 -61 -184.5t-136 -52.5q-178 0 -207 153q-7 36 -10 100.5t-11 112t-30 76.5q-14 19 -34 32t-35 19t-42.5 9t-37 3h-38.5h-120v-280q0 -40 12.5 -69.5t29.5 -44 t41 -23t39.5 -10t32.5 -1.5h19v-61h-545zM477 1204l172 121q43 30 65 44.5t54 28t59 13.5q34 0 53 -23t19 -51q0 -23 -9 -41t-21 -28.5t-36 -19.5t-40.5 -13t-47.5 -10l-256 -56z" />
<glyph unicode="&#x45e;" horiz-adv-x="1105" d="M-47 930v61h487v-61q-51 3 -81.5 -19t-30.5 -53q0 -22 18 -65l240 -600l176 458q47 122 47 180q0 92 -139 99v61h454v-61q-41 -4 -74.5 -19.5t-54.5 -33t-41 -48.5t-30 -51.5t-25 -56.5l-328 -789q-66 -161 -112 -231q-119 -182 -312 -182q-97 0 -140.5 38.5t-43.5 90.5 q0 41 29 70.5t69 29.5q38 0 80 -33q7 -6 23.5 -23t27 -26t29 -17.5t37.5 -8.5q21 0 44 12t52.5 42t63.5 94.5t67 156.5l-348 833q-31 71 -52 96q-49 61 -132 56zM180 1376q0 40 22 71.5t74 31.5q46 0 73.5 -28.5t27.5 -68.5q0 -10 -2 -29t-2 -28q0 -40 54.5 -70t125.5 -30 q73 0 126.5 30t53.5 70q0 9 -2 28t-2 29q0 41 26.5 69t73.5 28q50 0 73.5 -32t23.5 -71q0 -85 -108 -159t-265 -74q-158 0 -265.5 74.5t-107.5 158.5z" />
<glyph unicode="&#x45f;" horiz-adv-x="1310" d="M41 0v61h18q17 0 32.5 1.5t39.5 10t41 23t30 44t13 69.5v573q0 40 -13 69.5t-30 44t-41 23t-39.5 10t-32.5 1.5h-18v61h545v-61h-19q-17 0 -32.5 -1.5t-39.5 -10t-41 -23t-29.5 -44t-12.5 -69.5v-632q0 -39 18 -53.5t37 -14.5h377q19 0 37 14.5t18 53.5v632 q0 40 -13 69.5t-30 44t-41 23t-39.5 10t-32.5 1.5h-18v61h545v-61h-19q-17 0 -32.5 -1.5t-39.5 -10t-41 -23t-29.5 -44t-12.5 -69.5v-573q0 -40 12.5 -69.5t29.5 -44t41 -23t39.5 -10t32.5 -1.5h19v-61h-357q-51 0 -91 -24.5t-65 -63t-41 -89t-22.5 -99t-5.5 -97.5h-65 q1 62 -10 123t-35.5 119.5t-71 94.5t-109.5 36h-356z" />
<glyph unicode="&#x490;" horiz-adv-x="1105" d="M68 0v61h20q92 0 127 47t35 156v866q0 109 -35 156t-127 47h-20v62h557q142 0 254 83.5t149 213.5l78 -15l-74 -368h-405q-106 0 -139 -40t-33 -159v-846q0 -40 5.5 -71.5t12 -52t22 -35t25.5 -22t33.5 -12t34.5 -5.5t39 -3l26 -2v-61h-585z" />
<glyph unicode="&#x491;" horiz-adv-x="901" d="M41 0v61h18q17 0 32.5 1.5t39.5 10t41 23t30 44t13 69.5v573q0 40 -13 69.5t-30 44t-41 23t-39.5 10t-32.5 1.5h-18v61h473q230 0 303 238l70 -10l-60 -310h-415v-700q0 -40 12.5 -69.5t29.5 -44t41 -23t39.5 -10t32.5 -1.5h19v-61h-545z" />
<glyph unicode="&#x2000;" horiz-adv-x="955" />
<glyph unicode="&#x2001;" horiz-adv-x="1911" />
<glyph unicode="&#x2002;" horiz-adv-x="955" />
<glyph unicode="&#x2003;" horiz-adv-x="1911" />
<glyph unicode="&#x2004;" horiz-adv-x="637" />
<glyph unicode="&#x2005;" horiz-adv-x="477" />
<glyph unicode="&#x2006;" horiz-adv-x="318" />
<glyph unicode="&#x2007;" horiz-adv-x="318" />
<glyph unicode="&#x2008;" horiz-adv-x="238" />
<glyph unicode="&#x2009;" horiz-adv-x="382" />
<glyph unicode="&#x200a;" horiz-adv-x="106" />
<glyph unicode="&#x2010;" horiz-adv-x="819" d="M102 475l62 123h553l-62 -123h-553z" />
<glyph unicode="&#x2011;" horiz-adv-x="819" d="M102 475l62 123h553l-62 -123h-553z" />
<glyph unicode="&#x2012;" horiz-adv-x="819" d="M102 475l62 123h553l-62 -123h-553z" />
<glyph unicode="&#x2013;" horiz-adv-x="1024" d="M-31 475l62 123h1024l-62 -123h-1024z" />
<glyph unicode="&#x2014;" horiz-adv-x="2048" d="M-31 475l62 123h2048l-62 -123h-2048z" />
<glyph unicode="&#x2018;" horiz-adv-x="450" d="M94 1155q0 80 53.5 158.5t147.5 116.5l22 -44q-120 -73 -127 -188q34 27 70 27q43 0 74 -31.5t31 -83.5q0 -53 -36 -90t-89 -37q-60 0 -103 48t-43 124z" />
<glyph unicode="&#x2019;" horiz-adv-x="450" d="M94 1303q0 53 36 90t89 37q60 0 103 -48.5t43 -124.5q0 -80 -53.5 -158t-147.5 -116l-23 43q120 73 127 188q-33 -26 -69 -26q-43 0 -74 31.5t-31 83.5z" />
<glyph unicode="&#x201a;" horiz-adv-x="450" d="M94 98q0 53 36 90t89 37q60 0 103 -48t43 -124q0 -80 -53.5 -158t-147.5 -116l-23 43q120 73 127 188q-33 -26 -69 -26q-43 0 -74 31t-31 83z" />
<glyph unicode="&#x201c;" horiz-adv-x="819" d="M94 1155q0 80 53.5 158.5t147.5 116.5l22 -44q-120 -73 -127 -188q34 27 70 27q43 0 74 -31.5t31 -83.5q0 -53 -36 -90t-89 -37q-60 0 -103 48t-43 124zM442 1155q0 80 53.5 158.5t147.5 116.5l23 -44q-120 -73 -127 -188q35 27 69 27q43 0 74 -31.5t31 -83.5 q0 -53 -36 -90t-89 -37q-60 0 -103 48t-43 124z" />
<glyph unicode="&#x201d;" horiz-adv-x="819" d="M94 1303q0 53 36.5 90t88.5 37q66 0 106 -53t40 -120q0 -78 -53.5 -157t-147.5 -117l-23 45q120 69 127 189q-31 -29 -69 -29q-52 0 -78.5 37t-26.5 78zM442 1303q0 53 36.5 90t88.5 37q68 0 107 -53t39 -120q0 -77 -54 -156.5t-147 -117.5l-23 45q119 69 127 186 q-38 -26 -69 -26q-52 0 -78.5 36.5t-26.5 78.5z" />
<glyph unicode="&#x201e;" horiz-adv-x="819" d="M94 98q0 53 36 90t89 37q60 0 103 -48t43 -124q0 -80 -53.5 -158t-147.5 -116l-23 43q120 73 127 188q-33 -26 -69 -26q-43 0 -74 31t-31 83zM442 98q0 53 36 90t89 37q60 0 103 -48t43 -124q0 -80 -53.5 -158t-147.5 -116l-23 43q120 73 127 188q-33 -26 -69 -26 q-43 0 -74 31t-31 83z" />
<glyph unicode="&#x2022;" horiz-adv-x="942" d="M123 698q0 144 105.5 246.5t252.5 102.5q142 0 244 -102t102 -247t-104 -247.5t-254 -102.5q-140 0 -243 102t-103 248z" />
<glyph unicode="&#x2026;" horiz-adv-x="2048" d="M207 115q0 56 39 96.5t94 40.5t95 -39t40 -94q0 -57 -38.5 -96t-94.5 -39q-55 0 -95 38t-40 93zM889 115q0 56 39 96.5t94 40.5t95 -39t40 -94q0 -57 -38.5 -96t-94.5 -39q-55 0 -95 38t-40 93zM1571 115q0 56 39 96.5t94 40.5t95 -39t40 -94q0 -57 -38.5 -96t-94.5 -39 q-55 0 -95 38t-40 93z" />
<glyph unicode="&#x202f;" horiz-adv-x="382" />
<glyph unicode="&#x205f;" horiz-adv-x="477" />
<glyph unicode="&#x20ac;" d="M45 549l37 82h104q-2 18 -2 67q0 7 1 31.5t1 32.5h-141l37 80h113q18 140 56 244.5t105.5 183.5t172 119.5t245.5 40.5q271 0 379 -121l14 -183h-45q-17 112 -98.5 166t-206.5 54q-80 0 -143 -24t-106 -66.5t-74 -107t-48.5 -138.5t-27.5 -168h624l-34 -80h-596 q0 -10 -1 -33.5t-1 -32.5q0 -49 2 -65h534l-35 -82h-495q19 -240 122.5 -370t280.5 -130q116 0 200 53.5t103 167.5h45l-14 -176q-111 -127 -379 -127q-518 0 -575 582h-154z" />
<glyph unicode="&#x2122;" horiz-adv-x="2007" d="M82 1182l82 213h631l82 -213l-41 -13q-52 84 -105.5 125t-132.5 41h-51v-493q0 -27 9 -47.5t20.5 -30.5t28.5 -16t28.5 -7.5t23.5 -1.5h13v-43h-381v43h12q12 0 23.5 1.5t28.5 7.5t29 16t21 30.5t9 47.5v493h-52q-146 0 -237 -166zM903 696v43h15q20 0 32.5 2t33.5 11.5 t32.5 35.5t11.5 68v365q0 21 -1.5 38.5t-3 30t-6.5 22.5t-7.5 17t-10.5 11.5t-10.5 7t-14 3.5t-14 1h-16.5h-16h-25v43h289l223 -508l215 508h295v-43h-8q-31 0 -54 -8.5t-33.5 -19t-16.5 -27.5t-6.5 -26t-0.5 -22v-407q0 -30 9.5 -51t20 -31t30 -15t27.5 -5.5t24 -0.5h8 v-43h-379v43h10q111 0 111 103v481l-262 -627h-45l-275 627v-467q0 -28 3.5 -49t12 -33.5t16 -20t21.5 -10.5t22 -3.5t25 -0.5h7h14v-43h-303z" />
<glyph unicode="&#x25fc;" horiz-adv-x="993" d="M0 0v993h993v-993h-993z" />
</font>
</defs>
</svg>
