<?xml version="1.0" standalone="no"?>
<!DOCTYPE svg PUBLIC "-//W3C//DTD SVG 1.1//EN" "http://www.w3.org/Graphics/SVG/1.1/DTD/svg11.dtd" >
<svg xmlns="http://www.w3.org/2000/svg" xmlns:xlink="http://www.w3.org/1999/xlink" version="1.1">
<metadata></metadata>
<defs>
<font id="petersburgcitalic" horiz-adv-x="1077" >
<font-face units-per-em="2048" ascent="1589" descent="-459" />
<missing-glyph horiz-adv-x="477" />
<glyph horiz-adv-x="0" />
<glyph horiz-adv-x="682" />
<glyph unicode=" "  horiz-adv-x="477" />
<glyph unicode="&#x09;" horiz-adv-x="477" />
<glyph unicode="&#xa0;" horiz-adv-x="477" />
<glyph unicode="!" horiz-adv-x="632" d="M164 80q0 46 32 78t78 32t78.5 -32t32.5 -78t-32.5 -78.5t-78.5 -32.5t-78 32.5t-32 78.5zM272 287l60 278q61 291 98 676q5 46 9 70.5t15 58.5t26 50.5t42.5 29t65.5 12.5q46 0 70 -24t24 -68q0 -43 -35.5 -133t-106 -276.5t-130.5 -395.5l-80 -278h-58z" />
<glyph unicode="&#x22;" horiz-adv-x="845" d="M434 1024l41 410h205l-188 -410h-58zM762 1024l41 410h205l-189 -410h-57z" />
<glyph unicode="#" horiz-adv-x="1443" d="M246 377l20 115h234l75 423h-233l20 115h234l61 342h82l-61 -342h338l61 342h82l-61 -342h231l-20 -115h-232l-76 -423h232l-21 -115h-231l-61 -342h-82l61 342h-338l-61 -342h-82l61 342h-233zM582 492h338l75 423h-338z" />
<glyph unicode="$" horiz-adv-x="1298" d="M205 221q0 72 36.5 103.5t84.5 31.5q49 0 74.5 -28t25.5 -62t-19.5 -56t-19.5 -60t49 -78t117 -43l170 684l-168 131l-22 16.5t-23 18t-20 17t-20.5 19.5t-17 20.5t-16 24.5t-10.5 26.5t-8 32t-2 34.5q0 55 18 110t58 107.5t96 92t138.5 62.5t180.5 21l27 110h78 l-27 -110q153 -13 229 -74.5t76 -138.5q0 -65 -32.5 -95t-75.5 -30q-40 0 -66 25t-26 55q0 20 10 41t10 47q0 39 -37 72.5t-102 40.5l-129 -515l159 -116q51 -39 83 -72.5t56.5 -90.5t24.5 -128q0 -69 -22 -140.5t-67.5 -138.5t-109 -117.5t-155 -78.5t-195.5 -21l-28 -118 h-78l31 118q-138 3 -237 74t-99 176zM590 1133q0 -29 8.5 -52.5t29.5 -44.5t30 -28t36 -27l82 -59l117 467q-132 -1 -217.5 -75.5t-85.5 -180.5zM631 29q91 -1 163 27.5t114.5 77.5t64.5 107.5t22 120.5q0 145 -108 226l-96 74z" />
<glyph unicode="%" horiz-adv-x="1908" d="M92 -100l1276 1308q-152 -80 -297 -80q-161 0 -229 115q2 -123 -43 -230t-126.5 -172t-178.5 -65q-49 0 -95.5 12.5t-89.5 39t-69.5 75.5t-26.5 115q0 56 15.5 116t48.5 119t79 105.5t112.5 75t143.5 28.5q78 0 129 -43q34 14 55 8.5t41.5 -26.5t34.5 -48.5t34.5 -58 t41.5 -56.5t54.5 -43t74.5 -17q139 0 304 91.5t307 266.5l43 -41l-1598 -1638zM365 1001q0 -77 36.5 -120t94.5 -43q67 0 134 55t111.5 148t44.5 194q0 15 -4 43q-25 18 -40 46t-9 50q-26 37 -88 37q-68 0 -134 -63t-106 -158.5t-40 -188.5zM981 213q0 76 26.5 153.5 t74.5 143.5t125 107.5t169 41.5q112 0 172 -60.5t60 -168.5q0 -78 -23 -157.5t-64.5 -147.5t-110 -111t-150.5 -43q-121 0 -200 67t-79 175zM1133 197q0 -69 33 -115.5t96 -46.5q116 0 202 117t86 278q0 94 -43 133t-104 39q-72 0 -135.5 -64t-99 -157t-35.5 -184z" />
<glyph unicode="&#x26;" horiz-adv-x="2048" d="M287 416q0 164 111 284.5t309 159.5v8q-80 19 -123 90.5t-43 161.5q0 43 12.5 87.5t43 91t75.5 82t116.5 58.5t159.5 23q171 0 260.5 -60t89.5 -134q0 -41 -28 -75t-76 -34q-40 0 -70 24t-30 64q0 16 6 31q8 20 8 33q0 36 -40 65t-105 29q-99 0 -167.5 -97t-68.5 -227 q0 -62 17.5 -104.5t45 -60t48.5 -23.5t41 -6q59 0 100 8l-23 -88q-62 18 -133 18q-154 0 -241.5 -99t-87.5 -259q0 -94 31 -172t94 -138.5t167.5 -94t241.5 -33.5q132 0 236 38.5t167.5 98.5t105 140.5t57.5 157.5t16 157q0 139 -25 241q-76 9 -133.5 4.5t-98.5 -11.5 t-69 -23.5t-44.5 -31t-25.5 -34t-11.5 -32.5t-2.5 -27q0 -27 16.5 -42.5t32.5 -15.5q6 0 13 4.5t15 11t13 9.5q18 12 41 12q47 0 70.5 -27t23.5 -61q0 -50 -31 -91.5t-87 -41.5q-71 0 -116.5 55t-45.5 150q0 64 34 129t92 116.5t143.5 84t180.5 32.5q29 0 85 -3t85 -3 q91 0 156.5 16.5t96 43t43 50.5t12.5 48q0 30 -20.5 47.5t-47.5 17.5q-4 0 -9 -1t-11 -2.5t-9 -2.5q-36 -12 -53 -12q-36 0 -64 21.5t-28 60.5q0 45 40.5 71.5t104.5 26.5q67 0 110.5 -55t43.5 -137q0 -71 -31.5 -137t-87 -116.5t-140 -79t-183.5 -24.5q41 -119 41 -252 q0 -100 -24.5 -190.5t-81.5 -173.5t-143 -143t-217.5 -96t-295.5 -36q-150 0 -270.5 29.5t-195 75.5t-124.5 106.5t-70 118.5t-20 115z" />
<glyph unicode="'" horiz-adv-x="518" d="M434 1024l41 410h205l-188 -410h-58z" />
<glyph unicode="(" horiz-adv-x="880" d="M197 291q0 208 94 418t282.5 407.5t450.5 345.5l20 -41q-149 -91 -271.5 -229.5t-200.5 -294t-120 -317.5t-42 -310q0 -47 0.5 -72.5t5 -87t12.5 -104t26 -106.5t43 -113.5t65 -105t91 -99.5l-37 -41q-108 79 -190.5 175t-131 194.5t-73 194.5t-24.5 186z" />
<glyph unicode=")" horiz-adv-x="880" d="M-49 -418q149 91 271.5 229.5t200.5 293.5t120.5 317.5t42.5 310.5q0 46 -0.5 72.5t-5 87t-13 104t-26.5 106.5t-43 113t-65 105.5t-91 99.5l37 41q108 -79 190.5 -175t131.5 -194.5t73.5 -194t24.5 -185.5q0 -208 -94 -418.5t-283 -408t-451 -345.5z" />
<glyph unicode="*" horiz-adv-x="1130" d="M328 1102q0 50 28 86l262 -70l21 37l-190 193q18 44 58 66.5t89 19.5l72 -263h41l71 263q49 3 89.5 -19.5t58.5 -66.5l-191 -193l21 -37l262 70q29 -37 29 -86t-29 -86l-262 69l-21 -34l191 -193q-14 -39 -56.5 -65.5t-91.5 -22.5l-71 264h-41l-72 -264q-49 -4 -91 22.5 t-56 65.5l190 193l-21 34l-262 -69q-28 36 -28 86z" />
<glyph unicode="+" horiz-adv-x="1433" d="M246 676v82h491v491h82v-491h492v-82h-492v-492h-82v492h-491z" />
<glyph unicode="," horiz-adv-x="483" d="M33 -272q29 18 57.5 39t65 51.5t58.5 63t22 59.5q0 5 -1 10t-2 8.5t-4 8t-4.5 6.5t-6.5 6.5t-6.5 5.5t-7.5 6t-7 6q-74 48 -74 115q0 52 32 84t83 32q55 0 88.5 -43t33.5 -120q0 -114 -78.5 -204t-224.5 -177z" />
<glyph unicode="-" horiz-adv-x="819" d="M205 489v123h491v-123h-491z" />
<glyph unicode="." horiz-adv-x="466" d="M123 80q0 46 32 78t78 32t78.5 -32t32.5 -78t-32.5 -78.5t-78.5 -32.5t-78 32.5t-32 78.5z" />
<glyph unicode="/" horiz-adv-x="1044" d="M-205 -438l1352 1872h102l-1351 -1872h-103z" />
<glyph unicode="0" d="M106 399q0 95 22 209.5t61.5 233.5t100.5 230t133 198t164.5 139.5t190.5 52.5q77 0 136 -36.5t93.5 -98.5t52 -136.5t17.5 -156.5q0 -96 -22 -211t-62 -233.5t-100.5 -229.5t-132.5 -198t-163.5 -139t-188.5 -52q-77 0 -137 37t-95 99t-52.5 136t-17.5 156zM274 242 q0 -25 2 -48t11 -55t24 -54.5t43 -39t66 -16.5q76 0 152 81t135 211t105.5 284t71.5 309t25 278q0 25 -2 48t-11 55t-23.5 54.5t-42.5 39t-66 16.5q-94 0 -187 -124t-157.5 -304t-105 -380t-40.5 -355z" />
<glyph unicode="1" d="M279 930q472 249 630 532h86l-364 -1462h-176l274 1102q-83 -57 -163.5 -99t-223.5 -109q-8 -4 -12.5 -6t-11.5 -5t-13 -6z" />
<glyph unicode="2" d="M-29 0q64 94 150.5 183t167 155t165 135t153.5 136.5t125 144t87 174.5t31 213q0 12 -0.5 23t-4.5 40t-11.5 52t-23.5 52.5t-38 49t-58 33.5t-81 14q-48 0 -87.5 -16t-63 -40.5t-37.5 -49.5t-17 -48q-2 -12 -0.5 -43.5t0.5 -44.5q-1 -31 -12 -52t-26.5 -29.5t-27.5 -11.5 t-24 -3q-34 0 -61 23.5t-27 62.5q0 36 13.5 76t45 82t76.5 75.5t116 54.5t156 21q186 0 282.5 -105t96.5 -282q0 -98 -26.5 -179.5t-78 -147t-115 -121t-149.5 -114t-169 -112.5t-186.5 -130t-188.5 -154l6 -8q80 35 132.5 48t107.5 13q44 0 80 -8q13 -3 112 -35.5 t146 -32.5t81 29.5t76 89.5l41 -27q-70 -112 -150.5 -160.5t-191.5 -48.5q-31 0 -102 13q-66 14 -166.5 46t-138.5 32q-65 0 -119 -68h-66z" />
<glyph unicode="3" d="M-61 -66q206 18 384 101.5t287 220t109 293.5q0 54 -17 94t-40 60t-53.5 32t-48.5 14.5t-34 2.5q-78 0 -149 -29l-19 55q85 20 154 43.5t135.5 58t111 76.5t72 99.5t27.5 126.5q0 100 -57.5 161.5t-151.5 61.5q-69 0 -117 -25.5t-67 -70.5q-7 -16 -13.5 -42.5 t-11.5 -45.5t-15.5 -38.5t-30.5 -29.5t-50 -10q-46 0 -67 27t-21 59q0 37 23 75.5t68 75t124.5 59.5t179.5 23q93 0 164 -20.5t112 -51.5t66.5 -73t34 -79.5t8.5 -76.5q0 -63 -23.5 -115t-62.5 -89.5t-97.5 -68.5t-119 -52t-137.5 -39l2 -11q59 -1 112 -19t97.5 -54 t71 -98.5t26.5 -143.5q0 -110 -57.5 -205t-154 -163t-222 -118t-260.5 -76t-272 -32v57z" />
<glyph unicode="4" d="M37 348l16 66l918 1048h65l-264 -1048h211l-16 -66h-211l-86 -348h-164l86 348h-555zM143 414h465l189 753z" />
<glyph unicode="5" d="M0 -66q147 10 272 57t210.5 117.5t146 159t88.5 181t28 184.5q0 120 -53.5 192t-154.5 72q-68 0 -126.5 -33t-97.5 -82l-61 19l199 661q147 -59 329 -59q192 0 342 59l25 -37q-94 -83 -215.5 -124t-247.5 -41q-96 0 -215 26l-123 -397q91 65 223 65q169 0 266 -110.5 t97 -278.5q0 -102 -35 -197t-110 -180t-183 -150t-263 -107.5t-341 -53.5v57z" />
<glyph unicode="6" d="M115 440q0 175 61 359t160 330t236 239.5t278 93.5q91 0 149 -35t58 -98q0 -40 -24.5 -63t-65.5 -23q-68 0 -95.5 16.5t-25 40.5t7.5 48t-10.5 40.5t-65.5 16.5q-85 0 -166 -93t-139.5 -233t-103.5 -301t-67.5 -301.5t-22.5 -228.5q0 -110 49.5 -164.5t122.5 -54.5 q87 0 165.5 69t126.5 190t48 263q0 104 -44 160.5t-129 56.5q-90 0 -172 -78l-28 35q117 113 260 113q130 0 212.5 -89.5t82.5 -234.5q0 -100 -33 -189t-87 -152t-122 -110t-140 -69.5t-140 -22.5q-158 0 -247 127.5t-89 341.5z" />
<glyph unicode="7" d="M238 109q0 39 11 81t26 79.5t47 87.5t58.5 87t76.5 98t84 100.5t99 114.5t105 122q92 108 131.5 157t88.5 125t84 158l-11 4q-126 -76 -258 -76q-14 0 -92 10q-25 4 -60.5 9.5t-52.5 8.5t-38.5 5t-38.5 2q-51 0 -90.5 -15.5t-54.5 -31t-19 -27.5l-29 -90h-65l100 316 q106 28 233 28q129 0 226 -32q13 -4 42.5 -14.5t47 -16t43.5 -10.5t47 -5q70 0 104 78h76q-29 -94 -64.5 -175.5t-84.5 -163.5t-76 -122.5t-88 -126.5q-62 -89 -92.5 -135t-77 -124t-79 -154t-58.5 -162q-8 -25 -20 -73t-20 -77t-23.5 -67t-32 -59t-43 -36.5t-58.5 -15.5 q-14 0 -28.5 4.5t-33 17t-30.5 42.5t-12 74z" />
<glyph unicode="8" d="M68 309q0 137 114 261.5t336 197.5l-100 119q-26 30 -34.5 41t-26.5 39t-24.5 54.5t-6.5 57.5q0 156 117 269.5t288 113.5q157 0 259 -80t102 -206q0 -250 -361 -383l88 -105q66 -77 99.5 -143t33.5 -156q0 -71 -30 -143t-85.5 -134.5t-147.5 -101.5t-204 -39 q-188 0 -302.5 95.5t-114.5 242.5zM231 293q0 -129 79 -196.5t196 -67.5q139 0 221 82.5t82 193.5q0 130 -137 287l-121 139q-95 -42 -162 -99.5t-99.5 -119t-45.5 -114t-13 -105.5zM469 1176q0 -36 14.5 -71.5t28 -53t39.5 -47.5l145 -173q74 33 126 77t77 91.5t35 88 t10 81.5q0 110 -61.5 173t-161.5 63q-106 0 -179 -67t-73 -162z" />
<glyph unicode="9" d="M0 -66q126 21 238.5 75t198.5 128.5t157.5 168.5t120 194.5t82.5 206t49.5 203.5t15.5 186q0 75 -6.5 125.5t-24.5 95t-54 66.5t-91 22q-60 0 -112 -39t-85.5 -100t-58 -136t-35 -146t-10.5 -132q0 -93 47.5 -137.5t118.5 -44.5q67 0 158 65l26 -39q-132 -102 -264 -102 q-108 0 -184 86.5t-76 249.5q0 109 42 209.5t110 170t156 111t177 41.5q73 0 132.5 -26.5t99 -70t66.5 -102t38.5 -121t11.5 -128.5q0 -118 -31 -242.5t-89.5 -245.5t-149.5 -230.5t-203.5 -196.5t-259.5 -146t-311 -76v57z" />
<glyph unicode=":" horiz-adv-x="507" d="M123 80q0 46 32 78t78 32t78.5 -32t32.5 -78t-32.5 -78.5t-78.5 -32.5t-78 32.5t-32 78.5zM287 860q0 46 32 78.5t78 32.5t78.5 -32.5t32.5 -78.5t-32.5 -78t-78.5 -32t-78 32t-32 78z" />
<glyph unicode=";" horiz-adv-x="516" d="M33 -272q29 18 57.5 39t65 51.5t58.5 63t22 59.5q0 5 -1 10t-2 8.5t-4 8t-4.5 6.5t-6.5 6.5t-6.5 5.5t-7.5 6t-7 6q-74 48 -74 115q0 52 32 84t83 32q55 0 88.5 -43t33.5 -120q0 -114 -78.5 -204t-224.5 -177zM295 860q0 46 32.5 78.5t78.5 32.5t78 -32.5t32 -78.5 t-32 -78t-78 -32t-78.5 32t-32.5 78z" />
<glyph unicode="&#x3c;" horiz-adv-x="1413" d="M92 686v62l1192 491l37 -82l-1069 -440l1069 -441l-37 -81z" />
<glyph unicode="=" horiz-adv-x="1433" d="M246 553v82h1065v-82h-1065zM246 799v82h1065v-82h-1065z" />
<glyph unicode="&#x3e;" horiz-adv-x="1525" d="M246 276l1069 441l-1069 440l37 82l1192 -491v-62l-1192 -491z" />
<glyph unicode="?" horiz-adv-x="1024" d="M246 80q0 48 32.5 78t75.5 30q46 0 77.5 -31t31.5 -77q0 -43 -30.5 -76t-78.5 -33q-44 0 -76 32.5t-32 76.5zM297 1208q0 43 26 86t75 81.5t131.5 62.5t183.5 24q91 0 161 -26.5t110.5 -71t60.5 -98.5t20 -115q0 -96 -17 -166t-46.5 -111t-68.5 -68.5t-84.5 -44.5 t-92.5 -32t-94.5 -38t-88 -56.5t-75.5 -93.5t-56 -142l-28 -112h-58l62 243q14 56 51 107t83.5 90t100 77.5t103.5 79.5t91 87t66 108.5t25 134.5q0 91 -67 141t-171 50q-78 0 -131 -37t-53 -76q0 -9 6 -29t6 -30q0 -47 -30.5 -85t-85.5 -38q-58 0 -86.5 30t-28.5 68z" />
<glyph unicode="@" horiz-adv-x="1794" d="M184 680q0 229 98 407t276 276.5t409 98.5q228 0 399.5 -87.5t262.5 -242.5t91 -356q0 -109 -24 -198.5t-64.5 -149t-95 -100.5t-113 -59.5t-120.5 -18.5q-73 0 -118.5 39.5t-51.5 101.5l-11 2q-51 -66 -129 -104.5t-170 -38.5q-151 0 -238 97t-87 249q0 127 44 233 t115 173t156.5 104t171.5 37q31 0 65 -6t84 -32t85 -69l10 72h145l-90 -649q-8 -50 -8 -72q0 -80 70 -80q38 0 73 13t70.5 46.5t61.5 85.5t42.5 136t16.5 192q0 133 -38.5 240.5t-101.5 177t-147.5 116t-172.5 66t-181 19.5q-196 0 -350.5 -90t-239 -247.5t-84.5 -354.5 q0 -190 69 -341.5t203.5 -241t313.5 -89.5q105 0 217.5 26.5t187.5 71.5l31 -61q-213 -101 -447 -101q-202 0 -358.5 91.5t-242 252.5t-85.5 365zM662 565q0 -44 8 -85.5t27 -83.5t57.5 -67.5t93.5 -25.5q97 0 173 70t117.5 193t41.5 276q0 27 -3 54.5t-14 66t-29.5 66.5 t-54 48.5t-82.5 20.5q-79 0 -145 -48.5t-106 -127t-62 -171t-22 -186.5z" />
<glyph unicode="A" horiz-adv-x="1386" d="M-61 0l14 57h18q23 0 51 18t75.5 67.5t122 154.5t171.5 262l559 903h56l141 -1280q3 -28 7 -45t14.5 -38t33 -31.5t55.5 -10.5h25l-14 -57h-494l14 57h82q76 1 92 45q8 22 8 63q0 43 -9 107l-31 287h-465l-78 -127q-29 -49 -64.5 -102t-52.5 -78.5t-29 -52t-12 -47.5 q0 -48 7 -71.5t30 -23.5h103l-15 -57h-415zM500 616h426l-66 590z" />
<glyph unicode="B" horiz-adv-x="1347" d="M0 0l14 57h97q15 0 25.5 2t26 10t28 28.5t20.5 52.5l285 1136q5 20 5 35q0 55 -65 55h-112l14 58h569q75 0 135 -12.5t98.5 -32t67 -48t43.5 -54.5t23 -58.5t10 -53.5t2 -45q0 -81 -34 -146t-90.5 -104t-119.5 -61t-131 -28l-2 -9q41 -4 81 -16t82.5 -38t74 -63t52 -94.5 t20.5 -128.5q0 -84 -35 -161.5t-102.5 -141t-178.5 -101.5t-250 -38h-653zM389 106q71 -49 178 -49q80 0 159 28t143.5 79.5t104.5 132t40 176.5q0 129 -80 205t-234 76h-151zM565 815h154h24.5t39.5 3t52 8t56 17t59 28t53 42.5t45.5 59t29.5 79.5t12 103q0 35 -11 69 t-37 70.5t-80 59t-128 22.5q-10 0 -19.5 -0.5t-32.5 -6.5t-41 -16t-36.5 -33t-26.5 -54z" />
<glyph unicode="C" horiz-adv-x="1384" d="M205 485q0 78 16.5 166.5t52 183.5t86.5 185t124.5 170.5t160 140.5t200 95.5t238.5 35.5q185 0 301 -88l17 60h65l-96 -379h-65l12 53q8 24 4 55.5t-12 64.5t-30.5 64.5t-51.5 56.5t-74 40.5t-98 15.5q-90 0 -176.5 -42t-156 -113t-129 -165.5t-99 -200t-62 -216.5 t-22.5 -213q0 -182 90 -291t248 -109q261 0 501 367l54 -37q-48 -72 -92 -128t-103 -112t-120 -92.5t-138 -59t-162 -22.5q-117 0 -210.5 41t-152 112t-89.5 163t-31 198z" />
<glyph unicode="D" horiz-adv-x="1556" d="M0 0l14 57h97q21 0 37 4.5t35 26.5t28 62l283 1134q6 22 6 39q0 53 -60 53h-116l14 58h600q31 0 58.5 -1.5t73 -7.5t84 -16t85.5 -30.5t84.5 -48t75 -70.5t62 -96t40 -126.5t15.5 -160.5q0 -179 -64.5 -340.5t-175.5 -279.5t-269 -187.5t-337 -69.5h-670zM389 109 q93 -52 246 -52q121 0 229.5 47.5t188.5 128t139 184.5t89 220t30 231q0 122 -30 219t-82.5 158t-120.5 93t-146 32q-120 0 -244 -57z" />
<glyph unicode="E" horiz-adv-x="1202" d="M0 0l14 57h97q21 0 37 4.5t35 26.5t28 62l283 1134q6 22 6.5 38t-4 26t-10 16t-15 8.5t-15.5 3t-16 0.5h-116l14 58h967l-72 -291h-66l15 59q3 11 3 21q1 33 -31 61q-40 36 -107 55t-127.5 28t-104.5 9h-31q-81 0 -102 -94l-125 -500h92q77 0 135 9t88 21t50 30.5 t25 29.5t9 27l15 51h65l-98 -393h-66l13 51q10 23 0.5 49.5t-49.5 42.5q-62 25 -201 25h-92l-144 -575q-5 -19 -5 -34.5t3 -25t9.5 -16.5t12 -10t14.5 -5t12.5 -2h9.5h28q48 0 129 15t168.5 40.5t157.5 68t84 89.5l14 47h66l-107 -317h-995z" />
<glyph unicode="F" horiz-adv-x="1085" d="M0 0l14 57h97q21 0 37 4.5t35 26.5t28 62l283 1134q6 22 6 39q0 53 -60 53h-116l14 58h952l-71 -291h-66l14 59q2 10 2 19q0 32 -26 59q-34 35 -92.5 55t-120.5 30.5t-115 10.5h-31q-81 0 -102 -94l-125 -500h92q77 0 135 9t88 21t50 30.5t25 29.5t9 27l15 51h65 l-98 -393h-66l13 51q10 23 0.5 49.5t-49.5 42.5q-62 25 -201 25h-92l-144 -575q-5 -19 -5 -34.5t3 -25t9.5 -16.5t12 -10t14.5 -5t12.5 -2h9.5h157l-14 -57h-598z" />
<glyph unicode="G" horiz-adv-x="1536" d="M205 547q0 127 40.5 257t119.5 247.5t185 209.5t247 146.5t295 54.5q222 0 362 -88l16 60h66l-96 -379h-66l12 53q5 23 5 45q0 45 -21 89q-31 68 -112.5 115.5t-194.5 47.5q-109 0 -211 -51t-181 -140t-138.5 -204t-91 -248.5t-31.5 -267.5q0 -91 17.5 -171t54 -147.5 t100.5 -107t149 -39.5q126 0 226 68t124 161l45 176q6 22 6 39q0 53 -61 53h-158l15 58h549l-15 -58h-47q-15 0 -25.5 -2t-26 -10t-28 -28t-20.5 -52l-74 -297q-158 -91 -287.5 -128.5t-253.5 -37.5q-159 0 -273 77.5t-168 205.5t-54 293z" />
<glyph unicode="H" horiz-adv-x="1560" d="M0 0l14 57h97q21 0 37 4.5t35 26.5t28 62l283 1134q6 22 6.5 38t-4 26t-10 16t-15 8.5t-15.5 3t-16 0.5h-116l14 58h557l-14 -58h-97q-77 0 -102 -92l-127 -508h621l127 508q6 22 6.5 38t-4 26t-10 16t-15 8.5t-15.5 3t-16 0.5h-116l14 58h557l-14 -58h-97 q-81 0 -102 -92l-283 -1134q-5 -20 -5 -36q0 -57 61 -57h116l-14 -57h-557l14 57h97q21 0 37 4.5t35 26.5t28 62l141 569h-620l-142 -569q-5 -20 -5 -36q0 -57 61 -57h116l-14 -57h-557z" />
<glyph unicode="I" horiz-adv-x="751" d="M0 0l14 57h97q21 0 37 4.5t35 26.5t28 62l283 1134q6 22 6.5 38t-4 26t-10 16t-15 8.5t-15.5 3t-16 0.5h-116l14 58h557l-14 -58h-97q-81 0 -102 -92l-283 -1134q-9 -27 -4.5 -44.5t9.5 -27t17.5 -14.5t19 -6t14.5 -1h116l-14 -57h-557z" />
<glyph unicode="J" horiz-adv-x="751" d="M-416 -295q0 56 33 96.5t90 40.5q52 0 80.5 -31.5t28.5 -74.5q0 -19 -11 -45q-14 -33 -14 -41q0 -51 55 -51q97 0 193.5 123.5t159.5 375.5l295 1186q6 22 6 39q0 53 -60 53h-116l14 58h557l-14 -58h-97q-78 0 -102 -92l-264 -1065q-6 -23 -11 -43t-22 -71t-35.5 -94 t-49.5 -103.5t-64.5 -108t-81.5 -98t-100.5 -84t-120.5 -55t-142 -21.5q-99 0 -153 48t-54 116z" />
<glyph unicode="K" horiz-adv-x="1454" d="M0 0l14 57h97q21 0 37 4.5t35 26.5t28 62l283 1134q6 22 6 39q0 53 -60 53h-116l14 58h557l-14 -58h-97q-81 0 -102 -92l-143 -575l481 417q60 52 122 122.5t62 101.5q0 26 -47 26h-100l14 58h485l-14 -58h-33q-33 0 -73.5 -16.5t-87.5 -50t-71 -52.5t-65 -53l-428 -368 l412 -670q37 -62 69.5 -84t100.5 -25l-14 -57h-289l-434 713l-115 -101l-115 -462q-5 -19 -5 -34.5t3 -25t9.5 -16.5t12 -10t14.5 -5t12.5 -2h9.5h116l-14 -57h-557z" />
<glyph unicode="L" horiz-adv-x="1187" d="M0 0l14 57h97q21 0 37 4.5t35 26.5t28 62l283 1134q6 22 6 39q0 53 -60 53h-116l14 58h577l-14 -58h-117q-81 0 -102 -92l-283 -1134q-9 -26 -5.5 -43t8 -27t17.5 -15t23 -6.5t23 -1.5h14q112 0 231 30q126 32 213 83t103 102l14 47h66l-80 -319h-1026z" />
<glyph unicode="M" horiz-adv-x="1839" d="M0 0l14 57h39q50 0 92 45t78 143.5t54 162.5t49 191q5 22 8 32l162 643q7 28 7 48t-4 30.5t-14.5 16t-19 6.5t-21.5 1h-104l14 58h357l186 -1151l729 1151h356l-14 -58h-96q-28 0 -48 -7.5t-30.5 -23t-15 -28t-9.5 -33.5l-282 -1134q-9 -27 -6 -44.5t6.5 -27t15 -14.5 t19.5 -6t20 -1h117l-14 -57h-558l15 57h96q42 0 64.5 20t35.5 73l263 1050l-764 -1200h-54l-188 1219l-152 -609q-27 -103 -50 -229.5t-23 -194.5q0 -18 3 -36t11 -41t27 -37.5t47 -14.5h39l-15 -57h-442z" />
<glyph unicode="N" horiz-adv-x="1454" d="M0 0l14 57h23q110 0 199 264q31 92 81 289l152 602l-20 48q-26 60 -73 90q-43 27 -94 26h-10l15 58h315l518 -1147l135 536q74 294 74 424q0 129 -88 129h-39l15 58h442l-14 -58h-39q-26 0 -50 -13t-45.5 -40.5t-39 -56.5t-36 -77t-31.5 -83.5t-29.5 -95t-25.5 -93 t-24 -94.5l-213 -852h-74l-522 1153l-129 -514q-74 -296 -74 -424q0 -129 88 -129h39l-14 -57h-426z" />
<glyph unicode="O" horiz-adv-x="1566" d="M205 518q0 224 103 446.5t284 356.5q99 74 197 107.5t215 33.5q108 0 196.5 -30t148 -81t100 -121t59 -148t18.5 -164q0 -140 -40.5 -284t-130 -285.5t-216.5 -237.5q-184 -140 -410 -140q-45 0 -90 5.5t-98 21.5t-99.5 41.5t-91 68.5t-76 98t-50.5 135.5t-19 176.5z M410 510q0 -133 27 -230t74 -150t102 -77t120 -24q153 0 290 127t217.5 332t80.5 427q0 180 -34 280q-73 209 -292 210q-99 0 -191 -55t-162 -147t-123.5 -207t-81 -241.5t-27.5 -244.5z" />
<glyph unicode="P" horiz-adv-x="1228" d="M0 0l14 57h97q21 0 37 4.5t35 26.5t28 62l283 1134q6 22 6 39q0 53 -60 53h-118l14 58h524q208 0 329.5 -106.5t121.5 -266.5q0 -95 -36.5 -176.5t-109 -145.5t-192 -100.5t-275.5 -36.5q-81 0 -182 16l-117 -468q-5 -19 -5 -34.5t3 -25t9.5 -16.5t12 -10t14.5 -5 t12.5 -2h9.5h157l-14 -57h-598zM532 680q70 -21 146 -21q194 0 311 113t117 309q0 136 -63 215.5t-179 79.5q-92 0 -170 -45z" />
<glyph unicode="Q" horiz-adv-x="1566" d="M205 518q0 224 103 446.5t284 356.5q99 74 197 107.5t215 33.5q108 0 196.5 -30t148 -81t100 -121t59 -148t18.5 -164q0 -140 -40.5 -284t-130 -285.5t-216.5 -237.5q-181 -134 -404 -140l-186 -123l2 -12q108 27 215 27q139 0 283 -64q21 -10 61 -30.5t62 -31 t55.5 -19.5t64.5 -9q97 0 186 48.5t150 111.5l31 -29q-205 -299 -428 -299q-21 0 -41 1.5t-41 7.5t-34.5 9t-37 14.5t-32 15t-35 20t-32 19.5t-36.5 23.5t-35 22.5q-76 49 -154 77t-186 28q-131 0 -241 -82l-29 43l344 237q-54 5 -108 21.5t-115 56t-106.5 97t-76 152.5 t-30.5 214zM410 510q0 -133 27 -230t74 -150t102 -77t120 -24q153 0 290 127t217.5 332t80.5 427q0 180 -34 280q-73 209 -292 210q-99 0 -191 -55t-162 -147t-123.5 -207t-81 -241.5t-27.5 -244.5z" />
<glyph unicode="R" horiz-adv-x="1392" d="M61 0l15 57h96q21 0 37 4.5t35 26.5t28 62l283 1134q6 22 6 39q0 53 -59 53h-117l14 58h508q465 0 465 -308q0 -86 -41.5 -166.5t-114 -142t-180.5 -95.5q-89 -28 -189 -27q-21 0 -42 1l-4 -14q65 -13 117 -46t85 -72t59 -93.5t39 -98.5t25 -98q5 -23 11.5 -53.5 t10 -47.5t9 -38t10 -32t11.5 -21.5t15 -14.5t19 -4q31 0 60 29t39 72h55q-17 -74 -69.5 -133.5t-141.5 -59.5q-40 0 -72.5 14.5t-55.5 38t-41.5 58.5t-29.5 70t-20.5 79t-15 78.5t-12 76.5t-11.5 65q-49 241 -301 245l-135 -546q-3 -23 -5 -39.5t5.5 -26.5t12.5 -15.5 t15.5 -8t15 -3t11.5 -0.5h96l-14 -57h-537zM610 754q84 -13 140 -13q62 0 120.5 12t114.5 39.5t98 68.5t67.5 103.5t25.5 139.5q0 127 -69.5 199.5t-193.5 72.5q-80 0 -157 -41z" />
<glyph unicode="S" horiz-adv-x="1116" d="M41 0l92 371h66l-11 -37q-7 -25 0 -63t30.5 -80t58 -78.5t88.5 -60t116 -23.5q133 0 229.5 100t96.5 233q0 128 -76 199l-246 232q-53 49 -83.5 105t-30.5 134q0 75 32 148t89.5 132.5t145.5 96.5t191 37q168 0 289 -72l15 60h65l-90 -363h-66l9 39q3 27 2.5 62 t-16.5 73.5t-39 70t-65.5 52.5t-96.5 21q-117 0 -200 -84t-83 -199q0 -66 76 -135l205 -183q70 -63 106.5 -129.5t36.5 -171.5q0 -75 -20.5 -148t-64.5 -140t-106.5 -117.5t-153 -80.5t-196.5 -30q-172 0 -313 97l-17 -68h-65z" />
<glyph unicode="T" horiz-adv-x="1173" d="M188 1114l80 320h1118l-79 -320h-66l10 53q3 17 3 33q0 32 -14 60q-21 40 -56.5 61.5t-83 34.5t-79 16.5t-54.5 3.5q-13 0 -19.5 -0.5t-20.5 -3.5t-22 -12t-12 -23l-295 -1187q-5 -21 -5 -37q0 -56 60 -56h117l-14 -57h-557l14 57h96q15 0 25.5 2t26.5 10t28.5 28.5 t20.5 52.5l295 1187q0 3 1 8t-2.5 10t-10 10t-23 8t-39.5 3q-66 0 -142.5 -25.5t-140.5 -74.5t-80 -107l-14 -55h-66z" />
<glyph unicode="U" horiz-adv-x="1454" d="M246 301q0 96 22 180l201 803q6 22 6 39q0 53 -61 53h-117l14 58h557l-14 -58h-96q-15 0 -25.5 -2t-26.5 -10t-28.5 -28t-20.5 -52l-200 -805q-23 -102 -23 -155q0 -120 58 -204.5t176 -84.5q168 0 298.5 128t180.5 331l80 329q73 301 73 424q0 129 -88 129h-38l14 58 h430l-14 -58h-27q-29 0 -57 -19t-50 -47.5t-44.5 -76t-38.5 -90.5t-34.5 -105.5t-29.5 -106.5l-27 -108l-79 -321q-17 -70 -43 -135t-75 -139.5t-110.5 -129t-155 -91t-204.5 -36.5q-187 0 -285 93.5t-98 236.5z" />
<glyph unicode="V" horiz-adv-x="1320" d="M250 1376l14 58h508l-14 -58h-84q-27 0 -45 -7t-26 -16t-10.5 -26.5t-2 -28t3.5 -30.5l108 -1020l388 674q51 90 81 146t60.5 133t30.5 122q0 16 -5 26.5t-10 16t-16.5 8t-16.5 2.5h-18h-72l15 58h401l-14 -58q-6 1 -12 1q-49 -1 -92 -45q-48 -50 -124 -179l-688 -1182 h-59l-154 1297q-8 55 -34 79q-32 29 -93 29h-20z" />
<glyph unicode="W" horiz-adv-x="1894" d="M250 1376l14 58h486l-15 -58h-39q-89 0 -89 -85q0 -11 1 -23l109 -1010l356 612l-41 398q-2 20 -5.5 33.5t-13.5 33.5t-32 30.5t-55 10.5h-27l14 58h498l-14 -58h-88q-53 0 -74 -26q-17 -21 -17 -62q0 -10 1 -20l98 -989l334 643q57 108 100 226.5t43 174.5q0 53 -65 53 h-82l14 58h453l-15 -58q-23 2 -44.5 -3.5t-54 -30t-68 -67.5t-85 -122.5t-106.5 -189.5l-512 -992h-58l-90 789l-465 -789h-59l-141 1297q-12 108 -119 108h-47z" />
<glyph unicode="X" horiz-adv-x="1454" d="M-41 0l14 57q39 1 70.5 11t86.5 45t127 102.5t184.5 185.5t265.5 291l-207 510q-40 99 -88 137q-46 37 -135 37h-5l15 58h575l-14 -58h-129q-51 0 -51 -41q0 -17 18 -61l176 -430q229 254 302 352.5t73 138.5q0 41 -63 41h-99l15 58h487l-14 -58h-3q-69 0 -140 -44 q-73 -46 -194.5 -170t-338.5 -378l211 -505q59 -139 99 -180.5t118 -41.5h16l-14 -57h-551l14 57h117q21 0 36 14t15 35q0 23 -10 46l-203 485q-267 -308 -329 -388q-97 -123 -97 -163q0 -10 10.5 -19.5t30.5 -9.5h111l-15 -57h-487z" />
<glyph unicode="Y" horiz-adv-x="1300" d="M250 1376l14 58h555l-14 -58h-117q-53 0 -53 -49q0 -15 4 -33l162 -618l186 254q110 150 169 240.5t71 117t12 43.5q0 45 -43 45h-94l14 58h404l-15 -58h-30q-60 0 -123 -68.5t-244 -314.5q-23 -31 -35 -47l-258 -350l-110 -446q-3 -23 -5 -39.5t5.5 -26.5t12.5 -15.5 t15.5 -8t15 -3t11.5 -0.5h117l-15 -57h-557l14 57h97q21 0 37 4.5t35 26.5t28 62l109 436l-185 669q-19 69 -59 91.5t-131 29.5z" />
<glyph unicode="Z" horiz-adv-x="1177" d="M0 0l14 57l1065 1319h-176q-248 0 -395 -54t-162 -126l-12 -57h-66l74 295h979l-14 -58l-1059 -1319h112q311 0 473.5 56.5t184.5 132.5l14 49h66l-74 -295h-1024z" />
<glyph unicode="[" horiz-adv-x="770" d="M90 -459l479 1921h443l-11 -45h-186q-78 0 -102 -92l-410 -1647q-6 -36 -6 -53q0 -39 61 -39h187l-13 -45h-442z" />
<glyph unicode="\" horiz-adv-x="901" d="M287 1434h82l532 -1872h-82z" />
<glyph unicode="]" horiz-adv-x="770" d="M8 -459l12 45h187q76 0 100 92l410 1647q6 36 6 53q0 39 -59 39h-187l10 45h443l-479 -1921h-443z" />
<glyph unicode="^" horiz-adv-x="1142" d="M266 819l439 643l438 -643h-92l-346 510l-347 -510h-92z" />
<glyph unicode="_" horiz-adv-x="1187" d="M0 -356h1188v-82h-1188v82z" />
<glyph unicode="`" horiz-adv-x="630" d="M295 1479q0 38 27.5 64t62.5 26q26 0 47 -14t30 -27.5t23 -38.5l158 -299l-47 -37l-266 256q-35 35 -35 70z" />
<glyph unicode="a" horiz-adv-x="1089" d="M61 242q0 121 53 251t138 235t202 173t236 68q63 0 99 -18t61 -56l14 51h156l-225 -782q-13 -43 -13 -58q0 -32 29 -32q42 0 102.5 61.5t94.5 116.5l36 -25q-28 -43 -62.5 -84.5t-76.5 -80t-90 -62t-92 -23.5q-48 0 -72 29.5t-24 79.5q0 37 12 78l41 137h-8 q-31 -53 -54.5 -89.5t-62.5 -85t-75 -78t-85 -50.5t-100 -21q-42 0 -81.5 14.5t-75 44t-56.5 83t-21 123.5zM217 176q0 -42 12 -72t31 -43.5t35 -18.5t31 -5q55 0 126.5 60t130.5 142.5t104 162.5t58 126l76 269q-2 52 -31.5 89.5t-82.5 37.5q-72 0 -160.5 -78.5 t-160 -191.5t-120.5 -245t-49 -233z" />
<glyph unicode="b" horiz-adv-x="1040" d="M66 133l327 1192q7 23 7.5 40t-5 27t-12.5 16t-20 9t-22 3.5t-24 0.5h-63l12 45q82 7 180.5 39.5t171.5 73.5l-245 -893h8q154 283 342 283q46 0 87.5 -16.5t77.5 -50.5t57.5 -95t21.5 -143q0 -102 -30.5 -204.5t-85 -188t-125 -152.5t-155.5 -104.5t-172 -37.5 q-201 0 -333 156zM223 139q42 -116 178 -116q81 0 158 72t129 177.5t83.5 223.5t31.5 213q0 112 -34 156t-77 44q-68 0 -153 -84.5t-149.5 -197.5t-90.5 -209z" />
<glyph unicode="c" horiz-adv-x="872" d="M74 338q0 166 77 312.5t204.5 232.5t269.5 86q99 0 163 -41.5t64 -104.5q0 -38 -23 -60t-59 -22q-78 0 -90 88q-3 21 -6.5 32.5t-12.5 28.5t-28.5 25.5t-48.5 8.5q-87 0 -169 -97.5t-129.5 -242t-47.5 -283.5q0 -264 180 -264t325 289l45 -25q-25 -56 -58.5 -106.5 t-84 -102.5t-122 -83.5t-152.5 -31.5q-147 0 -222 102t-75 259z" />
<glyph unicode="d" horiz-adv-x="1089" d="M61 242q0 134 57.5 269t146.5 234.5t200 161.5t215 62q91 0 164 -60l121 439q5 19 5.5 33.5t-2.5 24t-10 16.5t-14 10.5t-18.5 5t-19 2t-19.5 0.5h-64l13 45q83 7 181 39t171 73l-393 -1433q-11 -40 -11 -58q0 -32 27 -32q38 0 98.5 57.5t98.5 120.5l36 -25 q-69 -106 -158 -178t-163 -72q-32 0 -53 13.5t-29 35t-10 34.5t-2 26q0 44 10 78l41 137h-8q-32 -53 -55.5 -89t-62.5 -84.5t-75 -78t-84.5 -51t-99.5 -21.5q-42 0 -81.5 14.5t-75 44t-56.5 83t-21 123.5zM217 176q0 -44 12 -74.5t31.5 -43.5t35 -18t30.5 -5q53 0 123 60 t128.5 142.5t103.5 163t58 127.5l76 279q-3 54 -36.5 85.5t-80.5 31.5q-67 0 -152.5 -77.5t-157.5 -189t-121.5 -245t-49.5 -236.5z" />
<glyph unicode="e" horiz-adv-x="917" d="M61 315q0 116 55 235.5t140.5 211t195.5 149.5t214 58q103 0 157 -56t54 -135q0 -59 -37 -116t-109.5 -108t-197 -87.5t-283.5 -46.5q-33 -94 -33 -187q0 -89 46 -142.5t130 -53.5q59 0 118.5 28t106.5 73t82 90t62 91l45 -24q-20 -36 -43 -70.5t-66 -82t-90 -82 t-114.5 -59t-139.5 -24.5q-131 0 -212 91t-81 247zM268 473q96 5 177.5 31.5t135 64t92 83t55.5 87.5t17 78q0 47 -25 77t-67 30q-94 0 -205 -127.5t-180 -323.5z" />
<glyph unicode="f" horiz-adv-x="854" d="M-205 -350q0 38 24.5 62t61.5 24q63 0 86 -68q0 -2 3.5 -16.5t6.5 -20.5t11.5 -13t21.5 -7q29 0 55.5 31.5t52.5 101t37.5 106.5t33.5 119l6 21l247 911h-194l14 45h193l34 127q26 95 68 182t97 160.5t126.5 117.5t147.5 44q66 0 98.5 -34.5t32.5 -74.5 q0 -37 -24.5 -61.5t-61.5 -24.5q-66 0 -84 68q-7 24 -10 32.5t-11.5 16.5t-23.5 8q-29 0 -55.5 -31.5t-52.5 -101t-37.5 -106.5t-33.5 -119q-2 -5 -2.5 -7.5t-1.5 -6.5t-2 -7l-49 -182h199l-14 -45h-197l-233 -856q-26 -95 -67.5 -182.5t-97 -160.5t-127 -117t-147.5 -44 q-66 0 -98.5 34.5t-32.5 74.5z" />
<glyph unicode="g" horiz-adv-x="983" d="M-82 -205q0 114 73.5 195.5t176.5 101.5q-96 41 -96 139q0 64 63 114t172 63l2 8q-82 20 -123 84t-41 141q0 138 122.5 233t295.5 95q113 0 197 -47q62 82 112.5 116.5t106.5 34.5q48 0 67 -21.5t19 -43.5q0 -32 -20 -60t-64 -28q-41 0 -57 26q-1 2 -5.5 10t-7.5 11.5 t-11 7.5t-19 4q-24 0 -50 -25t-40 -53q92 -69 92 -207q0 -142 -121.5 -229.5t-298.5 -87.5q-17 0 -53 2t-54 2q-68 0 -100.5 -26.5t-32.5 -57.5q0 -42 42.5 -62.5t119.5 -33.5l174 -29q4 -1 13 -2q33 -5 53 -8.5t60 -14t66 -22t58.5 -32t52 -46t33.5 -62.5t14 -81 q0 -39 -9.5 -76.5t-32 -80.5t-65.5 -78.5t-104 -65t-155 -46t-211 -16.5q-98 0 -174.5 18.5t-120.5 45.5t-72 63t-37.5 66.5t-9.5 60.5zM59 -195q0 -89 70.5 -154t212.5 -65q120 0 210 24.5t137 63t69 77t22 75.5q0 43 -18.5 76.5t-47 53t-66 33.5t-72.5 21t-69 13 q-10 1 -15 2l-222 38q-92 -17 -151.5 -91t-59.5 -167zM301 594q0 -54 17 -91t45 -53t50 -22t44 -6q68 0 122.5 35.5t85.5 90t46.5 111.5t15.5 109q0 71 -42 113.5t-118 42.5q-64 0 -116.5 -32t-84 -82t-48.5 -106.5t-17 -109.5z" />
<glyph unicode="h" horiz-adv-x="1050" d="M31 0l368 1343q7 23 7.5 40t-5 27t-12 16.5t-19.5 9.5t-22 3.5t-24 0.5h-64l12 45q83 7 182 39t171 73l-285 -1048h8q75 127 140 213t119 129.5t95.5 60.5t85.5 17q74 0 122 -34t48 -99q0 -28 -11 -74t-19 -66l-172 -532q-13 -40 -13 -58q0 -32 29 -32q42 0 102.5 61.5 t94.5 116.5l37 -25q-38 -59 -86 -112.5t-113.5 -95.5t-122.5 -42q-49 0 -72.5 29.5t-23.5 79.5q0 37 12 78l180 561q23 72 23 123q0 45 -55 45q-59 0 -168.5 -117.5t-200 -259t-111.5 -217.5l-82 -299h-155z" />
<glyph unicode="i" horiz-adv-x="565" d="M45 719q38 59 86 112.5t113.5 95.5t122.5 42q48 0 72 -29.5t24 -79.5q0 -38 -12 -78l-179 -618q-12 -40 -12 -58q0 -32 29 -32q42 0 102 61.5t94 116.5l37 -25q-28 -43 -62.5 -84.5t-76.5 -80t-90 -62t-92 -23.5q-48 0 -72.5 30t-24.5 79q0 34 13 78l178 618q12 40 12 58 q0 32 -28 32q-42 0 -102.5 -61.5t-94.5 -116.5zM336 1333q0 44 29 73.5t73 29.5t73.5 -29.5t29.5 -73.5t-29.5 -73t-73.5 -29t-73 29t-29 73z" />
<glyph unicode="j" horiz-adv-x="524" d="M-319 -350q0 37 24.5 61.5t61.5 24.5q65 0 83 -68q6 -23 9.5 -32.5t12.5 -17t24 -7.5q19 0 37.5 14.5t35.5 46.5t30 59t28.5 77.5t23 75.5t21.5 77q5 20 8 29l215 792q10 36 10 58q0 32 -26 32q-38 0 -98.5 -57.5t-98.5 -120.5l-37 25q69 106 158.5 178t163.5 72 q45 0 69.5 -29.5t24.5 -79.5q0 -33 -10 -78l-201 -737q-26 -95 -67.5 -182.5t-96.5 -160.5t-126.5 -117t-147.5 -44q-66 0 -98.5 34.5t-32.5 74.5zM336 1333q0 44 29 73.5t73 29.5t73.5 -29.5t29.5 -73.5t-29.5 -73t-73.5 -29t-73 29t-29 73z" />
<glyph unicode="k" horiz-adv-x="972" d="M31 0l368 1343q7 23 7.5 40t-5 27t-12 16.5t-19.5 9.5t-22 3.5t-24 0.5h-64l12 45q83 7 182 39t171 73l-224 -815q67 77 160.5 132t188.5 55q82 0 132 -49.5t50 -133.5q0 -118 -110 -203t-322 -116q38 -11 65 -31.5t41.5 -43t25 -56.5t14 -61t9.5 -67t11 -65 q10 -57 41 -57q30 0 75.5 58t71.5 106l41 -25q-14 -25 -27 -47t-41.5 -62t-56 -68t-63.5 -49.5t-70 -21.5q-116 0 -133 173q-1 9 -3.5 38.5t-5 52.5t-7 55.5t-11.5 56.5t-16 46.5t-22 34.5t-29 12q-21 0 -33 -2l-72 -10l-119 -434h-155zM317 481q110 12 194.5 39.5t133.5 59 t80.5 70.5t42 71t10.5 63q0 57 -29 89t-73 32q-54 0 -126.5 -51.5t-126.5 -117t-67 -111.5z" />
<glyph unicode="l" horiz-adv-x="524" d="M63 86q0 41 11 78l323 1179q7 23 7.5 40t-5 27t-12 16.5t-19.5 9.5t-22 3.5t-24 0.5h-64l12 45q83 7 182 39t171 73l-394 -1433q-10 -36 -10 -58q0 -32 27 -32q37 0 97.5 57t98.5 121l37 -25q-63 -97 -150.5 -173.5t-170.5 -76.5q-46 0 -70.5 30t-24.5 79z" />
<glyph unicode="m" horiz-adv-x="1527" d="M45 719q38 59 86 112.5t113.5 95.5t122.5 42q53 0 74.5 -32.5t21.5 -76.5q0 -38 -12 -78l-27 -94h8q50 85 101.5 145t95.5 87t76 38t59 11q77 0 125.5 -32t48.5 -99q0 -61 -12 -103l-13 -47h9q50 86 101.5 145.5t95.5 87t76.5 38t61.5 10.5q77 0 126 -30t49 -95 q0 -68 -27 -148l-172 -532q-12 -37 -12 -58q0 -32 28 -32q42 0 102.5 61.5t94.5 116.5l37 -25q-38 -59 -86 -112.5t-113.5 -95.5t-122.5 -42q-49 0 -72.5 29.5t-23.5 79.5q0 37 12 78l180 561q19 63 19 119q0 17 -12.5 33t-40.5 16q-45 0 -108.5 -55t-118.5 -130t-97.5 -149 t-54.5 -115l-129 -444h-156l209 725q14 54 14 119q0 49 -53 49t-134.5 -78.5t-149.5 -184t-91 -186.5l-129 -444h-155l225 782q12 40 12 58q0 32 -28 32q-42 0 -102.5 -61.5t-94.5 -116.5z" />
<glyph unicode="n" horiz-adv-x="1093" d="M45 719q38 59 86 112.5t113.5 95.5t122.5 42q48 0 72 -29.5t24 -79.5q0 -38 -12 -78l-68 -233h8q75 127 140 213t119 129.5t95.5 60.5t85.5 17q74 0 122 -34t48 -99q0 -28 -11 -74t-19 -66l-172 -532q-13 -40 -13 -58q0 -32 29 -32q42 0 102.5 61.5t94.5 116.5l37 -25 q-38 -59 -86 -112.5t-113.5 -95.5t-122.5 -42q-49 0 -72.5 29.5t-23.5 79.5q0 37 12 78l180 561q23 72 23 123q0 45 -55 45q-60 0 -169 -117.5t-199 -258.5t-112 -218l-86 -299h-155l225 782q12 40 12 58q0 32 -28 32q-42 0 -102.5 -61.5t-94.5 -116.5z" />
<glyph unicode="o" horiz-adv-x="999" d="M74 371q0 158 66.5 294.5t187.5 220t268 83.5q69 0 125.5 -22.5t94 -60.5t63 -91.5t36.5 -113t11 -126.5q0 -117 -38 -222.5t-105 -184t-165 -125t-210 -46.5q-85 0 -151 33t-105 89.5t-58.5 125.5t-19.5 146zM238 268q0 -63 12.5 -110t30 -72t41 -40t40.5 -19t33 -4 q48 0 99.5 29t99 87t85.5 135.5t60.5 183t22.5 220.5q0 133 -44.5 189.5t-107.5 56.5q-95 0 -181 -91t-138.5 -243.5t-52.5 -321.5z" />
<glyph unicode="p" horiz-adv-x="1079" d="M-166 -438l10 45h60q39 0 58 10.5t26 38.5l307 1126q10 36 10 58q0 32 -26 32q-38 0 -98.5 -57.5t-98.5 -120.5l-37 25q69 106 158.5 178t163.5 72q32 0 53 -13.5t29 -35t10 -34.5t2 -26q0 -44 -10 -78l-29 -96h8q36 61 68.5 105.5t75.5 88t93.5 66.5t106.5 23 q46 0 87.5 -16.5t77.5 -50.5t57.5 -95t21.5 -143q0 -81 -24 -173t-72.5 -183t-114.5 -165t-159.5 -120t-196.5 -46q-131 0 -205 60l-103 -381q-7 -29 9 -39t55 -10h80l-11 -45h-442zM274 139q42 -116 179 -116q81 0 158 72t128.5 177.5t83 223.5t31.5 213q0 59 -11.5 101.5 t-30 62t-35.5 28t-34 8.5q-68 0 -153.5 -85.5t-150 -198.5t-89.5 -207z" />
<glyph unicode="q" horiz-adv-x="1101" d="M61 242q0 122 53 252.5t138.5 235t202.5 172t235 67.5q74 0 117 -18t76 -56l14 51h156l-373 -1290q-8 -29 8.5 -39t54.5 -10h60l-10 -45h-443l10 45h80q41 0 58 9.5t26 39.5l189 645h-8q-52 -79 -91 -130t-89 -99.5t-103.5 -71.5t-114.5 -23q-45 0 -86.5 14.5t-78.5 44 t-59 82.5t-22 124zM217 176q0 -42 13 -72t34 -43.5t39 -18.5t35 -5q47 0 105.5 39.5t111.5 99.5t101 127.5t80 128t42 96.5l76 269q-3 64 -46.5 95.5t-100.5 31.5q-71 0 -159 -77t-160 -188.5t-121.5 -245t-49.5 -237.5z" />
<glyph unicode="r" horiz-adv-x="737" d="M45 719q38 59 86 112.5t113.5 95.5t122.5 42q48 0 72 -29.5t24 -79.5q0 -38 -12 -78l-70 -245h8q132 227 217.5 329.5t165.5 102.5q36 0 64 -22t28 -62q0 -39 -21 -66.5t-61 -27.5q-24 0 -63 16t-60 16q-35 0 -96.5 -82.5t-118 -188.5t-99.5 -197t-50 -117l-68 -238h-155 l223 782q12 40 12 58q0 32 -28 32q-42 0 -102.5 -61.5t-94.5 -116.5z" />
<glyph unicode="s" horiz-adv-x="763" d="M0 158q0 46 25.5 68t56.5 22q33 0 58.5 -25.5t25.5 -66.5q0 -7 -2 -20.5t-2 -20.5q0 -38 35 -65t104 -27q95 0 157 60.5t62 129.5q0 30 -10.5 57.5t-34.5 56t-44.5 49t-58.5 55t-59 54.5q-69 65 -104 118.5t-35 109.5q0 100 92 178t246 78q120 0 186 -44.5t66 -101.5 q0 -33 -19 -56.5t-51 -23.5q-12 0 -22.5 2t-18.5 5t-14.5 9t-11 10.5t-8.5 13t-6 12.5t-4 14l-2.5 12.5t-1.5 12.5l-1 10q-10 80 -100 80q-80 0 -129 -44t-49 -98q0 -28 10.5 -55t34.5 -56.5t43 -48.5t56.5 -53.5t53.5 -50.5q76 -76 111 -135t35 -127q0 -117 -104.5 -198 t-246.5 -81q-144 0 -231.5 52.5t-87.5 128.5z" />
<glyph unicode="t" horiz-adv-x="651" d="M61 141q0 36 13 80l196 680h-188l12 45h20q70 0 126 18q64 22 109.5 67.5t76.5 104t55 138.5h51l-94 -328q127 0 271 31l-29 -94q-97 18 -193 18h-61l-209 -723q-8 -27 -8 -61q0 -42 21 -61t49 -19q60 0 149.5 76t136.5 147l41 -24q-14 -20 -29.5 -40.5t-56 -64 t-79.5 -74t-94 -55.5t-107 -25q-90 0 -134.5 48.5t-44.5 115.5z" />
<glyph unicode="u" horiz-adv-x="1093" d="M45 719q38 59 86 112.5t113.5 95.5t122.5 42q49 0 72.5 -29.5t23.5 -79.5q0 -38 -12 -78l-181 -561q-22 -68 -22 -123q0 -45 55 -45q46 0 123 72t149 169t131.5 197t75.5 156l86 299h156l-225 -782q-13 -43 -13 -58q0 -32 29 -32q42 0 102.5 61.5t94.5 116.5l37 -25 q-38 -59 -86 -112.5t-113.5 -95.5t-122.5 -42q-48 0 -72 29.5t-24 79.5q0 37 12 78l68 233h-9q-75 -127 -140 -213t-119 -129.5t-95.5 -60.5t-85.5 -17q-74 0 -122 34.5t-48 99.5q0 56 31 139l172 532q12 37 12 58q0 32 -28 32q-42 0 -102.5 -61.5t-94.5 -116.5z" />
<glyph unicode="v" horiz-adv-x="987" d="M45 797q42 78 93.5 123t127.5 45q26 0 84 -13q103 -22 146 -22q74 0 118 39l27 -29q-201 -219 -278.5 -364.5t-77.5 -299.5q0 -123 49.5 -181t124.5 -58q58 0 113.5 31t99.5 81.5t81.5 114.5t62 130.5t38.5 129t14 109.5q0 61 -22 119q-7 16 -23.5 49t-24 55t-7.5 43 q0 30 17.5 50t47.5 20q29 0 48.5 -17t27.5 -47.5t11 -58.5t3 -64q0 -144 -42 -288.5t-113 -259t-174 -186t-216 -71.5q-130 0 -208 93t-78 219q0 66 24.5 134.5t61.5 125.5t95 120t111 110.5t123 105.5l-4 8q-91 -62 -182 -62q-10 0 -68 5q-66 8 -96 8q-33 0 -54 -15.5 t-44 -52.5z" />
<glyph unicode="w" horiz-adv-x="1417" d="M45 797q42 78 93.5 123t127.5 45q26 0 84 -13q103 -22 146 -22q74 0 118 39l27 -29q-201 -219 -278.5 -364.5t-77.5 -299.5q0 -125 43 -182t110 -57q95 0 183 80q-52 96 -52 209q0 92 41.5 204.5t103 205t137 155.5t138.5 63q10 0 20 -3t23.5 -12.5t22 -33t8.5 -57.5 q0 -134 -85.5 -326.5t-236.5 -347.5q4 -22 12 -42t23.5 -43.5t45 -37.5t67.5 -14q69 0 134.5 43t113.5 110.5t85.5 147.5t56.5 157.5t19 137.5q0 61 -22 119q-7 16 -23.5 49t-24 55t-7.5 43q0 30 17.5 50t47.5 20q29 0 48.5 -17t27.5 -47.5t11 -58.5t3 -64q0 -142 -42 -286 t-112.5 -259t-174 -187.5t-216.5 -72.5q-60 0 -110 26.5t-80 76.5q-115 -103 -240 -103q-117 0 -201.5 87t-84.5 225q0 66 24.5 134.5t61.5 125.5t95 120t111 110.5t123 105.5l-4 8q-91 -62 -182 -62q-10 0 -68 5q-66 8 -96 8q-33 0 -54 -15.5t-44 -52.5zM727 326 q0 -52 6 -101q126 142 205.5 322.5t79.5 294.5q0 67 -37 67q-31 0 -74.5 -50.5t-83.5 -129t-68 -188.5t-28 -215z" />
<glyph unicode="x" horiz-adv-x="1024" d="M-61 86q0 36 24 58t57 22q55 0 76 -55q2 -4 5 -15t6 -16.5t8 -13t12 -10.5t16 -3q53 0 154 146l156 225l-60 399q-4 30 -15.5 39.5t-31.5 9.5q-49 0 -105 -58t-96 -120l-41 25q64 101 150.5 175.5t171.5 74.5q20 0 37 -5.5t28.5 -12t21 -19.5t14.5 -22.5t9.5 -25.5t6 -23 t4 -22t2.5 -16l35 -235l141 203q31 45 52 70.5t51 54t64 41t75 12.5q62 0 90 -28.5t28 -66.5q0 -31 -22 -50t-51 -19q-54 0 -74 39q-1 3 -5 11.5t-6 12t-7 8.5t-11 7t-14 2q-49 0 -137 -128l-6 -9l-158 -228l59 -397q4 -30 15.5 -39.5t31.5 -9.5q49 0 105 58t96 120l41 -25 q-65 -101 -150.5 -175.5t-170.5 -74.5q-104 0 -123 146l-35 233l-139 -200q-62 -90 -120 -134.5t-132 -44.5q-66 0 -99.5 32.5t-33.5 76.5z" />
<glyph unicode="y" horiz-adv-x="1052" d="M-55 -328q0 39 24 67t60 28q76 0 84 -105v-4q2 -15 5 -25t11 -22t24.5 -18.5t41.5 -6.5q316 0 516 811h-9q-75 -127 -140 -213t-119 -129.5t-95.5 -60.5t-85.5 -17q-74 0 -122 34.5t-48 99.5q0 56 31 139l172 532q12 37 12 58q0 32 -28 32q-42 0 -102.5 -61.5 t-94.5 -116.5l-37 25q38 59 86 112.5t113.5 95.5t122.5 42q49 0 72.5 -29.5t23.5 -79.5q0 -38 -12 -78l-181 -561q-22 -68 -22 -123q0 -45 55 -45q46 0 123 72t149 169t131.5 197t75.5 156l86 299h156l-199 -688q-41 -140 -93.5 -253.5t-104 -186.5t-111 -127.5t-107 -82 t-100 -44t-82.5 -20t-61 -3.5q-102 0 -161.5 35.5t-59.5 95.5z" />
<glyph unicode="z" horiz-adv-x="798" d="M-41 -23q46 125 148 253t307 300q22 19 68 56.5t61.5 51t47.5 41t45.5 42t33.5 37.5t33 43.5t26 44.5l-8 6q-59 -64 -154 -64q-31 0 -78 7q-29 4 -95 18t-97 14q-99 0 -152 -77l-43 22q123 197 279 197q65 0 184 -39q92 -31 127 -31q26 0 44.5 8t25.5 21t9.5 22.5 t2.5 18.5h45q-21 -91 -54 -164t-77 -128.5t-93.5 -102t-112.5 -96.5t-125 -99t-140 -123t-149 -156l6 -6q74 68 170 68q58 0 116 -12q26 -5 62 -13.5t54.5 -12.5t42 -7.5t42.5 -3.5q42 0 73.5 23t61.5 65l41 -23q-72 -111 -134 -156t-148 -45q-53 0 -103 9q-77 14 -125 31.5 t-70.5 26.5t-52.5 9q-37 0 -64.5 -19.5t-31.5 -56.5h-49z" />
<glyph unicode="{" horiz-adv-x="737" d="M205 514l20 84q48 3 88.5 25t70 59.5t52 77.5t39 93t26.5 91t19 86q29 151 60 223q97 228 362 260l-6 -69q-181 -27 -229 -295q-8 -47 -15.5 -81.5t-23.5 -94.5t-34.5 -105t-49.5 -99.5t-67 -93t-87 -71.5t-111 -47q54 -20 90 -56.5t50.5 -78.5t19 -68.5t4.5 -48.5 q0 -108 -39 -239q-8 -29 -28.5 -91.5t-28.5 -98.5t-8 -71q0 -64 35 -96.5t80 -40.5l-29 -69q-229 27 -229 260q0 58 26 149q27 94 36.5 131.5t21.5 108.5t12 133q0 18 -4.5 36t-16 40.5t-39 38t-67.5 18.5z" />
<glyph unicode="|" horiz-adv-x="516" d="M319 -459v2157h82v-2157h-82z" />
<glyph unicode="}" horiz-adv-x="737" d="M0 -401l6 69q182 27 230 295q8 47 15 81.5t23.5 94.5t35 105t49 99.5t66.5 93t87 71.5t111 47q-54 20 -90 56.5t-50.5 78.5t-19 68.5t-4.5 48.5q0 109 39 240q9 30 29 91.5t28 97.5t8 71q0 65 -34.5 97t-79.5 40l28 69q230 -27 230 -260q0 -55 -27 -149t-36.5 -131.5 t-21.5 -108.5t-12 -133q0 -18 4.5 -36t16 -40.5t39 -38t67.5 -18.5l-20 -84q-48 -3 -88.5 -25t-70 -59.5t-52 -77.5t-39 -93t-26.5 -91t-19 -86q-29 -151 -60 -223q-97 -228 -362 -260z" />
<glyph unicode="~" horiz-adv-x="1232" d="M246 518q24 93 103.5 161.5t178.5 68.5q67 0 209.5 -47.5t180.5 -47.5q85 0 131 95h61q-57 -124 -114 -177t-140 -53q-54 0 -87 10t-52.5 24t-43.5 28t-76 24t-134 10q-50 0 -95.5 -28t-60.5 -68h-61z" />
<glyph unicode="&#xa9;" horiz-adv-x="1769" d="M205 717q0 151 59 289t159 238t238 159t289 59t289 -59t238 -159t159.5 -238t59.5 -289t-59.5 -289t-159.5 -238t-238 -159.5t-289 -59.5t-289 59.5t-238 159.5t-159 238t-59 289zM287 717q0 -136 52 -259t140.5 -211.5t211.5 -141t259 -52.5q182 0 334.5 88.5t241 241 t88.5 334.5q0 136 -52.5 259t-141 211.5t-211.5 140.5t-259 52t-259 -52t-211.5 -140.5t-140.5 -211.5t-52 -259zM524 715q0 84 27.5 162t80.5 143t140.5 104t196.5 39q122 0 229 -51v35h45l17 -227h-46l-4 53q-26 69 -97.5 107t-147.5 38q-51 0 -100.5 -24.5t-92 -72 t-68.5 -127.5t-26 -181t27 -178t72 -120.5t98.5 -65t113.5 -21.5q186 0 271 202l45 -14q-99 -246 -355 -246q-103 0 -186 38t-134.5 101.5t-78.5 142t-27 163.5z" />
<glyph unicode="&#xab;" d="M141 473q378 211 725 473l25 -37l-496 -436l307 -440l-36 -33q-237 262 -525 473zM547 473q247 157 467 338l24 -33l-309 -305l178 -309l-37 -29q-133 157 -186 209q-52 53 -137 129z" />
<glyph unicode="&#xad;" horiz-adv-x="819" d="M205 489v123h491v-123h-491z" />
<glyph unicode="&#xae;" horiz-adv-x="1769" d="M205 717q0 151 59 289t159 238t238 159t289 59t289 -59t238 -159t159.5 -238t59.5 -289t-59.5 -289t-159.5 -238t-238 -159.5t-289 -59.5t-289 59.5t-238 159.5t-159 238t-59 289zM287 717q0 -136 52 -259t140.5 -211.5t211.5 -141t259 -52.5q182 0 334.5 88.5t241 241 t88.5 334.5q0 136 -52.5 259t-141 211.5t-211.5 140.5t-259 52t-259 -52t-211.5 -140.5t-140.5 -211.5t-52 -259zM582 287v45h69q8 0 14.5 1.5t15 6t13 16.5t4.5 31v660q0 19 -4.5 31t-13 16.5t-15 6t-14.5 1.5h-69v45h340q36 0 62.5 -1t68 -5.5t71.5 -12.5t64 -24.5 t55.5 -39t36 -57.5t14.5 -79q0 -58 -27 -103t-71.5 -72t-97 -40.5t-107.5 -12.5v-8q203 -55 291 -305q1 -1 4 -9t5 -13.5t7 -14t10 -13.5t12 -9t15 -4q7 0 11 2v-45q-29 -11 -50 -11q-34 0 -65 16t-52.5 37.5t-43.5 56.5t-34 60t-28 62t-22 49q-30 64 -80.5 102t-139.5 41 v-307q0 -55 48 -55h69v-45h-366zM831 739q47 -8 101 -8q65 0 110 19t66.5 50.5t30 62t8.5 65.5q0 29 -9 56.5t-30.5 55.5t-66 45t-107.5 17q-54 0 -103 -15v-348z" />
<glyph unicode="&#xbb;" d="M141 168l310 305l-179 309l37 29q82 -96 111.5 -129.5t81.5 -86t131 -122.5q-247 -157 -467 -338zM289 37l495 436l-307 440l37 33q239 -264 524 -473q-378 -211 -725 -473z" />
<glyph unicode="&#x401;" horiz-adv-x="1202" d="M0 0l14 57h97q21 0 37 4.5t35 26.5t28 62l283 1134q6 22 6.5 38t-4 26t-10 16t-15 8.5t-15.5 3t-16 0.5h-116l14 58h967l-72 -291h-66l15 59q12 46 -28.5 82.5t-107 55t-127 27.5t-104.5 9h-31q-81 0 -102 -94l-125 -500h92q77 0 135 9t88 21t50 30.5t25 29.5t9 27l15 51 h65l-98 -393h-66l13 51q10 23 0.5 49.5t-49.5 42.5q-62 25 -201 25h-92l-144 -575q-5 -19 -5 -34.5t3 -25t9.5 -16.5t12 -10t14.5 -5t12.5 -2h9.5h28q48 0 129 15t168.5 40.5t157.5 68t84 89.5l14 47h66l-107 -317h-995zM522 1659q0 51 36 87t87 36t87 -36t36 -87t-36 -87 t-87 -36t-87 36t-36 87zM985 1659q0 51 36 87t87 36t87 -36t36 -87t-36 -87t-87 -36t-87 36t-36 87z" />
<glyph unicode="&#x402;" horiz-adv-x="1585" d="M188 0l15 57h96q80 0 102 93l295 1187q10 39 -73 39q-61 0 -127.5 -24t-122.5 -73t-72 -110l-14 -55h-66l80 320h1077l-80 -320h-65l10 53q15 79 -61.5 144t-223.5 65q-64 0 -73 -39l-123 -497q199 59 342 59q175 0 277 -89t102 -259q0 -112 -47 -218t-121 -182 t-169 -121.5t-188 -45.5q-108 0 -180.5 46t-72.5 128q0 60 34 99.5t90 39.5q43 0 67 -29.5t24 -72.5q0 -30 -19 -52q-4 -5 -11.5 -12.5t-12.5 -14t-5 -12.5q0 -24 24 -43.5t65 -19.5q66 0 126.5 54t101.5 135.5t65 175t24 174.5q0 113 -60.5 181t-168.5 68q-65 0 -151.5 -15 t-152.5 -36l-192 -778h-365z" />
<glyph unicode="&#x403;" horiz-adv-x="1064" d="M0 0l14 57h97q77 0 96 78l293 1172q8 35 -12 52t-48 17h-116l14 58h932l-72 -291h-65l14 59q13 53 -42 94.5t-134 60.5t-156 19h-31q-81 0 -102 -94l-289 -1157q-3 -5 -1.5 -16.5t5.5 -23t19 -20t39 -8.5h157l-14 -57h-598zM616 1616l357 248q4 3 14.5 10t17 11t16 9 t19 7t19.5 2q41 0 72.5 -31t31.5 -76q0 -27 -10.5 -47t-31 -32t-33.5 -16.5t-35 -10.5l-418 -113z" />
<glyph unicode="&#x404;" horiz-adv-x="1384" d="M205 485q0 78 16.5 166.5t52 183.5t86.5 185t124.5 170.5t160 140.5t200 95.5t238.5 35.5q185 0 301 -88l17 60h65l-96 -379h-65l12 53q8 24 4 55.5t-12 64.5t-30.5 64.5t-51.5 56.5t-74 40.5t-98 15.5q-69 0 -134.5 -23.5t-117.5 -61.5t-100 -92t-83.5 -109 t-67.5 -118.5t-53 -114t-38 -102.5h229q223 0 416 33l-33 -133q-282 43 -510 43h-117q-36 -118 -36 -272q0 -183 89.5 -291.5t248.5 -108.5q261 0 501 367l54 -37q-48 -72 -92 -128t-103 -112t-120 -92.5t-138 -59t-162 -22.5q-117 0 -210.5 41t-152 112t-89.5 163t-31 198z " />
<glyph unicode="&#x407;" horiz-adv-x="751" d="M0 0l14 57h97q21 0 37 4.5t35 26.5t28 62l283 1134q6 22 6.5 38t-4 26t-10 16t-15 8.5t-15.5 3t-16 0.5h-116l14 58h557l-14 -58h-97q-81 0 -102 -92l-283 -1134q-9 -27 -4.5 -44.5t9.5 -27t17.5 -14.5t19 -6t14.5 -1h116l-14 -57h-557zM338 1659q0 51 36 87t87 36 t87 -36t36 -87t-36 -87t-87 -36t-87 36t-36 87zM719 1659q0 51 36 87t87 36t87 -36t36 -87t-36 -87t-87 -36t-87 36t-36 87z" />
<glyph unicode="&#x408;" horiz-adv-x="751" d="M-416 -295q0 56 33 96.5t90 40.5q52 0 80.5 -31.5t28.5 -74.5q0 -19 -11 -45q-14 -33 -14 -41q0 -51 55 -51q97 0 193.5 123.5t159.5 375.5l295 1186q25 92 -54 92h-116l14 58h557l-14 -58h-97q-78 0 -102 -92l-264 -1065q-6 -23 -11 -43t-22 -71t-35.5 -94t-49.5 -103.5 t-64.5 -108t-81.5 -98t-100.5 -84t-120.5 -55t-142 -21.5q-99 0 -153 48t-54 116z" />
<glyph unicode="&#x409;" horiz-adv-x="1998" d="M-41 145q0 66 38 103t87 37q44 0 67 -29.5t23 -73.5q0 -29 -16 -51q-2 -2 -6.5 -7t-7 -8t-5.5 -7.5t-4.5 -8.5t-1.5 -8q0 -33 51 -33q34 0 69.5 38.5t91.5 151.5t134 312q64 162 159 430t95 320q0 27 -16.5 42.5t-31.5 19t-30 3.5h-135l15 58h1005l-14 -58h-96 q-82 0 -103 -92l-108 -438q103 20 217 20q137 0 235 -31t149.5 -84.5t74 -113t22.5 -129.5q0 -39 -6.5 -80t-26 -92t-50.5 -97t-84 -90.5t-122 -76.5t-170.5 -52t-222.5 -20h-590l14 57h97q21 0 37 4.5t35 26.5t28 62l283 1134q25 92 -54 92h-86q-111 0 -141 -34.5 t-102 -245.5q-62 -179 -109 -308q-43 -114 -65 -172.5t-59.5 -153t-61 -143t-58.5 -115.5t-63 -101t-63 -69t-71 -49t-75 -14q-70 0 -121 45.5t-51 128.5zM1034 104q96 -47 191 -47q206 0 346.5 134.5t140.5 330.5q0 63 -16.5 112t-45.5 78.5t-60.5 49t-72 28.5t-69 12 t-59.5 3q-88 0 -185 -17z" />
<glyph unicode="&#x40a;" horiz-adv-x="2162" d="M0 0l14 57h97q21 0 37 4.5t35 26.5t28 62l283 1134q6 22 6.5 38t-4 26t-10 16t-15 8.5t-15.5 3t-16 0.5h-116l14 58h557l-14 -58h-97q-77 0 -102 -92l-117 -467h621l117 467q6 22 6.5 38t-4 26t-10 16t-15 8.5t-15.5 3t-16 0.5h-116l14 58h557l-14 -58h-97 q-81 0 -102 -92l-109 -438q103 20 217 20q110 0 196 -21t139 -55t87 -82t47 -96.5t13 -103.5q0 -39 -6.5 -80t-26 -92t-50.5 -97t-84 -90.5t-122 -76.5t-170.5 -52t-222.5 -20h-590l14 57h97q21 0 37 4.5t35 26.5t28 62l151 610h-620l-152 -610q-22 -93 56 -93h116l-14 -57 h-557zM1198 104q96 -47 191 -47q206 0 346.5 134.5t140.5 330.5q0 75 -25 130t-59 83.5t-82.5 45t-83.5 20.5t-74 4q-87 0 -184 -17z" />
<glyph unicode="&#x40b;" horiz-adv-x="1533" d="M188 0l15 57h96q80 0 102 93l295 1187q10 39 -73 39q-113 0 -206.5 -61.5t-115.5 -145.5l-14 -55h-66l80 320h1077l-80 -320h-65l10 53q18 90 -67 149.5t-218 59.5q-64 0 -73 -39l-142 -573q181 86 365 86q76 0 133 -15t88 -36.5t50 -52.5t24.5 -56t5.5 -53 q0 -43 -12 -86l-101 -401q-26 -93 54 -93h96l-14 -57h-517l15 57h76q80 0 102 93l102 415q13 54 13 92q0 61 -45 89t-119 28q-77 0 -169 -18t-161 -49l-139 -557q-26 -93 53 -93h76l-14 -57h-517z" />
<glyph unicode="&#x40c;" horiz-adv-x="1402" d="M0 0l14 57h97q15 0 25.5 2t26 10t28 28.5t20.5 52.5l283 1134q6 22 6.5 38t-4 26t-10 16t-15 8.5t-15.5 3t-16 0.5h-116l14 58h557l-14 -58h-97q-81 0 -102 -92l-119 -479h99q84 0 157 66.5t199 265.5q32 50 47.5 73t46 65t49.5 62.5t49.5 49t56 42t58 23.5t66.5 10 q44 0 71.5 -20.5t35 -41.5t7.5 -40q0 -56 -31.5 -94.5t-82.5 -38.5q-40 0 -64 20.5t-24 46.5q0 23 2 35q3 13 0 25q-3 14 -21 14q-15 0 -31.5 -14.5t-35.5 -46t-31 -54.5t-33 -65q-94 -191 -187 -284.5t-190 -125.5l-4 -10q70 -10 124.5 -45t89 -82t60 -117.5t39 -134 t25.5 -149.5q14 -111 24 -140q15 -41 42 -41q26 0 56 27t36 64h55q-23 -88 -84 -133.5t-129 -45.5q-48 0 -85.5 22.5t-63 63.5t-44 90.5t-33 113t-25 120.5t-24.5 123t-28 112q-20 65 -57 98.5t-103 33.5h-98l-150 -598q-22 -93 56 -93h116l-14 -57h-557zM786 1616l357 248 q4 3 14.5 10t17 11t16 9t19 7t19.5 2q41 0 72.5 -31t31.5 -76q0 -27 -10.5 -47t-31 -32t-33.5 -16.5t-35 -10.5l-418 -113z" />
<glyph unicode="&#x40e;" horiz-adv-x="1323" d="M176 145q0 66 37.5 103t87.5 37q42 0 66 -29.5t24 -73.5q0 -30 -18 -51l-11.5 -11.5t-13 -15t-4.5 -12.5q0 -19 18 -36t60 -17q25 0 54 11.5t67.5 38.5t83 83.5t88.5 136.5l-283 963q-17 55 -47.5 79.5t-81.5 24.5h-43l14 58h541l-14 -58h-107q-29 0 -44.5 -22.5 t-8.5 -44.5l215 -768l334 565q92 155 92 217q0 19 -5 31t-16 16.5t-17 5t-19 0.5h-105l15 58h393l-15 -58q-56 6 -103.5 -43t-123.5 -180l-518 -893q-168 -289 -399 -289q-88 0 -140.5 49t-52.5 125zM735 1677q0 52 34 93.5t99 41.5q55 0 89 -28.5t34 -77.5q0 -23 -4 -43 t-4 -29q0 -18 17.5 -34.5t52.5 -16.5q57 0 129.5 49.5t152.5 159.5l39 -33q-181 -243 -381 -243q-128 0 -193 48t-65 113z" />
<glyph unicode="&#x40f;" horiz-adv-x="1542" d="M0 0l14 57h97q80 0 102 93l283 1134q8 26 4.5 43t-7.5 26.5t-15 14.5t-19 6.5t-19 1.5h-116l14 58h557l-14 -58h-97q-21 0 -37 -4.5t-35 -26t-28 -61.5l-283 -1134q-9 -27 -6 -44.5t6.5 -27t15.5 -14.5t19.5 -6t18.5 -1h446q81 0 103 93l282 1134q8 26 5 43t-7 26.5 t-15 14.5t-19 6.5t-19 1.5h-117l14 58h558l-15 -58h-96q-21 0 -37 -4.5t-35 -26t-28 -61.5l-283 -1134q-9 -27 -6 -44.5t6.5 -27t15 -14.5t19 -6t18.5 -1h117l-14 -57h-629l-21 -272q-7 -96 -38 -127t-93 -31q-90 0 -90 65q0 32 25 91l127 274h-629z" />
<glyph unicode="&#x410;" horiz-adv-x="1386" d="M-61 0l14 57h18q23 0 51 18t75.5 67.5t122 154.5t171.5 262l559 903h56l141 -1280q3 -28 7 -45t14.5 -38t33 -31.5t55.5 -10.5h25l-14 -57h-494l14 57h82q75 0 91.5 44.5t-0.5 170.5l-31 287h-465l-78 -127q-29 -49 -64.5 -102t-52.5 -78.5t-29 -52t-12 -47.5 q0 -48 7 -71.5t30 -23.5h103l-15 -57h-415zM500 616h426l-66 590z" />
<glyph unicode="&#x411;" horiz-adv-x="1345" d="M0 0l14 57h97q15 0 25.5 2t26 10t28 28.5t20.5 52.5l283 1134q6 22 6.5 38t-4 26t-10 16t-15 8.5t-15.5 3t-16 0.5h-116l14 58h987l-72 -291h-65l14 59q12 46 -30.5 82.5t-112 55t-133.5 27.5t-111 9h-31q-81 0 -102 -94l-113 -453q100 25 205 25q93 0 168 -21t125 -56.5 t83.5 -86t48.5 -107.5t15 -122q0 -71 -23 -137t-73 -125t-121 -103t-174.5 -70t-226.5 -26h-596zM389 109q-3 -15 4 -26t33 -18.5t72 -7.5h88q179 0 300.5 124t121.5 315q0 301 -281 301q-93 0 -172 -25z" />
<glyph unicode="&#x412;" horiz-adv-x="1347" d="M0 0l14 57h97q15 0 25.5 2t26 10t28 28.5t20.5 52.5l285 1136q23 90 -60 90h-112l14 58h569q75 0 135 -12.5t98.5 -32t67 -48t43.5 -54.5t23 -58.5t10 -53.5t2 -45q0 -81 -34 -146t-90.5 -104t-119.5 -61t-131 -28l-2 -9q41 -4 81 -16t82.5 -38t74 -63t52 -94.5 t20.5 -128.5q0 -84 -35 -161.5t-102.5 -141t-178.5 -101.5t-250 -38h-653zM389 106q71 -49 178 -49q80 0 159 28t143.5 79.5t104.5 132t40 176.5q0 129 -80 205t-234 76h-151zM565 815h154h24.5t39.5 3t52 8t56 17t59 28t53 42.5t45.5 59t29.5 79.5t12 103q0 35 -11 69 t-37 70.5t-80 59t-128 22.5q-10 0 -19.5 -0.5t-32.5 -6.5t-41 -16t-36.5 -33t-26.5 -54z" />
<glyph unicode="&#x413;" horiz-adv-x="1064" d="M0 0l14 57h97q77 0 96 78l291 1172q4 23 0.5 36.5t-16.5 21t-23 9.5t-19 2h-116l14 58h932l-72 -291h-65l14 59q13 53 -42 94.5t-134 60.5t-156 19h-31q-82 0 -104 -94l-287 -1157q-3 -5 -1.5 -16.5t5.5 -23t19 -20t39 -8.5h157l-14 -57h-598z" />
<glyph unicode="&#x414;" horiz-adv-x="1413" d="M-143 -315l92 372q56 8 102.5 33.5t90 68t92.5 120t98.5 170.5t120.5 239q34 70 78.5 168t99.5 245t55 202q0 21 -8 36t-18 22t-27 10.5t-26 4t-25 0.5h-90l14 58h1030l-14 -58h-97q-81 0 -102 -92l-283 -1134q-22 -93 56 -93h157l-92 -372h-65l18 79q13 56 -43 110.5 t-163.5 90t-231.5 35.5h-299q-165 0 -288 -70.5t-148 -171.5l-19 -73h-65zM233 106q0 -18 7.5 -29t23 -15t23.5 -4.5t26 -0.5h439q12 0 20.5 1t21.5 6t22.5 14.5t19 27.5t16.5 44l283 1134q9 27 6 44.5t-6.5 27t-15 14t-18.5 5.5t-18 1h-163q-33 0 -57 -12.5t-41.5 -34 t-39.5 -71t-42.5 -101t-60.5 -148t-83 -190.5q-77 -168 -144.5 -302t-105.5 -200t-65.5 -112t-37.5 -65t-10 -34z" />
<glyph unicode="&#x415;" horiz-adv-x="1202" d="M0 0l14 57h97q21 0 37 4.5t35 26.5t28 62l283 1134q6 22 6.5 38t-4 26t-10 16t-15 8.5t-15.5 3t-16 0.5h-116l14 58h967l-72 -291h-66l15 59q12 46 -28.5 82.5t-107 55t-127 27.5t-104.5 9h-31q-81 0 -102 -94l-125 -500h92q77 0 135 9t88 21t50 30.5t25 29.5t9 27l15 51 h65l-98 -393h-66l13 51q10 23 0.5 49.5t-49.5 42.5q-62 25 -201 25h-92l-144 -575q-5 -19 -5 -34.5t3 -25t9.5 -16.5t12 -10t14.5 -5t12.5 -2h9.5h28q48 0 129 15t168.5 40.5t157.5 68t84 89.5l14 47h66l-107 -317h-995z" />
<glyph unicode="&#x416;" horiz-adv-x="1998" d="M-41 113q0 13 4 37h57q-6 -18 -6 -35q0 -24 12.5 -40t30.5 -16q27 0 56.5 40t82.5 132q2 3 3 5l2 4q66 115 134.5 205t128 146.5t122.5 96t113 58t104 28.5l4 10q-95 16 -150.5 107.5t-66.5 286.5q0 5 -1.5 40.5t-4 53.5t-8 44.5t-16.5 39t-28 12.5q-10 0 -14.5 -5.5 t-5 -11.5t-1 -18.5t-1.5 -19.5q-5 -35 -33.5 -60.5t-79.5 -25.5q-42 0 -66 26.5t-24 71.5q0 68 48.5 102.5t115.5 34.5q46 0 81.5 -20t56 -42.5t39 -73t25 -77t19.5 -88.5l3 -13.5t2.5 -11t2.5 -12.5q40 -195 83 -257t141 -62h67l119 479q25 92 -53 92h-117l14 58h557 l-14 -58h-96q-82 0 -103 -92l-118 -479h67q44 0 75 9.5t73.5 42t94.5 100t124 180.5q32 50 47.5 73t46 65t49.5 62.5t49.5 49t56 42t58 23.5t66.5 10q44 0 71.5 -20.5t35 -41.5t7.5 -40q0 -56 -31.5 -94.5t-82.5 -38.5q-40 0 -64.5 21t-24.5 46q0 17 3 35q3 13 0 25 q-3 14 -21 14q-15 0 -31.5 -14.5t-35.5 -46t-31 -54.5t-33 -65q-94 -191 -187 -284.5t-190 -125.5l-4 -10q147 -24 223.5 -155t102.5 -373q10 -99 23 -132q19 -49 55 -49q30 0 58.5 29t33.5 62h55q-23 -88 -84 -133.5t-129 -45.5q-50 0 -89 24t-62 52t-43.5 86t-28 90 t-20.5 99q-2 7 -2.5 11.5t-2 11t-2.5 11.5q-5 24 -13.5 70t-13 68t-13 59.5t-16 56t-19.5 45.5t-25.5 40.5t-31.5 27.5t-40.5 19.5t-50.5 5.5h-68l-149 -598q-5 -19 -5.5 -34.5t2.5 -25t9.5 -16.5t12 -10t14.5 -5t12.5 -2h9.5h117l-14 -57h-558l15 57h96q21 0 37 4.5 t35 26.5t28 62l150 598h-78q-40 0 -78 -18t-66.5 -42t-64 -69t-57.5 -78.5t-59 -92.5t-58 -90q-16 -24 -44.5 -68t-45 -70t-44 -64t-47.5 -60.5t-48.5 -49t-54 -41t-57 -24.5t-64.5 -10q-47 0 -79.5 14t-47 37.5t-20 44.5t-5.5 46z" />
<glyph unicode="&#x417;" horiz-adv-x="1167" d="M41 236q0 81 35.5 128.5t99.5 47.5q57 0 80 -36t23 -81q0 -20 -25 -68q-3 -6 -11 -18.5t-12 -22.5t-4 -20q0 -21 8 -42.5t25 -44t52 -36.5t83 -14q79 0 147.5 28t117.5 75t84 108t52 128t17 134q0 104 -57.5 166.5t-163.5 62.5q-78 0 -162 -31l25 101q61 -13 139 -13 q145 0 236.5 91t91.5 254q0 126 -47 197t-144 71q-113 0 -219 -92t-137 -230h-66l90 355h66l-16 -66q131 90 301 90h29t40.5 -2.5t51 -7t53.5 -14t55 -23t48.5 -35t41.5 -48t26.5 -65t10.5 -83.5q0 -64 -17 -125t-52.5 -118.5t-98.5 -102.5t-147 -68l-3 -8 q103 -12 166.5 -88t63.5 -189q0 -139 -83 -256.5t-227.5 -185.5t-316.5 -68q-166 0 -258 76t-92 189z" />
<glyph unicode="&#x418;" horiz-adv-x="1585" d="M0 0l14 57h97q21 0 37 4.5t35 26.5t28 62l283 1134q6 22 6.5 38t-4 26t-10 16t-15 8.5t-15.5 3t-16 0.5h-116l14 58h557l-14 -58h-97q-81 0 -102 -92l-246 -989l889 983l8 31q8 33 -12 50t-47 17h-117l14 58h558l-15 -58h-96q-81 0 -102 -92l-283 -1134q-22 -93 55 -93 h117l-14 -57h-557l14 57h96q21 0 37 4.5t35 26.5t28 62l248 995l-891 -989l-8 -31q-3 -5 -1.5 -16.5t5.5 -23t19 -20t39 -8.5h116l-14 -57h-557z" />
<glyph unicode="&#x419;" horiz-adv-x="1585" d="M0 0l14 57h97q21 0 37 4.5t35 26.5t28 62l283 1134q6 22 6.5 38t-4 26t-10 16t-15 8.5t-15.5 3t-16 0.5h-116l14 58h557l-14 -58h-97q-81 0 -102 -92l-246 -989l889 983l8 31q8 33 -12 50t-47 17h-117l14 58h558l-15 -58h-96q-81 0 -102 -92l-283 -1134q-22 -93 55 -93 h117l-14 -57h-557l14 57h96q21 0 37 4.5t35 26.5t28 62l248 995l-891 -989l-8 -31q-3 -5 -1.5 -16.5t5.5 -23t19 -20t39 -8.5h116l-14 -57h-557zM784 1677q0 52 34.5 93.5t99.5 41.5q55 0 88.5 -28.5t33.5 -77.5q0 -23 -4 -43t-4 -29q0 -18 17.5 -34.5t52.5 -16.5 q57 0 129.5 49.5t152.5 159.5l39 -33q-181 -243 -381 -243q-128 0 -193 48t-65 113z" />
<glyph unicode="&#x41a;" horiz-adv-x="1402" d="M0 0l14 57h97q15 0 25.5 2t26 10t28 28.5t20.5 52.5l283 1134q6 22 6.5 38t-4 26t-10 16t-15 8.5t-15.5 3t-16 0.5h-116l14 58h557l-14 -58h-97q-81 0 -102 -92l-119 -479h99q84 0 157 66.5t199 265.5q32 50 47.5 73t46 65t49.5 62.5t49.5 49t56 42t58 23.5t66.5 10 q44 0 71.5 -20.5t35 -41.5t7.5 -40q0 -56 -31.5 -94.5t-82.5 -38.5q-40 0 -64 20.5t-24 46.5q0 23 2 35q3 13 0 25q-3 14 -21 14q-15 0 -31.5 -14.5t-35.5 -46t-31 -54.5t-33 -65q-94 -191 -187 -284.5t-190 -125.5l-4 -10q70 -10 124.5 -45t89 -82t60 -117.5t39 -134 t25.5 -149.5q14 -111 24 -140q15 -41 42 -41q26 0 56 27t36 64h55q-23 -88 -84 -133.5t-129 -45.5q-46 0 -81.5 20.5t-56 42.5t-42 82t-29.5 90t-27 116q-5 23 -8 34q-8 35 -18.5 89t-17 84.5t-17.5 71t-24 62.5t-32.5 44t-46.5 31.5t-63 9.5h-98l-150 -598q-22 -93 56 -93 h116l-14 -57h-557z" />
<glyph unicode="&#x41b;" horiz-adv-x="1396" d="M-41 145q0 66 38 103t87 37q44 0 67 -29.5t23 -73.5q0 -30 -16 -51q-2 -2 -6.5 -7t-7 -8t-5.5 -7.5t-4.5 -8.5t-1.5 -8q0 -12 13.5 -22.5t37.5 -10.5q34 0 72 43.5t98.5 166.5t141.5 333q46 116 133.5 374.5t87.5 326.5q0 25 -10 41t-28 22t-32.5 8t-34.5 2h-90l15 58 h1003l-14 -58h-96q-82 0 -103 -92l-283 -1134q-22 -93 56 -93h117l-15 -57h-557l14 57h97q21 0 37 4.5t35 26.5t28 62l283 1134q25 92 -54 92h-86q-111 0 -141 -34.5t-102 -245.5q-62 -179 -109 -308q-43 -114 -65 -172.5t-59.5 -153t-61 -143t-58.5 -115.5t-63 -101 t-63 -69t-71 -49t-75 -14q-70 0 -121 45.5t-51 128.5z" />
<glyph unicode="&#x41c;" horiz-adv-x="1839" d="M0 0l14 57h39q50 0 92 45t78 143.5t54 162.5t49 191q5 22 8 32l162 643q7 28 7 48t-4 30.5t-14.5 16t-19 6.5t-21.5 1h-104l14 58h357l186 -1151l729 1151h356l-14 -58h-96q-28 0 -48 -7.5t-30.5 -23t-15 -28t-9.5 -33.5l-282 -1134q-9 -27 -6 -44.5t6.5 -27t15 -14.5 t19.5 -6t20 -1h117l-14 -57h-558l15 57h96q42 0 64.5 20t35.5 73l263 1050l-764 -1200h-54l-188 1219l-152 -609q-27 -103 -50 -229.5t-23 -194.5q0 -18 3 -36t11 -41t27 -37.5t47 -14.5h39l-15 -57h-442z" />
<glyph unicode="&#x41d;" horiz-adv-x="1560" d="M0 0l14 57h97q21 0 37 4.5t35 26.5t28 62l283 1134q6 22 6.5 38t-4 26t-10 16t-15 8.5t-15.5 3t-16 0.5h-116l14 58h557l-14 -58h-97q-77 0 -102 -92l-127 -508h621l127 508q6 22 6.5 38t-4 26t-10 16t-15 8.5t-15.5 3t-16 0.5h-116l14 58h557l-14 -58h-97 q-81 0 -102 -92l-283 -1134q-22 -93 56 -93h116l-14 -57h-557l14 57h97q21 0 37 4.5t35 26.5t28 62l141 569h-620l-142 -569q-22 -93 56 -93h116l-14 -57h-557z" />
<glyph unicode="&#x41e;" horiz-adv-x="1566" d="M205 518q0 224 103 446.5t284 356.5q99 74 197 107.5t215 33.5q108 0 196.5 -30t148 -81t100 -121t59 -148t18.5 -164q0 -140 -40.5 -284t-130 -285.5t-216.5 -237.5q-184 -140 -410 -140q-45 0 -90 5.5t-98 21.5t-99.5 41.5t-91 68.5t-76 98t-50.5 135.5t-19 176.5z M410 510q0 -133 27 -230t74 -150t102 -77t120 -24q153 0 290 127t217.5 332t80.5 427q0 180 -34 280q-73 209 -292 210q-99 0 -191 -55t-162 -147t-123.5 -207t-81 -241.5t-27.5 -244.5z" />
<glyph unicode="&#x41f;" horiz-adv-x="1521" d="M0 0l14 57h97q21 0 37 4.5t35 26.5t28 62l283 1134q6 22 6.5 38t-4 26t-10 16t-15 8.5t-15.5 3t-16 0.5h-116l14 58h1327l-14 -58h-97q-81 0 -102 -92l-283 -1134q-22 -93 56 -93h116l-14 -57h-557l14 57h97q21 0 37 4.5t35 26.5t28 62l283 1134q6 22 6.5 38t-4 26 t-10 16t-15 8.5t-15.5 3t-16 0.5h-426q-81 0 -102 -92l-283 -1134q-22 -93 56 -93h116l-14 -57h-557z" />
<glyph unicode="&#x420;" horiz-adv-x="1228" d="M0 0l14 57h97q21 0 37 4.5t35 26.5t28 62l283 1134q25 92 -54 92h-118l14 58h524q208 0 329.5 -106.5t121.5 -266.5q0 -95 -36.5 -176.5t-109 -145.5t-192 -100.5t-275.5 -36.5q-81 0 -182 16l-117 -468q-5 -19 -5 -34.5t3 -25t9.5 -16.5t12 -10t14.5 -5t12.5 -2h9.5h157 l-14 -57h-598zM532 680q70 -21 146 -21q194 0 311 113t117 309q0 136 -63 215.5t-179 79.5q-92 0 -170 -45z" />
<glyph unicode="&#x421;" horiz-adv-x="1384" d="M205 485q0 78 16.5 166.5t52 183.5t86.5 185t124.5 170.5t160 140.5t200 95.5t238.5 35.5q185 0 301 -88l17 60h65l-96 -379h-65l12 53q8 24 4 55.5t-12 64.5t-30.5 64.5t-51.5 56.5t-74 40.5t-98 15.5q-90 0 -176.5 -42t-156 -113t-129 -165.5t-99 -200t-62 -216.5 t-22.5 -213q0 -182 90 -291t248 -109q261 0 501 367l54 -37q-48 -72 -92 -128t-103 -112t-120 -92.5t-138 -59t-162 -22.5q-117 0 -210.5 41t-152 112t-89.5 163t-31 198z" />
<glyph unicode="&#x422;" horiz-adv-x="1173" d="M188 1114l80 320h1118l-79 -320h-66l10 53q10 53 -11 93.5t-56.5 61.5t-83 34t-79 16.5t-54.5 3.5q-13 0 -19.5 -0.5t-20.5 -3.5t-22 -12t-12 -23l-295 -1187q-22 -93 55 -93h117l-14 -57h-557l14 57h96q15 0 25.5 2t26.5 10t28.5 28.5t20.5 52.5l295 1187q0 3 1 8 t-2.5 10t-10 10t-23 8t-39.5 3q-66 0 -142.5 -25.5t-140.5 -74.5t-80 -107l-14 -55h-66z" />
<glyph unicode="&#x423;" horiz-adv-x="1323" d="M176 145q0 66 37.5 103t87.5 37q42 0 66 -29.5t24 -73.5q0 -30 -18 -51q-3 -3 -11.5 -11t-13 -14.5t-4.5 -13.5q0 -53 78 -53q147 0 293 270l-283 963q-17 55 -47.5 79.5t-81.5 24.5h-43l14 58h541l-14 -58h-107q-29 0 -44.5 -22.5t-8.5 -44.5l215 -768l334 565 q92 155 92 217q0 19 -5 31t-16 16.5t-17 5t-19 0.5h-105l15 58h393l-15 -58q-56 6 -103.5 -43t-123.5 -180l-518 -893q-168 -289 -399 -289q-88 0 -140.5 49t-52.5 125z" />
<glyph unicode="&#x424;" horiz-adv-x="1894" d="M205 645q0 191 96.5 344.5t269.5 240.5t390 87h112l12 49q25 92 -53 92h-117l15 58h557l-14 -58h-97q-77 0 -102 -92l-12 -49h112q116 0 204 -29t139 -73.5t83 -106.5t42.5 -117.5t10.5 -116.5q0 -91 -25.5 -181.5t-85.5 -180.5t-148.5 -158.5t-226 -111.5t-306.5 -43 h-78l-12 -49q-5 -19 -5.5 -34.5t2.5 -25t9.5 -16.5t12 -10t14.5 -5t12.5 -2h9.5h117l-15 -57h-557l15 57h96q21 0 37 4.5t35 26.5t28 62l13 49h-76q-30 0 -56 1t-66.5 6t-75 13.5t-75.5 25t-74 39t-65 56.5t-53.5 76.5t-35 101t-13.5 127.5zM410 645q0 -79 18 -147t55 -123 t100 -87t146 -32h80l250 1004h-64q-134 0 -247 -53.5t-185.5 -141t-112.5 -196.5t-40 -224zM997 256h82q112 0 216.5 48.5t182.5 131t124.5 199t46.5 246.5q0 181 -86.5 280t-249.5 99h-66z" />
<glyph unicode="&#x425;" horiz-adv-x="1454" d="M-41 0l14 57q39 1 70.5 11t86.5 45t127 102.5t184.5 185.5t265.5 291l-207 510q-41 99 -88.5 137t-139.5 37l15 58h575l-14 -58h-129q-51 0 -51 -41q0 -17 18 -61l176 -430q229 254 302 352.5t73 138.5q0 41 -63 41h-99l15 58h487l-14 -58q-70 1 -143 -44.5 t-194.5 -169.5t-338.5 -378l211 -505q59 -139 99 -180.5t118 -41.5h16l-14 -57h-551l14 57h117q21 0 36 14t15 35q0 23 -10 46l-203 485q-267 -308 -329 -388q-97 -123 -97 -163q0 -10 10.5 -19.5t30.5 -9.5h111l-15 -57h-487z" />
<glyph unicode="&#x426;" horiz-adv-x="1570" d="M0 0l14 57h97q21 0 37 4.5t35 26.5t28 62l283 1134q6 22 6.5 38t-4 26t-10 16t-15 8.5t-15.5 3t-16 0.5h-116l14 58h536l-14 -58h-76q-81 0 -102 -92l-283 -1134q-22 -93 56 -93h446q76 0 100 93l283 1134q6 22 6.5 38t-4 26t-9.5 16t-14.5 8.5t-15.5 3t-16 0.5h-117 l14 58h537l-14 -58h-76q-81 0 -102 -92l-275 -1104q-4 -19 -5.5 -31t1 -31.5t13.5 -31t36 -20.5t64 -9h125l-93 -372h-65l26 106q9 32 -17.5 69t-78 68t-134 51.5t-175.5 20.5h-895z" />
<glyph unicode="&#x427;" horiz-adv-x="1413" d="M266 1376l15 58h516l-15 -58h-75q-28 0 -48 -9t-31 -26.5t-15 -28t-9 -28.5l-102 -416q-6 -27 -6 -55q0 -40 13 -70t31.5 -46t46.5 -25.5t51.5 -12t53.5 -2.5q77 0 165.5 19.5t158.5 50.5l139 557q25 92 -53 92h-76l14 58h516l-14 -58h-96q-82 0 -103 -92l-282 -1134 q-3 -23 -5 -39.5t5.5 -26.5t12.5 -15.5t15.5 -8t15 -3t11.5 -0.5h117l-14 -57h-619l14 57h158q21 0 37 4.5t35 26.5t28 62l129 520q-181 -86 -364 -86q-84 0 -147 14.5t-97.5 36.5t-56 52t-27.5 55.5t-6 54.5t10 71l103 416q25 92 -54 92h-96z" />
<glyph unicode="&#x428;" horiz-adv-x="2177" d="M0 0l14 57h97q21 0 37 4.5t35 26.5t28 62l283 1134q6 22 6.5 38t-4 26t-10 16t-15 8.5t-15.5 3t-16 0.5h-116l14 58h543l-15 -58h-82q-81 0 -102 -92l-283 -1134q-22 -93 56 -93h368q21 0 37 4.5t35.5 26.5t28.5 62l282 1134q6 22 6.5 38t-4 26t-9.5 16t-14.5 8.5 t-15.5 3t-16 0.5h-102l14 58h528l-14 -58h-82q-81 0 -102 -92l-283 -1134q-22 -93 55 -93h369q21 0 37 4.5t35 26.5t28 62l283 1134q6 22 6.5 38t-4 26t-9.5 16t-14.5 8.5t-15.5 3t-16 0.5h-103l15 58h542l-14 -58h-96q-82 0 -103 -92l-282 -1134q-22 -93 55 -93h117 l-15 -57h-1982z" />
<glyph unicode="&#x429;" horiz-adv-x="2226" d="M0 0l14 57h97q21 0 37 4.5t35 26.5t28 62l283 1134q6 22 6.5 38t-4 26t-10 16t-15 8.5t-15.5 3t-16 0.5h-116l14 58h543l-15 -58h-82q-81 0 -102 -92l-283 -1134q-22 -93 56 -93h368q21 0 37 4.5t35.5 26.5t28.5 62l282 1134q6 22 6.5 38t-4 26t-9.5 16t-14.5 8.5 t-15.5 3t-16 0.5h-102l14 58h528l-14 -58h-82q-81 0 -102 -92l-283 -1134q-22 -93 55 -93h369q21 0 37 4.5t35 26.5t28 62l283 1134q6 22 6.5 38t-4 26t-9.5 16t-14.5 8.5t-15.5 3t-16 0.5h-103l15 58h542l-14 -58h-96q-82 0 -103 -92l-274 -1104q-4 -19 -5.5 -31t1 -31.5 t13.5 -31t36 -20.5t64 -9h124l-92 -372h-65l26 106q9 32 -17.5 69t-78 68t-134 51.5t-175.5 20.5h-1530z" />
<glyph unicode="&#x42a;" horiz-adv-x="1583" d="M188 1124l103 310h854l-15 -58h-116q-82 0 -103 -92l-108 -438q103 20 217 20q137 0 235 -31t149.5 -84.5t74 -113t22.5 -129.5q0 -39 -6.5 -80t-26 -92t-50.5 -97t-84 -90.5t-122 -76.5t-170.5 -52t-222.5 -20h-610l14 57h117q15 0 25.5 2t26 10t28 28.5t20.5 52.5 l289 1159q5 15 4 27.5t-9 21.5t-32 13.5t-65 4.5q-72 0 -144.5 -23.5t-133.5 -74t-83 -117.5l-12 -37h-66zM618 104q96 -47 191 -47q206 0 346.5 134.5t140.5 330.5q0 63 -16.5 112t-45.5 78.5t-60.5 49t-72 28.5t-69 12t-59.5 3q-88 0 -185 -17z" />
<glyph unicode="&#x42b;" horiz-adv-x="2041" d="M0 0l14 57h117q21 0 37 4.5t35 26.5t28 62l283 1134q6 22 6.5 38t-4 26t-9.5 16t-14.5 8.5t-15.5 3t-16 0.5h-117l14 58h578l-14 -58h-117q-82 0 -103 -92l-108 -438q103 20 217 20q137 0 235 -31t149.5 -84.5t74 -113t22.5 -129.5q0 -39 -6.5 -80t-26 -92t-50.5 -97 t-84 -90.5t-122 -76.5t-170.5 -52t-222.5 -20h-610zM410 104q96 -47 190 -47q206 0 346.5 134.5t140.5 330.5q0 63 -16.5 112t-45.5 78.5t-60.5 49t-72 28.5t-69 12t-59.5 3q-87 0 -184 -17zM1249 0l15 57h116q21 0 37 4.5t35.5 26.5t28.5 62l282 1134q6 22 6.5 38t-4 26 t-9.5 16t-14.5 8.5t-15.5 3t-16 0.5h-117l15 58h577l-14 -58h-117q-81 0 -102 -92l-283 -1134q-22 -93 55 -93h117l-14 -57h-578z" />
<glyph unicode="&#x42c;" horiz-adv-x="1374" d="M0 0l14 57h117q21 0 37 4.5t35 26.5t28 62l283 1134q6 22 6.5 38t-4 26t-9.5 16t-14.5 8.5t-15.5 3t-16 0.5h-117l14 58h578l-14 -58h-117q-82 0 -103 -92l-108 -438q103 20 217 20q137 0 235 -31t149.5 -84.5t74 -113t22.5 -129.5q0 -39 -6.5 -80t-26 -92t-50.5 -97 t-84 -90.5t-122 -76.5t-170.5 -52t-222.5 -20h-610zM410 104q96 -47 190 -47q206 0 346.5 134.5t140.5 330.5q0 63 -16.5 112t-45.5 78.5t-60.5 49t-72 28.5t-69 12t-59.5 3q-87 0 -184 -17z" />
<glyph unicode="&#x42d;" horiz-adv-x="1347" d="M61 236q0 80 36.5 128t99.5 48q57 0 79.5 -36t22.5 -81q0 -20 -25 -68q-26 -43 -26 -61q0 -52 55 -94.5t154 -42.5t195.5 54.5t175 147.5t139.5 218.5t94 267.5h-230q-222 0 -415 -33l33 133q224 -43 509 -43h117q27 114 27 270q0 72 -13.5 129.5t-33 94t-49 63t-54.5 39 t-58 20t-50 8.5t-39 1q-140 0 -262 -100.5t-146 -221.5h-65l96 385h66l-21 -80q145 74 344 74q102 0 185.5 -28.5t139.5 -77.5t93.5 -115.5t54.5 -140t17 -154.5q0 -102 -25 -212t-72 -218.5t-121.5 -205.5t-166 -171.5t-213 -118t-256.5 -43.5q-186 0 -289 76.5t-103 188.5 z" />
<glyph unicode="&#x42e;" horiz-adv-x="2150" d="M0 0l14 57h97q21 0 37 4.5t35 26.5t28 62l283 1134q6 22 6.5 38t-4 26t-10 16t-15 8.5t-15.5 3t-16 0.5h-116l14 58h557l-14 -58h-97q-77 0 -102 -92l-127 -508h264q51 196 165 352t272.5 245t330.5 89q108 0 196.5 -30t148 -81t100 -121t59 -148t18.5 -164 q0 -140 -40.5 -284t-130 -285.5t-216.5 -237.5q-184 -140 -409 -140q-46 0 -91 5.5t-98 21.5t-99.5 41.5t-91 68.5t-76 98t-50.5 135.5t-19 176.5q0 109 19 201h-266l-142 -569q-22 -93 56 -93h116l-14 -57h-557zM993 510q0 -133 27 -230t74 -150t102.5 -77t120.5 -24 q153 0 290 127t217.5 332t80.5 427q0 180 -34 280q-73 209 -292 210q-99 0 -191 -55t-162.5 -147t-123.5 -207t-81 -241.5t-28 -244.5z" />
<glyph unicode="&#x42f;" horiz-adv-x="1421" d="M-41 88q0 46 12 76h56q-9 -24 -9 -58q0 -43 60 -43q24 0 37.5 9.5t31.5 31.5q33 41 75 104.5t74 115t79.5 111.5t96 105t119.5 84t154 60l5 12q-185 -10 -293.5 77t-108.5 237q0 87 31.5 157.5t76.5 113.5t113.5 74.5t123.5 46t127 22.5t103.5 9t72.5 1h8h561l-15 -58 h-96q-78 0 -102 -92l-283 -1134q-3 -23 -5 -39.5t5.5 -26.5t12.5 -15.5t15.5 -8t15 -3t11.5 -0.5h117l-14 -57h-578l15 57h116q22 0 38 4.5t35 26.5t28 62l137 546q-71 -2 -134.5 -20t-106.5 -42.5t-83 -60.5t-61.5 -62.5t-44.5 -59.5q-23 -32 -61 -89t-64.5 -95t-63.5 -88 t-70 -83t-71.5 -64t-80 -46t-83.5 -15q-60 0 -97.5 31.5t-37.5 85.5zM545 1001q0 -54 14.5 -96t35.5 -69t55 -46t60.5 -27.5t66 -13.5t57.5 -5.5t49 -0.5q82 0 149 11l148 594q-90 28 -252 28q-91 0 -165 -31t-121 -83.5t-72 -119.5t-25 -141z" />
<glyph unicode="&#x430;" horiz-adv-x="1089" d="M61 242q0 121 53 251t138 235t202 173t236 68q63 0 99 -18t61 -56l14 51h156l-225 -782q-13 -43 -13 -58q0 -32 29 -32q42 0 102.5 61.5t94.5 116.5l36 -25q-28 -43 -62.5 -84.5t-76.5 -80t-90 -62t-92 -23.5q-48 0 -72 29.5t-24 79.5q0 37 12 78l41 137h-8 q-31 -53 -54.5 -89.5t-62.5 -85t-75 -78t-85 -50.5t-100 -21q-42 0 -81.5 14.5t-75 44t-56.5 83t-21 123.5zM217 176q0 -42 12 -72t31 -43.5t35 -18.5t31 -5q55 0 126.5 60t130.5 142.5t104 162.5t58 126l76 269q-2 52 -31.5 89.5t-82.5 37.5q-72 0 -160.5 -78.5 t-160 -191.5t-120.5 -245t-49 -233z" />
<glyph unicode="&#x431;" horiz-adv-x="1028" d="M74 342q0 144 49.5 306t129.5 302.5t184.5 257.5t211.5 178q66 38 148 63t135.5 34.5t99.5 37t62 76.5h45q-9 -39 -25 -72t-33.5 -58t-47.5 -49.5t-54 -40.5t-66.5 -36.5t-72 -33t-82.5 -33.5q-60 -24 -99 -41.5t-89 -45t-85.5 -56t-77.5 -70t-75.5 -91t-69 -116 t-67.5 -147.5h18q11 18 28 40t59 64.5t87.5 75t113 57.5t136.5 25q145 0 227 -108.5t82 -272.5q0 -161 -80 -303t-208 -225t-267 -83q-137 0 -227 93t-90 272zM229 276q0 -75 17.5 -128t45.5 -78.5t55 -36t56 -10.5q50 0 104 29t104.5 85.5t90.5 131.5t64.5 176t24.5 210 q0 78 -14.5 134t-38 83.5t-47.5 39.5t-50 12q-56 0 -115.5 -33.5t-112 -95t-94 -140.5t-66 -178.5t-24.5 -200.5z" />
<glyph unicode="&#x432;" horiz-adv-x="913" d="M74 319q0 83 24 172.5t72 174.5t113.5 153t156.5 109t193 41q122 0 180.5 -52t58.5 -131q0 -82 -71.5 -157.5t-214.5 -102.5v-8q96 -6 152.5 -66.5t56.5 -150.5q0 -132 -127.5 -228t-327.5 -96q-59 0 -106 20.5t-76.5 54t-49 79t-27 92t-7.5 96.5zM213 217 q0 -57 14 -97.5t37.5 -60t47 -28t48.5 -8.5q106 0 194.5 94.5t88.5 220.5q0 48 -13.5 82.5t-36 50.5t-42.5 22.5t-41 6.5q-17 0 -53 -4l-199 -33q-45 -141 -45 -246zM272 508l111 18q95 16 166 51t108 77.5t54.5 83t17.5 77.5q0 54 -37 81.5t-98 27.5q-186 0 -322 -416z" />
<glyph unicode="&#x433;" horiz-adv-x="741" d="M61 162q0 24 5.5 48.5t12 45t22.5 46.5t25.5 42t33.5 43.5t34 39.5t40 40.5t38.5 37t41.5 38.5t38 35q118 107 160.5 163.5t42.5 106.5q0 25 -9.5 42t-24.5 23.5t-25.5 8.5t-20.5 2q-69 0 -153.5 -45t-139.5 -123l-39 32q64 87 163 134t204 47q100 0 145 -49.5t45 -106.5 q0 -33 -15 -70.5t-33 -66.5t-53.5 -68.5t-56.5 -60t-63 -60t-53 -49.5q-119 -115 -151 -154q-68 -82 -68 -151q0 -51 31.5 -80.5t78.5 -29.5q80 0 166.5 61.5t139.5 148.5l41 -32q-16 -26 -33.5 -50t-51 -57.5t-70 -57.5t-90.5 -41.5t-112 -17.5q-112 0 -179 52.5t-67 132.5 z" />
<glyph unicode="&#x434;" horiz-adv-x="1036" d="M74 326q0 126 47 245.5t123 206t176.5 139t204.5 52.5q148 0 223 -138q18 100 18 234q0 25 -1.5 52.5t-8 75.5t-17 90.5t-32 90t-50 81t-73.5 55.5t-100 22q-31 0 -47 -1.5t-53.5 -8.5t-73 -28.5t-68.5 -55.5l-47 63q113 76 280 76q80 0 145.5 -30.5t108 -77t75 -113 t49 -129t27 -133.5t13 -117.5t2.5 -91.5q0 -240 -80 -448t-224.5 -334t-319.5 -126q-139 0 -218 100t-79 249zM229 252q0 -112 44.5 -170.5t117.5 -58.5q81 0 158 63.5t131 158t86.5 205t32.5 205.5q0 55 -9 99t-21.5 71.5t-31.5 47.5t-34.5 29.5t-34.5 15t-27.5 6 t-17.5 0.5q-81 0 -156 -65.5t-126 -165.5t-81.5 -217.5t-30.5 -223.5z" />
<glyph unicode="&#x435;" horiz-adv-x="917" d="M61 315q0 116 55 235.5t140.5 211t195.5 149.5t214 58q103 0 157 -56t54 -135q0 -59 -37 -116t-109.5 -108t-197 -87.5t-283.5 -46.5q-33 -94 -33 -187q0 -89 46 -142.5t130 -53.5q59 0 118.5 28t106.5 73t82 90t62 91l45 -24q-20 -36 -43 -70.5t-66 -82t-90 -82 t-114.5 -59t-139.5 -24.5q-131 0 -212 91t-81 247zM268 473q96 5 177.5 31.5t135 64t92 83t55.5 87.5t17 78q0 47 -25 77t-67 30q-94 0 -205 -127.5t-180 -323.5z" />
<glyph unicode="&#x436;" horiz-adv-x="1708" d="M0 117q0 46 21.5 67t46.5 21q27 0 47 -19t20 -57q0 -7 -2 -22.5t-2 -22.5q0 -61 55 -61q86 0 163 124t119 293t42 318q0 50 -10.5 82.5t-29 46t-34.5 18t-37 4.5q-72 0 -132 -61t-117 -166l-46 20q24 50 53.5 92.5t70.5 84t96 66t116 24.5q110 0 168 -74.5t58 -204.5 q0 -80 -17 -170h142l120 426h156l-121 -426h135q62 192 187.5 320.5t277.5 128.5q78 0 120 -40t42 -100q0 -42 -19 -65t-49 -23q-31 0 -49 20.5t-18 55.5q0 7 2 22.5t2 22.5q0 62 -55 62q-64 0 -125.5 -74t-104 -185t-68.5 -239.5t-26 -237.5q0 -151 111 -151q140 0 250 227 l45 -20q-22 -49 -50.5 -92.5t-68.5 -85t-93.5 -65.5t-113.5 -24q-106 0 -171 68.5t-65 210.5q0 113 27 219h-135l-135 -475h-156l135 475h-139q-25 -98 -70.5 -187t-105.5 -158.5t-138.5 -111t-162.5 -41.5q-78 0 -120 40t-42 100z" />
<glyph unicode="&#x437;" horiz-adv-x="847" d="M0 180q0 39 25 65.5t65 26.5q43 0 63.5 -27.5t20.5 -62.5q0 -15 -6 -30q-8 -20 -8 -33q0 -36 38.5 -65t108.5 -29q85 0 152 45.5t100 111t33 135.5q0 44 -16 76t-37.5 48t-52.5 25t-50.5 11t-42.5 2q-56 0 -100 -8l18 72q78 -19 133 -19q50 0 89.5 15t63.5 38t39.5 52.5 t21.5 55.5t6 50q0 84 -44.5 136.5t-125.5 52.5q-50 0 -95.5 -20t-78 -53.5t-54.5 -64.5t-37 -63l-86 41q35 57 82.5 98.5t87.5 61t87 31t69 13t45 1.5q59 0 107 -12.5t77.5 -31.5t52 -45t32.5 -48t16 -46.5t7 -35t1 -17.5q0 -91 -65.5 -162.5t-180.5 -72.5v-9 q82 -14 134.5 -70.5t52.5 -139.5q0 -124 -119 -213t-310 -89q-84 0 -148.5 19.5t-100 51t-53 65t-17.5 67.5z" />
<glyph unicode="&#x438;" horiz-adv-x="1093" d="M45 719q38 59 86 112.5t113.5 95.5t122.5 42q49 0 72.5 -29.5t23.5 -79.5q0 -38 -12 -78l-181 -561q-22 -68 -22 -123q0 -45 55 -45q46 0 123 72t149 169t131.5 197t75.5 156l86 299h156l-225 -782q-13 -43 -13 -58q0 -32 29 -32q42 0 102.5 61.5t94.5 116.5l37 -25 q-38 -59 -86 -112.5t-113.5 -95.5t-122.5 -42q-48 0 -72 29.5t-24 79.5q0 37 12 78l68 233h-9q-75 -127 -140 -213t-119 -129.5t-95.5 -60.5t-85.5 -17q-74 0 -122 34.5t-48 99.5q0 56 31 139l172 532q12 37 12 58q0 32 -28 32q-42 0 -102.5 -61.5t-94.5 -116.5z" />
<glyph unicode="&#x439;" horiz-adv-x="1093" d="M45 719q38 59 86 112.5t113.5 95.5t122.5 42q49 0 72.5 -29.5t23.5 -79.5q0 -38 -12 -78l-181 -561q-22 -68 -22 -123q0 -45 55 -45q46 0 123 72t149 169t131.5 197t75.5 156l86 299h156l-225 -782q-13 -43 -13 -58q0 -32 29 -32q42 0 102.5 61.5t94.5 116.5l37 -25 q-38 -59 -86 -112.5t-113.5 -95.5t-122.5 -42q-48 0 -72 29.5t-24 79.5q0 37 12 78l68 233h-9q-75 -127 -140 -213t-119 -129.5t-95.5 -60.5t-85.5 -17q-74 0 -122 34.5t-48 99.5q0 56 31 139l172 532q12 37 12 58q0 32 -28 32q-42 0 -102.5 -61.5t-94.5 -116.5zM461 1309 q0 44 24.5 77t73.5 33q40 0 61 -22.5t21 -53.5q0 -39 -4 -49.5t-4 -21.5q0 -22 20 -36.5t54 -14.5q42 0 85 18.5t84.5 53.5t72 66t67.5 75l33 -25q-78 -105 -173.5 -175.5t-201.5 -70.5q-96 0 -154.5 47t-58.5 99z" />
<glyph unicode="&#x43a;" horiz-adv-x="1007" d="M45 719q38 59 86 112.5t113.5 95.5t122.5 42q48 0 72 -29.5t24 -79.5q0 -38 -12 -78l-74 -258h43q27 0 51.5 7.5t42 16.5t39 31.5t32.5 35t31.5 46t28 46.5t29.5 53q73 129 115.5 169t109.5 40q49 0 79 -24t30 -71q0 -37 -19.5 -59t-54.5 -22q-58 0 -76 53q-2 7 -2 21.5 t-4 21t-16 6.5q-9 0 -18.5 -8t-19.5 -25t-15.5 -28t-15.5 -33.5t-11 -24.5q-52 -116 -111.5 -184t-150.5 -88v-8q164 -27 208 -236q4 -17 9.5 -47t9.5 -48.5t10.5 -39t16 -30t22.5 -9.5q27 0 69 53t74 113l41 -25q-52 -103 -122.5 -176.5t-133.5 -73.5q-20 0 -37 6.5 t-29.5 15.5t-23.5 28t-18 34t-15 42.5t-12 45.5t-11.5 52t-12.5 53q-32 135 -63.5 180t-82.5 45h-28l-138 -479h-155l223 782q12 40 12 58q0 32 -28 32q-42 0 -102.5 -61.5t-94.5 -116.5z" />
<glyph unicode="&#x43b;" horiz-adv-x="962" d="M-66 76q0 37 23.5 61.5t58.5 24.5q44 0 66 -39q1 -2 5.5 -11.5t7.5 -14t10 -9t16 -4.5q36 0 81 89t113 280q109 299 109 389q0 59 -84 59h-68l15 45h606l-225 -782q-13 -43 -13 -58q0 -32 29 -32q42 0 102.5 61.5t94.5 116.5l37 -25q-38 -59 -86 -112.5t-113.5 -95.5 t-122.5 -42q-48 0 -72 29.5t-24 79.5q0 37 12 78l203 706q3 13 -5.5 22t-29.5 9h-86q-18 0 -29 -1t-22.5 -6.5t-17.5 -12t-15.5 -23t-15 -33.5t-17 -50t-21 -65t-27.5 -86.5t-36 -107.5q-102 -298 -172 -418.5t-164 -120.5q-55 0 -89 27.5t-34 71.5z" />
<glyph unicode="&#x43c;" horiz-adv-x="1331" d="M-66 76q0 37 23.5 61.5t58.5 24.5q44 0 66 -39q1 -2 5.5 -11.5t7.5 -14t10 -9t16 -4.5q34 0 77.5 82t116.5 287q115 322 115 389q0 59 -84 59h-74l15 45h342l41 -684l436 684h156l-226 -782q-12 -40 -12 -58q0 -32 29 -32q42 0 102 61.5t94 116.5l37 -25 q-28 -43 -62.5 -84.5t-76.5 -80t-90 -62t-92 -23.5q-48 0 -72.5 30t-24.5 79q0 34 13 78l172 594h-9l-483 -758h-37l-39 791h-8q-22 -90 -77.5 -252.5t-94.5 -257.5q-19 -47 -30 -72.5t-31.5 -68t-38 -66t-41 -49t-50.5 -37t-57 -11.5q-55 0 -89 27.5t-34 71.5z" />
<glyph unicode="&#x43d;" horiz-adv-x="1073" d="M45 719q38 59 86 112.5t113.5 95.5t122.5 42q25 0 43.5 -8.5t28.5 -20t15.5 -28t7 -28t1.5 -24.5q0 -44 -10 -78l-76 -262h348l123 426h156l-226 -782q-12 -40 -12 -58q0 -32 29 -32q42 0 102 61.5t94 116.5l37 -25q-28 -43 -62.5 -84.5t-76.5 -80t-90 -62t-92 -23.5 q-48 0 -72.5 30t-24.5 79q0 34 13 78l90 311h-348l-138 -475h-155l225 782q10 30 10 58q0 32 -28 32q-42 0 -102.5 -61.5t-94.5 -116.5z" />
<glyph unicode="&#x43e;" horiz-adv-x="999" d="M74 371q0 158 66.5 294.5t187.5 220t268 83.5q69 0 125.5 -22.5t94 -60.5t63 -91.5t36.5 -113t11 -126.5q0 -117 -38 -222.5t-105 -184t-165 -125t-210 -46.5q-85 0 -151 33t-105 89.5t-58.5 125.5t-19.5 146zM238 268q0 -63 12.5 -110t30 -72t41 -40t40.5 -19t33 -4 q48 0 99.5 29t99 87t85.5 135.5t60.5 183t22.5 220.5q0 133 -44.5 189.5t-107.5 56.5q-95 0 -181 -91t-138.5 -243.5t-52.5 -321.5z" />
<glyph unicode="&#x43f;" horiz-adv-x="1093" d="M45 719q38 59 86 112.5t113.5 95.5t122.5 42q48 0 72 -29.5t24 -79.5q0 -38 -12 -78l-68 -233h8q75 127 140 213t119 129.5t95.5 60.5t85.5 17q74 0 122 -34t48 -99q0 -28 -11 -74t-19 -66l-172 -532q-13 -40 -13 -58q0 -32 29 -32q42 0 102.5 61.5t94.5 116.5l37 -25 q-38 -59 -86 -112.5t-113.5 -95.5t-122.5 -42q-49 0 -72.5 29.5t-23.5 79.5q0 37 12 78l180 561q23 72 23 123q0 45 -55 45q-60 0 -169 -117.5t-199 -258.5t-112 -218l-86 -299h-155l225 782q12 40 12 58q0 32 -28 32q-42 0 -102.5 -61.5t-94.5 -116.5z" />
<glyph unicode="&#x440;" horiz-adv-x="1079" d="M-166 -438l10 45h60q39 0 58 10.5t26 38.5l307 1126q10 36 10 58q0 32 -26 32q-38 0 -98.5 -57.5t-98.5 -120.5l-37 25q69 106 158.5 178t163.5 72q32 0 53 -13.5t29 -35t10 -34.5t2 -26q0 -44 -10 -78l-29 -96h8q36 61 68.5 105.5t75.5 88t93.5 66.5t106.5 23 q46 0 87.5 -16.5t77.5 -50.5t57.5 -95t21.5 -143q0 -81 -24 -173t-72.5 -183t-114.5 -165t-159.5 -120t-196.5 -46q-131 0 -205 60l-103 -381q-7 -29 9 -39t55 -10h80l-11 -45h-442zM274 139q42 -116 179 -116q81 0 158 72t128.5 177.5t83 223.5t31.5 213q0 59 -11.5 101.5 t-30 62t-35.5 28t-34 8.5q-68 0 -153.5 -85.5t-150 -198.5t-89.5 -207z" />
<glyph unicode="&#x441;" horiz-adv-x="872" d="M74 338q0 166 77 312.5t204.5 232.5t269.5 86q99 0 163 -41.5t64 -104.5q0 -38 -23 -60t-59 -22q-78 0 -90 88q-3 21 -6.5 32.5t-12.5 28.5t-28.5 25.5t-48.5 8.5q-87 0 -169 -97.5t-129.5 -242t-47.5 -283.5q0 -264 180 -264t325 289l45 -25q-25 -56 -58.5 -106.5 t-84 -102.5t-122 -83.5t-152.5 -31.5q-147 0 -222 102t-75 259z" />
<glyph unicode="&#x442;" horiz-adv-x="1527" d="M45 719q38 59 86 112.5t113.5 95.5t122.5 42q53 0 74.5 -32.5t21.5 -76.5q0 -38 -12 -78l-27 -94h8q50 85 101.5 145t95.5 87t76 38t59 11q77 0 125.5 -32t48.5 -99q0 -61 -12 -103l-13 -47h9q50 86 101.5 145.5t95.5 87t76.5 38t61.5 10.5q77 0 126 -30t49 -95 q0 -68 -27 -148l-172 -532q-12 -37 -12 -58q0 -32 28 -32q42 0 102.5 61.5t94.5 116.5l37 -25q-38 -59 -86 -112.5t-113.5 -95.5t-122.5 -42q-49 0 -72.5 29.5t-23.5 79.5q0 37 12 78l180 561q19 63 19 119q0 17 -12.5 33t-40.5 16q-45 0 -108.5 -55t-118.5 -130t-97.5 -149 t-54.5 -115l-129 -444h-156l209 725q14 54 14 119q0 49 -53 49t-134.5 -78.5t-149.5 -184t-91 -186.5l-129 -444h-155l225 782q12 40 12 58q0 32 -28 32q-42 0 -102.5 -61.5t-94.5 -116.5z" />
<glyph unicode="&#x443;" horiz-adv-x="1052" d="M-55 -328q0 39 24 67t60 28q76 0 84 -105v-4q2 -15 5 -25t11 -22t24.5 -18.5t41.5 -6.5q316 0 516 811h-9q-75 -127 -140 -213t-119 -129.5t-95.5 -60.5t-85.5 -17q-74 0 -122 34.5t-48 99.5q0 56 31 139l172 532q12 37 12 58q0 32 -28 32q-42 0 -102.5 -61.5 t-94.5 -116.5l-37 25q38 59 86 112.5t113.5 95.5t122.5 42q49 0 72.5 -29.5t23.5 -79.5q0 -38 -12 -78l-181 -561q-22 -68 -22 -123q0 -45 55 -45q46 0 123 72t149 169t131.5 197t75.5 156l86 299h156l-199 -688q-41 -140 -93.5 -253.5t-104 -186.5t-111 -127.5t-107 -82 t-100 -44t-82.5 -20t-61 -3.5q-102 0 -161.5 35.5t-59.5 95.5z" />
<glyph unicode="&#x444;" horiz-adv-x="1501" d="M74 305q0 134 51.5 259.5t132.5 212.5t180.5 139.5t194.5 52.5q104 0 153 -82l93 334q7 23 7.5 40t-5.5 27t-13 16.5t-20 9t-21.5 3t-23.5 0.5h-64l13 45q82 7 180.5 39.5t171.5 73.5l-162 -588q43 37 95.5 59.5t99.5 22.5q54 0 105 -20t93 -59t67 -103.5t25 -145.5 q0 -134 -51.5 -259.5t-132.5 -212.5t-180.5 -139.5t-194.5 -52.5q-104 0 -153 82l-111 -403q-8 -29 8.5 -39t55.5 -10h80l-11 -45h-463l11 45h80q39 0 58 10.5t26 38.5l110 403q-99 -82 -194 -82q-55 0 -106 20t-93 59t-67 103.5t-25 145.5zM238 227q0 -111 40 -157.5 t95 -46.5q59 0 118.5 41t94.5 100l168 604q3 63 -30 109.5t-91 46.5q-98 0 -191 -104t-148.5 -266t-55.5 -327zM748 178q-3 -63 29.5 -109t90.5 -46q99 0 191.5 103.5t148.5 265.5t56 327q0 111 -40.5 158t-95.5 47q-59 0 -118.5 -41t-94.5 -101z" />
<glyph unicode="&#x445;" horiz-adv-x="1024" d="M-61 86q0 36 24 58t57 22q55 0 76 -55q2 -4 5.5 -15t6 -16.5t7.5 -13t12 -10.5t16 -3q53 0 154 146l156 225l-60 399q-4 30 -15.5 39.5t-31.5 9.5q-49 0 -105 -58t-96 -120l-41 25q64 101 150.5 175.5t171.5 74.5q20 0 37 -5.5t28.5 -12t21 -19.5t14.5 -22.5t9.5 -25.5 t6 -23t4 -22t2.5 -16l35 -235l141 203q31 45 52 70.5t51 54t64 41t75 12.5q62 0 90 -28.5t28 -66.5q0 -31 -22 -50t-51 -19q-54 0 -74 39q-1 3 -5 11.5t-6 12t-7 8.5t-11 7t-14 2q-49 0 -137 -128l-6 -9l-158 -228l59 -397q4 -30 15.5 -39.5t31.5 -9.5q49 0 105 58t96 120 l41 -25q-65 -101 -150.5 -175.5t-170.5 -74.5q-104 0 -123 146l-35 233l-139 -200q-62 -90 -120 -134.5t-132 -44.5q-66 0 -99.5 32.5t-33.5 76.5z" />
<glyph unicode="&#x446;" horiz-adv-x="1093" d="M45 719q38 59 86 112.5t113.5 95.5t122.5 42q49 0 72.5 -29.5t23.5 -79.5q0 -38 -12 -78l-181 -561q-22 -68 -22 -123q0 -45 55 -45q46 0 123 72t149 169t131.5 197t75.5 156l86 299h156l-225 -782q-13 -43 -13 -58q0 -32 29 -32q42 0 102.5 61.5t94.5 116.5l37 -25 q-32 -57 -41.5 -135.5t-11 -171.5t-13.5 -149q-19 -95 -74.5 -149.5t-146.5 -80.5l-21 47q63 20 99.5 104.5t113.5 357.5q12 44 19 67l-8 4q-45 -56 -110.5 -100t-127.5 -44q-48 0 -72 29.5t-24 79.5q0 37 12 78l68 233h-9q-75 -127 -140 -213t-119 -129.5t-95.5 -60.5 t-85.5 -17q-74 0 -122 34.5t-48 99.5q0 56 31 139l172 532q12 37 12 58q0 32 -28 32q-42 0 -102.5 -61.5t-94.5 -116.5z" />
<glyph unicode="&#x447;" horiz-adv-x="993" d="M0 719q38 59 86 112.5t113.5 95.5t122.5 42q49 0 72.5 -29.5t23.5 -79.5q0 -38 -12 -78l-78 -241q-23 -74 -23 -125q0 -72 60 -72q81 0 189 112t151 267l63 223h156l-226 -782q-12 -40 -12 -58q0 -32 29 -32q42 0 102 61.5t94 116.5l37 -25q-28 -43 -62.5 -84.5 t-76.5 -80t-90 -62t-92 -23.5q-48 0 -72.5 30t-24.5 79q0 34 13 78l88 307h-8q-47 -80 -126 -137.5t-163 -57.5q-75 0 -129.5 34.5t-54.5 107.5q0 65 14 110l86 254q12 36 12 58q0 32 -29 32q-42 0 -102 -61.5t-94 -116.5z" />
<glyph unicode="&#x448;" horiz-adv-x="1527" d="M45 719q38 59 86 112.5t113.5 95.5t122.5 42q49 0 72.5 -29.5t23.5 -79.5q0 -38 -12 -78l-181 -561q-18 -59 -18 -119q0 -17 12.5 -33t40.5 -16q45 0 108.5 55t118.5 130t97.5 149t54.5 115l129 444h156l-209 -725q-15 -58 -15 -119q0 -49 54 -49q53 0 134.5 78.5 t149.5 184t91 186.5l129 444h155l-225 -782q-12 -40 -12 -58q0 -32 28 -32q42 0 102.5 61.5t94.5 116.5l37 -25q-38 -59 -86 -112.5t-113.5 -95.5t-122.5 -42q-53 0 -74.5 32.5t-21.5 76.5q0 37 12 78l27 94h-8q-50 -85 -101.5 -145t-95.5 -87t-76 -38t-59 -11 q-76 0 -125 32.5t-49 99.5q0 60 12 102l12 47h-8q-50 -86 -101.5 -145.5t-96 -87t-77 -38t-61.5 -10.5q-77 0 -125.5 30t-48.5 95q0 68 27 148l172 532q12 37 12 58q0 32 -28 32q-42 0 -102.5 -61.5t-94.5 -116.5z" />
<glyph unicode="&#x449;" horiz-adv-x="1527" d="M45 719q38 59 86 112.5t113.5 95.5t122.5 42q49 0 72.5 -29.5t23.5 -79.5q0 -38 -12 -78l-181 -561q-18 -59 -18 -119q0 -17 12.5 -33t40.5 -16q45 0 108.5 55t118.5 130t97.5 149t54.5 115l129 444h156l-209 -725q-15 -58 -15 -119q0 -49 54 -49q53 0 134.5 78.5 t149.5 184t91 186.5l129 444h155l-225 -782q-12 -40 -12 -58q0 -32 28 -32q42 0 102.5 61.5t94.5 116.5l37 -25q-32 -57 -41.5 -135.5t-11 -171.5t-13.5 -149q-19 -95 -74.5 -149.5t-146.5 -80.5l-20 47q63 20 98 102t111 350q14 50 22 77l-8 4q-48 -57 -112.5 -100.5 t-125.5 -43.5q-53 0 -74.5 32.5t-21.5 76.5q0 37 12 78l27 94h-8q-50 -85 -101.5 -145t-95.5 -87t-76 -38t-59 -11q-76 0 -125 32.5t-49 99.5q0 60 12 102l12 47h-8q-50 -86 -101.5 -145.5t-96 -87t-77 -38t-61.5 -10.5q-77 0 -125.5 30t-48.5 95q0 68 27 148l172 532 q12 37 12 58q0 32 -28 32q-42 0 -102.5 -61.5t-94.5 -116.5z" />
<glyph unicode="&#x44a;" horiz-adv-x="929" d="M45 797q42 78 93.5 123t127.5 45q26 0 84 -13q103 -22 146 -22q74 0 118 39l27 -29q-149 -162 -215 -263t-100 -190h8q51 78 128.5 126.5t160.5 48.5q103 0 174 -65t71 -177q0 -70 -32 -147t-88 -143.5t-143.5 -109.5t-188.5 -43q-146 0 -228 83.5t-82 228.5q0 82 33 165 t79 145.5t109.5 123.5t109.5 96t93 66l-4 8q-91 -62 -182 -62q-10 0 -68 5q-66 8 -96 8q-33 0 -54 -15.5t-44 -52.5zM248 186q0 -80 40 -121.5t99 -41.5q78 0 153 63.5t120 160.5t45 193q0 88 -35.5 125t-77.5 37q-49 0 -109 -36.5t-112 -94t-87.5 -135t-35.5 -150.5z" />
<glyph unicode="&#x44b;" horiz-adv-x="1413" d="M45 719q63 96 151 173t171 77q33 0 55 -14t30 -35.5t10.5 -34.5t2.5 -25q0 -40 -14 -78l-105 -295h8q48 78 127 126.5t162 48.5q103 0 174.5 -65t71.5 -177q0 -116 -66 -219.5t-171 -163.5t-216 -60q-144 0 -220.5 80t-76.5 191q0 67 25 147l131 387q1 5 5.5 17t6.5 21 t2 20q0 18 -6 25t-24 7q-44 0 -102 -59.5t-95 -118.5zM268 186q0 -80 40.5 -121.5t99.5 -41.5q78 0 152.5 63.5t119.5 160.5t45 193q0 88 -35.5 125t-77.5 37q-49 0 -109 -36.5t-112 -94t-87.5 -135t-35.5 -150.5zM950 86q0 34 13 78l225 782h155l-225 -782q-12 -40 -12 -58 q0 -32 29 -32q42 0 102 61.5t94 116.5l37 -25q-28 -43 -62.5 -84.5t-76.5 -80t-90 -62t-92 -23.5q-48 0 -72.5 30t-24.5 79z" />
<glyph unicode="&#x44c;" horiz-adv-x="950" d="M45 719q63 96 151 173t171 77q33 0 55 -14t30 -35.5t10.5 -34.5t2.5 -25q0 -40 -14 -78l-105 -295h8q48 78 127 126.5t162 48.5q103 0 174.5 -65t71.5 -177q0 -116 -66 -219.5t-171 -163.5t-216 -60q-144 0 -220.5 80t-76.5 191q0 67 25 147l131 387q1 5 5.5 17t6.5 21 t2 20q0 18 -6 25t-24 7q-44 0 -102 -59.5t-95 -118.5zM268 186q0 -80 40.5 -121.5t99.5 -41.5q78 0 152.5 63.5t119.5 160.5t45 193q0 88 -35.5 125t-77.5 37q-49 0 -109 -36.5t-112 -94t-87.5 -135t-35.5 -150.5z" />
<glyph unicode="&#x44d;" horiz-adv-x="888" d="M0 174q0 41 27 66.5t65 25.5q40 0 63 -28t23 -68q0 -32 -6 -48t-6 -26q0 -28 28.5 -50.5t90.5 -22.5q139 0 234 129t130 348q-92 -74 -184 -74q-42 0 -117 27q-72 26 -96 26q-43 0 -90 -37v45q86 82 192 82q39 0 121 -24q71 -23 111 -23q25 0 69 23q4 31 4 92 q0 85 -19.5 145t-52.5 89t-65.5 41t-68.5 12q-50 0 -96 -23t-78.5 -60.5t-54.5 -72.5t-36 -70l-86 41q23 41 52.5 77t74 73t108 58.5t136.5 21.5q157 0 249.5 -109.5t92.5 -290.5q0 -164 -68.5 -300t-187.5 -214t-262 -78q-146 0 -221.5 59.5t-75.5 137.5z" />
<glyph unicode="&#x44e;" horiz-adv-x="1478" d="M45 719q38 59 86 112.5t113.5 95.5t122.5 42q48 0 72 -29.5t24 -79.5q0 -38 -12 -78l-68 -241h190q47 182 181.5 305t320.5 123q69 0 125.5 -22.5t94 -60.5t63 -91.5t36.5 -113t11 -126.5q0 -117 -38 -222.5t-105 -184t-165 -125t-210 -46.5q-85 0 -151 33t-105 89.5 t-58.5 125.5t-19.5 146q0 63 12 125h-196l-142 -496h-155l223 782q12 40 12 58q0 32 -28 32q-42 0 -102.5 -61.5t-94.5 -116.5zM717 268q0 -63 12.5 -110t30 -72t41 -40t40.5 -19t33 -4q48 0 99.5 29t99 87t85.5 135.5t60.5 183t22.5 220.5q0 133 -44 189.5t-107 56.5 q-95 0 -181.5 -91t-139 -243.5t-52.5 -321.5z" />
<glyph unicode="&#x44f;" horiz-adv-x="1107" d="M0 264h49q1 -47 9 -81t18 -50.5t23 -26t20 -11t14 -1.5q34 0 64 53q27 45 42.5 69t43.5 63t53.5 61.5t60.5 47.5t77 39.5t91 21.5v8q-142 -7 -224.5 59t-82.5 172q0 30 9 60t37 67.5t73.5 65t127 46.5t187.5 19h346l-225 -782q-12 -40 -12 -58q0 -32 28 -32 q42 0 102.5 61.5t94.5 116.5l37 -25q-38 -59 -86 -112.5t-113.5 -95.5t-122.5 -42q-48 0 -72 29.5t-24 79.5q0 37 12 78l84 291q-139 5 -268 -170q-23 -31 -57.5 -82.5t-58.5 -85.5t-55 -69.5t-63 -53t-67 -17.5q-30 0 -59 16t-56 48.5t-42.5 90.5t-14.5 132zM422 657 q0 -157 240 -157h94l114 401h-120q-84 0 -147 -18.5t-96.5 -45t-53.5 -62.5t-25.5 -63t-5.5 -55z" />
<glyph unicode="&#x451;" horiz-adv-x="917" d="M61 315q0 116 55 235.5t140.5 211t195.5 149.5t214 58q103 0 157 -56t54 -135q0 -59 -37 -116t-109.5 -108t-197 -87.5t-283.5 -46.5q-33 -94 -33 -187q0 -89 46 -142.5t130 -53.5q59 0 118.5 28t106.5 73t82 90t62 91l45 -24q-20 -36 -43 -70.5t-66 -82t-90 -82 t-114.5 -59t-139.5 -24.5q-131 0 -212 91t-81 247zM268 473q96 5 177.5 31.5t135 64t92 83t55.5 87.5t17 78q0 47 -25 77t-67 30q-94 0 -205 -127.5t-180 -323.5zM446 1333q0 44 29.5 73.5t73.5 29.5t73 -29.5t29 -73.5t-29 -73t-73 -29t-73.5 29t-29.5 73zM774 1333 q0 44 29.5 73.5t73.5 29.5t73 -29.5t29 -73.5t-29 -73t-73 -29t-73.5 29t-29.5 73z" />
<glyph unicode="&#x452;" horiz-adv-x="985" d="M31 0l317 1157h-264l10 45h266l39 141q7 23 7.5 40t-5 27t-12.5 16.5t-20 9.5t-22 3.5t-23 0.5h-64l12 45q83 7 182 39t171 73l-109 -395h381l-10 -45h-383l-137 -506h10q25 49 51.5 92t69.5 100.5t94 91.5t102 34q27 0 54 -8t57.5 -30.5t53 -57t37.5 -95t15 -137.5 q0 -122 -35 -270.5t-99 -293.5t-146 -266t-185.5 -195.5t-207.5 -74.5q-100 0 -153.5 51.5t-53.5 118.5q0 36 19.5 66t62.5 30q84 0 84 -90q0 -11 -5.5 -32t-5.5 -33t5 -25.5t24 -27t49 -13.5q69 0 143.5 89.5t135 228t109.5 294.5t76.5 299t27.5 232q0 172 -86 172 q-47 0 -127.5 -87.5t-151 -206t-94.5 -206.5l-111 -401h-155z" />
<glyph unicode="&#x453;" horiz-adv-x="741" d="M61 162q0 24 5.5 48.5t12 45t22.5 46.5t25.5 42t33.5 43.5t34 39.5t40 40.5t38.5 37t41.5 38.5t38 35q118 107 160.5 163.5t42.5 106.5q0 25 -9.5 42t-24.5 23.5t-25.5 8.5t-20.5 2q-69 0 -153.5 -45t-139.5 -123l-39 32q64 87 163 134t204 47q100 0 145 -49.5t45 -106.5 q0 -33 -15 -70.5t-33 -66.5t-53.5 -68.5t-56.5 -60t-63 -60t-53 -49.5q-119 -115 -151 -154q-68 -82 -68 -151q0 -51 31.5 -80.5t78.5 -29.5q80 0 166.5 61.5t139.5 148.5l41 -32q-16 -26 -33.5 -50t-51 -57.5t-70 -57.5t-90.5 -41.5t-112 -17.5q-112 0 -179 52.5t-67 132.5 zM465 1184l215 301q3 5 12.5 18t13 18t12 15t14 14t14 9.5t17.5 7.5t19 2q44 0 72.5 -31t28.5 -65q0 -10 -2.5 -19.5t-8.5 -18.5t-10.5 -15t-15.5 -15t-15.5 -12.5t-17.5 -13t-16 -11.5l-299 -215z" />
<glyph unicode="&#x454;" horiz-adv-x="872" d="M74 338q0 166 77 312.5t204.5 232.5t269.5 86q99 0 163 -41.5t64 -104.5q0 -38 -23 -60t-59 -22q-78 0 -90 88q-3 20 -6.5 30.5t-12.5 28t-28.5 26t-48.5 8.5q-65 0 -132 -65t-114.5 -157t-69.5 -186q77 66 181 66q35 0 120 -29q71 -27 111 -27q26 0 70 27l-7 -45 q-59 -41 -104.5 -57.5t-95.5 -16.5q-36 0 -117 29q-70 28 -104 28q-32 0 -64 -16q-20 -81 -20 -172q0 -264 180 -264t325 289l45 -25q-25 -56 -58.5 -106.5t-84 -102.5t-122 -83.5t-152.5 -31.5q-147 0 -222 102t-75 259z" />
<glyph unicode="&#x457;" horiz-adv-x="567" d="M45 719q38 59 86 112.5t113.5 95.5t122.5 42q48 0 72 -29.5t24 -79.5q0 -38 -12 -78l-179 -618q-12 -40 -12 -58q0 -32 29 -32q42 0 102 61.5t94 116.5l37 -25q-28 -43 -62.5 -84.5t-76.5 -80t-90 -62t-92 -23.5q-48 0 -72.5 30t-24.5 79q0 34 13 78l178 618q12 40 12 58 q0 32 -28 32q-42 0 -102.5 -61.5t-94.5 -116.5zM182 1251q0 41 31 72t72 31t71.5 -31t30.5 -72t-30.5 -71.5t-71.5 -30.5t-72 30.5t-31 71.5zM469 1251q0 41 30.5 72t71.5 31t72 -31t31 -72t-31 -71.5t-72 -30.5t-71.5 30.5t-30.5 71.5z" />
<glyph unicode="&#x458;" horiz-adv-x="524" d="M-319 -350q0 37 24.5 61.5t61.5 24.5q65 0 83 -68q6 -23 9.5 -32.5t12.5 -17t24 -7.5q19 0 37.5 14.5t35.5 46.5t30 59t28.5 77.5t23 75.5t21.5 77q5 20 8 29l215 792q10 36 10 58q0 32 -26 32q-38 0 -98.5 -57.5t-98.5 -120.5l-37 25q69 106 158.5 178t163.5 72 q45 0 69.5 -29.5t24.5 -79.5q0 -33 -10 -78l-201 -737q-26 -95 -67.5 -182.5t-96.5 -160.5t-126.5 -117t-147.5 -44q-66 0 -98.5 34.5t-32.5 74.5zM336 1251q0 41 30.5 72t71.5 31t72 -31t31 -72t-31 -71.5t-72 -30.5t-71.5 30.5t-30.5 71.5z" />
<glyph unicode="&#x459;" horiz-adv-x="1376" d="M-66 76q0 37 23.5 61.5t58.5 24.5q44 0 66 -39q1 -2 5.5 -11.5t7.5 -14t10 -9t16 -4.5q34 0 77.5 82t116.5 287q115 322 115 389q0 59 -84 59h-74l15 45h606l-133 -459h8q52 72 130.5 123.5t182.5 51.5q111 0 172.5 -68.5t61.5 -173.5q0 -117 -64 -220t-166 -163 t-211 -60q-137 0 -227 71.5t-90 199.5q0 74 21 147l137 475q3 13 -5.5 22t-29.5 9h-86q-18 0 -29 -1t-22.5 -6.5t-17.5 -12t-15.5 -23t-15 -33.5t-17 -50t-21 -65t-27.5 -86.5t-36 -107.5q-102 -298 -172 -418.5t-164 -120.5q-55 0 -89 27.5t-34 71.5zM694 186 q0 -80 40.5 -121.5t99.5 -41.5q78 0 152.5 63.5t119.5 160.5t45 193q0 88 -35.5 125t-77.5 37q-49 0 -109 -36.5t-112 -94t-87.5 -135t-35.5 -150.5z" />
<glyph unicode="&#x45a;" horiz-adv-x="1458" d="M45 719q38 59 86 112.5t113.5 95.5t122.5 42q48 0 72 -29.5t24 -79.5q0 -38 -12 -78l-74 -262h319l123 426h156l-133 -459h8q52 72 130.5 123.5t182.5 51.5q111 0 172.5 -68.5t61.5 -173.5q0 -117 -64 -220t-166 -163t-211 -60q-137 0 -227 71.5t-90 199.5q0 74 20 147 l23 80h-320l-135 -475h-155l223 782q12 40 12 58q0 32 -28 32q-42 0 -102.5 -61.5t-94.5 -116.5zM776 186q0 -80 40 -121.5t99 -41.5q78 0 153 63.5t120 160.5t45 193q0 88 -35.5 125t-77.5 37q-49 0 -109 -36.5t-112 -94t-87.5 -135t-35.5 -150.5z" />
<glyph unicode="&#x45b;" horiz-adv-x="1050" d="M31 0l317 1157h-264l10 45h266l39 141q7 23 7.5 40t-5 27t-12.5 16.5t-20 9.5t-22 3.5t-23 0.5h-64l12 45q83 7 182 39t171 73l-107 -395h379l-10 -45h-381l-166 -608h8q75 127 140 213t119 129.5t95.5 60.5t85.5 17q74 0 122 -34t48 -99q0 -28 -11 -74t-19 -66 l-172 -532q-13 -40 -13 -58q0 -32 29 -32q42 0 102.5 61.5t94.5 116.5l37 -25q-38 -59 -86 -112.5t-113.5 -95.5t-122.5 -42q-49 0 -72.5 29.5t-23.5 79.5q0 37 12 78l180 561q23 72 23 123q0 45 -55 45q-59 0 -168.5 -117.5t-200 -259t-111.5 -217.5l-82 -299h-155z" />
<glyph unicode="&#x45c;" horiz-adv-x="1007" d="M45 719q38 59 86 112.5t113.5 95.5t122.5 42q48 0 72 -29.5t24 -79.5q0 -38 -12 -78l-74 -258h43q27 0 51.5 7.5t42 16.5t39 31.5t32.5 35t31.5 46t28 46.5t29.5 53q73 129 115.5 169t109.5 40q49 0 79 -24t30 -71q0 -37 -19.5 -59t-54.5 -22q-58 0 -76 53q-2 7 -2 21.5 t-4 21t-16 6.5q-9 0 -18.5 -8t-19.5 -25t-15.5 -28t-15.5 -33.5t-11 -24.5q-52 -116 -111.5 -184t-150.5 -88v-8q164 -27 208 -236q4 -17 9.5 -47t9.5 -48.5t10.5 -39t16 -30t22.5 -9.5q27 0 69 53t74 113l41 -25q-52 -103 -122.5 -176.5t-133.5 -73.5q-20 0 -37 6.5 t-29.5 15.5t-23.5 28t-18 34t-15 42.5t-12 45.5t-11.5 52t-12.5 53q-32 135 -63.5 180t-82.5 45h-28l-138 -479h-155l223 782q12 40 12 58q0 32 -28 32q-42 0 -102.5 -61.5t-94.5 -116.5zM598 1184l215 301q3 5 12.5 18t13 18t12 15t14 14t14 9.5t17.5 7.5t19 2 q44 0 72.5 -31t28.5 -65q0 -10 -2.5 -19.5t-8.5 -18.5t-10.5 -15t-15.5 -15t-15.5 -12.5t-17.5 -13t-16 -11.5l-299 -215z" />
<glyph unicode="&#x45e;" horiz-adv-x="1052" d="M-55 -328q0 39 24 67t60 28q76 0 84 -105v-4q2 -15 5 -25t11 -22t24.5 -18.5t41.5 -6.5q316 0 516 811h-9q-75 -127 -140 -213t-119 -129.5t-95.5 -60.5t-85.5 -17q-74 0 -122 34.5t-48 99.5q0 56 31 139l172 532q12 37 12 58q0 32 -28 32q-42 0 -102.5 -61.5 t-94.5 -116.5l-37 25q38 59 86 112.5t113.5 95.5t122.5 42q49 0 72.5 -29.5t23.5 -79.5q0 -38 -12 -78l-181 -561q-22 -68 -22 -123q0 -45 55 -45q46 0 123 72t149 169t131.5 197t75.5 156l86 299h156l-199 -688q-41 -140 -93.5 -253.5t-104 -186.5t-111 -127.5t-107 -82 t-100 -44t-82.5 -20t-61 -3.5q-102 0 -161.5 35.5t-59.5 95.5zM451 1309q0 44 24.5 77t73.5 33q40 0 61 -22.5t21 -53.5q0 -39 -4 -49.5t-4 -21.5q0 -22 19.5 -36.5t53.5 -14.5q42 0 85 18.5t84.5 53t72.5 66.5t68 75l32 -25q-182 -246 -374 -246q-96 0 -154.5 47t-58.5 99z " />
<glyph unicode="&#x45f;" horiz-adv-x="1093" d="M45 719q38 59 86 112.5t113.5 95.5t122.5 42q49 0 72.5 -29.5t23.5 -79.5q0 -38 -12 -78l-181 -561q-22 -68 -22 -123q0 -45 55 -45q46 0 123 72t149 169t131.5 197t75.5 156l86 299h156l-225 -782q-13 -43 -13 -58q0 -32 29 -32q42 0 102.5 61.5t94.5 116.5l37 -25 q-38 -59 -86 -112.5t-113.5 -95.5t-122.5 -42q-48 0 -72 29.5t-24 79.5q0 37 12 78l68 233h-9q-75 -127 -140 -213t-119 -129.5t-95.5 -60.5t-85.5 -17q-74 0 -122 34.5t-48 99.5q0 56 31 139l172 532q12 37 12 58q0 32 -28 32q-42 0 -102.5 -61.5t-94.5 -116.5zM313 -412 q48 14 76.5 44.5t28.5 58.5q0 29 -10 71q-7 35 -7 62q0 29 14 62t30 56.5t45 61.5t42 57h46q-27 -35 -35 -71t-3 -62t13.5 -63.5t9.5 -63.5q2 -85 -55.5 -155t-173.5 -105z" />
<glyph unicode="&#x472;" horiz-adv-x="1566" d="M205 518q0 224 103 446.5t284 356.5q99 74 197 107.5t215 33.5q108 0 196.5 -30t148 -81t100 -121t59 -148t18.5 -164q0 -140 -40.5 -284t-130 -285.5t-216.5 -237.5q-184 -140 -410 -140q-45 0 -90 5.5t-98 21.5t-99.5 41.5t-91 68.5t-76 98t-50.5 135.5t-19 176.5z M410 510q0 -133 27 -230t74 -150t102 -77t120 -24q84 0 169.5 47t163.5 135t141 228t96 313q-41 -37 -56 -50.5t-55.5 -45.5t-66 -45.5t-62 -26.5t-68.5 -13q-73 0 -172 94l-11 11l-7 6q-63 59 -96 78q-37 20 -70 20q-45 0 -104 -30.5t-107 -73.5q-18 -99 -18 -166zM444 756 q192 151 310 151q47 0 88.5 -25t89.5 -69q50 -47 90.5 -71.5t87.5 -24.5q9 0 18.5 1.5t21 6t20.5 8.5t22.5 12t22.5 13t24.5 15.5t23.5 16t25.5 18l24.5 17.5q8 62 8 90q0 180 -34 280q-73 209 -292 210q-101 0 -193.5 -57t-161 -151.5t-118.5 -207t-78 -233.5z" />
<glyph unicode="&#x473;" horiz-adv-x="999" d="M74 371q0 158 66.5 294.5t187.5 220t268 83.5q69 0 125.5 -22.5t94 -60.5t63 -91.5t36.5 -113t11 -126.5q0 -117 -38 -222.5t-105 -184t-165 -125t-210 -46.5q-85 0 -151 33t-105 89.5t-58.5 125.5t-19.5 146zM238 268q0 -133 46 -189t111 -56q30 0 62 10t73.5 40.5 t77.5 78.5t72 132.5t59 194.5q-97 -119 -182 -119q-38 0 -62.5 19t-50.5 55q-31 45 -48 56q-16 10 -36 10q-30 0 -61.5 -28t-48.5 -58q-12 -59 -12 -146zM266 489q29 45 75.5 83t88.5 38q43 0 71.5 -19.5t55.5 -53.5l7 -8q7 -8 8 -9t7.5 -8.5t8.5 -9t8.5 -7.5t10 -7.5 t10 -5.5t11.5 -5t11.5 -2.5t13.5 -1.5q24 0 46.5 18t50.5 52q12 67 12 135q0 133 -44 189.5t-108 56.5q-106 0 -210 -126t-134 -309z" />
<glyph unicode="&#x474;" horiz-adv-x="1433" d="M250 1376l14 58h508l-14 -58h-84q-27 0 -45 -7t-26 -16t-10.5 -26.5t-2 -28t3.5 -30.5l108 -1020l515 954q24 45 40 72.5t46 67.5t59 62.5t71.5 40t90.5 17.5q129 0 129 -102q0 -56 -32 -94.5t-83 -38.5q-40 0 -64 20.5t-24 46.5q0 23 2 35q3 13 0 25q-6 14 -20 14 q-57 0 -150 -172l-664 -1225h-67l-154 1297q-8 55 -34 79q-32 29 -93 29h-20z" />
<glyph unicode="&#x475;" horiz-adv-x="1105" d="M4 719q64 101 150.5 175.5t171.5 74.5q107 0 123 -142v-4l83 -604l269 539q52 106 111 158.5t149 52.5q39 0 65 -10.5t36.5 -27.5t14 -30t3.5 -27q0 -31 -22.5 -50t-51.5 -19q-44 0 -66 29l-8 18q-9 18 -18 25.5t-25 7.5q-23 0 -44 -12.5t-41 -40.5t-30 -45t-28 -52 l-379 -758h-61l-113 846q-3 22 -12 33.5t-16.5 13.5t-18.5 2q-87 0 -201 -178z" />
<glyph unicode="&#x490;" horiz-adv-x="983" d="M0 0l14 57h97q77 0 96 78l291 1172q4 23 0.5 36.5t-16.5 21t-23 9.5t-19 2h-116l14 58h356q88 0 191 19.5t195 65.5t110 107l14 49h66l-76 -299h-410q-37 0 -65 -23t-33 -46l-293 -1182q-3 -5 -1.5 -16.5t5.5 -23t19 -20t39 -8.5h157l-14 -57h-598z" />
<glyph unicode="&#x491;" horiz-adv-x="716" d="M51 0l228 797q6 21 6 37.5t-3.5 27t-12 18t-16 11.5t-19.5 6t-18 2h-15h-54l15 47h268q39 0 89.5 7t118 24.5t119 58t64.5 97.5l4 18h45l-71 -252h-287q-49 0 -61 -47l-244 -852h-156z" />
<glyph unicode="&#x2000;" horiz-adv-x="951" />
<glyph unicode="&#x2001;" horiz-adv-x="1903" />
<glyph unicode="&#x2002;" horiz-adv-x="951" />
<glyph unicode="&#x2003;" horiz-adv-x="1903" />
<glyph unicode="&#x2004;" horiz-adv-x="634" />
<glyph unicode="&#x2005;" horiz-adv-x="475" />
<glyph unicode="&#x2006;" horiz-adv-x="317" />
<glyph unicode="&#x2007;" horiz-adv-x="317" />
<glyph unicode="&#x2008;" horiz-adv-x="237" />
<glyph unicode="&#x2009;" horiz-adv-x="380" />
<glyph unicode="&#x200a;" horiz-adv-x="105" />
<glyph unicode="&#x2010;" horiz-adv-x="819" d="M205 489v123h491v-123h-491z" />
<glyph unicode="&#x2011;" horiz-adv-x="819" d="M205 489v123h491v-123h-491z" />
<glyph unicode="&#x2012;" horiz-adv-x="819" d="M205 489v123h491v-123h-491z" />
<glyph unicode="&#x2013;" horiz-adv-x="1433" d="M246 516v70h1065v-70h-1065z" />
<glyph unicode="&#x2014;" horiz-adv-x="1761" d="M205 516v70h1433v-70h-1433z" />
<glyph unicode="&#x2018;" horiz-adv-x="483" d="M319 1081q0 114 78.5 203.5t225.5 177.5l24 -43q-29 -18 -57.5 -39t-65 -51.5t-58.5 -63t-22 -59.5q0 -5 1 -10t2 -8.5t4 -8t4.5 -6.5t6.5 -6.5t6.5 -5.5t7.5 -6t7 -6q74 -48 74 -115q0 -52 -32 -84t-83 -32q-55 0 -89 43.5t-34 119.5z" />
<glyph unicode="&#x2019;" horiz-adv-x="483" d="M238 961q29 18 57.5 39t64.5 51t58 63t22 60q0 5 -1 10t-2 8.5t-4 8t-4.5 6.5t-6.5 6.5t-6.5 5.5t-7.5 6t-7 6q-73 47 -73 115q0 52 31.5 84t82.5 32q55 0 89 -43.5t34 -120.5q0 -114 -78 -203t-225 -177z" />
<glyph unicode="&#x201a;" horiz-adv-x="483" d="M33 -272q29 18 57.5 39t65 51.5t58.5 63t22 59.5q0 5 -1 10t-2 8.5t-4 8t-4.5 6.5t-6.5 6.5t-6.5 5.5t-7.5 6t-7 6q-74 48 -74 115q0 52 32 84t83 32q55 0 88.5 -43t33.5 -120q0 -114 -78.5 -204t-224.5 -177z" />
<glyph unicode="&#x201c;" horiz-adv-x="843" d="M319 1081q0 114 78.5 203.5t225.5 177.5l24 -43q-29 -18 -57.5 -39t-65 -51.5t-58.5 -63t-22 -59.5q0 -5 1 -10t2 -8.5t4 -8t4.5 -6.5t6.5 -6.5t6.5 -5.5t7.5 -6t7 -6q74 -48 74 -115q0 -52 -32 -84t-83 -32q-55 0 -89 43.5t-34 119.5zM680 1081q0 114 78.5 204 t224.5 177l25 -43q-29 -18 -57.5 -39t-65 -51.5t-58.5 -63t-22 -59.5q0 -5 1 -10t2 -8.5t4 -8t4.5 -6.5t6.5 -6.5t6.5 -5.5t7.5 -6t7 -6q74 -48 74 -115q0 -52 -32 -84t-83 -32q-55 0 -89 43.5t-34 119.5z" />
<glyph unicode="&#x201d;" horiz-adv-x="843" d="M238 961q29 18 57.5 39t64.5 51t58 63t22 60q0 5 -1 10t-2 8.5t-4 8t-4.5 6.5t-6.5 6.5t-6.5 5.5t-7.5 6t-7 6q-73 47 -73 115q0 52 31.5 84t82.5 32q55 0 89 -43.5t34 -120.5q0 -114 -78 -203t-225 -177zM598 961q29 18 57.5 39t65 51.5t58.5 63t22 59.5q0 5 -1 10 t-2 8.5t-4 8t-4.5 6.5t-6.5 6.5t-6.5 5.5t-7.5 6t-7 6q-74 48 -74 115q0 52 32 84t83 32q55 0 89 -43.5t34 -120.5q0 -114 -78 -203t-225 -177z" />
<glyph unicode="&#x201e;" horiz-adv-x="843" d="M33 -272q29 18 57.5 39t65 51.5t58.5 63t22 59.5q0 5 -1 10t-2 8.5t-4 8t-4.5 6.5t-6.5 6.5t-6.5 5.5t-7.5 6t-7 6q-74 48 -74 115q0 52 32 84t83 32q55 0 88.5 -43t33.5 -120q0 -114 -78.5 -204t-224.5 -177zM393 -272q29 18 57.5 39t65 51.5t58.5 63t22 59.5q0 5 -1 10 t-2 8.5t-4 8t-4.5 6.5t-6.5 6.5t-6.5 5.5t-7.5 6t-7 6q-74 48 -74 115q0 52 32 84t83 32q55 0 89 -43.5t34 -119.5q0 -114 -78.5 -204t-224.5 -177z" />
<glyph unicode="&#x2022;" horiz-adv-x="1433" d="M512 717q0 113 77 189.5t189 76.5t189 -76.5t77 -189.5t-77 -189.5t-189 -76.5t-189 76.5t-77 189.5z" />
<glyph unicode="&#x2026;" horiz-adv-x="1392" d="M123 80q0 46 32 78t78 32t78.5 -32t32.5 -78t-32.5 -78.5t-78.5 -32.5t-78 32.5t-32 78.5zM586 80q0 46 32 78t78 32t78.5 -32t32.5 -78t-32.5 -78.5t-78.5 -32.5t-78 32.5t-32 78.5zM1049 80q0 46 32 78t78 32t78.5 -32t32.5 -78t-32.5 -78.5t-78.5 -32.5t-78 32.5 t-32 78.5z" />
<glyph unicode="&#x202f;" horiz-adv-x="380" />
<glyph unicode="&#x205f;" horiz-adv-x="475" />
<glyph unicode="&#x20ac;" d="M53 578l49 73h101q3 27 18 72l21 63h-129l51 74h104q114 303 268.5 452.5t391.5 149.5q228 0 286 -119l-36 -165h-39q17 101 -38 152.5t-165 51.5q-169 0 -286 -131.5t-210 -390.5h543l-49 -74h-518q-15 -33 -21 -65q-15 -50 -20 -70h467l-51 -73h-435 q-58 -254 -7 -390.5t208 -136.5q100 0 187 50.5t133 158.5h38l-57 -162q-129 -125 -358 -125q-440 0 -312 605h-135z" />
<glyph unicode="&#x2122;" horiz-adv-x="1863" d="M328 1255v179h573v-179h-47v31q0 26 -19 47.5t-46 33t-50 17t-37 5.5q-26 0 -26 -31v-461q0 -20 12 -26.5t37 -6.5h51v-45h-323v45h53q23 0 35 6.5t12 26.5v461q0 31 -27 31q-13 0 -36 -5.5t-49 -17t-45 -33t-19 -47.5v-31h-49zM979 819v45h37q21 0 34.5 15.5t18.5 46 t6.5 54.5t1.5 62v314q0 20 -12 26.5t-37 6.5h-47v45h236l190 -435l192 435h224v-45h-51q-24 0 -36 -6.5t-12 -26.5v-459q0 -20 12 -26.5t36 -6.5h51v-45h-322v45h51q25 0 36 7t11 26v430l-223 -508h-24l-226 508v-285q0 -37 1.5 -62t7 -55t19 -45.5t34.5 -15.5h26v-45h-235z " />
<glyph unicode="&#x25fc;" horiz-adv-x="972" d="M0 0v973h973v-973h-973z" />
</font>
</defs>
</svg>
