<?xml version="1.0" standalone="no"?>
<!DOCTYPE svg PUBLIC "-//W3C//DTD SVG 1.1//EN" "http://www.w3.org/Graphics/SVG/1.1/DTD/svg11.dtd" >
<svg xmlns="http://www.w3.org/2000/svg" xmlns:xlink="http://www.w3.org/1999/xlink" version="1.1">
<metadata></metadata>
<defs>
<font id="pragmaticalightcbold" horiz-adv-x="1228" >
<font-face units-per-em="2048" ascent="1589" descent="-459" />
<missing-glyph horiz-adv-x="477" />
<glyph horiz-adv-x="0" />
<glyph horiz-adv-x="682" />
<glyph unicode=" "  horiz-adv-x="477" />
<glyph unicode="&#x09;" horiz-adv-x="477" />
<glyph unicode="&#xa0;" horiz-adv-x="477" />
<glyph unicode="!" horiz-adv-x="704" d="M217 0v276h270v-276h-270zM217 940v494h270v-494l-69 -491h-131z" />
<glyph unicode="&#x22;" horiz-adv-x="1024" d="M102 1434h349l-105 -394h-139zM573 1434h349l-105 -394h-139z" />
<glyph unicode="#" horiz-adv-x="1495" d="M102 334l31 205h275l57 366h-275l31 205h275l49 311h188l-49 -311h246l49 311h188l-49 -311h275l-31 -205h-275l-57 -366h275l-31 -205h-275l-49 -314h-188l49 314h-246l-49 -314h-188l49 314h-275zM596 539h246l57 366h-246z" />
<glyph unicode="$" horiz-adv-x="1347" d="M92 461h225q1 -32 7 -64.5t24.5 -78.5t47 -81.5t80 -64.5t118.5 -37v512q-83 16 -146 36t-123 54t-99 79t-62 112t-23 151q0 85 29.5 154t76 112t108 72.5t120.5 42t119 13.5v118h168v-118q183 2 311.5 -113.5t145.5 -304.5h-226q-5 56 -24.5 99.5t-44 68.5t-56.5 41.5 t-56.5 23t-49.5 8.5v-446q140 -19 238 -59.5t153 -101t78.5 -131.5t23.5 -163q0 -82 -22 -149.5t-55.5 -111.5t-81.5 -77.5t-92 -51t-95 -28.5t-83.5 -14t-63.5 -4v-149h-168v149q-120 -2 -216.5 40t-156 114.5t-92 161t-37.5 186.5zM403 1090q0 -167 191 -205v411 q-21 -2 -40 -5.5t-48.5 -17t-50.5 -34t-36.5 -59.5t-15.5 -90zM762 135q72 4 121.5 29.5t71.5 65t30 72t8 67.5q0 107 -67 169t-164 74v-477z" />
<glyph unicode="%" horiz-adv-x="1945" d="M111 1040q0 182 92.5 296t255.5 114t255.5 -114t92.5 -296t-92.5 -295.5t-255.5 -113.5t-255.5 113.5t-92.5 295.5zM274 1040q0 -75 16 -130t36 -81.5t50 -42t47 -18t36 -2.5t36 2.5t46.5 18t50 42t36 81.5t15.5 130t-15.5 130t-36 82t-50 42.5t-46.5 18t-36 2.5 t-36.5 -2.5t-46.5 -18t-49.5 -42.5t-36.5 -82t-16 -130zM446 0l863 1434h190l-862 -1434h-191zM1139 393q0 182 92.5 296t255.5 114t255.5 -114t92.5 -296t-92.5 -295.5t-255.5 -113.5t-255.5 113.5t-92.5 295.5zM1303 393q0 -75 15.5 -130t36 -81.5t50 -42t46.5 -18 t36 -2.5t36 2.5t46.5 18t50 42t36 81.5t15.5 130t-15.5 130t-36 82t-50 42.5t-46.5 18t-36 2.5t-36 -2.5t-46.5 -18t-50 -42.5t-36 -82t-15.5 -130z" />
<glyph unicode="&#x26;" horiz-adv-x="1445" d="M147 391q0 159 90 264t250 176q-59 62 -93 141t-34 148q0 141 99.5 227.5t263.5 86.5q77 0 138 -20.5t97.5 -52t60.5 -73.5t33 -80.5t9 -77.5q0 -114 -65.5 -200.5t-192.5 -155.5l256 -303q45 73 59 172h213q-14 -90 -51 -183t-82 -161l248 -299h-283l-112 137 q-168 -180 -447 -180q-112 0 -201.5 36.5t-144 98.5t-83 138.5t-28.5 160.5zM410 399q0 -108 65 -178.5t172 -70.5q156 0 279 143l-314 383q-103 -43 -152.5 -110.5t-49.5 -166.5zM578 1135q0 -53 25.5 -102.5t82.5 -114.5q158 73 158 204q0 144 -123 144q-60 0 -101.5 -30 t-41.5 -101z" />
<glyph unicode="'" horiz-adv-x="552" d="M102 1434h349l-105 -394h-139z" />
<glyph unicode="(" horiz-adv-x="806" d="M143 528q0 217 70 423t233 483h189q-250 -484 -250 -906q0 -202 67.5 -445t182.5 -460h-189q-163 277 -233 482.5t-70 422.5z" />
<glyph unicode=")" horiz-adv-x="806" d="M172 -377q250 484 250 905q0 203 -67.5 446t-182.5 460h188q163 -277 233.5 -483t70.5 -423t-70.5 -422t-233.5 -483h-188z" />
<glyph unicode="*" horiz-adv-x="958" d="M135 1210l39 119l240 -78v254h131v-254l239 78l39 -119l-235 -77l149 -209l-104 -76l-154 207l-153 -207l-105 76l150 209z" />
<glyph unicode="+" d="M102 639v176h424v424h176v-424h424v-176h-424v-424h-176v424h-424z" />
<glyph unicode="," horiz-adv-x="704" d="M217 0v276h270v-284q0 -83 -23.5 -145t-64.5 -96.5t-85.5 -52t-96.5 -22.5v142q61 3 99 47t38 112v23h-137z" />
<glyph unicode="-" horiz-adv-x="860" d="M164 442v217h532v-217h-532z" />
<glyph unicode="." horiz-adv-x="704" d="M217 0v276h270v-276h-270z" />
<glyph unicode="/" horiz-adv-x="901" d="M0 -379l733 1813h168l-733 -1813h-168z" />
<glyph unicode="0" d="M92 717q0 70 5 136t20 144t38.5 144t64 129.5t93.5 108t130 71.5t171 27t171 -27t130 -71.5t94 -108t64.5 -129.5t38.5 -144t20 -144t5 -136t-5 -136t-20 -144t-38.5 -144t-64.5 -129.5t-94 -108t-130 -71.5t-171 -27t-171 27t-130 71.5t-93.5 108t-64 129.5t-38.5 144 t-20 144t-5 136zM358 717q0 -107 10 -192.5t26 -141t39.5 -96.5t45 -62t49 -33.5t46 -15t40.5 -2.5t40.5 2.5t46 15t49 33.5t45 62t39.5 96.5t26 141t10 192.5t-10 192.5t-26 141t-39.5 96.5t-45 62t-49 33.5t-46 15t-40.5 2.5t-40.5 -2.5t-46 -15t-49 -33.5t-45 -62 t-39.5 -96.5t-26 -141t-10 -192.5z" />
<glyph unicode="1" d="M250 1044v134h29q150 0 252 72t120 184h193v-1434h-262v1044h-332z" />
<glyph unicode="2" d="M100 0q-1 129 31.5 228t111 177.5t132.5 117.5t168 108q8 5 13 8l12.5 7.5t13.5 8.5q40 24 65 40t60.5 41.5t57.5 46t47 49.5t38.5 57t23 64t9.5 75q0 24 -3.5 48t-18.5 59.5t-41 61t-76.5 44.5t-118.5 19q-74 0 -128 -21.5t-81 -50.5t-42.5 -70.5t-18.5 -68.5t-3 -58 v-35h-252v37q0 98 26.5 177t65.5 128t95 85.5t103.5 53.5t104.5 27t83.5 11.5t52.5 1.5q112 0 205 -27t163.5 -81t110 -141t39.5 -200q0 -61 -12 -115.5t-29.5 -96.5t-50 -82.5t-61 -68t-75 -61t-79.5 -54.5t-87 -53q-27 -16 -40 -24q-175 -106 -233.5 -153t-82.5 -103h736 v-217h-1035z" />
<glyph unicode="3" d="M74 463h252q0 -35 2 -53q4 -35 12.5 -66.5t28.5 -66t47.5 -59.5t73 -41.5t102.5 -16.5q52 0 88 10q47 12 82 37.5t53 52.5t29 60.5t13.5 56t2.5 45.5q0 42 -9.5 76t-24.5 56t-37.5 38.5t-43.5 24.5t-48 13t-45.5 6t-41.5 1h-104v217h55q25 0 43 0.5t48.5 5t52 12t47 23 t41.5 36.5t27 54.5t11 75.5q0 35 -8.5 66.5t-30 63t-66 50.5t-108.5 19q-129 0 -186 -70t-59 -209h-252q-1 48 4 93.5t19.5 96t37.5 93.5t62 83t89.5 68.5t122.5 45t158 16.5q104 0 186.5 -21t137.5 -57t91.5 -87t52.5 -109t16 -126q0 -117 -67 -202.5t-179 -108.5v-4 q55 -7 102.5 -31.5t87 -67.5t62 -111t22.5 -153q0 -209 -142.5 -325.5t-385.5 -116.5q-101 0 -183.5 21t-136 53.5t-93.5 79t-61 91t-33 97.5t-15 89.5t-2 74.5z" />
<glyph unicode="4" d="M47 313v217l676 904h260v-904h199v-217h-199v-313h-262v313h-674zM311 530h410v570z" />
<glyph unicode="5" d="M84 387h252q4 -41 20.5 -79.5t46.5 -72.5t80 -54.5t113 -20.5q32 0 61.5 5.5t62.5 18t59.5 36.5t48.5 58t34 85.5t12 115.5q0 58 -11.5 105t-29 77.5t-43.5 52.5t-49.5 33t-52 17.5t-46 8t-36.5 1.5q-42 0 -82.5 -8.5t-86 -36.5t-72.5 -74h-248l98 779h838v-217h-645 l-48 -332q106 106 316 106q211 0 338 -132.5t127 -377.5q0 -104 -26 -187.5t-64.5 -137t-94.5 -93t-106 -59t-109 -31t-93 -14t-68 -2.5q-109 0 -195 28t-138 70.5t-88.5 102t-52 114t-22.5 115.5z" />
<glyph unicode="6" d="M86 637q0 153 19 278t50.5 211t78 150.5t95 102t108 60.5t111 30.5t109.5 7.5q112 0 201 -31t145.5 -84.5t89.5 -117t44 -136.5h-252q-39 152 -228 152q-38 0 -71.5 -6.5t-77.5 -32t-76.5 -68t-57.5 -122t-30 -187.5h4q91 129 324 129q221 0 348 -130.5t127 -365.5 q0 -244 -142.5 -382t-388.5 -138q-100 0 -180.5 24t-135 63t-95 97t-62.5 115.5t-35.5 129t-17.5 128.5t-4 123zM352 465q0 -41 6 -78t23 -77.5t45 -69t77 -47.5t113 -19q134 0 199.5 81t65.5 210t-65.5 210t-199.5 81q-64 0 -113 -19t-77 -47.5t-45 -69t-23 -77.5t-6 -78z " />
<glyph unicode="7" d="M61 1217v217h1106v-181q-140 -142 -231.5 -284.5t-169.5 -327.5q-70 -163 -102 -301.5t-50 -339.5h-274q40 305 168 604q148 336 420 613h-867z" />
<glyph unicode="8" d="M113 401q0 88 23 157.5t61 110.5t73.5 63.5t75.5 35.5q-89 39 -139.5 120t-50.5 195q0 57 11 108t41.5 105t80 92.5t133 63.5t192.5 25t192.5 -25t133 -63.5t80.5 -92.5t42 -105t11 -108q0 -114 -50.5 -195t-139.5 -120q30 -10 58.5 -25t61.5 -45t57 -68t40 -97.5 t16 -131.5q0 -80 -18.5 -146t-48.5 -111t-72.5 -79.5t-86.5 -54.5t-95.5 -32.5t-94 -16.5t-86.5 -4q-64 0 -124 8.5t-131.5 37.5t-123.5 75t-87 129.5t-35 193.5zM379 414q0 -98 58 -169t177 -71t177.5 71t58.5 169q0 40 -11 78t-36 75.5t-73.5 60.5t-115.5 23t-115.5 -23 t-73 -60.5t-35.5 -75.5t-11 -78zM401 1067q0 -35 10 -67t32.5 -63.5t66.5 -50t104 -18.5t104 18.5t66.5 50t32.5 63.5t10 67q0 21 -3.5 42.5t-17 50t-35 49.5t-62.5 36t-95 15t-95 -15t-62.5 -36t-35 -49.5t-17 -50t-3.5 -42.5z" />
<glyph unicode="9" d="M82 956q0 245 142 383t388 138q78 0 144.5 -15t116.5 -40t90.5 -62t68 -78t48.5 -91.5t32.5 -97.5t18.5 -102t9.5 -99.5t2.5 -94.5q0 -153 -19 -278t-50 -211t-77 -150.5t-94.5 -102t-108.5 -60.5t-111.5 -30.5t-111.5 -7.5q-112 0 -201 31t-145 84.5t-89 117t-44 136.5 h252q39 -152 227 -152q38 0 71.5 6.5t78 32t77 68t57.5 122t30 187.5h-4q-91 -129 -324 -129q-221 0 -348 130t-127 365zM348 969q0 -129 65 -210t199 -81q64 0 113 19t77 47.5t45.5 69t23.5 77.5t6 78t-6 78t-23.5 77.5t-45.5 69t-77 47.5t-113 19q-134 0 -199 -81 t-65 -210z" />
<glyph unicode=":" horiz-adv-x="704" d="M217 0v276h270v-276h-270zM217 764v276h270v-276h-270z" />
<glyph unicode=";" horiz-adv-x="704" d="M217 0v276h270v-284q0 -83 -23.5 -145t-64.5 -96.5t-85.5 -52t-96.5 -22.5v142q61 3 99 47t38 112v23h-137zM217 764v276h270v-276h-270z" />
<glyph unicode="&#x3c;" horiz-adv-x="1388" d="M123 637v127l1012 569l82 -147l-887 -486l887 -485l-82 -147z" />
<glyph unicode="=" d="M102 414v176h1024v-176h-1024zM102 823v176h1024v-176h-1024z" />
<glyph unicode="&#x3e;" horiz-adv-x="1388" d="M172 215l887 485l-887 486l82 147l1012 -569v-127l-1012 -569z" />
<glyph unicode="?" horiz-adv-x="1179" d="M109 991q-2 63 8 123.5t42.5 128t84.5 118t143.5 83.5t210.5 33q102 0 184 -23t135 -61t88.5 -90.5t50.5 -109t15 -118.5q0 -60 -15 -110.5t-45.5 -91t-60 -69t-73.5 -61.5q-67 -52 -96.5 -76.5t-56.5 -57t-34.5 -61t-7.5 -71.5v-37h-205q-2 109 12.5 167t73.5 126 q23 27 71 67.5t82 70.5t61.5 80.5t27.5 107.5q0 86 -52 143.5t-159 57.5q-49 0 -90 -13t-75.5 -42t-53 -83.5t-15.5 -130.5h-251zM440 0v276h271v-276h-271z" />
<glyph unicode="@" horiz-adv-x="1761" d="M123 719q0 224 100 398t272.5 267t387.5 93q151 0 277 -38.5t213 -105.5t147.5 -158.5t89 -196t28.5 -218.5q0 -194 -107 -326.5t-274 -132.5q-67 0 -122.5 22t-75.5 66q-65 -100 -219 -100q-70 0 -131 22.5t-112.5 69t-81.5 126.5t-30 185q0 81 20.5 152.5t60.5 128.5 t106.5 90t152.5 33q56 0 112 -22t89 -64h4v57h205v-485v-29.5t3 -28t8.5 -29t17 -18t28.5 -8.5q28 0 57 14.5t58.5 45.5t48.5 91t19 140q0 83 -19.5 162t-65 154.5t-112 131.5t-168.5 90.5t-227 34.5q-175 0 -311.5 -81t-210.5 -220.5t-74 -312.5q0 -272 166.5 -445.5 t429.5 -173.5q172 0 307 93l72 -130q-84 -52 -173 -79t-206 -27q-158 0 -295.5 51t-241 146t-163.5 240.5t-60 324.5zM700 690q0 -59 11 -103t27.5 -68t39.5 -38.5t42 -19t40 -4.5q146 0 146 233q0 62 -11 108t-27 70t-37.5 38.5t-37 18t-31.5 3.5q-56 0 -94 -36t-53 -87.5 t-15 -114.5z" />
<glyph unicode="A" horiz-adv-x="1327" d="M-8 0l540 1434h263l540 -1434h-280l-105 301h-573l-105 -301h-280zM446 518h435l-217 637z" />
<glyph unicode="B" horiz-adv-x="1464" d="M174 0v1434h676q105 0 185 -23t126.5 -58.5t75.5 -86t39 -97t10 -98.5q0 -118 -66 -203t-171 -104v-4q40 -7 77 -20.5t78.5 -41t71.5 -66t50 -98.5t20 -133q0 -75 -18.5 -136t-47.5 -102t-73 -71.5t-88.5 -47.5t-100 -27.5t-100.5 -13.5t-97 -3h-647zM436 217h359 q65 0 112 9t87 32t60.5 66t20.5 106q0 55 -19 95t-45 60.5t-67 32.5t-71.5 14.5t-71.5 2.5h-365v-418zM436 852h346q114 0 174 40t60 130q0 39 -11 70.5t-27 51.5t-39.5 34.5t-44.5 21.5t-47 11.5t-40 5t-31 0.5h-340v-365z" />
<glyph unicode="C" horiz-adv-x="1501" d="M92 692q0 172 38.5 308t103.5 224t155.5 146t189 82.5t209.5 24.5q102 0 188 -17.5t147 -46.5t109.5 -70.5t78.5 -86t50.5 -96t29.5 -96.5t12 -93h-260q-7 51 -25.5 96.5t-56.5 91.5t-108 73.5t-165 27.5q-93 0 -165.5 -30t-119 -80.5t-76 -123t-42 -152t-12.5 -172.5 q0 -247 122 -387.5t320 -140.5q86 0 153 27t107.5 73t62.5 100.5t25 114.5h260q-7 -73 -25 -139.5t-62.5 -141t-110 -127.5t-174.5 -88.5t-248 -35.5q-28 0 -54 1t-80 8.5t-100.5 20t-107.5 38.5t-110 62t-99 92.5t-83.5 127t-55 169.5t-21.5 216z" />
<glyph unicode="D" horiz-adv-x="1527" d="M174 0v1434h569q122 0 223 -24t171.5 -63.5t124.5 -97t86.5 -118.5t52.5 -134.5t27.5 -139t7.5 -136.5q0 -721 -744 -721h-518zM436 217h244q36 0 67 2.5t82 13.5t92 30t86.5 56.5t76 88.5t51 130.5t20.5 178.5q0 126 -31 221t-75.5 146.5t-107 83t-113.5 40.5t-107 9 h-285v-1000z" />
<glyph unicode="E" horiz-adv-x="1306" d="M174 0v1434h1075v-217h-813v-373h729v-217h-729v-410h836v-217h-1098z" />
<glyph unicode="F" horiz-adv-x="1216" d="M174 0v1434h1016v-217h-754v-394h649v-217h-649v-606h-262z" />
<glyph unicode="G" horiz-adv-x="1548" d="M92 692q0 139 26 254.5t68 195t102 141t122 97.5t134 58.5t132 30.5t121 8q140 0 249.5 -32t174.5 -80.5t108.5 -116.5t61 -128.5t22.5 -128.5h-260q-6 46 -25.5 89t-58 85.5t-108.5 68.5t-164 26q-76 0 -138.5 -19.5t-105.5 -52t-76 -79t-52.5 -95t-31.5 -105.5 t-16 -106t-4 -101q0 -122 30 -218t76 -152.5t107.5 -93.5t117 -50.5t111.5 -13.5q44 0 88.5 8t98 33t94 65t68.5 110t30 161h-350v217h586v-768h-189v195h-4q-123 -238 -444 -238q-105 0 -201 22t-189 76t-160.5 135.5t-109 210.5t-41.5 291z" />
<glyph unicode="H" horiz-adv-x="1511" d="M174 0v1434h262v-574h639v574h262v-1434h-262v643h-639v-643h-262z" />
<glyph unicode="I" horiz-adv-x="610" d="M174 0v1434h262v-1434h-262z" />
<glyph unicode="J" horiz-adv-x="1128" d="M47 418v80h262v-60q0 -70 15 -121t36 -77.5t52 -42.5t54.5 -19.5t51.5 -3.5q36 0 61.5 4.5t54 22t45.5 49t28.5 88.5t11.5 137v959h262v-926q0 -61 -2.5 -107t-13.5 -106.5t-29.5 -105t-53.5 -90.5t-83 -75.5t-120 -48t-163 -18.5q-110 0 -194.5 28t-135.5 72.5t-83 107 t-44 123.5t-12 130z" />
<glyph unicode="K" horiz-adv-x="1445" d="M174 0v1434h262v-646l627 646h352l-594 -594l633 -840h-352l-473 664l-193 -187v-477h-262z" />
<glyph unicode="L" horiz-adv-x="1122" d="M174 0v1434h262v-1217h699v-217h-961z" />
<glyph unicode="M" horiz-adv-x="1912" d="M174 0v1434h391l391 -1088l392 1088h391v-1434h-262v1079l4 56h-4l-422 -1135h-197l-422 1135h-4l4 -56v-1079h-262z" />
<glyph unicode="N" horiz-adv-x="1576" d="M174 0v1434h279l688 -1018v1018h262v-1434h-279l-688 1018v-1018h-262z" />
<glyph unicode="O" horiz-adv-x="1589" d="M92 717q0 120 20.5 221.5t53.5 174t81 131.5t96.5 96t107.5 64.5t105.5 41t100 21t81 9.5t57.5 1.5t57.5 -2t81 -9t99.5 -21t105.5 -41t107.5 -64.5t96.5 -96t81 -131.5t53 -174t20.5 -221.5t-20.5 -221.5t-53 -174t-81 -131.5t-96.5 -96t-107.5 -64.5t-105.5 -41 t-99.5 -21t-81 -9t-57.5 -1.5t-57.5 1.5t-81 9t-100 21t-105.5 41t-107.5 64.5t-96.5 96t-81 131.5t-53.5 174t-20.5 221.5zM373 717q0 -51 4.5 -100t17.5 -104t32.5 -102.5t53 -92t76 -76t104 -50t134.5 -18.5t134.5 18.5t104 50t76 76t53 92t32.5 102.5t17.5 104t4.5 100 t-4.5 100t-17.5 104t-32.5 102.5t-53 92t-76 76t-104 50t-134.5 18.5t-134.5 -18.5t-104 -50t-76 -76t-53 -92t-32.5 -102.5t-17.5 -104t-4.5 -100z" />
<glyph unicode="P" horiz-adv-x="1368" d="M174 0v1434h571q56 0 102.5 -3t106 -14t106 -29.5t94 -52.5t79 -79.5t51 -113.5t19.5 -153q0 -101 -30 -182t-94 -145t-174.5 -99t-261.5 -35h-307v-528h-262zM436 745h305q44 0 77.5 3t76.5 17t70.5 37.5t47 68t19.5 106.5q0 65 -21.5 112t-50.5 71t-73 37.5t-74.5 16.5 t-69.5 3h-307v-472z" />
<glyph unicode="Q" horiz-adv-x="1589" d="M92 717q0 120 20.5 221.5t53.5 174t81 131.5t96.5 96t107.5 64.5t105.5 41t100 21t81 9t57.5 1.5q28 0 55 -1.5t80 -9t99.5 -21t106 -41t108 -64.5t97 -96t82 -131.5t54 -174t20.5 -221.5q0 -72 -9 -142.5t-30.5 -149.5t-64 -153t-103.5 -129l148 -188l-142 -127 l-163 207q-128 -78 -338 -78q-29 0 -57.5 1.5t-81.5 9.5t-99.5 21.5t-105.5 41t-107.5 64.5t-96.5 96t-81 131t-53.5 174t-20.5 221zM373 717q0 -60 7 -117t23.5 -121t48 -116.5t76.5 -96t113.5 -68t153.5 -24.5q122 0 192 49l-158 199l152 119l147 -189q89 146 89 365 q0 51 -4.5 100t-17.5 104t-32.5 102.5t-53 92t-76 76t-104 50t-134.5 18.5t-134.5 -18.5t-104 -50t-76 -76t-53 -92t-32.5 -102.5t-17.5 -104t-4.5 -100z" />
<glyph unicode="R" horiz-adv-x="1449" d="M174 0v1434h641q518 0 518 -400q0 -76 -20.5 -138.5t-56 -103.5t-76 -67t-86.5 -39v-4q43 -14 76.5 -35.5t55 -44t37 -55t23.5 -57.5t12.5 -63t5 -59.5t1.5 -58.5q2 -161 9 -211t44 -98h-271q-30 48 -37.5 102t-7.5 197q0 34 -1.5 56.5t-7.5 54t-18 51.5t-34 42.5 t-53.5 35.5t-79.5 21.5t-109 8.5h-303v-569h-262zM436 786h328q47 0 83 3.5t79 16.5t71 35t47 63t19 97q0 50 -13.5 88t-39.5 60.5t-53 37t-64.5 20.5t-63 8t-59.5 2h-334v-431z" />
<glyph unicode="S" horiz-adv-x="1400" d="M92 461h260q2 -37 12 -72t36 -75.5t65 -70t106.5 -49.5t153.5 -20q303 0 303 215q0 36 -10 65.5t-24 50t-39 38t-44 27t-50.5 19t-46.5 12.5t-44 9q-39 7 -168 35q-57 13 -98.5 24.5t-91 30t-83.5 39t-69 52t-55.5 68.5t-33.5 88t-13 112q0 83 26 150.5t64.5 110t95 74 t106 47t109.5 24.5t93 10.5t69 1.5q137 0 243 -34.5t170.5 -95t99.5 -133.5t42 -159h-260q-25 205 -301 205q-15 0 -28 -0.5t-43.5 -4.5t-54.5 -10.5t-53.5 -20.5t-49.5 -33.5t-34 -51t-14 -70.5q0 -35 11 -63t34.5 -47.5t48 -33t64.5 -24.5t69 -17t76 -15q11 -2 17 -3 q78 -14 135.5 -27t118.5 -32.5t103 -42.5t81 -56.5t62.5 -74.5t37 -95.5t13.5 -121.5q0 -459 -600 -459q-102 0 -188 16t-148 44t-110.5 67.5t-79.5 83t-51 95t-29 99t-11 99.5z" />
<glyph unicode="T" horiz-adv-x="1216" d="M27 1217v217h1163v-217h-451v-1217h-262v1217h-450z" />
<glyph unicode="U" horiz-adv-x="1478" d="M147 551v883h263v-842q0 -220 74 -319t255 -99t255.5 99t74.5 319v842h262v-883q0 -59 -3.5 -106.5t-17.5 -111.5t-38 -113.5t-69 -101t-105.5 -85t-152.5 -55t-206 -21.5t-206 21.5t-152.5 55t-105.5 85t-69 101t-38 113.5t-17.5 111.5t-3.5 106.5z" />
<glyph unicode="V" horiz-adv-x="1273" d="M-8 1434h284l361 -1162l360 1162h285l-494 -1434h-303z" />
<glyph unicode="W" horiz-adv-x="1933" d="M-8 1434h295l280 -1131l252 1131h295l252 -1131l281 1131h295l-390 -1434h-331l-254 1124l-254 -1124h-332z" />
<glyph unicode="X" horiz-adv-x="1363" d="M0 0l518 733l-481 701h328l317 -519l317 519h328l-481 -701l518 -733h-338l-344 553l-344 -553h-338z" />
<glyph unicode="Y" horiz-adv-x="1298" d="M-8 1434h309l348 -629l348 629h310l-527 -863v-571h-262v571z" />
<glyph unicode="Z" horiz-adv-x="1255" d="M53 0v233l774 984h-735v217h1065v-201l-774 -1016h819v-217h-1149z" />
<glyph unicode="[" horiz-adv-x="796" d="M217 -379v1813h471v-168h-229v-1477h229v-168h-471z" />
<glyph unicode="\" horiz-adv-x="901" d="M0 1434h168l733 -1813h-168z" />
<glyph unicode="]" horiz-adv-x="796" d="M109 -211h229v1477h-229v168h471v-1813h-471v168z" />
<glyph unicode="^" horiz-adv-x="987" d="M102 987l260 447h263l260 -447h-197l-194 344l-195 -344h-197z" />
<glyph unicode="_" horiz-adv-x="1011" d="M0 -211h1012v-168h-1012v168z" />
<glyph unicode="`" horiz-adv-x="696" d="M90 1434h266l144 -271h-185z" />
<glyph unicode="a" horiz-adv-x="1181" d="M76 276q0 61 21 112t49 81t65.5 53t60 31.5t43.5 13.5q36 10 72.5 16.5t93 13t76.5 9.5q17 2 50.5 7.5t49.5 7.5q71 10 87 18q34 18 36 84v10q0 180 -202 180q-125 0 -186 -57q-56 -53 -56 -125v-12h-234v10q0 67 25 127q27 64 82.5 115t150 80.5t218.5 29.5 q87 0 157 -14.5t116 -36.5t79.5 -55.5t51.5 -64.5t28.5 -70.5t13 -67t2.5 -59.5v-416q0 -81 14 -106q12 -22 60 -22q8 0 16 1v-170q-92 -6 -108 -6q-179 0 -203 135q-121 -154 -346 -154q-102 0 -177.5 24t-113.5 56.5t-60.5 78.5t-27 77t-4.5 65zM330 285q0 -64 40 -103 t122 -39q40 0 76.5 7t76.5 28t68.5 55t47.5 93t19 137v37q-40 -27 -176 -43q-34 -5 -49 -7t-43.5 -6.5t-41.5 -8t-34.5 -10t-32 -13t-25 -15.5t-21.5 -20t-14.5 -24.5t-10 -30.5t-2.5 -37z" />
<glyph unicode="b" horiz-adv-x="1302" d="M147 0v1434h246v-500q23 41 63.5 71.5t78 44t83 21.5t65 9t38.5 1q85 0 156 -20t120.5 -53.5t88.5 -81t62.5 -97.5t39 -107t21 -107t5.5 -101q0 -117 -29 -212t-78 -158t-114.5 -105.5t-135 -61t-144.5 -18.5q-93 0 -183 32.5t-153 110.5h-4v-102h-226zM375 518 q0 -178 72.5 -284.5t203.5 -106.5q38 0 74.5 7.5t79 32.5t74 65.5t52.5 112.5t21 167q0 206 -82.5 303.5t-207.5 97.5q-37 0 -72 -8t-75.5 -34t-70 -67.5t-49.5 -115t-20 -170.5z" />
<glyph unicode="c" horiz-adv-x="1175" d="M88 518q0 110 22 198.5t55.5 146t82.5 100t94 64.5t99.5 35t89 16t71.5 3q115 0 208 -32t152 -86.5t93 -122.5t43 -146h-234q-10 91 -72.5 155t-175.5 64q-74 0 -127 -31t-82.5 -87.5t-43 -124.5t-13.5 -152q0 -94 18.5 -165.5t46.5 -113.5t67 -68t74.5 -35t74.5 -9 q64 0 112.5 25.5t73.5 66.5t37 81t14 81h234q-5 -52 -20 -103t-51 -111t-87.5 -104t-138 -74t-195.5 -30q-257 0 -389.5 151t-132.5 408z" />
<glyph unicode="d" horiz-adv-x="1302" d="M88 514q0 114 29 213.5t87 180t155 127t223 46.5q19 0 38 -1t65 -9t83 -21.5t77.5 -44t63.5 -71.5v500h246v-1434h-225v102h-4q-46 -57 -114 -91t-119 -43t-103 -9q-76 0 -146 18.5t-135.5 61t-114 105.5t-77.5 158t-29 212zM350 512q0 -99 23 -173t55.5 -113t76 -63 t75 -30t63.5 -6q130 0 207.5 109t77.5 282q0 97 -20 170.5t-50 115t-70.5 67.5t-75.5 34t-71 8q-59 0 -109.5 -22t-92 -67.5t-65.5 -125t-24 -186.5z" />
<glyph unicode="e" horiz-adv-x="1216" d="M88 502q0 270 134 424.5t396 154.5q93 0 169.5 -21t127 -54t89.5 -83.5t60 -97.5t35.5 -108t19 -104.5t7.5 -96.5q0 -10 1 -29.5t1 -29.5h-778v-8q0 -37 8 -77q9 -44 30 -88.5t53 -79t83 -56t113 -21.5q89 0 160 46t82 128h233q-9 -46 -25.5 -88t-53.5 -90t-89 -83 t-137 -58t-191 -23q-23 0 -45.5 1t-62.5 7t-75.5 16t-79 30t-79.5 47t-71.5 68.5t-60 93.5t-39.5 124t-15 156zM350 625h518q-1 34 -5.5 66.5t-20.5 75t-41.5 73t-72 52t-107.5 21.5q-69 0 -123.5 -25.5t-86 -68t-47.5 -92.5q-14 -44 -14 -90v-12z" />
<glyph unicode="f" horiz-adv-x="727" d="M27 872v168h192v131q0 44 5 77.5t24.5 72t53 64t94.5 42.5t145 17q81 0 159 -10v-168q-40 4 -96 4q-41 0 -69.5 -11t-41.5 -24t-20 -35.5t-7.5 -32.5t-0.5 -28v-99h235v-168h-235v-872h-246v872h-192z" />
<glyph unicode="g" horiz-adv-x="1310" d="M96 526q0 117 29 212t77.5 158t114 105.5t135.5 61t146 18.5q52 0 103 -9t119 -43t114 -91h4v102h225v-993q0 -213 -138.5 -327.5t-387.5 -114.5q-411 0 -455 295h226q16 -65 85.5 -94t153.5 -29q73 0 125.5 19.5t80 46.5t43 68t19 71.5t3.5 68.5v80q-23 -41 -63.5 -71.5 t-78 -44t-83 -21.5t-65 -9t-38.5 -1q-126 0 -223 44.5t-155 121t-87 172t-29 204.5zM358 524q0 -70 12 -127.5t30.5 -95t45.5 -66t52.5 -44t56 -25t52.5 -12t44 -2.5q55 0 104.5 22.5t90.5 67t65.5 119t24.5 169.5q0 103 -24 180t-65.5 120t-91 63t-106.5 20 q-137 0 -214 -103t-77 -286z" />
<glyph unicode="h" horiz-adv-x="1241" d="M147 0v1434h246v-531q51 86 147.5 132t194.5 46q73 0 131.5 -18t95.5 -44.5t63.5 -66t39.5 -72.5t20 -75.5t8 -63t1 -45.5v-696h-246v618q0 35 -0.5 56t-4.5 56.5t-11 57t-21.5 48t-34.5 41.5t-51.5 25.5t-71.5 10.5q-21 0 -43 -3.5t-54 -14t-59 -34t-51.5 -58 t-38.5 -91.5t-14 -130v-582h-246z" />
<glyph unicode="i" horiz-adv-x="540" d="M147 0v1040h246v-1040h-246zM147 1217v217h246v-217h-246z" />
<glyph unicode="j" horiz-adv-x="540" d="M-39 -211q104 3 145 38.5t41 131.5v1081h246v-1095q0 -61 -5 -104.5t-23 -89.5t-48.5 -74t-85.5 -46t-131 -18q-57 0 -139 8v168zM147 1217v217h246v-217h-246z" />
<glyph unicode="k" horiz-adv-x="1155" d="M147 0v1434h246v-850l434 456h291l-405 -405l450 -635h-286l-334 485l-150 -151v-334h-246z" />
<glyph unicode="l" horiz-adv-x="540" d="M147 0v1434h246v-1434h-246z" />
<glyph unicode="m" horiz-adv-x="1875" d="M147 0v1040h246v-129q44 82 136 126t188 44q112 0 182.5 -43t110.5 -145q57 90 154 139t216 49q90 0 156 -28.5t102.5 -70.5t57.5 -103.5t27 -112.5t6 -113v-653h-246v639q0 45 -3 78.5t-13.5 73t-29 64t-53 41.5t-81.5 17q-42 0 -83 -16.5t-77.5 -50t-59 -94 t-22.5 -140.5v-612h-246v639q0 45 -3 78.5t-13.5 73t-29 64t-53 41.5t-81.5 17q-42 0 -83 -16.5t-77.5 -50t-59 -94t-22.5 -140.5v-612h-246z" />
<glyph unicode="n" horiz-adv-x="1241" d="M147 0v1040h246v-137q51 86 147.5 132t194.5 46q73 0 131.5 -18t95.5 -44.5t63.5 -66t39.5 -72.5t20 -75.5t8 -63t1 -45.5v-696h-246v618q0 35 -0.5 56t-4.5 56.5t-11 57t-21.5 48t-34.5 41.5t-51.5 25.5t-71.5 10.5q-21 0 -43 -3.5t-54 -14t-59 -34t-51.5 -58 t-38.5 -91.5t-14 -130v-582h-246z" />
<glyph unicode="o" horiz-adv-x="1249" d="M88 520q0 47 6.5 95t23 104t42.5 106.5t68.5 98t96.5 81.5t131.5 55t168.5 21t168.5 -21t131.5 -55t96.5 -81.5t68 -98t42 -106.5t23 -104t6.5 -95t-6.5 -95t-23 -104t-42 -106.5t-68 -98t-96.5 -81.5t-131.5 -55t-168.5 -21t-168.5 21t-131.5 55t-96.5 81.5t-68.5 98 t-42.5 106.5t-23 104t-6.5 95zM350 520q0 -101 21 -177t50 -116t70 -64t71 -30t63 -6q26 0 51 5t58.5 17.5t61 40.5t51.5 69.5t38 108.5t14 152t-14 152t-38 108.5t-51.5 69.5t-61 40.5t-58.5 17.5t-51 5q-33 0 -63 -6t-71 -30t-70 -64t-50 -116t-21 -177z" />
<glyph unicode="p" horiz-adv-x="1302" d="M147 -379v1419h226v-102h4q63 78 153 110.5t183 32.5q75 0 144.5 -18.5t135 -61t114.5 -105.5t78 -158t29 -212q0 -51 -5.5 -101t-21 -107t-39 -107t-62.5 -97.5t-88.5 -81t-120.5 -53.5t-156 -20q-19 0 -38.5 1t-65 9t-83 21.5t-78 44t-63.5 71.5v-485h-246zM375 518 q0 -178 72.5 -284.5t203.5 -106.5q38 0 74.5 7.5t79 32.5t74 65.5t52.5 112.5t21 167q0 206 -82.5 303.5t-207.5 97.5q-37 0 -72 -8t-75.5 -34t-70 -67.5t-49.5 -115t-20 -170.5z" />
<glyph unicode="q" horiz-adv-x="1302" d="M88 526q0 117 29 212t77.5 158t114 105.5t135.5 61t146 18.5q52 0 103 -9t119 -43t114 -91h4v102h225v-1419h-246v485q-23 -41 -63.5 -71.5t-77.5 -44t-83 -21.5t-65 -9t-38 -1q-126 0 -223 46.5t-155 127t-87 180t-29 213.5zM350 512q0 -99 23 -173t55.5 -113t76 -63 t75 -30t63.5 -6q130 0 207.5 109t77.5 282q0 97 -20 170.5t-50 115t-70.5 67.5t-75.5 34t-71 8q-59 0 -109.5 -22t-92 -67.5t-65.5 -125t-24 -186.5z" />
<glyph unicode="r" horiz-adv-x="823" d="M147 0v1040h246v-190h4q25 62 68 106t94.5 65.5t98.5 30.5t96 9h41v-160h-19q-358 0 -381 -330q-2 -35 -2 -106v-465h-246z" />
<glyph unicode="s" horiz-adv-x="1105" d="M74 317h245q-1 -50 21 -88.5t59 -59.5t78.5 -31.5t85.5 -10.5q39 0 72.5 7t66.5 24t52.5 52t19.5 85q0 66 -43 97t-149 50q-18 3 -56 9.5t-57 9.5q-179 32 -259.5 99.5t-80.5 207.5q0 78 32 137.5t78 91.5t108.5 52t113 26t102.5 6q98 0 174.5 -16.5t126 -45t81.5 -69.5 t46 -86.5t15 -99.5h-232q-6 69 -60 109t-143 40q-188 0 -188 -129q0 -29 8.5 -52t27.5 -39.5t37.5 -27t52 -19.5t55.5 -13t63 -11q16 -3 24 -4q140 -23 196 -44q175 -64 184 -244q1 -10 1 -21q0 -74 -25.5 -133.5t-68.5 -99.5t-103 -66.5t-125.5 -38.5t-138.5 -12 q-112 0 -199.5 22.5t-141 58t-89 84.5t-50 95.5t-17.5 97.5z" />
<glyph unicode="t" horiz-adv-x="700" d="M29 872v168h168v312h245v-312h217v-168h-217v-587q0 -27 1 -41t7.5 -34t18.5 -29.5t35.5 -17t58.5 -7.5q55 0 96 12v-168q-95 -25 -200 -25q-73 0 -125.5 17.5t-78.5 40.5t-40 59t-16 58t-2 53v669h-168z" />
<glyph unicode="u" horiz-adv-x="1241" d="M147 344v696h246v-618q0 -33 0.5 -54.5t5 -55.5t11.5 -57t21.5 -49t34.5 -42t51.5 -26.5t70.5 -10.5q53 0 95.5 16.5t69 40t46 58.5t28.5 64t14.5 65t6 52.5t0.5 35.5v581h246v-1040h-246v137h-4q-49 -87 -144.5 -132.5t-201.5 -45.5q-70 0 -127 17.5t-92.5 44t-62 65.5 t-39.5 72.5t-20 75t-8.5 63.5t-1.5 47z" />
<glyph unicode="v" horiz-adv-x="1032" d="M-8 1040h262l262 -798l262 798h262l-381 -1040h-286z" />
<glyph unicode="w" horiz-adv-x="1579" d="M-8 1040h256l244 -761l184 761h229l182 -761l244 761h256l-362 -1040h-250l-184 760l-187 -760h-250z" />
<glyph unicode="x" horiz-adv-x="1067" d="M0 0l397 543l-372 497h268l242 -350l241 350h268l-374 -497l397 -543h-262l-270 387l-271 -387h-264z" />
<glyph unicode="y" horiz-adv-x="1107" d="M14 1040h295l314 -774l239 774h246l-397 -1130q-34 -97 -54 -133q-90 -164 -288 -164q-81 0 -154 12v168q50 -12 94 -12q68 0 102 38.5t62 133.5l14 49z" />
<glyph unicode="z" horiz-adv-x="1003" d="M53 0v168l576 704h-535v168h821v-168l-575 -704h610v-168h-897z" />
<glyph unicode="{" horiz-adv-x="749" d="M154 440v172q182 22 182 258q0 37 -4 90t-4 130q0 64 13.5 116t34 87t50.5 61.5t58.5 41t61 23.5t55.5 11.5t46 3.5v-136q-47 -21 -67 -66t-17.5 -97.5t6.5 -112.5q9 -88 9 -117q0 -284 -269 -377v-4q60 -20 106 -50.5t74.5 -61.5t47 -73.5t27 -76.5t10.5 -81.5t0.5 -76 t-5.5 -73.5q-4 -60 -6.5 -112.5t17.5 -98t67 -66.5v-135q-23 1 -46 3.5t-55.5 11.5t-61 23.5t-58.5 41t-50.5 61.5t-34 87t-13.5 116q0 77 4 129.5t4 89.5q0 236 -182 258z" />
<glyph unicode="|" horiz-adv-x="1019" d="M426 -459v2157h168v-2157h-168z" />
<glyph unicode="}" horiz-adv-x="749" d="M102 -246q47 21 67 66.5t17.5 98t-6.5 112.5q-8 78 -8 116q0 284 268 377v4q-60 20 -106 50.5t-74.5 61.5t-47 74t-27 76.5t-10.5 81.5t-0.5 76.5t5.5 73.5q4 60 6.5 112.5t-17.5 97.5t-67 66v136q34 -1 68 -6.5t82 -27t83.5 -56t61 -100.5t25.5 -154q0 -77 -4 -130 t-4 -90q0 -236 182 -258v-172q-182 -22 -182 -258q0 -37 4 -89.5t4 -129.5q0 -88 -25.5 -154t-61 -100.5t-83.5 -56t-82 -27t-68 -6.5v135z" />
<glyph unicode="~" horiz-adv-x="1257" d="M102 608q98 291 287 291q101 0 184 -47l211 -113q51 -26 103 -26q113 0 174 172l94 -39q-98 -291 -287 -291q-101 0 -184 47l-211 113q-47 26 -106 26q-113 0 -170 -172z" />
<glyph unicode="&#xa9;" horiz-adv-x="1638" d="M102 717q0 145 56 277.5t151.5 229t229 153.5t280.5 57q145 0 277.5 -56.5t229 -152.5t153.5 -229t57 -279t-57 -279t-153.5 -229t-229 -152.5t-277.5 -56.5q-147 0 -280.5 57t-229 153.5t-151.5 229t-56 277.5zM266 717q0 -154 73 -286t200.5 -210t279.5 -78 q147 0 274 76.5t202 209t75 288.5q0 117 -44.5 223.5t-118.5 183t-176 121.5t-212 45q-152 0 -279.5 -77.5t-200.5 -209.5t-73 -286zM479 719q0 90 21.5 160t55.5 111.5t80.5 68t90.5 36t92 9.5q75 0 131 -22.5t85.5 -59.5t44.5 -75t18 -79h-156q0 45 -33 77t-90 32 q-74 0 -117 -62.5t-43 -195.5q0 -240 170 -240q14 0 28 3t37.5 13.5t39.5 39.5t18 73h164q-3 -46 -19 -87.5t-48 -81.5t-89 -63.5t-133 -23.5q-169 0 -258.5 100.5t-89.5 266.5z" />
<glyph unicode="&#xab;" horiz-adv-x="946" d="M127 440v226l305 270v-217l-194 -166l194 -166v-217zM487 440v226l306 270v-217l-195 -166l195 -166v-217z" />
<glyph unicode="&#xad;" horiz-adv-x="860" d="M164 442v217h532v-217h-532z" />
<glyph unicode="&#xae;" horiz-adv-x="1638" d="M102 717q0 145 57 278t153 229t229 153t278 57q147 0 280 -57t228.5 -153t152 -228.5t56.5 -278.5t-56.5 -278.5t-152 -228.5t-228.5 -153t-280 -57q-145 0 -278 57t-229 153t-153 229t-57 278zM266 717q0 -116 44 -222t118 -183.5t176.5 -123t214.5 -45.5q151 0 278 77 t200 209t73 288q0 117 -43.5 223t-117 182.5t-175.5 122t-215 45.5q-150 0 -277.5 -77t-201.5 -209t-74 -287zM557 365v716h313q49 0 88.5 -9.5t64 -23.5t42.5 -35.5t26.5 -39t13 -41t5 -34.5t0.5 -26q0 -125 -121 -163v-4q26 -5 45.5 -18.5t29.5 -28.5t16.5 -39.5t8 -41 t3.5 -42.5q1 -24 2.5 -55.5l2 -42t3 -26.5t7 -25t13.5 -21h-168q-7 9 -11.5 17t-7 15.5t-4 21.5t-1.5 24.5t-0.5 37t-1.5 47.5t-3 33.5t-10.5 30t-24.5 27.5t-46.5 17t-73.5 7h-47v-278h-164zM721 770h123q55 0 77.5 26.5t22.5 65.5q0 92 -115 92h-108v-184z" />
<glyph unicode="&#xbb;" horiz-adv-x="946" d="M154 170v217l192 166l-192 166v217l305 -270v-226zM514 170v217l193 166l-193 166v217l305 -270v-226z" />
<glyph unicode="&#x2c6;" horiz-adv-x="1024" d="M102 1163l246 271h328l246 -271h-226l-184 183l-184 -183h-226z" />
<glyph unicode="&#x2dc;" horiz-adv-x="991" d="M102 1241q14 88 79 148.5t163 60.5q74 0 158 -41q14 -7 37.5 -18.5t34.5 -16.5t30 -9.5t39 -4.5q46 0 68 23t26 51h152q-17 -97 -85.5 -153t-156.5 -56q-70 0 -158 45q-3 2 -17.5 8.5t-18.5 8.5t-16.5 7.5t-18 7t-16 5t-18 5t-17.5 2.5t-19 1q-46 0 -68 -23t-26 -51h-152 z" />
<glyph unicode="&#x401;" horiz-adv-x="1308" d="M174 0v1434h1077v-217h-815v-373h727v-217h-727v-410h838v-217h-1100zM352 1581v180h262v-180h-262zM840 1581v180h262v-180h-262z" />
<glyph unicode="&#x402;" horiz-adv-x="1597" d="M25 1217v217h1163v-217h-471v-402q115 14 268 14q40 0 67.5 -1t73 -5t78.5 -11.5t75.5 -22.5t73 -36t61.5 -53t50.5 -72.5t32 -96.5t12.5 -123q0 -31 -3 -62t-14.5 -76t-30 -83.5t-53.5 -79t-80.5 -69.5t-115 -47t-153.5 -18q-79 0 -162 27v217q83 -27 139 -27 q96 0 144.5 55.5t48.5 153.5q0 43 -9 77.5t-22.5 56.5t-37 37.5t-44 23.5t-52.5 12.5t-53 5t-55 0.5q-113 0 -239 -14v-598h-262v1217h-430z" />
<glyph unicode="&#x403;" horiz-adv-x="1138" d="M174 0v1434h938v-217h-676v-1217h-262zM434 1528l144 270h266l-226 -270h-184z" />
<glyph unicode="&#x404;" horiz-adv-x="1536" d="M92 692q0 127 22.5 238.5t75.5 213.5t133.5 174.5t203.5 115.5t278 43q137 0 246 -30t175.5 -77t111.5 -110.5t63.5 -123.5t21.5 -124h-260q-14 110 -108.5 179t-257.5 69q-110 0 -193.5 -38.5t-130.5 -101.5t-71 -132.5t-27 -143.5h667v-217h-667q1 -58 13.5 -116 t43.5 -120t77 -109t121 -77.5t169 -30.5q90 0 161.5 23.5t116 64.5t70.5 87.5t37 99.5h260q-10 -65 -32.5 -126t-71.5 -130t-118 -119t-180.5 -83.5t-250.5 -33.5q-156 0 -283.5 46t-220.5 135.5t-144 230.5t-51 323z" />
<glyph unicode="&#x405;" horiz-adv-x="1400" d="M92 461h260q2 -37 12 -72t36 -75.5t65 -70t106.5 -49.5t153.5 -20q303 0 303 215q0 36 -10 65.5t-24 50t-39 38t-44 27t-50.5 19t-46.5 12.5t-44 9q-39 7 -168 35q-57 13 -98.5 24.5t-91 30t-83.5 39t-69 52t-55.5 68.5t-33.5 88t-13 112q0 83 26 150.5t64.5 110t95 74 t106 47t109.5 24.5t93 10.5t69 1.5q137 0 243 -34.5t170.5 -95t99.5 -133.5t42 -159h-260q-25 205 -301 205q-15 0 -28 -0.5t-43.5 -4.5t-54.5 -10.5t-53.5 -20.5t-49.5 -33.5t-34 -51t-14 -70.5q0 -35 11 -63t34.5 -47.5t48 -33t64.5 -24.5t69 -17t76 -15q11 -2 17 -3 q78 -14 135.5 -27t118.5 -32.5t103 -42.5t81 -56.5t62.5 -74.5t37 -95.5t13.5 -121.5q0 -459 -600 -459q-102 0 -188 16t-148 44t-110.5 67.5t-79.5 83t-51 95t-29 99t-11 99.5z" />
<glyph unicode="&#x406;" horiz-adv-x="610" d="M174 0v1434h262v-1434h-262z" />
<glyph unicode="&#x407;" horiz-adv-x="696" d="M41 1581v180h246v-180h-246zM217 0v1434h262v-1434h-262zM410 1581v180h245v-180h-245z" />
<glyph unicode="&#x408;" horiz-adv-x="1128" d="M47 418v80h262v-60q0 -70 15 -121t36 -77.5t52 -42.5t54.5 -19.5t51.5 -3.5q36 0 61.5 4.5t54 22t45.5 49t28.5 88.5t11.5 137v959h262v-926q0 -61 -2.5 -107t-13.5 -106.5t-29.5 -105t-53.5 -90.5t-83 -75.5t-120 -48t-163 -18.5q-110 0 -194.5 28t-135.5 72.5t-83 107 t-44 123.5t-12 130z" />
<glyph unicode="&#x409;" horiz-adv-x="2265" d="M27 0v217q32 -4 51 -4q43 0 78.5 14t62 35.5t47 58t34 71.5t23 87t14.5 92.5t7.5 100.5t3 99t0.5 99v564h981v-553h373q41 0 77.5 -2.5t89 -13.5t95.5 -29t88.5 -52t76.5 -80t51 -116t20 -156q0 -59 -12 -114t-46.5 -114.5t-88 -103t-144.5 -72t-209 -28.5h-633v1217 h-457v-424q0 -100 -4.5 -180.5t-18 -166t-35.5 -150t-59 -124t-86.5 -97.5t-120.5 -60.5t-159 -22.5q-56 0 -100 8zM1329 217h320q59 0 103.5 8.5t87.5 31t66 69.5t23 118q0 59 -19 101.5t-45.5 65t-67 35t-71.5 15.5t-71 3h-326v-447z" />
<glyph unicode="&#x40a;" horiz-adv-x="2273" d="M174 0v1434h262v-574h639v574h262v-553h373q41 0 77.5 -2.5t89 -13.5t95.5 -29t88.5 -52t76.5 -80t51 -116t20 -156q0 -59 -12 -114t-46.5 -114.5t-88 -103t-144.5 -72t-209 -28.5h-633v643h-639v-643h-262zM1337 217h320q59 0 103.5 8.5t87.5 31t66 69.5t23 118 q0 59 -19 101.5t-45.5 65t-67 35t-71.5 15.5t-71 3h-326v-447z" />
<glyph unicode="&#x40b;" horiz-adv-x="1642" d="M25 1217v217h1163v-217h-471v-402q187 14 293 14q100 0 180 -12.5t134.5 -33.5t95 -53t63 -64.5t36 -75t17.5 -78.5t4 -80v-432h-262v373q0 30 -0.5 45t-3 40.5t-8 38.5t-16.5 32.5t-26.5 29t-39.5 22t-55 18t-73.5 9.5t-94.5 4q-142 0 -244 -14v-598h-262v1217h-430z " />
<glyph unicode="&#x40c;" horiz-adv-x="1368" d="M174 0v1434h262v-646l576 646h311l-635 -662l688 -772h-332l-608 743v-743h-262zM518 1528l144 270h266l-226 -270h-184z" />
<glyph unicode="&#x40e;" horiz-adv-x="1275" d="M18 1434h322l367 -775l303 775h274l-481 -1155q-25 -61 -54.5 -108.5t-56.5 -79t-61 -53.5t-59.5 -33t-61 -17t-57.5 -7t-56 -1q-109 0 -186 22v227q77 -24 149 -24q79 0 130.5 36.5t74.5 135.5zM250 1798h209q3 -69 58.5 -109t135.5 -40t136 40t59 109h209 q-9 -40 -23 -75.5t-45 -77t-72.5 -71t-110 -49.5t-153.5 -20t-153 20t-110 49.5t-72.5 71t-44.5 77t-23 75.5z" />
<glyph unicode="&#x40f;" horiz-adv-x="1544" d="M184 0v1434h262v-1217h652v1217h262v-1434h-465v-379h-246v379h-465z" />
<glyph unicode="&#x410;" horiz-adv-x="1327" d="M-8 0l540 1434h263l540 -1434h-280l-105 301h-573l-105 -301h-280zM446 518h435l-217 637z" />
<glyph unicode="&#x411;" horiz-adv-x="1417" d="M174 0v1434h1067v-217h-805v-353h418q40 0 75.5 -2.5t86.5 -13t92.5 -28.5t85 -51t73.5 -78t49 -113.5t19 -153.5q0 -68 -14.5 -125.5t-36.5 -98.5t-56 -73.5t-66.5 -53t-74 -35.5t-72.5 -22t-69 -11t-55 -4.5t-39 -0.5h-678zM436 217h348q46 0 82.5 4.5t75 18.5 t64.5 37.5t42.5 64t16.5 94.5q0 56 -19 97t-45.5 62.5t-67 33.5t-71.5 15t-71 3h-355v-430z" />
<glyph unicode="&#x412;" horiz-adv-x="1464" d="M174 0v1434h676q105 0 185 -23t126.5 -58.5t75.5 -86t39 -97t10 -98.5q0 -118 -66 -203t-171 -104v-4q40 -7 77 -20.5t78.5 -41t71.5 -66t50 -98.5t20 -133q0 -75 -18.5 -136t-47.5 -102t-73 -71.5t-88.5 -47.5t-100 -27.5t-100.5 -13.5t-97 -3h-647zM436 217h359 q65 0 112 9t87 32t60.5 66t20.5 106q0 55 -19 95t-45 60.5t-67 32.5t-71.5 14.5t-71.5 2.5h-365v-418zM436 852h346q114 0 174 40t60 130q0 39 -11 70.5t-27 51.5t-39.5 34.5t-44.5 21.5t-47 11.5t-40 5t-31 0.5h-340v-365z" />
<glyph unicode="&#x413;" horiz-adv-x="1138" d="M174 0v1434h938v-217h-676v-1217h-262z" />
<glyph unicode="&#x414;" horiz-adv-x="1552" d="M0 217h123q248 319 248 907v310h958v-1217h197l-13 -541h-229v324h-1042v-324h-230zM434 217h633v1000h-434v-173q0 -258 -41.5 -447t-157.5 -380z" />
<glyph unicode="&#x415;" horiz-adv-x="1306" d="M174 0v1434h1075v-217h-813v-373h729v-217h-729v-410h836v-217h-1098z" />
<glyph unicode="&#x416;" horiz-adv-x="1978" d="M-8 0l633 770l-594 664h315l512 -607v607h262v-607l512 607h316l-594 -664l633 -770h-316l-551 686v-686h-262v686l-551 -686h-315z" />
<glyph unicode="&#x417;" horiz-adv-x="1427" d="M92 489h260q1 -41 8.5 -79t31.5 -83t62.5 -77t106.5 -54t158 -22q149 0 234 62.5t85 177.5q0 65 -21 110t-60.5 69.5t-88 35t-112.5 10.5h-197v217h170q252 0 252 188q0 101 -70.5 158.5t-220.5 57.5q-89 0 -153.5 -20.5t-99 -57t-50.5 -78t-18 -92.5h-260q2 109 36 192 t88.5 134t134 83t162.5 44t183 12q47 0 92 -3.5t100.5 -15t102.5 -29t93 -49t78 -73t52 -102t20 -134.5q0 -132 -69 -216.5t-170 -98.5v-4q127 -19 212 -112.5t85 -252.5q0 -39 -6.5 -77t-24.5 -81.5t-46 -81.5t-75.5 -73.5t-109 -61t-150 -40.5t-195.5 -15q-590 0 -610 532 z" />
<glyph unicode="&#x418;" horiz-adv-x="1548" d="M174 0v1434h262v-1049l682 1049h256v-1434h-262v1049l-682 -1049h-256z" />
<glyph unicode="&#x419;" horiz-adv-x="1548" d="M174 0v1434h262v-1049l682 1049h256v-1434h-262v1049l-682 -1049h-256zM344 1808h211q7 -79 68.5 -122.5t150.5 -43.5t150.5 43.5t68.5 122.5h211q-24 -139 -135.5 -226t-294.5 -87t-294.5 87t-135.5 226z" />
<glyph unicode="&#x41a;" horiz-adv-x="1368" d="M174 0v1434h262v-646l576 646h311l-635 -662l688 -772h-332l-608 743v-743h-262z" />
<glyph unicode="&#x41b;" horiz-adv-x="1503" d="M27 0v217q75 -13 132 7t90.5 75t55 112.5t30 149.5t11 153.5t2.5 155.5v564h981v-1434h-262v1217h-457v-424q0 -133 -7.5 -232t-41 -225t-92.5 -201.5t-172 -117.5t-270 -17z" />
<glyph unicode="&#x41c;" horiz-adv-x="1912" d="M174 0v1434h391l391 -1088l392 1088h391v-1434h-262v1079l4 56h-4l-422 -1135h-197l-422 1135h-4l4 -56v-1079h-262z" />
<glyph unicode="&#x41d;" horiz-adv-x="1511" d="M174 0v1434h262v-574h639v574h262v-1434h-262v643h-639v-643h-262z" />
<glyph unicode="&#x41e;" horiz-adv-x="1589" d="M92 717q0 120 20.5 221.5t53.5 174t81 131.5t96.5 96t107.5 64.5t105.5 41t100 21t81 9t57.5 1.5t57.5 -1.5t81 -9t99.5 -21t105.5 -41t107.5 -64.5t96.5 -96t81 -131.5t53 -174t20.5 -221.5t-20.5 -221.5t-53 -174t-81 -131.5t-96.5 -96t-107.5 -64.5t-105.5 -41 t-99.5 -21t-81 -9t-57.5 -1.5t-57.5 1.5t-81 9t-100 21t-105.5 41t-107.5 64.5t-96.5 96t-81 131.5t-53.5 174t-20.5 221.5zM373 717q0 -51 4.5 -100t17.5 -104t32.5 -102.5t53 -92t76 -76t104 -50t134.5 -18.5t134.5 18.5t104 50t76 76t53 92t32.5 102.5t17.5 104t4.5 100 t-4.5 100t-17.5 104t-32.5 102.5t-53 92t-76 76t-104 50t-134.5 18.5t-134.5 -18.5t-104 -50t-76 -76t-53 -92t-32.5 -102.5t-17.5 -104t-4.5 -100z" />
<glyph unicode="&#x41f;" horiz-adv-x="1507" d="M174 0v1434h1159v-1434h-262v1217h-635v-1217h-262z" />
<glyph unicode="&#x420;" horiz-adv-x="1368" d="M174 0v1434h571q56 0 102.5 -3t106 -14t106 -29.5t94 -52.5t79 -79.5t51 -113.5t19.5 -153q0 -101 -30 -182t-94 -145t-174.5 -99t-261.5 -35h-307v-528h-262zM436 745h305q44 0 77.5 3t76.5 17t70.5 37.5t47 68t19.5 106.5q0 65 -21.5 112t-50.5 71t-73 37.5t-74.5 16.5 t-69.5 3h-307v-472z" />
<glyph unicode="&#x421;" horiz-adv-x="1501" d="M92 692q0 172 38.5 308t103.5 224t155.5 146t189 82.5t209.5 24.5q102 0 188 -17.5t147 -46.5t109.5 -70.5t78.5 -86t50.5 -96t29.5 -96.5t12 -93h-260q-7 51 -25.5 96.5t-56.5 91.5t-108 73.5t-165 27.5q-93 0 -165.5 -30t-119 -80.5t-76 -123t-42 -152t-12.5 -172.5 q0 -247 122 -387.5t320 -140.5q86 0 153 27t107.5 73t62.5 100.5t25 114.5h260q-7 -73 -25 -139.5t-62.5 -141t-110 -127.5t-174.5 -88.5t-248 -35.5q-28 0 -54 1t-80 8.5t-100.5 20t-107.5 38.5t-110 62t-99 92.5t-83.5 127t-55 169.5t-21.5 216z" />
<glyph unicode="&#x422;" horiz-adv-x="1216" d="M27 1217v217h1163v-217h-451v-1217h-262v1217h-450z" />
<glyph unicode="&#x423;" horiz-adv-x="1275" d="M18 1434h322l367 -775l303 775h274l-481 -1155q-25 -61 -54.5 -108.5t-56.5 -79t-61 -53.5t-59.5 -33t-61 -17t-57.5 -7t-56 -1q-109 0 -186 22v227q77 -24 149 -24q79 0 130.5 36.5t74.5 135.5z" />
<glyph unicode="&#x424;" horiz-adv-x="1896" d="M86 731q0 53 7 104.5t26.5 111t51 111.5t84.5 101t121.5 83.5t167.5 55.5t218 21h55v227h262v-227h56q119 0 218 -21t167.5 -55.5t121.5 -83.5t84 -100.5t50.5 -111.5t26.5 -111.5t7 -104.5q0 -115 -31 -208.5t-78 -153t-114 -104t-127.5 -67t-131 -36t-112 -16.5 t-81.5 -3h-56v-204h-262v204h-55q-40 0 -82 3t-112 16.5t-131 36t-128 67t-114 104t-78 153t-31 208.5zM367 731q0 -48 5.5 -88.5t20.5 -87.5t46 -83t76.5 -66.5t118 -47t165.5 -16.5h18v778h-18q-93 0 -165.5 -16.5t-118 -47t-76.5 -66.5t-46 -83t-20.5 -87.5t-5.5 -88.5z M1079 342h19q93 0 165.5 16.5t118 47t76.5 66.5t46 83t20.5 87.5t5.5 88.5t-5.5 88.5t-20.5 87.5t-46 83t-76.5 66.5t-118 47t-165.5 16.5h-19v-778z" />
<glyph unicode="&#x425;" horiz-adv-x="1363" d="M0 0l518 733l-481 701h328l317 -519l317 519h328l-481 -701l518 -733h-338l-344 553l-344 -553h-338z" />
<glyph unicode="&#x426;" horiz-adv-x="1568" d="M174 0v1434h262v-1217h647v1217h263v-1217h196l-12 -541h-230v324h-1126z" />
<glyph unicode="&#x427;" horiz-adv-x="1378" d="M119 987v447h262v-387q0 -28 0.5 -45t3.5 -40.5t9 -38t16.5 -32.5t25.5 -29t37.5 -23t52 -18t69 -10t87.5 -4q120 0 260 14v613h262v-1434h-262v604q-187 -14 -293 -14q-98 0 -174 10t-145 37t-113.5 71t-71 114.5t-26.5 164.5z" />
<glyph unicode="&#x428;" horiz-adv-x="2097" d="M174 0v1434h262v-1217h482v1217h262v-1217h481v1217h262v-1434h-1749z" />
<glyph unicode="&#x429;" horiz-adv-x="2146" d="M174 0v1434h262v-1217h482v1217h262v-1217h481v1217h262v-1217h197l-13 -541h-229v324h-1704z" />
<glyph unicode="&#x42a;" horiz-adv-x="1523" d="M27 1217v217h561v-553h373q41 0 77.5 -2.5t89 -13.5t95.5 -29t88 -52t76 -80t51 -116t20 -156q0 -59 -12 -114t-46.5 -114.5t-88 -103t-144.5 -72t-209 -28.5h-632v1217h-299zM588 217h319q46 0 83 4.5t75.5 19t64 38.5t42 66t16.5 99q0 59 -19 101.5t-45.5 65t-67.5 35 t-72 15.5t-71 3h-325v-447z" />
<glyph unicode="&#x42b;" horiz-adv-x="1859" d="M174 0v1434h262v-553h373q41 0 77.5 -2.5t89 -13.5t95.5 -29t88.5 -52t76.5 -80t51 -116t20 -156q0 -59 -12 -114t-46.5 -114.5t-88 -103t-144.5 -72t-209 -28.5h-633zM436 217h320q59 0 103.5 8.5t87.5 31t66 69.5t23 118q0 59 -19 101.5t-45.5 65t-67 35t-71.5 15.5 t-71 3h-326v-447zM1423 0v1434h263v-1434h-263z" />
<glyph unicode="&#x42c;" horiz-adv-x="1372" d="M174 0v1434h262v-553h373q41 0 77.5 -2.5t89 -13.5t95.5 -29t88.5 -52t76.5 -80t51 -116t20 -156q0 -59 -12 -114t-46.5 -114.5t-88 -103t-144.5 -72t-209 -28.5h-633zM436 217h320q59 0 103.5 8.5t87.5 31t66 69.5t23 118q0 59 -19 101.5t-45.5 65t-67 35t-71.5 15.5 t-71 3h-326v-447z" />
<glyph unicode="&#x42d;" horiz-adv-x="1531" d="M92 489h260q5 -59 30 -113.5t70 -100.5t117.5 -73.5t163.5 -27.5q92 0 165.5 30t119.5 76.5t77.5 108.5t45 120.5t16.5 117.5h-627v217h627q-3 58 -17.5 113.5t-46.5 111.5t-78.5 97.5t-119 67.5t-160.5 26q-161 0 -253.5 -69t-108.5 -179h-260q6 65 24 124t62.5 123.5 t109.5 110.5t172.5 76.5t245.5 30.5q156 0 279 -43t203.5 -115.5t133 -174.5t75 -213.5t22.5 -238.5q0 -180 -52.5 -320.5t-148 -231t-227 -137t-291.5 -46.5q-136 0 -245 35.5t-176.5 90t-114 128t-67 141t-26.5 137.5z" />
<glyph unicode="&#x42e;" horiz-adv-x="2109" d="M174 0v1434h262v-574h185q7 82 29.5 161t74.5 163.5t127 147.5t194.5 104t268.5 41q30 0 57.5 -1.5t81 -9t99.5 -21t105.5 -41t107.5 -64.5t96.5 -96t81 -131.5t53 -174t20.5 -221.5t-20.5 -221.5t-53 -174t-81 -131.5t-96.5 -96t-107.5 -64.5t-105.5 -41t-99.5 -21 t-81 -9t-57.5 -1.5q-156 0 -279 44t-198 112.5t-126 162t-72 182.5t-26 185h-178v-643h-262zM893 717q0 -51 4.5 -100t17.5 -104t32.5 -102.5t53 -92t76 -76t104 -50t134.5 -18.5t134.5 18.5t104 50t76 76t53 92t32.5 102.5t17.5 104t4.5 100t-4.5 100t-17.5 104 t-32.5 102.5t-53 92t-76 76t-104 50t-134.5 18.5t-134.5 -18.5t-104 -50t-76 -76t-53 -92t-32.5 -102.5t-17.5 -104t-4.5 -100z" />
<glyph unicode="&#x42f;" horiz-adv-x="1474" d="M113 0l405 563q-46 6 -91 18.5t-100 43.5t-95 75t-67.5 118t-27.5 167q0 89 22 160t55 117t85 80t99 51t110 27t105 12t96 2h591v-1434h-262v535h-250l-344 -535h-331zM408 979q0 -227 307 -227h323v465h-342q-24 0 -39.5 -0.5t-48.5 -5t-56.5 -13t-52.5 -26t-47 -42 t-31 -63.5t-13 -88z" />
<glyph unicode="&#x430;" horiz-adv-x="1181" d="M76 276q0 61 21 112t49 81t65.5 53t60 31.5t43.5 13.5q36 10 72.5 16.5t93 13t76.5 9.5q17 2 50.5 7.5t49.5 7.5q71 10 87 18q34 18 36 84v10q0 180 -202 180q-125 0 -186 -57t-56 -137h-234q-2 74 25 137.5t82.5 114.5t150 80.5t218.5 29.5q87 0 157 -14.5t116 -36.5 t79.5 -55.5t51.5 -64.5t28.5 -70.5t13 -67t2.5 -59.5v-416q0 -81 14.5 -106t75.5 -21v-170q-92 -6 -108 -6q-179 0 -203 135q-121 -154 -346 -154q-102 0 -177.5 24t-113.5 56.5t-60.5 78.5t-27 77t-4.5 65zM330 285q0 -64 40 -103t122 -39q40 0 76.5 7t76.5 28t68.5 55 t47.5 93t19 137v37q-40 -27 -176 -43q-34 -5 -49 -7t-43.5 -6.5t-41.5 -8t-34.5 -10t-32 -13t-25 -15.5t-21.5 -20t-14.5 -24.5t-10 -30.5t-2.5 -37z" />
<glyph unicode="&#x431;" horiz-adv-x="1298" d="M117 578q0 388 78 571q63 146 190 209.5t377 87.5q75 6 106.5 20t40.5 47h201q-4 -50 -18 -89.5t-32.5 -66.5t-49 -48t-56.5 -33t-66.5 -20.5t-68 -12.5t-71.5 -8q-53 -5 -88.5 -10.5t-90 -19.5t-91.5 -32.5t-78.5 -52.5t-66 -78t-39 -109.5t-11.5 -146.5h4 q46 131 163 205t259 74q216 0 358.5 -149t142.5 -404q0 -85 -19 -163.5t-61.5 -150t-105 -124.5t-155 -84t-205.5 -31q-87 0 -161 17.5t-126.5 45.5t-94.5 70.5t-68.5 83t-46 93.5t-29 92.5t-14.5 88.5t-6 73.5t-1 54.5zM379 512q0 -83 14.5 -149t39.5 -106t53.5 -67.5 t63 -40.5t61 -17.5t53.5 -4.5q34 0 65.5 6t73.5 29.5t72 63t51.5 113.5t21.5 173t-21.5 173t-51.5 113.5t-72 63t-73.5 29.5t-65.5 6q-27 0 -53.5 -4.5t-61 -17.5t-63 -40.5t-53.5 -67.5t-39.5 -106t-14.5 -149z" />
<glyph unicode="&#x432;" horiz-adv-x="1175" d="M147 0v1040h562q338 0 338 -252q0 -56 -19 -101.5t-50 -73t-64 -43.5t-68 -23v-4q50 -10 90.5 -29t74.5 -50t53 -79.5t19 -110.5q0 -76 -30.5 -131t-85 -85.5t-119 -44t-143.5 -13.5h-558zM393 168h234q202 0 202 137q0 150 -211 150h-225v-287zM393 623h211 q105 0 148 39.5t43 91.5q0 118 -164 118h-238v-249z" />
<glyph unicode="&#x433;" horiz-adv-x="929" d="M147 0v1040h758v-168h-512v-872h-246z" />
<glyph unicode="&#x434;" horiz-adv-x="1310" d="M0 168h143q57 88 93.5 188t50.5 201t18 162.5t4 138.5v182h813v-872h181l-21 -438h-205v270h-852v-270h-205zM403 168h474v704h-338v-127q0 -176 -29.5 -294t-106.5 -283z" />
<glyph unicode="&#x435;" horiz-adv-x="1216" d="M88 502q0 270 134 424.5t396 154.5q93 0 169.5 -21t127 -54t89.5 -83.5t60 -97.5t35.5 -108t19 -104.5t7.5 -96.5q0 -10 1 -29.5t1 -29.5h-778q-1 -42 8 -85.5t30 -88t53 -79t83 -56t113 -21.5q89 0 160 46t82 128h233q-9 -46 -25.5 -88t-53.5 -90t-89 -83t-137 -58 t-191 -23q-23 0 -45.5 1t-62.5 7t-75.5 16t-79 30t-79.5 47t-71.5 68.5t-60 93.5t-39.5 124t-15 156zM350 625h518q-1 34 -5.5 66.5t-20.5 75t-41.5 73t-72 52t-107.5 21.5q-69 0 -123.5 -25.5t-86 -68t-47.5 -92.5t-14 -102z" />
<glyph unicode="&#x436;" horiz-adv-x="1548" d="M-8 0l454 549l-432 491h289l348 -456v456h246v-456l348 456h289l-432 -491l454 -549h-303l-356 496v-496h-246v496l-356 -496h-303z" />
<glyph unicode="&#x437;" horiz-adv-x="1126" d="M66 326h233q0 -32 10 -63t34.5 -63.5t76.5 -52.5t125 -20t123.5 16.5t74 44t32.5 53.5t9 56q0 145 -206 145h-140v168h113q102 0 143 43t41 105q0 66 -48.5 110.5t-151.5 44.5q-196 0 -205 -186h-234q2 50 12.5 94t41 93.5t78.5 84.5t130.5 58.5t190.5 23.5 q118 0 206.5 -26.5t138.5 -72t74.5 -100t24.5 -118.5q0 -96 -52 -152.5t-124 -68.5v-4q118 -23 169.5 -85.5t51.5 -148.5q0 -51 -11.5 -96t-45 -92.5t-86.5 -81t-143.5 -55t-208.5 -21.5q-116 0 -205 26.5t-138.5 65t-81 91.5t-41.5 96t-11 88z" />
<glyph unicode="&#x438;" horiz-adv-x="1298" d="M147 0v1040h246v-749l488 749h270v-1040h-246v750l-487 -750h-271z" />
<glyph unicode="&#x439;" horiz-adv-x="1298" d="M147 0v1040h246v-749l488 749h270v-1040h-246v750l-487 -750h-271zM246 1434h209q3 -70 58.5 -110t135.5 -40t136 40.5t59 109.5h209q-9 -40 -23 -75.5t-45 -77t-72.5 -71t-110 -49.5t-153.5 -20t-153 20t-110 49.5t-72.5 71t-44.5 77t-23 75.5z" />
<glyph unicode="&#x43a;" horiz-adv-x="1085" d="M147 0v1040h246v-434l395 434h283l-463 -485l486 -555h-283l-418 504v-504h-246z" />
<glyph unicode="&#x43b;" horiz-adv-x="1210" d="M27 0v168q163 -30 212 121q29 89 28 303q0 13 -1 39v69v340h797v-1040h-246v872h-321v-194q0 -137 -5 -221.5t-30.5 -196t-72.5 -168.5t-138.5 -87.5t-222.5 -4.5z" />
<glyph unicode="&#x43c;" horiz-adv-x="1593" d="M147 0v1040h336l314 -778l313 778h336v-1040h-246v713l4 55h-4l-315 -768h-176l-316 768h-4l4 -55v-713h-246z" />
<glyph unicode="&#x43d;" horiz-adv-x="1236" d="M147 0v1040h246v-409h451v409h246v-1040h-246v463h-451v-463h-246z" />
<glyph unicode="&#x43e;" horiz-adv-x="1249" d="M88 520q0 47 6.5 95t23 104t42.5 106.5t68.5 98t96.5 81.5t131.5 55t168.5 21t168.5 -21t131.5 -55t96.5 -81.5t68 -98t42 -106.5t23 -104t6.5 -95t-6.5 -95t-23 -104t-42 -106.5t-68 -98t-96.5 -81.5t-131.5 -55t-168.5 -21t-168.5 21t-131.5 55t-96.5 81.5t-68.5 98 t-42.5 106.5t-23 104t-6.5 95zM350 520q0 -101 21 -177t50 -116t70 -64t71 -30t63 -6q26 0 51 5t58.5 17.5t61 40.5t51.5 69.5t38 108.5t14 152t-14 152t-38 108.5t-51.5 69.5t-61 40.5t-58.5 17.5t-51 5q-33 0 -63 -6t-71 -30t-70 -64t-50 -116t-21 -177z" />
<glyph unicode="&#x43f;" horiz-adv-x="1253" d="M147 0v1040h959v-1040h-246v872h-467v-872h-246z" />
<glyph unicode="&#x440;" horiz-adv-x="1302" d="M147 -379v1419h226v-102h4q63 78 153 110.5t183 32.5q75 0 144.5 -18.5t135 -61t114.5 -105.5t78 -158t29 -212q0 -51 -5.5 -101t-21 -107t-39 -107t-62.5 -97.5t-88.5 -81t-120.5 -53.5t-156 -20q-19 0 -38.5 1t-65 9t-83 21.5t-78 44t-63.5 71.5v-485h-246zM375 518 q0 -178 72.5 -284.5t203.5 -106.5q38 0 74.5 7.5t79 32.5t74 65.5t52.5 112.5t21 167q0 206 -82.5 303.5t-207.5 97.5q-37 0 -72 -8t-75.5 -34t-70 -67.5t-49.5 -115t-20 -170.5z" />
<glyph unicode="&#x441;" horiz-adv-x="1175" d="M88 518q0 110 22 198.5t55.5 146t82.5 100t94 64.5t99.5 35t89 16t71.5 3q115 0 208 -32t152 -86.5t93 -122.5t43 -146h-234q-10 91 -72.5 155t-175.5 64q-74 0 -127 -31t-82.5 -87.5t-43 -124.5t-13.5 -152q0 -94 18.5 -165.5t46.5 -113.5t67 -68t74.5 -35t74.5 -9 q64 0 112.5 25.5t73.5 66.5t37 81t14 81h234q-5 -52 -20 -103t-51 -111t-87.5 -104t-138 -74t-195.5 -30q-257 0 -389.5 151t-132.5 408z" />
<glyph unicode="&#x442;" horiz-adv-x="1011" d="M27 872v168h958v-168h-356v-872h-246v872h-356z" />
<glyph unicode="&#x443;" horiz-adv-x="1107" d="M14 1040h295l314 -774l239 774h246l-397 -1130q-34 -97 -54 -133q-90 -164 -288 -164q-81 0 -154 12v168q50 -12 94 -12q68 0 102 38.5t62 133.5l14 49z" />
<glyph unicode="&#x444;" horiz-adv-x="1732" d="M88 520q0 98 23.5 179t62.5 137t94 98.5t113 67.5t124 40t123 19.5t115 3.5v369h246v-369q58 1 115 -3.5t123.5 -19.5t124.5 -40t113 -67.5t94 -98.5t62.5 -137t23.5 -179q0 -536 -656 -545v-354h-246v354q-69 1 -129.5 7t-129 22t-124 41.5t-107.5 68t-87.5 97.5 t-56.5 134t-21 175zM350 520q0 -86 21.5 -153t58 -109t88 -69t106.5 -37.5t119 -10.5v756q-393 0 -393 -377zM989 141q64 0 119 10.5t106.5 37.5t88 69t58 109t21.5 153q0 377 -393 377v-756z" />
<glyph unicode="&#x445;" horiz-adv-x="1067" d="M0 0l397 543l-372 497h268l242 -350l241 350h268l-374 -497l397 -543h-262l-270 387l-271 -387h-264z" />
<glyph unicode="&#x446;" horiz-adv-x="1294" d="M147 0v1040h246v-872h467v872h246v-872h180l-20 -438h-205v270h-914z" />
<glyph unicode="&#x447;" horiz-adv-x="1110" d="M90 707v333h246v-286q0 -28 0.5 -41.5t4.5 -36.5t12 -34t23.5 -25.5t38.5 -21.5t57.5 -12t80.5 -5q14 0 60.5 1.5t103.5 2.5v458h246v-1040h-246v414q-14 0 -102.5 -2t-131.5 -2q-106 0 -180.5 16t-115.5 40t-63.5 66t-28 79.5t-5.5 95.5z" />
<glyph unicode="&#x448;" horiz-adv-x="1810" d="M147 0v1040h246v-872h389v872h246v-872h389v872h246v-1040h-1516z" />
<glyph unicode="&#x449;" horiz-adv-x="1851" d="M147 0v1040h246v-872h389v872h246v-872h389v872h246v-872h180l-20 -438h-205v270h-1471z" />
<glyph unicode="&#x44a;" horiz-adv-x="1280" d="M29 872v168h526v-401h240q45 0 77 -1.5t80.5 -8t83 -19t73 -36.5t62.5 -57t40 -84.5t16 -115.5q0 -317 -375 -317h-543v872h-280zM555 168h238q78 0 129 37.5t51 118.5q0 147 -180 147h-238v-303z" />
<glyph unicode="&#x44b;" horiz-adv-x="1581" d="M147 0v1040h246v-401h240q45 0 77 -1.5t80.5 -8t83 -19t73 -36.5t62.5 -57t40 -84.5t16 -115.5q0 -317 -375 -317h-543zM393 168h238q78 0 129 37.5t51 118.5q0 147 -180 147h-238v-303zM1188 0v1040h246v-1040h-246z" />
<glyph unicode="&#x44c;" horiz-adv-x="1112" d="M147 0v1040h246v-401h240q45 0 77 -1.5t80.5 -8t83 -19t73 -36.5t62.5 -57t40 -84.5t16 -115.5q0 -317 -375 -317h-543zM393 168h238q78 0 129 37.5t51 118.5q0 147 -180 147h-238v-303z" />
<glyph unicode="&#x44d;" horiz-adv-x="1204" d="M76 352h233q3 -93 71 -159t183 -66q76 0 134.5 32.5t90.5 83.5t48 104t18 104h-403v167h403q-2 54 -19.5 105t-49.5 94.5t-85.5 69.5t-119.5 26q-109 0 -183 -52.5t-84 -145.5h-233q21 173 160.5 269.5t349.5 96.5q37 0 72 -3t90 -16t101.5 -35t97 -64.5t85 -100 t57.5 -146.5t23 -198q0 -31 -1.5 -59.5t-13 -88.5t-31 -109.5t-60.5 -108t-97 -99t-145.5 -67.5t-200.5 -27q-101 0 -183.5 24t-136.5 62.5t-92 91t-56 105.5t-23 110z" />
<glyph unicode="&#x44e;" horiz-adv-x="1695" d="M147 0v1040h246v-407h154q7 91 45.5 171.5t103.5 142.5t162 98t213 36q91 0 168.5 -21t131.5 -55t96.5 -81.5t68.5 -98t42.5 -106.5t23 -104t6.5 -95t-6.5 -95t-23 -104t-42.5 -106.5t-68.5 -98t-96.5 -81.5t-131.5 -55t-168.5 -21q-106 0 -195 29.5t-149 78.5 t-102 114.5t-62 137t-22 146.5h-148v-465h-246zM797 520q0 -85 14 -152t38 -108.5t51.5 -69.5t61 -40.5t58.5 -17.5t51 -5q33 0 63 6t71 30t70 64t50 116t21 177t-21 177t-50 116t-70 64t-71 30t-63 6q-26 0 -51 -5t-58.5 -17.5t-61 -40.5t-51.5 -69.5t-38 -108.5t-14 -152z " />
<glyph unicode="&#x44f;" horiz-adv-x="1181" d="M76 0l307 389q-36 3 -70 12.5t-74.5 32t-70.5 55t-50 86.5t-20 123q0 54 11 100.5t28 79t43 59t51 43t57 29t56 18t53 9t43 4t31 0.5h563v-1040h-246v387h-159l-283 -387h-270zM352 709q0 -80 51.5 -117t167.5 -37h217v317h-217q-114 0 -166.5 -36.5t-52.5 -126.5z" />
<glyph unicode="&#x451;" horiz-adv-x="1216" d="M88 502q0 270 134 424.5t396 154.5q252 0 379 -146.5t131 -477.5h-778q-1 -42 8 -85.5t30 -88t53 -79t83 -56t113 -21.5q89 0 160 46t82 128h233q-9 -46 -25.5 -88t-53.5 -90t-89 -83t-137 -58t-191 -23q-23 0 -45.5 1t-62.5 7t-75.5 16t-79 30t-79.5 47t-71.5 68.5 t-60 93.5t-39.5 124t-15 156zM324 1217v217h237v-217h-237zM350 625h518q-1 34 -5.5 66.5t-20.5 75t-41.5 73t-72 52t-107.5 21.5q-69 0 -123.5 -25.5t-86 -68t-47.5 -92.5t-14 -102zM713 1217v217h237v-217h-237z" />
<glyph unicode="&#x452;" horiz-adv-x="1273" d="M0 1169v140h164v125h246v-125h419v-140h-419v-266q51 87 147 132.5t195 45.5q97 0 168 -32.5t114 -87t69 -140t35 -178t9 -215.5q0 -138 -8.5 -242t-29.5 -198.5t-58 -159.5t-92.5 -113t-135 -71t-184.5 -23v178h29q150 0 194 194q25 106 23 351v80v42q0 79 -1 118.5 t-6.5 102.5t-19 94.5t-36.5 67t-61 50t-91 14.5q-21 0 -43 -3.5t-54 -14t-59 -34t-51.5 -58t-38.5 -91.5t-14 -130v-582h-246v1169h-164z" />
<glyph unicode="&#x453;" horiz-adv-x="931" d="M147 0v1040h758v-168h-512v-872h-246zM319 1163l144 271h266l-225 -271h-185z" />
<glyph unicode="&#x454;" horiz-adv-x="1204" d="M88 518q0 109 23.5 198t60 146.5t89 100t101 64.5t106 35t93.5 16t74 3q202 0 336.5 -96.5t152.5 -269.5h-233q-10 93 -83.5 145.5t-182.5 52.5q-66 0 -119.5 -26t-86 -69.5t-50 -94.5t-19.5 -105h404v-167h-404q2 -53 17 -105t46 -103.5t89 -83.5t135 -32q118 0 184 65 t74 160h233q-6 -76 -38 -143.5t-90.5 -125t-155 -91t-219.5 -33.5q-161 0 -280 59.5t-188 187t-69 312.5z" />
<glyph unicode="&#x455;" horiz-adv-x="1105" d="M74 317h245q-1 -50 21 -88.5t59 -59.5t78.5 -31.5t85.5 -10.5q39 0 72.5 7t66.5 24t52.5 52t19.5 85q0 66 -43 97t-149 50q-18 3 -56 9.5t-57 9.5q-179 32 -259.5 99.5t-80.5 207.5q0 78 32 137.5t78 91.5t108.5 52t113 26t102.5 6q98 0 174.5 -16.5t126 -45t81.5 -69.5 t46 -86.5t15 -99.5h-232q-6 69 -60 109t-143 40q-188 0 -188 -129q0 -29 8.5 -52t27.5 -39.5t37.5 -27t52 -19.5t55.5 -13t63 -11q16 -3 24 -4q140 -23 196 -44q175 -64 184 -244q1 -10 1 -21q0 -74 -25.5 -133.5t-68.5 -99.5t-103 -66.5t-125.5 -38.5t-138.5 -12 q-112 0 -199.5 22.5t-141 58t-89 84.5t-50 95.5t-17.5 97.5z" />
<glyph unicode="&#x456;" horiz-adv-x="540" d="M147 0v1040h246v-1040h-246zM147 1217v217h246v-217h-246z" />
<glyph unicode="&#x457;" horiz-adv-x="634" d="M41 1217v217h225v-217h-225zM195 0v1040h245v-1040h-245zM369 1217v217h225v-217h-225z" />
<glyph unicode="&#x458;" horiz-adv-x="540" d="M-39 -211q104 3 145 38.5t41 131.5v1081h246v-1095q0 -61 -5 -104.5t-23 -89.5t-48.5 -74t-85.5 -46t-131 -18q-57 0 -139 8v168zM147 1217v217h246v-217h-246z" />
<glyph unicode="&#x459;" horiz-adv-x="1781" d="M27 0v168q28 -4 41 -4q49 0 83.5 13t56 50t33.5 70t17.5 109t6.5 127t1 162v5v340h797v-401h256q40 0 69.5 -1.5t75.5 -8t80 -19t72 -36.5t62.5 -57t40.5 -84.5t16 -115.5q0 -317 -375 -317h-543v872h-321v-194q0 -100 -1.5 -156.5t-9 -140t-22.5 -131t-43.5 -103.5 t-70 -85.5t-104 -49.5t-143.5 -20q-25 0 -75 8zM1063 168h237q78 0 129.5 37.5t51.5 118.5q0 147 -181 147h-237v-303z" />
<glyph unicode="&#x45a;" horiz-adv-x="1808" d="M147 0v1040h246v-409h451v409h246v-401h256q40 0 69.5 -1.5t75.5 -8t80 -19t72 -36.5t62 -57t40 -84.5t16 -115.5q0 -317 -375 -317h-542v463h-451v-463h-246zM1090 168h237q77 0 128.5 38t51.5 118q0 147 -180 147h-237v-303z" />
<glyph unicode="&#x45b;" horiz-adv-x="1257" d="M0 1169v140h164v125h246v-125h419v-140h-419v-266q51 86 147.5 132t194.5 46q73 0 131.5 -18t95 -44t63.5 -66t39.5 -73t19.5 -75.5t8 -62.5t1 -46v-696h-246v618q0 36 -0.5 56.5t-4 56t-11 57t-21.5 48t-34 41.5t-51.5 25.5t-71.5 10.5q-21 0 -43 -3.5t-54 -14t-59 -34 t-51.5 -58t-38.5 -91.5t-14 -130v-582h-246v1169h-164z" />
<glyph unicode="&#x45c;" horiz-adv-x="1085" d="M147 0v1040h246v-434l395 434h283l-463 -485l486 -555h-283l-418 504v-504h-246zM377 1163l143 271h266l-225 -271h-184z" />
<glyph unicode="&#x45e;" horiz-adv-x="1107" d="M14 1040h295l314 -774l239 774h246l-397 -1130q-34 -97 -54 -133q-90 -164 -288 -164q-81 0 -154 12v168q50 -12 94 -12q68 0 102 38.5t62 133.5l14 49zM158 1434h209q3 -70 58.5 -110t135.5 -40t136 40.5t59 109.5h209q-9 -40 -23 -75.5t-45 -77t-72.5 -71t-110 -49.5 t-153.5 -20t-153 20t-110 49.5t-72.5 71t-44.5 77t-23 75.5z" />
<glyph unicode="&#x45f;" horiz-adv-x="1257" d="M147 0v1040h246v-872h471v872h246v-1040h-373v-379h-217v379h-373z" />
<glyph unicode="&#x490;" horiz-adv-x="1138" d="M174 0v1434h696v323h230l12 -540h-676v-1217h-262z" />
<glyph unicode="&#x491;" horiz-adv-x="929" d="M147 0v1040h533v271h205l20 -439h-512v-872h-246z" />
<glyph unicode="&#x2000;" horiz-adv-x="904" />
<glyph unicode="&#x2001;" horiz-adv-x="1808" />
<glyph unicode="&#x2002;" horiz-adv-x="904" />
<glyph unicode="&#x2003;" horiz-adv-x="1808" />
<glyph unicode="&#x2004;" horiz-adv-x="602" />
<glyph unicode="&#x2005;" horiz-adv-x="452" />
<glyph unicode="&#x2006;" horiz-adv-x="301" />
<glyph unicode="&#x2007;" horiz-adv-x="301" />
<glyph unicode="&#x2008;" horiz-adv-x="226" />
<glyph unicode="&#x2009;" horiz-adv-x="361" />
<glyph unicode="&#x200a;" horiz-adv-x="100" />
<glyph unicode="&#x2010;" horiz-adv-x="860" d="M164 442v217h532v-217h-532z" />
<glyph unicode="&#x2011;" horiz-adv-x="860" d="M164 442v217h532v-217h-532z" />
<glyph unicode="&#x2012;" horiz-adv-x="860" d="M164 442v217h532v-217h-532z" />
<glyph unicode="&#x2013;" d="M102 467v168h1024v-168h-1024z" />
<glyph unicode="&#x2014;" horiz-adv-x="2007" d="M102 467v168h1803v-168h-1803z" />
<glyph unicode="&#x2018;" horiz-adv-x="704" d="M217 879v284q0 83 23.5 145t64.5 96.5t85.5 52t96.5 22.5v-142q-61 -3 -99 -47t-38 -112v-23h137v-276h-270z" />
<glyph unicode="&#x2019;" horiz-adv-x="704" d="M217 834v141q60 3 98.5 47t38.5 113v22h-137v277h270v-285q0 -83 -23.5 -145t-64.5 -96t-85.5 -51.5t-96.5 -22.5z" />
<glyph unicode="&#x201a;" horiz-adv-x="704" d="M217 0v276h270v-284q0 -83 -23.5 -145t-64.5 -96.5t-85.5 -52t-96.5 -22.5v142q61 3 99 47t38 112v23h-137z" />
<glyph unicode="&#x201c;" horiz-adv-x="983" d="M158 879v284q0 83 23.5 145t64.5 96.5t85.5 52t96.5 22.5v-142q-61 -3 -99 -47t-38 -112v-23h137v-276h-270zM555 879v284q0 83 23.5 145t64.5 96.5t85.5 52t96.5 22.5v-142q-61 -3 -99 -47t-38 -112v-23h137v-276h-270z" />
<glyph unicode="&#x201d;" horiz-adv-x="983" d="M158 834v141q60 3 98.5 47t38.5 113v22h-137v277h270v-285q0 -83 -23.5 -145t-64.5 -96t-85.5 -51.5t-96.5 -22.5zM555 834v141q60 3 98.5 47t38.5 113v22h-137v277h270v-285q0 -83 -23.5 -145t-64.5 -96t-85.5 -51.5t-96.5 -22.5z" />
<glyph unicode="&#x201e;" horiz-adv-x="983" d="M158 0v276h270v-284q0 -83 -23.5 -145t-64.5 -96.5t-85.5 -52t-96.5 -22.5v142q61 3 99 47t38 112v23h-137zM555 0v276h270v-284q0 -83 -23.5 -145t-64.5 -96.5t-85.5 -52t-96.5 -22.5v142q61 3 99 47t38 112v23h-137z" />
<glyph unicode="&#x2022;" d="M379 717q0 100 67.5 167.5t167.5 67.5t168 -67.5t68 -167.5t-68 -168t-168 -68t-167.5 68t-67.5 168z" />
<glyph unicode="&#x2026;" horiz-adv-x="2113" d="M217 0v276h270v-276h-270zM922 0v276h270v-276h-270zM1626 0v276h270v-276h-270z" />
<glyph unicode="&#x202f;" horiz-adv-x="361" />
<glyph unicode="&#x205f;" horiz-adv-x="452" />
<glyph unicode="&#x20ac;" d="M41 463l70 196h86q-4 32 -4 68q0 25 4 57h-156l70 197h102q22 111 65.5 199.5t111.5 156.5t168 105t226 37q113 0 209 -26.5t142 -57.5v-258q-45 44 -127 74t-193 30q-294 0 -346 -260h594l-70 -197h-555q0 -6 -1 -24.5t-1 -32.5t1 -37.5t1 -30.5h508l-69 -196h-408 q25 -131 113 -200.5t235 -69.5q204 0 318 106v-262q-38 -29 -131.5 -53.5t-219.5 -24.5q-232 0 -379 125t-190 379h-174z" />
<glyph unicode="&#x2122;" horiz-adv-x="1992" d="M102 1290v144h664v-144h-231v-573h-201v573h-232zM924 717v717h270l190 -473l21 -72h4l21 72l190 473h270v-717h-200v442l4 92h-4l-211 -534h-144l-211 534h-4l4 -92v-442h-200z" />
<glyph unicode="&#x25fc;" horiz-adv-x="1044" d="M0 0v1044h1044v-1044h-1044z" />
</font>
</defs>
</svg>
